<svg xmlns="http://www.w3.org/2000/svg" xmlns:xlink="http://www.w3.org/1999/xlink" xmlns:inkscape="http://www.inkscape.org/namespaces/inkscape" version="1.1" width="374" height="168" viewBox="0 0 374 168">
<defs>
<path id="font_1_1" d="M.23098755 .35134889C.23599243 .37236024 .24598694 .41036988 .24598694 .41537477 .24598694 .43237306 .23399353 .4423828 .21699524 .4423828 .21398926 .4423828 .18598938 .44137574 .1769867 .40637208L.032989503-.17282105C.02999878-.18482971 .02999878-.18682862 .02999878-.18882752 .02999878-.2038269 .040985109-.21582031 .057998659-.21582031 .07899475-.21582031 .09098816-.1978302 .09298706-.19482422 .09700012-.18582154 .10998535-.13380432 .147995 .020248414 .17999268-.0067443849 .22499085-.0107421879 .24499512-.0107421879 .31498719-.0107421879 .35398866 .03425598 .37799073 .06227112 .3869934 .01725769 .42399598-.0107421879 .46798707-.0107421879 .5029907-.0107421879 .526001 .012252808 .5419922 .044265748 .5589905 .08027649 .57199099 .14129639 .57199099 .14329529 .57199099 .1532898 .5629883 .1532898 .55999758 .1532898 .5499878 .1532898 .548996 .14929199 .54599 .13528443 .5289917 .07026672 .5109863 .011245728 .46998597 .011245728 .44299317 .011245728 .43998719 .037261964 .43998719 .057266237 .43998719 .07926941 .45199586 .12628174 .45999146 .16130066L.48799134 .2693329C.4909973 .28433229 .5009918 .32234193 .5049896 .3373413 .5099945 .36035157 .519989 .3983612 .519989 .40437318 .519989 .42237855 .5059967 .43138124 .4909973 .43138124 .48599244 .43138124 .45999146 .43037416 .45199586 .3963623L.40499879 .20930481C.3929901 .15930176 .38198854 .11727905 .3789978 .107284549 .37799073 .10227966 .32998658 .011245728 .24899292 .011245728 .19898987 .011245728 .1749878 .044265748 .1749878 .09828186 .1749878 .12728882 .18199158 .1552887 .18899536 .18330384L.23098755 .35134889Z"/>
<path id="font_1_6" d="M.37298585 .37835694C.35499574 .41537477 .32598878 .4423828 .2809906 .4423828 .1639862 .4423828 .039993287 .29533387 .039993287 .14929199 .039993287 .055267335 .09498596-.0107421879 .17298889-.0107421879 .19299317-.0107421879 .24299622-.0067443849 .30299378 .06427002 .31098939 .022247315 .34599305-.0107421879 .3939972-.0107421879 .42900086-.0107421879 .45199586 .012252808 .46798707 .044265748 .4850006 .08027649 .49798585 .14129639 .49798585 .14329529 .49798585 .1532898 .4889984 .1532898 .48599244 .1532898 .47599793 .1532898 .47499085 .14929199 .47200013 .13528443 .45498658 .07026672 .43699647 .011245728 .3959961 .011245728 .36898805 .011245728 .3659973 .037261964 .3659973 .057266237 .3659973 .07926941 .36799623 .08728027 .3789978 .13128662 .3899994 .17329407 .3919983 .18330384 .40098573 .22131348L.43699647 .36135865C.44400025 .38935853 .44400025 .39135743 .44400025 .39537049 .44400025 .41236878 .43199159 .42237855 .4149933 .42237855 .3909912 .42237855 .37599183 .4003601 .37298585 .37835694M.30799867 .119277957C.30299378 .10127258 .30299378 .09927368 .28799439 .08227539 .24398804 .027252198 .20298767 .011245728 .1749878 .011245728 .125 .011245728 .11099243 .06626892 .11099243 .105285648 .11099243 .1552887 .14299011 .27833558 .1659851 .32434083 .19699097 .38336183 .24198914 .42037965 .28199769 .42037965 .34700013 .42037965 .36099244 .3383484 .36099244 .33235169 .36099244 .32633973 .35899354 .32034303 .35798646 .31533814L.30799867 .119277957Z"/>
<path id="font_1_3" d="M.30299378 .3157959H.47299195C.61499026 .3157959 .7539978 .41973878 .7539978 .53167727 .7539978 .6086273 .6879883 .6826172 .5569916 .6826172H.23298645C.21398926 .6826172 .20298767 .6826172 .20298767 .66360476 .20298767 .6516113 .21199036 .6516113 .23199463 .6516113 .24499512 .6516113 .2630005 .65060427 .2749939 .6496124 .29100038 .6476135 .29699708 .64460757 .29699708 .6336212 .29699708 .6296234 .29599 .62661746 .29299928 .614624L.15899658 .07795715C.14898682 .038986207 .14698792 .0309906 .067993167 .0309906 .050994874 .0309906 .039993287 .0309906 .039993287 .011993408 .039993287 0 .051986696 0 .054992677 0 .08299255 0 .1539917 .0029907227 .18199158 .0029907227 .20298767 .0029907227 .22499085 .0019989014 .24598694 .0019989014 .2679901 .0019989014 .2899933 0 .31098939 0 .31799317 0 .33099366 0 .33099366 .019989014 .33099366 .0309906 .32199098 .0309906 .30299378 .0309906 .2659912 .0309906 .23799134 .0309906 .23799134 .048980714 .23799134 .054977418 .23999024 .05996704 .24099732 .065963748L.30299378 .3157959M.375 .6136322C.38398744 .64860537 .38598634 .6516113 .42900086 .6516113H.5249939C.60798647 .6516113 .6609955 .62461856 .6609955 .55566409 .6609955 .5166931 .6409912 .43074037 .60198977 .39476014 .5519867 .34977723 .49198915 .34179688 .44799806 .34179688H.30699159L.375 .6136322Z"/>
<path id="font_2_1" d="M.33099366-.2400055C.33099366-.23701477 .33099366-.23500061 .31399537-.21800232 .18899536-.0920105 .15699768 .09700012 .15699768 .25 .15699768 .42399598 .19499207 .59799197 .31799317 .72299197 .33099366 .73498538 .33099366 .7369995 .33099366 .73999026 .33099366 .746994 .32699586 .75 .32099916 .75 .31098939 .75 .22099304 .6819916 .1619873 .5549927 .11099243 .44499208 .09899902 .33399964 .09899902 .25 .09899902 .17199707 .10998535 .050994874 .16499329-.06201172 .22499085-.18501282 .31098939-.25 .32099916-.25 .32699586-.25 .33099366-.24700928 .33099366-.2400055Z"/>
<path id="font_1_4" d="M.4850006 .41075135 .40098573 .6096344C.397995 .61763 .3959961 .6216278 .3959961 .6226196 .3959961 .62861636 .41299439 .6476135 .45498658 .6516113 .46499635 .65260317 .47499085 .6536102 .47499085 .6706085 .47499085 .6826172 .46299745 .6826172 .45999146 .6826172 .4189911 .6826172 .37599183 .6796112 .33399964 .6796112 .30899049 .6796112 .24699402 .6826172 .22200012 .6826172 .21598816 .6826172 .20399475 .6826172 .20399475 .6626129 .20399475 .6516113 .21398926 .6516113 .22698975 .6516113 .2869873 .6516113 .29299928 .6416168 .3019867 .6196289L.41999818 .34080506 .20899964 .11393738 .19599915 .10295105C.14698792 .049987794 .099990848 .033996583 .04899597 .0309906 .035995485 .02999878 .026992798 .02999878 .026992798 .010986328 .026992798 .009994507 .026992798 0 .039993287 0 .069992069 0 .102996829 .0029907227 .13398743 .0029907227 .17098999 .0029907227 .20999146 0 .24598694 0 .2519989 0 .2639923 0 .2639923 .019989014 .2639923 .02999878 .2539978 .0309906 .2519989 .0309906 .24299622 .03199768 .21199036 .033996583 .21199036 .061965944 .21199036 .07795715 .22698975 .093948367 .23899842 .10694885L.34098817 .21487427 .43099977 .31282044 .5319977 .07395935C.5359955 .06297302 .5369873 .061965944 .5369873 .05996704 .5369873 .051986696 .5179901 .034988405 .47898866 .0309906 .46798707 .02999878 .45899964 .0289917 .45899964 .011993408 .45899964 0 .46998597 0 .47399903 0 .5019989 0 .57199099 .0029907227 .59999087 .0029907227 .625 .0029907227 .6859894 0 .71099856 0 .71798709 0 .7299957 0 .7299957 .018997193 .7299957 .0309906 .7200012 .0309906 .71199038 .0309906 .644989 .03199768 .6429901 .034988405 .6259918 .07496643 .58699038 .16790772 .519989 .32380677 .49699403 .3837738 .5649872 .45373536 .66999819 .5726471 .70199587 .6006317 .73098757 .62461856 .7689972 .64860537 .82899478 .6516113 .84199526 .65260317 .8509979 .65260317 .8509979 .6716156 .8509979 .6726074 .8509979 .6826172 .83799746 .6826172 .80799868 .6826172 .7749939 .6796112 .74398806 .6796112 .70700076 .6796112 .6689911 .6826172 .6329956 .6826172 .6269989 .6826172 .6139984 .6826172 .6139984 .6626129 .6139984 .65560916 .61898806 .65260317 .6259918 .6516113 .6349945 .65060427 .66600039 .64860537 .66600039 .6206207 .66600039 .6066284 .6549988 .5936432 .6469879 .5846405L.4850006 .41075135Z"/>
<path id="font_1_2" d="M.6749878 .49804688C.68699648 .5040436 .69400027 .50904849 .69400027 .52005007 .69400027 .53105166 .68499758 .5400543 .673996 .5400543 .67099 .5400543 .6689911 .5400543 .6559906 .53305056L.101989749 .27198792C.09098816 .2669983 .08299255 .2619934 .08299255 .24998474 .08299255 .23799134 .09098816 .23298645 .101989749 .22798157L.6559906-.033065797C.6689911-.04006958 .67099-.04006958 .673996-.04006958 .68499758-.04006958 .69400027-.031066895 .69400027-.020065308 .69400027-.009063721 .68699648-.0040740969 .6749878 .0019378662L.1499939 .24998474 .6749878 .49804688Z"/>
<path id="font_2_2" d="M.2889862 .25C.2889862 .32798768 .27799989 .44898988 .22299195 .56199648 .16299439 .68499758 .07699585 .75 .066986087 .75 .06098938 .75 .056991579 .74598696 .056991579 .73999026 .056991579 .7369995 .056991579 .73498538 .07598877 .71699526 .17399597 .6179962 .23098755 .45899964 .23098755 .25 .23098755 .07899475 .19400025-.09700012 .069992069-.2230072 .056991579-.23500061 .056991579-.23701477 .056991579-.2400055 .056991579-.2460022 .06098938-.25 .066986087-.25 .07699585-.25 .16699219-.18200684 .22599793-.055007936 .2769928 .054992677 .2889862 .16600037 .2889862 .25Z"/>
<path id="font_1_7" d="M.33399964 .30233766C.33999635 .32835389 .36299134 .42037965 .43299867 .42037965 .43798829 .42037965 .46199037 .42037965 .48298646 .40734864 .45498658 .402359 .43499757 .37734986 .43499757 .35334779 .43499757 .33735658 .44599916 .31835938 .47299195 .31835938 .49499513 .31835938 .5269928 .3363495 .5269928 .37635804 .5269928 .42837525 .46798707 .4423828 .43399049 .4423828 .37599183 .4423828 .34098817 .38935853 .32899476 .36634828 .3039856 .43237306 .25 .4423828 .22099304 .4423828 .116989139 .4423828 .05999756 .3133545 .05999756 .28834535 .05999756 .27833558 .069992069 .27833558 .07199097 .27833558 .07998657 .27833558 .08299255 .28033448 .084991458 .28933717 .11898804 .39535523 .18499756 .42037965 .21899414 .42037965 .23799134 .42037965 .272995 .4113617 .272995 .35334779 .272995 .32235719 .2559967 .25532533 .21899414 .11528015 .20298767 .053268434 .16799927 .011245728 .12399292 .011245728 .117996219 .011245728 .09498596 .011245728 .07398987 .024276734 .09899902 .029266358 .12098694 .05027771 .12098694 .07827759 .12098694 .105270389 .09899902 .11328125 .083999637 .11328125 .053985597 .11328125 .0289917 .08728027 .0289917 .055267335 .0289917 .009246826 .07899475-.0107421879 .12298584-.0107421879 .18899536-.0107421879 .22499085 .059280397 .22799683 .0652771 .23999024 .028274537 .27598573-.0107421879 .33599855-.0107421879 .43899537-.0107421879 .49598695 .118270877 .49598695 .14328003 .49598695 .1532898 .4869995 .1532898 .48399354 .1532898 .47499085 .1532898 .47299195 .14929199 .47099305 .14228821 .43798829 .03527832 .36999513 .011245728 .33799745 .011245728 .29899598 .011245728 .2829895 .043273927 .2829895 .07727051 .2829895 .09927368 .2889862 .121276859 .2999878 .16529846L.33399964 .30233766Z"/>
<path id="font_3_5" d="M.5079956 .38276673C.5329895 .40675355 .59098818 .47071839 .61499026 .49569703 .625 .5056915 .6499939 .53167727 .6599884 .54267886 .7220001 .6056366 .7619934 .6456146 .84599307 .6516113 .8580017 .65260317 .86898806 .6536102 .86898806 .6696167 .86898806 .6736145 .8659973 .6826172 .8549957 .6826172 .848999 .6826172 .8149872 .680603 .8089905 .680603 .7999878 .6796112 .7769928 .6796112 .7609863 .6796112 .7429962 .6796112 .723999 .680603 .70599368 .680603 .6879883 .680603 .66799929 .6826172 .651001 .6826172 .644989 .6826172 .6319885 .6826172 .6319885 .6646118 .6319885 .65260317 .6439972 .6516113 .6459961 .6516113 .6539917 .65060427 .6839905 .64860537 .6839905 .6226196 .6839905 .6056366 .6609955 .5816498 .6599884 .5806427L.49598695 .40975953 .40699769 .6096344C.4019928 .6196289 .4019928 .6216278 .4019928 .6226196 .4019928 .6276245 .41799928 .64860537 .46099855 .6516113 .46598817 .6516113 .47799684 .65260317 .47799684 .6696167 .47799684 .6786041 .47099305 .6826172 .46299745 .6826172 .44299317 .6826172 .41999818 .680603 .3999939 .680603 .37998963 .680603 .3600006 .6796112 .33898927 .6796112 .30599977 .6796112 .3039856 .6796112 .27999879 .680603L.22499085 .6826172C.22099304 .6826172 .20599365 .6826172 .20599365 .6646118 .20599365 .6516113 .21798706 .6516113 .22999573 .6516113 .2889862 .6516113 .2939911 .64060977 .30299378 .6206207L.42199708 .35379029C.42199708 .35279847 .42799378 .34179688 .42799378 .34080506 .42799378 .33779908 .29899598 .20388794 .28399659 .18888855 .272995 .17790222 .24699402 .14892578 .23599243 .1379242 .1749878 .07696533 .13598633 .036987306 .051986696 .0309906 .039993287 .02999878 .0289917 .0289917 .0289917 .0129852299 .0289917 .0069885256 .032989503 0 .042999269 0 .04899597 0 .08299255 .0019989014 .08898926 .0019989014 .09799194 .0029907227 .12098694 .0029907227 .13699341 .0029907227 .15499878 .0029907227 .17399597 .0019989014 .19198609 .0019989014 .20999146 .0019989014 .22898865 0 .24598694 0 .25099183 0 .2659912 0 .2659912 .017990113 .2659912 .02999878 .2539978 .0309906 .2519989 .0309906 .24398804 .03199768 .21398926 .033996583 .21398926 .05996704 .21398926 .07595825 .22599793 .08895874 .25698854 .12193298L.33399964 .20088196 .3880005 .2568512C.4059906 .27583314 .43199159 .30282594 .43998719 .31282044L.5479889 .07296753C.5529938 .06297302 .5529938 .06097412 .5529938 .05996704 .5529938 .054977418 .5369873 .033996583 .49398805 .0309906 .4889984 .0309906 .47698976 .02999878 .47698976 .0129852299 .47698976 .0039978029 .48399354 0 .49198915 0 .5119934 0 .5349884 .0019989014 .5549927 .0019989014 .57499697 .0019989014 .59498599 .0029907227 .6159973 .0029907227 .6489868 .0029907227 .651001 .0029907227 .6749878 .0019989014L.7299957 0C.73399356 0 .7489929 0 .7489929 .017990113 .7489929 .0309906 .7369995 .0309906 .72499087 .0309906 .66600039 .0309906 .6609955 .041992189 .6519928 .061965944L.5079956 .38276673Z"/>
<path id="font_4_1" d="M.7409973 .33706666C.7409973 .36405946 .7319946 .37106324 .7259979 .37106324 .71299746 .37106324 .71199038 .34806825 .71099856 .33406068 .70700076 .26000978 .651001 .18792725 .56999209 .18792725 .5119934 .18792725 .46598817 .22195435 .4059906 .27601625 .34700013 .33106996 .29599 .3720703 .22799683 .3720703 .11898804 .3720703 .056991579 .26000978 .056991579 .16291809 .056991579 .13691712 .06498718 .12892151 .07199097 .12892151 .08299255 .12892151 .08699036 .1479187 .08699036 .15292359 .09298706 .27902223 .1789856 .3120575 .22799683 .3120575 .28599549 .3120575 .33198548 .2780304 .3919983 .2239685 .45098878 .1689148 .5019989 .12792969 .56999209 .12792969 .67900088 .12792969 .7409973 .23997498 .7409973 .33706666Z"/>
<path id="font_3_4" d="M.7719879 .574646C.7819977 .6156311 .8009949 .64860537 .8789978 .6516113 .8849945 .6516113 .8969879 .65260317 .8969879 .6696167 .8969879 .6776123 .8909912 .6826172 .8829956 .6826172 .86099246 .6826172 .8049927 .6796112 .7829895 .6796112 .7579956 .6796112 .7559967 .6796112 .7319946 .680603 .71598818 .680603 .69499209 .6826172 .6799927 .6826172 .6759949 .6826172 .6619873 .6826172 .6619873 .6646118 .6619873 .6516113 .673996 .6516113 .6799927 .6516113 .71798709 .65060427 .746994 .6416168 .746994 .6086273 .746994 .6036377 .74398806 .5896454 .74398806 .5886383L.6319885 .1439209 .40299989 .6626129C.3939972 .6816101 .3929901 .6826172 .36999513 .6826172H.23699951C.21798706 .6826172 .20698548 .6826172 .20698548 .6646118 .20698548 .6516113 .21699524 .6516113 .23699951 .6516113 .24198914 .6516113 .2789917 .6516113 .30299378 .6456146L.16799927 .10594177C.1559906 .05697632 .1309967 .033996583 .06098938 .0309906 .056991579 .0309906 .04399109 .02999878 .04399109 .0129852299 .04399109 .010986328 .04399109 0 .057998659 0 .069992069 0 .09498596 .0009918213 .10798645 .0019989014 .12399292 .0029907227 .12599182 .0029907227 .1579895 .0029907227 .18299866 .0029907227 .18499756 .0029907227 .20899964 .0019989014 .22499085 .0019989014 .24598694 0 .26098634 0 .2659912 0 .2789917 0 .2789917 .017990113 .2789917 .02999878 .2679901 .0309906 .25898744 .0309906 .21199036 .03199768 .19400025 .04698181 .19400025 .07395935 .19400025 .080963138 .19499207 .081954959 .19799805 .095947269L.32899476 .6226196 .5970001 .017990113C.60398867 .0019989014 .6049957 0 .61499026 0 .6279907 0 .6289978 .0039978029 .6329956 .020996094L.7719879 .574646Z"/>
<path id="font_5_1" d="M.34098817-.23803711C.34098817-.23303223 .33799745-.23002625 .33198548-.22303772 .20298767-.105026248 .1639862 .07498169 .1639862 .24996948 .1639862 .40498353 .19400025 .59298709 .33499146 .72698977 .33898927 .73098757 .34098817 .73399356 .34098817 .7389984 .34098817 .74598696 .33599855 .75 .32899476 .75 .31698609 .75 .22698975 .6779785 .17298889 .568985 .125 .47297669 .100997928 .36997987 .100997928 .25097657 .100997928 .17897034 .10998535 .064971927 .16499329-.053024293 .22399903-.17602539 .31698609-.24902344 .32899476-.24902344 .33599855-.24902344 .34098817-.24502564 .34098817-.23803711Z"/>
<path id="font_3_1" d="M.23699951 .35734559C.24198914 .37535096 .25099183 .4093628 .25099183 .41337586 .25099183 .42938233 .23799134 .4423828 .21998596 .4423828 .18798828 .4423828 .17999268 .41337586 .17799378 .4033661L.034988405-.16481018C.0309906-.17881775 .0309906-.18081665 .0309906-.18682862 .0309906-.2038269 .042999269-.21582031 .06199646-.21582031 .09399414-.21582031 .101989749-.18582154 .10499573-.17082215L.15299988 .019256592C.1789856-.0017547608 .21899414-.0107421879 .2519989-.0107421879 .28799439-.0107421879 .33599855 .00024414063 .3880005 .061264039 .3999939 .008255005 .44699098-.0107421879 .48098756-.0107421879 .5099945-.0107421879 .5349884 .002243042 .5569916 .044265748 .57499697 .07727051 .58898928 .13928223 .58898928 .14329529 .58898928 .14828491 .58599856 .1552887 .57598879 .1552887 .56399539 .1552887 .5629883 .15028382 .5589905 .13128662 .5369873 .044265748 .5149994 .014251709 .48399354 .014251709 .45899964 .014251709 .45298768 .038253786 .45298768 .060256959 .45298768 .07926941 .45799256 .09927368 .46699525 .1342926L.49198915 .23731995 .5149994 .32633973C.5209961 .35235597 .5329895 .3983612 .5329895 .40237428 .5329895 .41537477 .5239868 .43138124 .5019989 .43138124 .46998597 .43138124 .46299745 .40437318 .45599366 .37635804L.43499757 .29333497C.4249878 .25332643 .3959961 .13728333 .3889923 .11128235 .3880005 .107284549 .33898927 .014251709 .2559967 .014251709 .18099976 .014251709 .18099976 .08427429 .18099976 .10227966 .18099976 .12528992 .18399048 .14329529 .19499207 .18930054L.23699951 .35734559Z"/>
<path id="font_3_3" d="M.18199158 .015991211C.18199158-.017044068 .18199158-.09921265 .10798645-.17036438 .101989749-.17636109 .101989749-.17736817 .101989749-.18136597 .101989749-.18836975 .10899353-.19335938 .114990238-.19335938 .12599182-.19335938 .20698548-.115249637 .20698548 .0019989014 .20698548 .06399536 .18499756 .10798645 .14199829 .10798645 .10798645 .10798645 .08799744 .08198547 .08799744 .053985597 .08799744 .025985718 .10798645 0 .14199829 0 .15699768 0 .17199707 .004989624 .18199158 .015991211Z"/>
<path id="font_3_2" d="M.5319977 .36865235C.54499819 .36865235 .58200076 .36865235 .58200076 .4046631 .58200076 .43066407 .55999758 .43066407 .54100039 .43066407H.30599977C.15499878 .43066407 .038986207 .27381898 .038986207 .1490326 .038986207 .048187257 .10998535-.0107421879 .19499207-.0107421879 .31698609-.0107421879 .45199586 .11009216 .45199586 .26184083 .45199586 .32473756 .4249878 .36366273 .42199708 .36865235H.5319977M.19599915 .014251709C.15899658 .014251709 .10499573 .035217287 .10499573 .12207031 .10499573 .19094849 .14399719 .36865235 .2889862 .36865235 .33799745 .36865235 .38398744 .34669496 .38398744 .2728119 .38398744 .24786377 .37199403 .15701294 .32598878 .09312439 .29299928 .046203615 .24198914 .014251709 .19599915 .014251709Z"/>
<path id="font_5_2" d="M.2979889 .25097657C.2979889 .3329773 .28599549 .4429779 .23399353 .5539856 .1749878 .6769867 .08198547 .75 .069992069 .75 .05999756 .75 .057998659 .74198916 .057998659 .7389984 .057998659 .73399356 .05999756 .73098757 .066986087 .72398379 .125 .6719818 .23498535 .5359802 .23498535 .25097657 .23498535 .10797119 .20899964-.091033939 .06399536-.22602844 .06199646-.22903443 .057998659-.23303223 .057998659-.23803711 .057998659-.24102783 .05999756-.24902344 .069992069-.24902344 .08198547-.24902344 .17199707-.17703247 .22599793-.06802368 .27398683 .02796936 .2979889 .13098145 .2979889 .25097657Z"/>
<path id="font_2_3" d="M.45999146 .31976319C.45999146 .39982606 .45498658 .47988893 .41999818 .5539398 .37399293 .65000918 .2919922 .6660156 .25 .6660156 .18998719 .6660156 .116989139 .64001467 .07598877 .54693606 .04399109 .47789 .038986207 .39982606 .038986207 .31976319 .038986207 .24472046 .042999269 .15464783 .083999637 .07859802 .1269989-.0024719239 .19999695-.022460938 .24899292-.022460938 .30299378-.022460938 .3789978-.0014648438 .4229889 .09359741 .45498658 .16265869 .45999146 .2407074 .45999146 .31976319M.24899292-.00047302247C.20999146-.00047302247 .15098572 .024551392 .1329956 .12062073 .12199402 .18066406 .12199402 .2727356 .12199402 .3317871 .12199402 .39582826 .12199402 .46188355 .12998963 .5159149 .14898682 .63500979 .22399903 .64401248 .24899292 .64401248 .28199769 .64401248 .34799195 .6259918 .36698915 .52693179 .3769989 .47088624 .3769989 .39482118 .3769989 .3317871 .3769989 .25672914 .3769989 .18867493 .3659973 .12461853 .35099793 .029556275 .2939911-.00047302247 .24899292-.00047302247Z"/>
<path id="font_1_8" d="M.1329956 .08345032C.18699646 .14138794 .21598816 .16636658 .2519989 .19732666 .2519989 .19833374 .31399537 .25128175 .34999085 .2872467 .44499208 .3803711 .46699525 .42837525 .46699525 .43237306 .46699525 .4423828 .45799256 .4423828 .45599366 .4423828 .44898988 .4423828 .44599916 .44036866 .44099427 .43138124 .41099549 .38337709 .3899994 .3671875 .3659973 .3671875 .34199525 .3671875 .32998658 .38237 .31498719 .3993683 .29599 .42237855 .2789917 .4423828 .24598694 .4423828 .17098999 .4423828 .125 .34918214 .125 .3282013 .125 .3231964 .12799073 .31721498 .13699341 .31721498 .1459961 .31721498 .147995 .3222046 .1499939 .3282013 .16899109 .37434388 .22698975 .37538148 .23498535 .37538148 .2559967 .37538148 .2749939 .36820985 .2979889 .36018373 .33799745 .34518434 .34899903 .34518434 .375 .34518434 .33898927 .30223084 .25498963 .2303009 .23599243 .21430969L.1459961 .13040161C.07798767 .06341553 .042999269 .0062561037 .042999269-.00074768069 .042999269-.0107421879 .052993776-.0107421879 .054992677-.0107421879 .06298828-.0107421879 .06498718-.008743286 .070999149 .002243042 .09399414 .037246705 .12399292 .064453128 .1559906 .064453128 .1789856 .064453128 .18899536 .055252077 .21398926 .026245118 .23098755 .0052490236 .24899292-.0107421879 .27799989-.0107421879 .3769989-.0107421879 .43499757 .1164093 .43499757 .14338684 .43499757 .14837647 .43099977 .15338135 .4229889 .15338135 .4139862 .15338135 .4119873 .14738465 .40899659 .14039612 .38598634 .07543945 .32199098 .056243898 .2889862 .056243898 .2689972 .056243898 .25099183 .06239319 .22999573 .06944275 .19599915 .08244324 .18099976 .08644104 .1599884 .08644104 .1579895 .08644104 .14199829 .08644104 .1329956 .08345032Z"/>
<path id="font_1_5" d="M.7200012 .6586151C.72099307 .6626129 .72299197 .66760256 .72299197 .6736145 .72299197 .6826172 .71798709 .6826172 .69799807 .6826172H.27598573C.2519989 .6826172 .25099183 .6816101 .24499512 .6626129L.18998719 .4827118C.18798828 .47772218 .18699646 .47071839 .18699646 .46871949 .18699646 .46772767 .18699646 .45773316 .19898987 .45773316 .20799256 .45773316 .20999146 .46472169 .21199036 .46772767 .25 .5856476 .3019867 .6516113 .45799256 .6516113H.62098696L.06199646 .026992798C.06199646 .025985718 .057998659 .011993408 .057998659 .008987427 .057998659 0 .06498718 0 .08299255 0H.5179901C.5419922 0 .54299929 .0009918213 .548996 .019989014L.6199951 .24085999C.62098696 .24485779 .6239929 .25186158 .6239929 .25585938 .6239929 .260849 .6199951 .2668457 .61099246 .2668457 .60198977 .2668457 .6009979 .2628479 .59399417 .24186707 .5499878 .10594177 .5019989 .033996583 .33198548 .033996583H.16099549L.7200012 .6586151Z"/>
<path id="font_3_6" d="M.72499087 .6476135C.7319946 .65560916 .73799136 .66160586 .73799136 .6726074 .73799136 .6826172 .73098757 .6826172 .71199038 .6826172H.2789917C.2539978 .6826172 .25299073 .6816101 .24699402 .66160586L.19400025 .48971559C.19099427 .4807129 .18899536 .4747162 .18899536 .47071839 .18899536 .46272279 .19499207 .45773316 .20298767 .45773316 .20999146 .45773316 .21398926 .46173097 .21598816 .46772767 .2539978 .58065798 .30299378 .6516113 .46499635 .6516113H.6319885L.06399536 .026992798C.06298828 .022994996 .05999756 .01499939 .05999756 .010986328 .05999756 0 .06599426 0 .085998538 0H.5329895C.55799868 0 .5589905 .0009918213 .5649872 .019989014L.6349945 .23986817C.6349945 .24085999 .6389923 .2528534 .6389923 .25386048 .6389923 .25785829 .6369934 .2668457 .6259918 .2668457 .61499026 .2668457 .61299136 .26185609 .6069946 .24285889 .5649872 .11294556 .519989 .033996583 .34298707 .033996583H.16699219L.72499087 .6476135Z"/>
<path id="font_5_3" d="M.47299195 .31976319C.47299195 .38682557 .46998597 .47288514 .43499757 .5479431 .3909912 .64201357 .31498719 .6660156 .25698854 .6660156 .19699097 .6660156 .12098694 .64201357 .07699585 .5459442 .04499817 .47688294 .039993287 .39582826 .039993287 .31976319 .039993287 .25471498 .041992189 .15765381 .084991458 .07858276 .13198853-.0064697267 .20999146-.022460938 .2559967-.022460938 .32099916-.022460938 .394989 .0055389406 .43699647 .097595218 .46699525 .1646576 .47299195 .23971558 .47299195 .31976319M.25698854 .002532959C.22698975 .002532959 .15499878 .016540528 .13598633 .12962342 .12599182 .18867493 .12599182 .2747345 .12599182 .33177186 .12599182 .39982606 .12599182 .47888185 .13798523 .53393557 .1579895 .6230011 .22200012 .64100649 .2559967 .64100649 .2939911 .64100649 .35699464 .62098696 .37599183 .5279236 .3869934 .47288514 .3869934 .39482118 .3869934 .33177186 .3869934 .2697296 .3869934 .18566895 .3769989 .12661743 .35598756 .012542725 .28199769 .002532959 .25698854 .002532959Z"/>
<path id="font_5_4" d="M.3039856 .6392822C.3039856 .6642761 .30299378 .666275 .27799989 .666275 .21598816 .60227969 .12399292 .60227969 .09298706 .60227969V.57128909C.11199951 .57128909 .17298889 .57128909 .22698975 .5972748V.08001709C.22698975 .042999269 .22399903 .0309906 .1309967 .0309906H.09899902V0C.1349945 .0029907227 .22399903 .0029907227 .2649994 .0029907227 .30599977 .0029907227 .3959961 .0029907227 .43199159 0V.0309906H.3999939C.30699159 .0309906 .3039856 .042999269 .3039856 .08001709V.6392822Z"/>
</defs>
<path transform="matrix(1.00008,0,0,-1,3.295662,138.962)" stroke-width=".19925" stroke-linecap="butt" stroke-miterlimit="10" stroke-linejoin="miter" fill="none" stroke="#7f807f" d="M71.12701-2.12587V2.12587M93.14252-2.12587V2.12587"/>
<path transform="matrix(1.00008,0,0,-1,3.295662,138.962)" stroke-width=".19925" stroke-linecap="butt" stroke-miterlimit="10" stroke-linejoin="miter" fill="none" stroke="#7f807f" d=""/>
<path transform="matrix(1.00008,0,0,-1,3.295662,138.962)" stroke-width=".3985" stroke-linecap="butt" stroke-miterlimit="10" stroke-linejoin="miter" fill="none" stroke="#000000" d="M0 0H140.2615"/>
<path transform="matrix(1.00008,0,0,-1,143.56839,138.962)" d="M1.99252 0-1.19551 1.59401 0 0-1.19551-1.59401"/>
<path transform="matrix(1.00008,0,0,-1,3.295662,138.962)" stroke-width=".3985" stroke-linecap="butt" stroke-miterlimit="10" stroke-linejoin="miter" fill="none" stroke="#000000" d="M0 0V117.58623"/>
<path transform="matrix(0,-1,-1.00008,-0,3.295662,21.375779)" d="M1.99252 0-1.19551 1.59401 0 0-1.19551-1.59401"/>
<use data-text="&#x00b5;" xlink:href="#font_1_1" transform="matrix(9.963397,0,0,-9.9626,71.42611,148.897)"/>
<use data-text="a" xlink:href="#font_1_6" transform="matrix(9.963397,0,0,-9.9626,93.811908,148.897)"/>
<path transform="matrix(1.00008,0,0,-1,3.295662,138.962)" d="M0 .52266 .46803 .55972 .93608 .59918 1.40414 .64096 1.8722 .68552 2.34024 .73279 2.8083 .78296 3.27634 .83621 3.74438 .89262 4.21245 .95238 4.6805 1.01575 5.14856 1.08264 5.61661 1.15372 6.08466 1.22862 6.5527 1.30812 7.02075 1.39195 7.4888 1.48038 7.95686 1.57414 8.42491 1.67265 8.89297 1.77661 9.36102 1.88646 9.82906 2.00174 10.29712 2.12361 10.76517 2.25133 11.23322 2.38576 11.70128 2.52745 12.16933 2.67624 12.63736 2.8321 13.10542 2.99614 13.57347 3.16835 14.04153 3.34854 14.50958 3.53714 14.97763 3.7353 15.4457 3.94258 15.91373 4.1596 16.38177 4.38644 16.84984 4.62341 17.31789 4.87117 17.78595 5.12968 18.254 5.39964 18.72205 5.68121 19.1901 5.97478 19.65814 6.28064 20.12619 6.59917 20.59425 6.93077 21.0623 7.2757 21.53035 7.63445 21.99841 8.00714 22.46645 8.39424 22.93451 8.79614 23.40256 9.21323 23.8706 9.64555 24.33867 10.09341 24.80672 10.55597 25.27475 11.0398 25.74281 11.53229 26.21086 12.04509 26.67892 12.57524 27.14697 13.12665 27.61502 13.69641 28.08308 14.27583 28.55112 14.8842 29.01917 15.50323 29.48723 16.13962 29.95528 16.80594 30.42332 17.48192 30.89139 18.17723 31.35944 18.89185 31.82748 19.62769 32.29553 20.37997 32.76358 21.16313 33.23164 21.95404 33.69969 22.76619 34.16774 23.59668 34.63579 24.44746 35.10384 25.32529 35.5719 26.21371 36.03995 27.12148 36.508 28.05048 36.97606 28.99588 37.4441 29.96254 37.91214 30.94754 38.3802 31.95187 38.84825 32.96584 39.3163 34.00009 39.78436 35.05272 40.25241 36.12463 40.72047 37.21683 41.1885 38.3071 41.65656 39.42923 42.12462 40.5591 42.59267 41.6986 43.06071 42.85744 43.52878 44.01723 43.99681 45.20505 44.46487 46.39284 44.93292 47.5903 45.40097 48.79741 45.86903 50.01419 46.33708 51.2416 46.80513 52.468 47.27321 53.7041 47.74121 54.94019 48.20929 56.1782 48.6773 57.42397 49.14539 58.66971 49.61348 59.91544 50.08148 61.16216 50.54955 62.40887 51.01756 63.64496 51.48564 64.87042 51.95372 66.10745 52.42174 67.32423 52.88982 68.53232 53.35783 69.73943 53.8259 70.92725 54.29398 72.1054 54.762 73.27388 55.23007 74.42401 55.69807 75.55388 56.16617 76.67505 56.63423 77.77592 57.10223 78.8488 57.57033 79.91107 58.03833 80.94438 58.50642 81.95834 58.9745 82.94336 59.4425 83.8994 59.91058 84.82645 60.37859 85.7342 60.84666 86.61395 61.31476 87.45412 61.78276 88.26625 62.25085 89.04846 62.71886 89.79204 63.18692 90.50764 63.65501 91.18362 64.12302 91.82 64.5911 92.4284 65.05911 92.98851 65.52719 93.50998 65.99525 94.00345 66.46327 94.44765 66.93135 94.85422 67.39937 95.21056 67.86745 95.5389 68.33553 95.80928 68.80354 96.05072 69.2716 96.24384 69.73961 96.39835 70.2077 96.50458 70.67578 96.56349 71.1438 96.56929 71.61188 96.56349 72.07988 96.4959 72.54796 96.38966 73.01604 96.23515 73.48404 96.03139 73.95213 95.78996 74.42014 95.50992 74.88821 95.19124 75.3563 94.82428 75.8243 94.41966 76.29239 93.96385 76.76039 93.4723 77.22847 92.94987 77.69656 92.38011 78.16457 91.78139 78.63263 91.13533 79.10065 90.45837 79.56873 89.74377 80.03682 88.98956 80.50482 88.20831 80.9729 87.39618 81.44092 86.54636 81.90898 85.67627 82.37706 84.76852 82.84508 83.83179 83.31316 82.86707 83.78116 81.88109 84.24925 80.86713 84.71732 79.83286 85.18533 78.7706 85.65341 77.69965 86.12141 76.59682 86.58951 75.47758 87.05759 74.3371 87.52559 73.18697 87.99367 72.0291 88.46167 70.84032 88.92976 69.65253 89.39784 68.4454 89.86584 67.23734 90.33394 66.01091 90.80194 64.78351 91.27 63.55803 91.7381 62.31133 92.2061 61.07523 92.67418 59.82852 93.1422 58.5828V0H0Z" fill="#bfbfff"/>
<path transform="matrix(1.00008,0,0,-1,3.295662,138.962)" stroke-width=".79701" stroke-linecap="butt" stroke-miterlimit="10" stroke-linejoin="miter" fill="none" stroke="#000000" d="M0 .52266 .5952 .57018 1.1904 .6215 1.7856 .677 2.3808 .73691 2.97601 .80156 3.57123 .8712 4.16643 .94632 4.76163 1.02696 5.35684 1.11383 5.95206 1.20708 6.54726 1.30708 7.14246 1.41469 7.73766 1.5296 8.33287 1.65285 8.92807 1.78464 9.52328 1.92557 10.11848 2.07614 10.7137 2.23695 11.3089 2.40804 11.90411 2.59096 12.49931 2.78546 13.09451 2.99194 13.68973 3.21207 14.28493 3.4457 14.88013 3.69331 15.47534 3.95593 16.07056 4.23392 16.66576 4.52916 17.26096 4.84004 17.85617 5.16946 18.45139 5.51689 19.04659 5.8834 19.64178 6.26965 20.23698 6.67653 20.8322 7.10445 21.42741 7.55428 22.02261 8.02684 22.61781 8.52266 23.21301 9.04247 23.80824 9.58699 24.40344 10.15134 24.99864 10.74911 25.59384 11.37682 26.18904 12.02576 26.78426 12.70175 27.37947 13.40573 27.97467 14.13966 28.56987 14.90352 29.16508 15.70505 29.7603 16.5259 30.3555 17.3757 30.9507 18.26413 31.54591 19.18251 32.14111 20.12889 32.73633 21.11389 33.33153 22.11917 33.92673 23.16214 34.52194 24.2437 35.11714 25.34459 35.71236 26.48508 36.30756 27.65358 36.90277 28.85199 37.49797 30.07745 38.09317 31.33287 38.68839 32.6182 39.28358 33.93251 39.8788 35.27481 40.474 36.63646 41.0692 38.02704 41.66441 39.44855 42.25963 40.88744 42.85483 42.34467 43.45003 43.82315 44.04523 45.31995 44.64044 46.83803 45.23566 48.37347 45.83086 49.9186 46.42606 51.47336 47.02126 53.03778 47.61649 54.61378 48.21169 56.1869 48.80688 57.7716 49.40208 59.35535 49.9973 60.93909 50.59251 62.51413 51.18771 64.08821 51.78291 65.65358 52.37811 67.2074 52.97333 68.75346 53.56854 70.27155 54.16374 71.77704 54.75894 73.26518 55.35416 74.72241 55.94936 76.16225 56.54457 77.56348 57.13977 78.93573 57.73499 80.27805 58.33018 81.57208 58.92538 82.83713 59.5206 84.05391 60.11583 85.23302 60.711 86.3619 61.30623 87.44542 61.90138 88.46904 62.49661 89.4444 63.09187 90.36084 63.68703 91.23094 64.28226 92.03247 64.87741 92.77606 65.47266 93.453 66.0679 94.07008 66.66306 94.62149 67.25829 95.10432 67.85344 95.52924 68.44868 95.87689 69.04393 96.15694 69.63908 96.37036 70.23431 96.50458 70.82948 96.58284H71.42473L72.01996 96.50458 72.61511 96.37036 73.21034 96.15694 73.80551 95.87689 74.40074 95.52924 74.99599 95.10432 75.59114 94.62149 76.18639 94.07008 76.78154 93.453 77.37679 92.77606 77.97202 92.03247 78.56717 91.23094 79.16241 90.36084 79.75757 89.4444 80.3528 88.46904 80.94804 87.44542 81.54321 86.3619 82.13844 85.23302 82.7336 84.05391 83.32884 82.83713 83.92407 81.57208 84.51924 80.27805 85.11447 78.93573 85.70963 77.56348 86.30487 76.16225 86.90012 74.72241 87.49527 73.26518 88.0905 71.77704 88.68565 70.27155 89.28091 68.74477 89.87614 67.2074 90.4713 65.65358 91.06653 64.08821 91.66168 62.51413 92.25694 60.93909 92.85217 59.35535 93.44733 57.7716 94.04256 56.1869 94.63773 54.61378 95.23297 53.03778 95.8282 51.47336 96.42336 49.9186 97.01859 48.37347 97.61375 46.83803 98.209 45.31995 98.80423 43.82315 99.39938 42.34467 99.99463 40.88744 100.58978 39.44855 101.18503 38.02704 101.78026 36.63646 102.37543 35.27481 102.97066 33.93251 103.56581 32.6182 104.16106 31.33287 104.75629 30.07745 105.35146 28.85199 105.94669 27.65358 106.54184 26.48508 107.13708 25.34459 107.73233 24.2437 108.32748 23.16214 108.92271 22.11917 109.51787 21.11389 110.11311 20.12889 110.70836 19.18251 111.30351 18.26413 111.89874 17.3757 112.4939 16.5259 113.08916 15.70505 113.68439 14.90352 114.27954 14.13966 114.87477 13.40573 115.46994 12.70175 116.06519 12.02576 116.66042 11.36812 117.25557 10.74911 117.8508 10.15134 118.44597 9.58687 119.04121 9.04216 119.63644 8.52237 120.2316 8.02661 120.82684 7.55408 121.422 7.10435 122.01724 6.67636 122.61247 6.26958 123.20763 5.8833 123.80287 5.51674 124.39803 5.1693 124.99327 4.84004 125.5885 4.52866 126.18367 4.23433 126.7789 3.95593 127.37405 3.69331 127.9693 3.4457 128.56455 3.21207 129.1597 2.99194 129.75493 2.78546 130.35009 2.59096 130.94533 2.4083 131.54058 2.23695 132.13573 2.07614 132.73096 1.92557 133.32611 1.78464 133.92137 1.65285 134.5166 1.5296 135.11176 1.4144 135.70699 1.30708 136.30214 1.20708 136.8974 1.11383 137.49263 1.02696 138.08779 .94632 138.68302 .8712 139.27819 .80156 139.87343 .73691 140.46866 .67706 141.06381 .6215 141.65906 .57018 142.25421 .52266"/>
<path transform="matrix(1.00008,0,0,-1,3.295662,138.962)" stroke-width=".3985" stroke-linecap="butt" stroke-dasharray="2.98883,2.98883" stroke-miterlimit="10" stroke-linejoin="miter" fill="none" stroke="#000000" d="M71.12701 0V96.56929"/>
<path transform="matrix(1.00008,0,0,-1,3.295662,138.962)" stroke-width=".3985" stroke-linecap="butt" stroke-dasharray="2.98883,2.98883" stroke-miterlimit="10" stroke-linejoin="miter" fill="none" stroke="#000000" d="M93.14252 0V58.5828"/>
<use data-text="P" xlink:href="#font_1_3" transform="matrix(9.963397,0,0,-9.9626,15.60965,113.131008)"/>
<use data-text="(" xlink:href="#font_2_1" transform="matrix(9.963397,0,0,-9.9626,23.389275,113.131008)"/>
<use data-text="X" xlink:href="#font_1_4" transform="matrix(9.963397,0,0,-9.9626,27.264588,113.131008)"/>
<use data-text="&#x003c;" xlink:href="#font_1_2" transform="matrix(9.963397,0,0,-9.9626,39.06124,113.131008)"/>
<use data-text="a" xlink:href="#font_1_6" transform="matrix(9.963397,0,0,-9.9626,49.562669,113.131008)"/>
<use data-text=")" xlink:href="#font_2_2" transform="matrix(9.963397,0,0,-9.9626,54.85179,113.131008)"/>
<use data-text="x" xlink:href="#font_1_7" transform="matrix(9.963397,0,0,-9.9626,71.58112,161.964)"/>
<use data-text="X" xlink:href="#font_3_5" transform="matrix(8.967117,0,0,-8.9664,48.7543,7.6440126)"/>
<use data-text="&#x223c;" xlink:href="#font_4_1" transform="matrix(8.967117,0,0,-8.9664,59.62817,7.6440126)"/>
<use data-text="N" xlink:href="#font_3_4" transform="matrix(8.967117,0,0,-8.9664,69.35695,7.6440126)"/>
<use data-text="(" xlink:href="#font_5_1" transform="matrix(8.967117,0,0,-8.9664,77.69261,7.6440126)"/>
<use data-text="&#x00b5;" xlink:href="#font_3_1" transform="matrix(8.967117,0,0,-8.9664,81.2769,7.6440126)"/>
<use data-text="," xlink:href="#font_3_3" transform="matrix(8.967117,0,0,-8.9664,86.827548,7.6440126)"/>
<use data-text="&#x03c3;" xlink:href="#font_3_2" transform="matrix(8.967117,0,0,-8.9664,90.91655,7.6440126)"/>
<use data-text=")" xlink:href="#font_5_2" transform="matrix(8.967117,0,0,-8.9664,96.51712,7.6440126)"/>
<path transform="matrix(1.00008,0,0,-1,230.0888,138.962)" stroke-width=".19925" stroke-linecap="butt" stroke-miterlimit="10" stroke-linejoin="miter" fill="none" stroke="#7f807f" d="M71.12337-2.12595V2.12595M89.84004-2.12595V2.12595"/>
<path transform="matrix(1.00008,0,0,-1,230.0888,138.962)" stroke-width=".19925" stroke-linecap="butt" stroke-miterlimit="10" stroke-linejoin="miter" fill="none" stroke="#7f807f" d=""/>
<path transform="matrix(1.00008,0,0,-1,230.0888,138.962)" stroke-width=".3985" stroke-linecap="butt" stroke-miterlimit="10" stroke-linejoin="miter" fill="none" stroke="#000000" d="M0 0H140.25421"/>
<path transform="matrix(1.00008,0,0,-1,370.35426,138.962)" d="M1.99252 0-1.19551 1.59401 0 0-1.19551-1.59401"/>
<path transform="matrix(1.00008,0,0,-1,230.0888,138.962)" stroke-width=".3985" stroke-linecap="butt" stroke-miterlimit="10" stroke-linejoin="miter" fill="none" stroke="#000000" d="M0 0V117.58623"/>
<path transform="matrix(0,-1,-1.00008,-0,230.0888,21.375779)" d="M1.99252 0-1.19551 1.59401 0 0-1.19551-1.59401"/>
<use data-text="0" xlink:href="#font_2_3" transform="matrix(9.963397,0,0,-9.9626,298.7273,151.02802)"/>
<use data-text="z" xlink:href="#font_1_8" transform="matrix(9.963397,0,0,-9.9626,310.89228,152.08)"/>
<use data-text="(" xlink:href="#font_2_1" transform="matrix(9.963397,0,0,-9.9626,315.96369,152.08)"/>
<use data-text="a" xlink:href="#font_1_6" transform="matrix(9.963397,0,0,-9.9626,319.838,152.08)"/>
<use data-text=")" xlink:href="#font_2_2" transform="matrix(9.963397,0,0,-9.9626,325.10444,152.08)"/>
<path transform="matrix(1.00008,0,0,-1,230.0888,138.962)" d="M0 .07588 .45145 .08315 .9029 .09105 1.35435 .09964 1.8058 .109 2.25726 .11913 2.70871 .13016 3.16017 .14212 3.61163 .15509 4.06308 .16913 4.51454 .18434 4.96599 .20079 5.41745 .2186 5.8689 .23785 6.32037 .25864 6.77182 .28113 7.22327 .3053 7.67473 .33145 8.12617 .35956 8.57764 .38986 9.0291 .4225 9.48056 .45755 9.932 .49527 10.38345 .5357 10.83492 .57918 11.28636 .62578 11.73782 .67581 12.18929 .72925 12.64075 .78658 13.0922 .84789 13.54364 .91347 13.9951 .98355 14.44656 1.05835 14.89803 1.13823 15.34947 1.22343 15.80093 1.31421 16.25238 1.41092 16.70384 1.51385 17.15529 1.62335 17.60674 1.73979 18.05821 1.86348 18.50966 1.9948 18.96112 2.13414 19.41257 2.28188 19.86403 2.43839 20.31549 2.60416 20.76694 2.77954 21.2184 2.96507 21.66985 3.16109 22.1213 3.36818 22.57275 3.58667 23.02423 3.81718 23.47568 4.06009 23.92712 4.31593 24.37859 4.58525 24.83003 4.86858 25.2815 5.16637 25.73296 5.47913 26.18442 5.80759 26.63586 6.15201 27.08731 6.5131 27.53877 6.89145 27.99022 7.28748 28.44168 7.7018 28.89314 8.13503 29.3446 8.58755 29.79605 9.05984 30.24751 9.55269 30.69896 10.06657 31.1504 10.60133 31.60188 11.16138 32.05333 11.73074 32.50479 12.34367 32.95624 12.96701 33.4077 13.61934 33.85915 14.29451 34.31061 14.98936 34.76207 15.71637 35.21352 16.46307 35.66498 17.23988 36.11642 18.03848 36.56789 18.86815 37.01933 19.71964 37.4708 20.60117 37.92226 21.50345 38.3737 22.43686 38.82516 23.40242 39.27661 24.38766 39.72807 25.40404 40.17953 26.44218 40.63098 27.5104 41.08244 28.60976 41.53389 29.73087 41.98535 30.87169 42.4368 32.04259 42.88826 33.24669 43.33972 34.47046 43.79118 35.71603 44.24263 36.98131 44.69408 38.27771 45.14554 39.58447 45.59702 40.92337 46.04845 42.28096 46.49992 43.66135 46.95134 45.05212 47.40282 46.46259 47.8543 47.8938 48.30571 49.33643 48.75719 50.79771 49.20862 52.26212 49.6601 53.7452 50.11159 55.23862 50.56299 56.73311 51.01447 58.24728 51.4659 59.75111 51.91737 61.27669 52.36887 62.79088 52.82027 64.30505 53.27176 65.81926 53.72316 67.33446 54.17464 68.83932 54.62613 70.34209 55.07755 71.83658 55.52904 73.30927 55.98044 74.78299 56.43193 76.22458 56.8834 77.66615 57.33482 79.07767 57.78632 80.4788 58.23772 81.84676 58.68921 83.18672 59.14069 84.51422 59.5921 85.80023 60.04358 87.05515 60.49501 88.2893 60.94649 89.47162 61.39796 90.63316 61.84938 91.75327 62.30086 92.82147 62.75229 93.85963 63.20377 94.84592 63.65524 95.78865 64.10666 96.69095 64.55814 97.54242 65.00955 98.34203 65.46103 99.08875 65.91252 99.79295 66.36394 100.42558 66.81543 101.01778 67.26683 101.55708 67.7183 102.02377 68.1698 102.45003 68.62122 102.81198 69.07271 103.11275 69.52411 103.35231 69.9756 103.539 70.42708 103.66344 70.8785 103.72571H71.32997L71.78139 103.66344 72.23288 103.54832 72.68436 103.37202 73.13577 103.13348 73.58725 102.83273 74.03867 102.4801 74.49014 102.06526 74.94162 101.59856 75.39305 101.06963 75.84453 100.47847 76.29594 99.8448 76.74742 99.14995 77.19891 98.40321 77.65033 97.61499 78.1018 96.76353 78.55322 95.87267 79.0047 94.92787 79.45619 93.94156 79.9076 92.91483 80.35909 91.83725 80.8105 90.72652 81.26198 89.57635 81.71347 88.393 82.16487 87.16924 82.61636 85.90396 83.06778 84.6169 83.51927 83.29976 83.97075 81.96085 84.42216 80.59186 84.87364 79.2011 85.32504 77.78024 85.77655 76.35007 86.22801 74.89706 86.67944 73.43475 87.13092 71.96101 87.58234 70.46758 88.03381 68.96272 88.48529 67.45891 88.93672 65.95407 89.3882 64.43988 89.83961 62.91533V0H0Z" fill="#bfbfff"/>
<path transform="matrix(1.00008,0,0,-1,230.0888,138.962)" stroke-width=".79701" stroke-linecap="butt" stroke-miterlimit="10" stroke-linejoin="miter" fill="none" stroke="#000000" d="M0 .07588 .59517 .0856 1.19034 .09644 1.7855 .10855 2.38068 .12206 2.97586 .13712 3.57103 .15388 4.16621 .1725 4.76138 .19318 5.35657 .21613 5.95174 .24155 6.5469 .26974 7.14207 .30084 7.73727 .33517 8.33244 .37315 8.92761 .41496 9.52278 .46095 10.11795 .51152 10.71313 .56715 11.30832 .62817 11.90349 .69493 12.49866 .7681 13.09384 .84813 13.68901 .93553 14.28418 1.0309 14.87936 1.13484 15.47455 1.248 16.06972 1.37106 16.66489 1.50473 17.26006 1.64975 17.85526 1.80698 18.45042 1.97713 19.0456 2.16113 19.64076 2.35983 20.23593 2.57426 20.83112 2.80534 21.4263 3.05403 22.02147 3.32141 22.61664 3.60858 23.21182 3.91655 23.80699 4.24654 24.40216 4.59969 24.99733 4.9772 25.59253 5.38022 26.1877 5.80995 26.78287 6.26768 27.37804 6.75473 27.97322 7.27225 28.5684 7.82146 29.16357 8.4037 29.75874 9.02 30.35391 9.67188 30.9491 10.36029 31.54427 11.08879 32.13945 11.84485 32.73462 12.65482 33.3298 13.50526 33.92497 14.38783 34.52014 15.32019 35.11531 16.29716 35.71051 17.31247 36.30568 18.38072 36.90085 19.49147 37.49602 20.65303 38.0912 21.8561 38.68637 23.10164 39.28156 24.397 39.87672 25.74628 40.4719 27.13704 41.06708 28.5693 41.66225 30.05133 42.25742 31.57693 42.8526 33.14192 43.44778 34.76085 44.04295 36.42126 44.63812 38.11176 45.23329 39.84479 45.82848 41.61824 46.42366 43.42282 47.01883 45.25954 47.614 47.12634 48.20918 49.02426 48.80435 50.94395 49.39954 52.89372 49.9947 54.8549 50.58987 56.82645 51.18506 58.81668 51.78023 60.80896 52.3754 62.81161 52.97057 64.81325 53.56577 66.80553 54.16093 68.79782 54.7561 70.76833 55.35127 72.72849 55.94646 74.66891 56.54163 76.57721 57.13681 78.46577 57.73198 80.30147 58.32715 82.11641 58.92233 83.87018 59.5175 85.59178 60.11272 87.2522 60.70782 88.84933 61.30305 90.39465 61.89818 91.86734 62.49338 93.26743 63.0886 94.59598 63.68372 95.85089 64.27893 97.02386 64.87404 98.11179 65.46925 99.10948 66.06447 100.01076 66.65959 100.8197 67.2548 101.53633 67.84991 102.15862 68.44513 102.67818 69.04034 103.092 69.63547 103.40417 70.23067 103.6116 70.82579 103.71432H71.42102L72.01622 103.6116 72.61134 103.40417 73.20654 103.092 73.80168 102.67818 74.3969 102.15862 74.9921 101.53633 75.58722 100.8197 76.18243 100.01076 76.77756 99.10948 77.37276 98.11179 77.96797 97.02386 78.56308 95.85089 79.15831 94.59598 79.75343 93.26743 80.34863 91.86734 80.94385 90.39465 81.53897 88.84933 82.13419 87.2522 82.7293 85.59178 83.32451 83.87018 83.91972 82.11641 84.51485 80.30147 85.11006 78.46577 85.70517 76.57721 86.3004 74.66891 86.8956 72.72849 87.49072 70.76833 88.08592 68.79782 88.68105 66.80553 89.27628 64.81325 89.87148 62.81161 90.4666 60.80896 91.0618 58.81668 91.65694 56.82645 92.25215 54.8549 92.84735 52.88438 93.44247 50.94395 94.03769 49.02426 94.63281 47.12634 95.22801 45.25954 95.82323 43.42282 96.41837 41.61824 97.01357 39.84479 97.60869 38.11176 98.20389 36.42126 98.7991 34.76085 99.39423 33.14192 99.98944 31.57693 100.58455 30.05133 101.17976 28.5693 101.77498 27.13704 102.3701 25.74628 102.96532 24.397 103.56042 23.10164 104.15565 21.84674 104.75085 20.65303 105.34598 19.49147 105.94118 18.38072 106.5363 17.31247 107.13153 16.29716 107.72673 15.32019 108.32185 14.38783 108.91705 13.50526 109.51219 12.65482 110.1074 11.84485 110.7026 11.08879 111.29773 10.36029 111.89294 9.67172 112.48807 9.02 113.08327 8.40344 113.67848 7.82127 114.27362 7.27214 114.86882 6.75464 115.46394 6.26768 116.05914 5.80986 116.65436 5.38005 117.24948 4.97713 117.8447 4.59961 118.43982 4.24648 119.03502 3.91646 119.63023 3.60844 120.22536 3.3213 120.82057 3.05396 121.41568 2.80528 122.01091 2.5742 122.60611 2.3598 123.20123 2.16107 123.79643 1.97707 124.39157 1.80692 124.98679 1.6497 125.58199 1.5047 126.17711 1.37105 126.77231 1.24796 127.36745 1.13481 127.96266 1.03088 128.55786 .9355 129.15299 .84811 129.7482 .76808 130.34333 .69493 130.93852 .62817 131.53374 .56715 132.12888 .51152 132.72408 .46095 133.3192 .41496 133.9144 .37315 134.50962 .33517 135.10474 .30084 135.69995 .26968 136.29508 .24155 136.89028 .21613 137.4855 .19318 138.08061 .17247 138.67583 .15388 139.27094 .13712 139.86617 .12206 140.46137 .10855 141.05649 .09644 141.6517 .0856 142.24683 .07588"/>
<path transform="matrix(1.00008,0,0,-1,230.0888,138.962)" stroke-width=".3985" stroke-linecap="butt" stroke-dasharray="2.98883,2.98883" stroke-miterlimit="10" stroke-linejoin="miter" fill="none" stroke="#000000" d="M71.12337 0V103.71117"/>
<path transform="matrix(1.00008,0,0,-1,230.0888,138.962)" stroke-width=".3985" stroke-linecap="butt" stroke-dasharray="2.98883,2.98883" stroke-miterlimit="10" stroke-linejoin="miter" fill="none" stroke="#000000" d="M89.84004 0V62.91533"/>
<use data-text="P" xlink:href="#font_1_3" transform="matrix(9.963397,0,0,-9.9626,236.57334,112.858)"/>
<use data-text="(" xlink:href="#font_2_1" transform="matrix(9.963397,0,0,-9.9626,244.35295,112.858)"/>
<use data-text="Z" xlink:href="#font_1_5" transform="matrix(9.963397,0,0,-9.9626,248.22827,112.858)"/>
<use data-text="&#x003c;" xlink:href="#font_1_2" transform="matrix(9.963397,0,0,-9.9626,258.50053,112.858)"/>
<use data-text="z" xlink:href="#font_1_8" transform="matrix(9.963397,0,0,-9.9626,269.0119,112.858)"/>
<use data-text="(" xlink:href="#font_2_1" transform="matrix(9.963397,0,0,-9.9626,274.09834,112.858)"/>
<use data-text="a" xlink:href="#font_1_6" transform="matrix(9.963397,0,0,-9.9626,277.97267,112.858)"/>
<use data-text=")" xlink:href="#font_2_2" transform="matrix(9.963397,0,0,-9.9626,283.24006,112.858)"/>
<use data-text=")" xlink:href="#font_2_2" transform="matrix(9.963397,0,0,-9.9626,287.1059,112.858)"/>
<use data-text="z" xlink:href="#font_1_8" transform="matrix(9.963397,0,0,-9.9626,298.68229,165.70001)"/>
<use data-text="Z" xlink:href="#font_3_6" transform="matrix(8.967117,0,0,-8.9664,277.21159,7.6440126)"/>
<use data-text="&#x223c;" xlink:href="#font_4_1" transform="matrix(8.967117,0,0,-8.9664,286.67936,7.6440126)"/>
<use data-text="N" xlink:href="#font_3_4" transform="matrix(8.967117,0,0,-8.9664,296.40715,7.6440126)"/>
<use data-text="(" xlink:href="#font_5_1" transform="matrix(8.967117,0,0,-8.9664,304.74378,7.6440126)"/>
<use data-text="0" xlink:href="#font_5_3" transform="matrix(8.967117,0,0,-8.9664,308.32167,7.6440126)"/>
<use data-text="," xlink:href="#font_3_3" transform="matrix(8.967117,0,0,-8.9664,312.93547,7.6440126)"/>
<use data-text="1" xlink:href="#font_5_4" transform="matrix(8.967117,0,0,-8.9664,317.03178,7.6440126)"/>
<use data-text=")" xlink:href="#font_5_2" transform="matrix(8.967117,0,0,-8.9664,321.6319,7.6440126)"/>
</svg>
