<svg xmlns="http://www.w3.org/2000/svg" xmlns:xlink="http://www.w3.org/1999/xlink" xmlns:inkscape="http://www.inkscape.org/namespaces/inkscape" version="1.1" width="251" height="215" viewBox="0 0 251 215">
<defs>
<path id="font_1_111" d="M.7299957 .6516113V.6826172C.69898989 .680603 .6589966 .6796112 .6329956 .6796112L.5189972 .6826172V.6516113C.57099917 .6506195 .59199526 .6246033 .59199526 .6016083 .59199526 .5936127 .58898928 .5876007 .58699038 .581604L.4039917 .09954834 .21299744 .60461428C.20698548 .61860659 .20698548 .62260439 .20698548 .62260439 .20698548 .6516113 .2639923 .6516113 .2889862 .6516113V.6826172C.25299073 .6796112 .18399048 .6796112 .1459961 .6796112L.018997193 .6826172V.6516113C.083999637 .6516113 .102996829 .6516113 .116989139 .6136017L.34899903-.00047302247C.35598756-.019470215 .36099244-.022460938 .37399293-.022460938 .3909912-.022460938 .3929901-.017471314 .397995-.0034637452L.62098696 .58461C.6349945 .62161257 .6619873 .6506195 .7299957 .6516113Z"/>
<path id="font_1_28" d="M.48298646 .08912659V.14511109H.45799256V.08912659C.45799256 .03112793 .43299867 .025131226 .42199708 .025131226 .3889923 .025131226 .3849945 .070129398 .3849945 .07511902V.27508546C.3849945 .31707765 .3849945 .3560791 .34899903 .39312745 .30999757 .43223573 .2599945 .4482422 .21199036 .4482422 .12998963 .4482422 .06098938 .40115357 .06098938 .335083 .06098938 .30508424 .08099365 .28808595 .10699463 .28808595 .1349945 .28808595 .15299988 .30807496 .15299988 .33407594 .15299988 .3460846 .147995 .37908937 .101989749 .38008119 .1289978 .41519166 .17799378 .426239 .20999146 .426239 .25898744 .426239 .31599427 .38710023 .31599427 .29808045V.26107789C.2649994 .25808717 .19499207 .25508119 .13198853 .22509766 .056991579 .19110108 .03199768 .13911438 .03199768 .09512329 .03199768 .014251709 .1289978-.0107421879 .19198609-.0107421879 .2579956-.0107421879 .3039856 .029251099 .32299806 .07624817 .32699586 .036132814 .35398866-.005859375 .40098573-.005859375 .42199708-.005859375 .48298646 .008132935 .48298646 .08912659M.31599427 .14013672C.31599427 .04525757 .24398804 .011245728 .19898987 .011245728 .1499939 .011245728 .10899353 .04624939 .10899353 .09625244 .10899353 .15124512 .15098572 .23425293 .31599427 .24024964V.14013672Z"/>
<path id="font_1_72" d="M.25498963 0V.0309906C.18798828 .0309906 .1769867 .0309906 .1769867 .07601929V.69433596L.032989503 .6826172V.6516113C.102996829 .6516113 .11099243 .64460757 .11099243 .5956421V.07595825C.11099243 .0309906 .099990848 .0309906 .032989503 .0309906V0L.14399719 .0029907227 .25498963 0Z"/>
<path id="font_1_109" d="M.5349884 0V.0309906C.46499635 .0309906 .45700074 .037994386 .45700074 .08705139V.4423828L.30999757 .43066407V.3996582C.37998963 .3996582 .3880005 .39266969 .3880005 .34373475V.16601563C.3880005 .07910156 .33999635 .011245728 .2669983 .011245728 .18299866 .011245728 .1789856 .058135988 .1789856 .11009216V.4423828L.03199768 .43066407V.3996582C.10998535 .3996582 .10998535 .39666749 .10998535 .3078003V.15802002C.10998535 .080093387 .10998535-.0107421879 .2619934-.0107421879 .31799317-.0107421879 .3619995 .017242432 .3909912 .07910156V-.0107421879L.5349884 0Z"/>
<path id="font_1_50" d="M.4149933 .11933899C.4149933 .12934876 .40699769 .13134766 .4019928 .13134766 .3929901 .13134766 .3909912 .12535095 .3889923 .11734009 .35398866 .014251709 .2639923 .014251709 .2539978 .014251709 .20399475 .014251709 .1639862 .044281007 .14099121 .08131409 .11099243 .12934876 .11099243 .19540406 .11099243 .23144531H.3899994C.4119873 .23144531 .4149933 .23144531 .4149933 .2524414 .4149933 .35131837 .36099244 .4482422 .23599243 .4482422 .11999512 .4482422 .027999878 .34532167 .027999878 .22042847 .027999878 .08631897 .1329956-.0107421879 .24798584-.0107421879 .36999513-.0107421879 .4149933 .10032654 .4149933 .11933899M.34899903 .2524414H.11199951C.117996219 .40126039 .20199585 .426239 .23599243 .426239 .33898927 .426239 .34899903 .2913971 .34899903 .2524414Z"/>
<path id="font_1_54" d="M.6100006 .45477296 .58200076 .6796875H.032989503V.64868167H.056991579C.13398743 .64868167 .13598633 .63768008 .13598633 .6016998V.07797241C.13598633 .041992189 .13398743 .0309906 .056991579 .0309906H.032989503V0C.067993167 .0029907227 .1459961 .0029907227 .18499756 .0029907227 .22599793 .0029907227 .31698609 .0029907227 .35299684 0V.0309906H.31999208C.22499085 .031188965 .22499085 .044189454 .22499085 .079193118V.3251953H.31098939C.40699769 .3251953 .4169922 .29318238 .4169922 .20819092H.44198609V.4731903H.4169922C.4169922 .38919068 .40699769 .3561859 .31098939 .3561859H.22499085V.6091919C.22499085 .64167788 .22698975 .64868167 .27398683 .64868167H.3939972C.5439911 .64868167 .56900027 .5926819 .58499148 .4546814L.6100006 .45477296Z"/>
<path id="font_1_96" d="M.3639984 .38137818C.3639984 .41337586 .33299256 .4423828 .2899933 .4423828 .21699524 .4423828 .18099976 .37538148 .16699219 .3323822V.4423828L.027999878 .43066407V.3996582C.09799194 .3996582 .10598755 .39266969 .10598755 .34370423V.07595825C.10598755 .0309906 .09498596 .0309906 .027999878 .0309906V0L.14199829 .0029907227C.18199158 .0029907227 .22898865 .0029907227 .2689972 0V.0309906H.24798584C.17399597 .0309906 .17199707 .04197693 .17199707 .07795715V.23181153C.17199707 .33137513 .21398926 .42037965 .2899933 .42037965 .29699708 .42037965 .29899598 .42037965 .30099488 .41937257 .2979889 .41838075 .27799989 .40637208 .27799989 .3803711 .27799989 .35237123 .29899598 .33737184 .32099916 .33737184 .33898927 .33737184 .3639984 .3493805 .3639984 .38137818Z"/>
<path id="font_1_91" d="M.5269928-.1940918V-.16308594C.45999146-.16308594 .44898988-.16308594 .44898988-.117996219V.4423828H.4269867L.3889923 .35136415C.37599183 .379364 .33499146 .4423828 .25498963 .4423828 .13899231 .4423828 .033996583 .34535218 .033996583 .21531677 .033996583 .090270999 .1309967-.0107421879 .24699402-.0107421879 .31698609-.0107421879 .35798646 .03225708 .37998963 .061264039V-.117996219C.37998963-.16308594 .36898805-.16308594 .3019867-.16308594V-.1940918L.4139862-.19110108 .5269928-.1940918M.3829956 .1362915C.3829956 .104278568 .36499024 .07626343 .34298707 .052261354 .32998658 .038253786 .2979889 .011245728 .25099183 .011245728 .17799378 .011245728 .116989139 .10028076 .116989139 .21531677 .116989139 .3343506 .18699646 .41737367 .26098634 .41737367 .34098817 .41737367 .3829956 .33035279 .3829956 .2773285V.1362915Z"/>
<path id="font_1_77" d="M.5349884 0V.0309906C.48298646 .0309906 .45799256 .0309906 .45700074 .061019899V.25221253C.45700074 .3383026 .45700074 .36932374 .42599488 .405365 .4119873 .42237855 .3789978 .4423828 .32099916 .4423828 .24798584 .4423828 .20098877 .39935304 .17298889 .33729554V.4423828L.03199768 .43066407V.3996582C.101989749 .3996582 .10998535 .39266969 .10998535 .34370423V.07595825C.10998535 .0309906 .09899902 .0309906 .03199768 .0309906V0L.14498902 .0029907227 .25698854 0V.0309906C.18998719 .0309906 .1789856 .0309906 .1789856 .07595825V.25978089C.1789856 .36431886 .25 .42037965 .31399537 .42037965 .3769989 .42037965 .3880005 .36631776 .3880005 .30926515V.076034549C.3880005 .0309906 .3769989 .0309906 .30999757 .0309906V0L.4229889 .0029907227 .5349884 0Z"/>
<path id="font_1_43" d="M.4149933 .119140628C.4149933 .12911988 .40499879 .12911988 .4019928 .12911988 .3929901 .12911988 .3909912 .12512207 .3889923 .119140628 .3600006 .026229859 .29499818 .014251709 .2579956 .014251709 .20498657 .014251709 .116989139 .0572052 .116989139 .21801758 .116989139 .38093568 .19898987 .42323304 .2519989 .42323304 .26098634 .42323304 .32398988 .42222596 .35899354 .38594056 .31799317 .38293458 .31199647 .3529358 .31199647 .3399353 .31199647 .31393434 .32998658 .2939453 .35798646 .2939453 .38398744 .2939453 .4039917 .3109436 .4039917 .34094239 .4039917 .40911866 .32798768 .4482422 .25099183 .4482422 .12599182 .4482422 .033996583 .3399353 .033996583 .21601868 .033996583 .08816528 .1329956-.0107421879 .24899292-.0107421879 .3829956-.0107421879 .4149933 .10914612 .4149933 .119140628Z"/>
<path id="font_1_118" d="M.5079956 .3996582V.43066407C.4850006 .4286499 .45599366 .42765809 .43299867 .42765809L.34599305 .43066407V.3996582C.3769989 .39866639 .3929901 .3816681 .3929901 .35668946 .3929901 .34669496 .3919983 .34469605 .3869934 .33270265L.28599549 .08685303 .1749878 .35568238C.17098999 .36567689 .16899109 .36967469 .16899109 .3736725 .16899109 .3996582 .20599365 .3996582 .22499085 .3996582V.43066407L.115997318 .42765809C.08898926 .42765809 .04899597 .4286499 .018997193 .43066407V.3996582C.066986087 .3996582 .085998538 .3996582 .099990848 .36468507L.25-.000091552738 .22499085-.059066774C.20298767-.11407471 .1749878-.18309021 .11099243-.18309021 .10598755-.18309021 .08299255-.18309021 .06399536-.16503906 .09498596-.16104126 .102996829-.13905335 .102996829-.123046878 .102996829-.0970459 .083999637-.08103943 .06098938-.08103943 .040985109-.08103943 .018997193-.09403992 .018997193-.124053958 .018997193-.16905213 .06098938-.20507813 .11099243-.20507813 .17399597-.20507813 .21499634-.14804077 .23899842-.091049198L.4149933 .33569337C.44099427 .39865113 .49198915 .3996582 .5079956 .3996582Z"/>
<path id="font_1_82" d="M.4189911 0V.0309906H.3869934C.29699708 .0309906 .2939911 .041992189 .2939911 .07902527V.64012148C.2939911 .6640167 .2939911 .6660156 .2709961 .6660156 .20899964 .60227969 .12098694 .60227969 .08898926 .60227969V.57128909C.10899353 .57128909 .16799927 .57128909 .21998596 .5972748V.07902527C.21998596 .042999269 .21699524 .0309906 .1269989 .0309906H.09498596V0C.12998963 .0029907227 .21699524 .0029907227 .25698854 .0029907227 .29699708 .0029907227 .38398744 .0029907227 .4189911 0Z"/>
<path id="font_1_107" d="M.44898988 .17396546H.42399598C.4189911 .14398194 .4119873 .099990848 .4019928 .084991458 .394989 .07699585 .32899476 .07699585 .30699159 .07699585H.1269989L.23298645 .17996216C.3889923 .31803895 .44898988 .37210084 .44898988 .47216798 .44898988 .5860901 .35899354 .6660156 .23699951 .6660156 .12399292 .6660156 .049987794 .57411196 .049987794 .48516847 .049987794 .4291687 .099990848 .4291687 .102996829 .4291687 .11999512 .4291687 .15499878 .44117738 .15499878 .48217774 .15499878 .5081787 .13699341 .5341797 .101989749 .5341797 .09399414 .5341797 .09199524 .5341797 .08898926 .5331726 .11199951 .59806826 .1659851 .63500979 .22399903 .63500979 .31498719 .63500979 .35798646 .5541382 .35798646 .47216798 .35798646 .39196778 .30799867 .31297303 .25299073 .25097657L.06098938 .036987306C.049987794 .025985718 .049987794 .023986817 .049987794 0H.42099L.44898988 .17396546Z"/>
<path id="font_1_106" d="M.45700074 .17037964C.45700074 .252594 .3939972 .33088685 .2899933 .35191346 .37199403 .37893678 .42999269 .4490509 .42999269 .52809146 .42999269 .6100464 .34199525 .6660156 .24598694 .6660156 .14498902 .6660156 .068984989 .60606387 .068984989 .53009036 .068984989 .49710084 .09098816 .47808839 .11999512 .47808839 .15098572 .47808839 .17098999 .50009158 .17098999 .5290985 .17098999 .57910159 .12399292 .57910159 .10899353 .57910159 .13999939 .62802127 .20599365 .64100649 .24198914 .64100649 .2829895 .64100649 .33799745 .6190338 .33799745 .5290985 .33799745 .51708987 .33599855 .45906068 .30999757 .4149933 .27999879 .36691285 .24598694 .36390687 .22099304 .36291505 .21299744 .36190797 .18899536 .35990907 .18199158 .35990907 .17399597 .35890199 .16699219 .35791017 .16699219 .3479004 .16699219 .33691407 .17399597 .33691407 .19099427 .33691407H.23498535C.31698609 .33691407 .35398866 .2686615 .35398866 .17037964 .35398866 .034469606 .2849884 .0055389406 .24099732 .0055389406 .19799805 .0055389406 .12298584 .022491456 .08799744 .08137512 .12298584 .07637024 .1539917 .09837341 .1539917 .1363678 .1539917 .17237854 .1269989 .19238281 .09799194 .19238281 .07398987 .19238281 .041992189 .17837525 .041992189 .1343689 .041992189 .043441774 .1349945-.022460938 .24398804-.022460938 .3659973-.022460938 .45700074 .06838989 .45700074 .17037964Z"/>
<path id="font_1_57" d="M.47099305 .16503906V.19602967H.37098695V.6507721C.37098695 .6707611 .37098695 .6767578 .35499574 .6767578 .34599305 .6767578 .34298707 .6767578 .33499146 .6647644L.027999878 .19602967V.16503906H.2939911V.07800293C.2939911 .041992189 .2919922 .0309906 .21798706 .0309906H.19699097V0C.23799134 .0029907227 .2899933 .0029907227 .33198548 .0029907227 .37399293 .0029907227 .4269867 .0029907227 .46798707 0V.0309906H.44699098C.37298585 .0309906 .37098695 .041992189 .37098695 .07800293V.16503906H.47099305M.2999878 .19602967H.055999757L.2999878 .56881716V.19602967Z"/>
<path id="font_1_56" d="M.44898988 .20091248C.44898988 .31991578 .36698915 .41992188 .25898744 .41992188 .21099854 .41992188 .16799927 .4039154 .13198853 .36891175V.5641022C.1519928 .55778506 .18499756 .55078127 .21699524 .55078127 .33999635 .55078127 .4099884 .6418457 .4099884 .65493777 .4099884 .6609802 .40699769 .6660156 .3999939 .6660156 .3999939 .66607668 .39698792 .66607668 .3919983 .66308596 .37199403 .65408328 .32299806 .63378909 .2559967 .63378909 .21598816 .63409426 .16999817 .641098 .12298584 .6621094 .114990238 .6651001 .11099243 .6651001 .11099243 .6651001 .100997928 .66508486 .100997928 .657074 .100997928 .64108279V.3447113C.100997928 .3266449 .100997928 .31861878 .114990238 .31861878 .12199402 .31861878 .12399292 .32164 .12799073 .32765199 .13899231 .34371949 .17599488 .3979187 .25698854 .3979187 .30899049 .3979187 .33399964 .3517456 .34199525 .3336792 .35798646 .2965393 .3600006 .2574005 .3600006 .20721436 .3600006 .17218018 .3600006 .112197879 .33599855 .07032776 .31199647 .031448366 .2749939 .0055389406 .22898865 .0055389406 .1559906 .0055389406 .09899902 .05836487 .08198547 .1171875 .084991458 .11685181 .08799744 .115859989 .09899902 .115859989 .13198853 .115859989 .14898682 .14085388 .14898682 .16485596 .14898682 .18885803 .13198853 .21386719 .09899902 .21386719 .084991458 .21386719 .049987794 .2068634 .049987794 .16085816 .049987794 .07432556 .11898804-.022460938 .23098755-.022460938 .34700013-.022460938 .44898988 .07331848 .44898988 .20019531V.20091248Z"/>
<path id="font_1_101" d="M.45700074 .2036438C.45700074 .33070375 .36799623 .4267578 .25698854 .4267578 .18899536 .4267578 .1519928 .37573243 .13198853 .327713V.35173036C.13198853 .6047821 .2559967 .64100649 .30699159 .64100649 .33099366 .64100649 .37298585 .634964 .394989 .6007538 .37998963 .6007538 .33999635 .6007538 .33999635 .5557556 .33999635 .524765 .3639984 .5097656 .38598634 .5097656 .4019928 .5097656 .43199159 .51875308 .43199159 .5577545 .43199159 .6178589 .3880005 .6660156 .30499269 .6660156 .1769867 .6660156 .041992189 .5367584 .041992189 .31570436 .041992189 .048553468 .1579895-.022460938 .25099183-.022460938 .3619995-.022460938 .45700074 .07156372 .45700074 .2036438M.36698915 .20463562C.36698915 .15661621 .36698915 .10658264 .34999085 .0705719 .31999208 .010528564 .27398683 .0055389406 .25099183 .0055389406 .18798828 .0055389406 .1579895 .06556702 .1519928 .080566409 .13398743 .127594 .13398743 .2076416 .13398743 .22564698 .13398743 .30369569 .1659851 .40374757 .2559967 .40374757 .27198792 .40374757 .31799317 .40374757 .34899903 .34172059 .36698915 .30470277 .36698915 .2536621 .36698915 .20463562Z"/>
</defs>
<path transform="matrix(1.00008,0,0,-1.00005,23.446679,200.35343)" stroke-width=".3985" stroke-linecap="butt" stroke-miterlimit="10" stroke-linejoin="miter" fill="none" stroke="#000000" d="M0 0H197.96938"/>
<path transform="matrix(1.00008,0,0,-1.00005,221.43189,200.35343)" stroke-width=".31879" stroke-linecap="round" stroke-linejoin="round" fill="none" stroke="#000000" d="M-1.19551 1.59401C-1.09587 .99626 0 .09961 .29886 0 0-.09961-1.09587-.99626-1.19551-1.59401"/>
<use data-text="V" xlink:href="#font_1_111" transform="matrix(9.963397,0,0,-9.963098,225.40985,203.7016)"/>
<use data-text="a" xlink:href="#font_1_28" transform="matrix(9.963397,0,0,-9.963098,232.05544,203.7016)"/>
<use data-text="l" xlink:href="#font_1_72" transform="matrix(9.963397,0,0,-9.963098,237.03714,203.7016)"/>
<use data-text="u" xlink:href="#font_1_109" transform="matrix(9.963397,0,0,-9.963098,239.80695,203.7016)"/>
<use data-text="e" xlink:href="#font_1_50" transform="matrix(9.963397,0,0,-9.963098,245.3466,203.7016)"/>
<path transform="matrix(1.00008,0,0,-1.00005,23.446679,200.35343)" stroke-width=".3985" stroke-linecap="butt" stroke-miterlimit="10" stroke-linejoin="miter" fill="none" stroke="#000000" d="M0 0V186.63082"/>
<path transform="matrix(0,-1.00005,-1.00008,-0,23.446679,13.713287)" stroke-width=".31879" stroke-linecap="round" stroke-linejoin="round" fill="none" stroke="#000000" d="M-1.19551 1.59401C-1.09587 .99626 0 .09961 .29886 0 0-.09961-1.09587-.99626-1.19551-1.59401"/>
<use data-text="F" xlink:href="#font_1_54" transform="matrix(9.963397,0,0,-9.963098,1.2179031,7.692795)"/>
<use data-text="r" xlink:href="#font_1_96" transform="matrix(9.963397,0,0,-9.963098,6.8970415,7.692795)"/>
<use data-text="e" xlink:href="#font_1_50" transform="matrix(9.963397,0,0,-9.963098,10.802689,7.692795)"/>
<use data-text="q" xlink:href="#font_1_91" transform="matrix(9.963397,0,0,-9.963098,15.22644,7.692795)"/>
<use data-text="u" xlink:href="#font_1_109" transform="matrix(9.963397,0,0,-9.963098,20.487114,7.692795)"/>
<use data-text="e" xlink:href="#font_1_50" transform="matrix(9.963397,0,0,-9.963098,26.026764,7.692795)"/>
<use data-text="n" xlink:href="#font_1_77" transform="matrix(9.963397,0,0,-9.963098,30.450516,7.692795)"/>
<use data-text="c" xlink:href="#font_1_43" transform="matrix(9.963397,0,0,-9.963098,35.990159,7.692795)"/>
<use data-text="y" xlink:href="#font_1_118" transform="matrix(9.963397,0,0,-9.963098,40.41391,7.692795)"/>
<path transform="matrix(1.00008,0,0,-1.00005,23.446679,200.35343)" stroke-width=".3985" stroke-linecap="butt" stroke-miterlimit="10" stroke-linejoin="miter" fill="none" stroke="#000000" d="M28.3468 2.26778V-2.26778"/>
<use data-text="1" xlink:href="#font_1_82" transform="matrix(9.963397,0,0,-9.963098,49.30475,212.77704)"/>
<path transform="matrix(1.00008,0,0,-1.00005,23.446679,200.35343)" stroke-width=".3985" stroke-linecap="butt" stroke-miterlimit="10" stroke-linejoin="miter" fill="none" stroke="#000000" d="M56.69362 2.26778V-2.26778"/>
<use data-text="2" xlink:href="#font_1_107" transform="matrix(9.963397,0,0,-9.963098,77.654018,212.77704)"/>
<path transform="matrix(1.00008,0,0,-1.00005,23.446679,200.35343)" stroke-width=".3985" stroke-linecap="butt" stroke-miterlimit="10" stroke-linejoin="miter" fill="none" stroke="#000000" d="M85.04042 2.26778V-2.26778"/>
<use data-text="3" xlink:href="#font_1_106" transform="matrix(9.963397,0,0,-9.963098,106.00328,212.77704)"/>
<path transform="matrix(1.00008,0,0,-1.00005,23.446679,200.35343)" stroke-width=".3985" stroke-linecap="butt" stroke-miterlimit="10" stroke-linejoin="miter" fill="none" stroke="#000000" d="M113.38724 2.26778V-2.26778"/>
<use data-text="4" xlink:href="#font_1_57" transform="matrix(9.963397,0,0,-9.963098,134.35256,212.88605)"/>
<path transform="matrix(1.00008,0,0,-1.00005,23.446679,200.35343)" stroke-width=".3985" stroke-linecap="butt" stroke-miterlimit="10" stroke-linejoin="miter" fill="none" stroke="#000000" d="M141.73404 2.26778V-2.26778"/>
<use data-text="5" xlink:href="#font_1_56" transform="matrix(9.963397,0,0,-9.963098,162.7008,212.77704)"/>
<path transform="matrix(1.00008,0,0,-1.00005,23.446679,200.35343)" stroke-width=".3985" stroke-linecap="butt" stroke-miterlimit="10" stroke-linejoin="miter" fill="none" stroke="#000000" d="M170.08086 2.26778V-2.26778"/>
<use data-text="6" xlink:href="#font_1_101" transform="matrix(9.963397,0,0,-9.963098,191.05008,212.77704)"/>
<path transform="matrix(1.00008,0,0,-1.00005,23.446679,200.35343)" stroke-width=".3985" stroke-linecap="butt" stroke-miterlimit="10" stroke-linejoin="miter" fill="none" stroke="#000000" d="M2.26778 28.3468H-2.26778"/>
<use data-text="1" xlink:href="#font_1_82" transform="matrix(9.963397,0,0,-9.963098,12.676819,175.32318)"/>
<path transform="matrix(1.00008,0,0,-1.00005,23.446679,200.35343)" stroke-width=".3985" stroke-linecap="butt" stroke-miterlimit="10" stroke-linejoin="miter" fill="none" stroke="#000000" d="M2.26778 56.69362H-2.26778"/>
<use data-text="2" xlink:href="#font_1_107" transform="matrix(9.963397,0,0,-9.963098,12.676819,146.97476)"/>
<path transform="matrix(1.00008,0,0,-1.00005,23.446679,200.35343)" stroke-width=".3985" stroke-linecap="butt" stroke-miterlimit="10" stroke-linejoin="miter" fill="none" stroke="#000000" d="M2.26778 85.04042H-2.26778"/>
<use data-text="3" xlink:href="#font_1_106" transform="matrix(9.963397,0,0,-9.963098,12.676819,118.517337)"/>
<path transform="matrix(1.00008,0,0,-1.00005,23.446679,200.35343)" stroke-width=".3985" stroke-linecap="butt" stroke-miterlimit="10" stroke-linejoin="miter" fill="none" stroke="#000000" d="M2.26778 113.38724H-2.26778"/>
<use data-text="4" xlink:href="#font_1_57" transform="matrix(9.963397,0,0,-9.963098,12.676819,90.33293)"/>
<path transform="matrix(1.00008,0,0,-1.00005,23.446679,200.35343)" stroke-width=".3985" stroke-linecap="butt" stroke-miterlimit="10" stroke-linejoin="miter" fill="none" stroke="#000000" d="M2.26778 141.73404H-2.26778"/>
<use data-text="5" xlink:href="#font_1_56" transform="matrix(9.963397,0,0,-9.963098,12.676819,61.82051)"/>
<path transform="matrix(1.00008,0,0,-1.00005,23.446679,200.35343)" stroke-width=".3985" stroke-linecap="butt" stroke-miterlimit="10" stroke-linejoin="miter" fill="none" stroke="#000000" d="M2.26778 170.08086H-2.26778"/>
<use data-text="6" xlink:href="#font_1_101" transform="matrix(9.963397,0,0,-9.963098,12.676819,33.47209)"/>
<path transform="matrix(1.00008,0,0,-1.00005,23.446679,200.35343)" d="M17.00824 0V28.3468H39.68535V0ZM39.68535 28.3468" fill="#99ff99"/>
<path transform="matrix(1.00008,0,0,-1.00005,23.446679,200.35343)" stroke-width=".3985" stroke-linecap="butt" stroke-miterlimit="10" stroke-linejoin="miter" fill="none" stroke="#000000" d="M17.00824 0V28.3468H39.68535V0ZM39.68535 28.3468"/>
<path transform="matrix(1.00008,0,0,-1.00005,23.446679,200.35343)" d="M45.35506 0V28.3468H68.03217V0ZM68.03217 28.3468" fill="#99ff99"/>
<path transform="matrix(1.00008,0,0,-1.00005,23.446679,200.35343)" stroke-width=".3985" stroke-linecap="butt" stroke-miterlimit="10" stroke-linejoin="miter" fill="none" stroke="#000000" d="M45.35506 0V28.3468H68.03217V0ZM68.03217 28.3468"/>
<path transform="matrix(1.00008,0,0,-1.00005,23.446679,200.35343)" d="M73.70186 0V56.69362H96.37897V0ZM96.37897 56.69362" fill="#99ff99"/>
<path transform="matrix(1.00008,0,0,-1.00005,23.446679,200.35343)" stroke-width=".3985" stroke-linecap="butt" stroke-miterlimit="10" stroke-linejoin="miter" fill="none" stroke="#000000" d="M73.70186 0V56.69362H96.37897V0ZM96.37897 56.69362"/>
<path transform="matrix(1.00008,0,0,-1.00005,23.446679,200.35343)" d="M102.04868 0V113.38724H124.72578V0ZM124.72578 113.38724" fill="#99ff99"/>
<path transform="matrix(1.00008,0,0,-1.00005,23.446679,200.35343)" stroke-width=".3985" stroke-linecap="butt" stroke-miterlimit="10" stroke-linejoin="miter" fill="none" stroke="#000000" d="M102.04868 0V113.38724H124.72578V0ZM124.72578 113.38724"/>
<path transform="matrix(1.00008,0,0,-1.00005,23.446679,200.35343)" d="M130.39548 0V141.73404H153.07259V0ZM153.07259 141.73404" fill="#99ff99"/>
<path transform="matrix(1.00008,0,0,-1.00005,23.446679,200.35343)" stroke-width=".3985" stroke-linecap="butt" stroke-miterlimit="10" stroke-linejoin="miter" fill="none" stroke="#000000" d="M130.39548 0V141.73404H153.07259V0ZM153.07259 141.73404"/>
<path transform="matrix(1.00008,0,0,-1.00005,23.446679,200.35343)" d="M158.7423 0V170.08086H181.4194V0ZM181.4194 170.08086" fill="#99ff99"/>
<path transform="matrix(1.00008,0,0,-1.00005,23.446679,200.35343)" stroke-width=".3985" stroke-linecap="butt" stroke-miterlimit="10" stroke-linejoin="miter" fill="none" stroke="#000000" d="M158.7423 0V170.08086H181.4194V0ZM181.4194 170.08086"/>
</svg>
