<svg xmlns="http://www.w3.org/2000/svg" xmlns:xlink="http://www.w3.org/1999/xlink" xmlns:inkscape="http://www.inkscape.org/namespaces/inkscape" version="1.1" width="389" height="105" viewBox="0 0 389 105">
<defs>
<path id="font_1_1" d="M.42999269 .5588379V.58984377H.068984989V.5588379H.42999269Z"/>
<path id="font_2_1" d="M.33399964 .30233766C.33999635 .32835389 .36299134 .42037965 .43299867 .42037965 .43798829 .42037965 .46199037 .42037965 .48298646 .40734864 .45498658 .402359 .43499757 .37734986 .43499757 .35334779 .43499757 .33735658 .44599916 .31835938 .47299195 .31835938 .49499513 .31835938 .5269928 .3363495 .5269928 .37635804 .5269928 .42837525 .46798707 .4423828 .43399049 .4423828 .37599183 .4423828 .34098817 .38935853 .32899476 .36634828 .3039856 .43237306 .25 .4423828 .22099304 .4423828 .116989139 .4423828 .05999756 .3133545 .05999756 .28834535 .05999756 .27833558 .069992069 .27833558 .07199097 .27833558 .07998657 .27833558 .08299255 .28033448 .084991458 .28933717 .11898804 .39535523 .18499756 .42037965 .21899414 .42037965 .23799134 .42037965 .272995 .4113617 .272995 .35334779 .272995 .32235719 .2559967 .25532533 .21899414 .11528015 .20298767 .053268434 .16799927 .011245728 .12399292 .011245728 .117996219 .011245728 .09498596 .011245728 .07398987 .024276734 .09899902 .029266358 .12098694 .05027771 .12098694 .07827759 .12098694 .105270389 .09899902 .11328125 .083999637 .11328125 .053985597 .11328125 .0289917 .08728027 .0289917 .055267335 .0289917 .009246826 .07899475-.0107421879 .12298584-.0107421879 .18899536-.0107421879 .22499085 .059280397 .22799683 .0652771 .23999024 .028274537 .27598573-.0107421879 .33599855-.0107421879 .43899537-.0107421879 .49598695 .118270877 .49598695 .14328003 .49598695 .1532898 .4869995 .1532898 .48399354 .1532898 .47499085 .1532898 .47299195 .14929199 .47099305 .14228821 .43798829 .03527832 .36999513 .011245728 .33799745 .011245728 .29899598 .011245728 .2829895 .043273927 .2829895 .07727051 .2829895 .09927368 .2889862 .121276859 .2999878 .16529846L.33399964 .30233766Z"/>
<path id="font_2_2" d="M.48599244 .38136292C.48999024 .39537049 .48999024 .39736939 .48999024 .40437318 .48999024 .42237855 .47599793 .43138124 .46099855 .43138124 .45098878 .43138124 .43499757 .42536927 .42599488 .41036988 .42399598 .405365 .41600038 .37435914 .4119873 .35635377 .40499879 .33035279 .397995 .30334474 .3919983 .27633668L.34700013 .09628296C.34298707 .08126831 .2999878 .011245728 .23399353 .011245728 .18299866 .011245728 .17199707 .055267335 .17199707 .0922699 .17199707 .1382904 .18899536 .20030213 .22299195 .28833009 .23899842 .3293457 .24299622 .3403473 .24299622 .36035157 .24299622 .405365 .21099854 .4423828 .16099549 .4423828 .06599426 .4423828 .0289917 .29733277 .0289917 .28833009 .0289917 .27833558 .038986207 .27833558 .040985109 .27833558 .050994874 .27833558 .051986696 .28033448 .056991579 .29634095 .083999637 .3903656 .12399292 .42037965 .1579895 .42037965 .1659851 .42037965 .18299866 .42037965 .18299866 .3883667 .18299866 .36335755 .17298889 .3373413 .1659851 .31834413 .12599182 .21231079 .10798645 .1552887 .10798645 .10827637 .10798645 .019256592 .17098999-.0107421879 .22999573-.0107421879 .2689972-.0107421879 .30299378 .0062561037 .33099366 .03425598 .31799317-.017745972 .30599977-.06674194 .2659912-.11973572 .23999024-.15385437 .20199585-.18309021 .1559906-.18309021 .14199829-.18309021 .09700012-.18005371 .07998657-.14074707 .09599304-.14074707 .10899353-.14074707 .12298584-.1287384 .1329956-.11973572 .14299011-.10673523 .14299011-.08773804 .14299011-.056747438 .115997318-.052734376 .10598755-.052734376 .08299255-.052734376 .049987794-.068740848 .049987794-.11773682 .049987794-.16796875 .09399414-.20507813 .1559906-.20507813 .25898744-.20507813 .3619995-.11373901 .3899994-.00074768069L.48599244 .38136292Z"/>
<clipPath id="clip_3">
<path transform="matrix(1,0,0,-1.00002,9.978996,93.71161)" d="M0 0H74.22365V74.22365H0Z"/>
</clipPath>
<path id="font_4_83" d="M.6409912 .49668885C.6409912 .5956421 .5379944 .6826172 .39898683 .6826172H.039993287V.6516113H.06298828C.13999939 .6516113 .14199829 .64060977 .14199829 .6036377V.0789032C.14199829 .041915895 .13999939 .030929566 .06298828 .030929566H.039993287V0C.084991458 .0029296876 .14099121 .0029296876 .18699646 .0029296876 .23298645 .0029907227 .2889862 .0029907227 .33399964 0V.0309906H.31098939C.23399353 .0309906 .23199463 .041992189 .23199463 .07896423V.31378175H.39898683C.5389862 .31378175 .6409912 .40075685 .6409912 .4967041V.49668885M.5389862 .4967041C.5389862 .4517212 .5389862 .34179688 .37298585 .34179688H.22898865V.6106262C.22898865 .64460757 .23098755 .6516113 .27799989 .6516113H.37399293C.5389862 .6516113 .5389862 .54167178 .5389862 .4967041Z"/>
<path id="font_4_81" d="M.48399354 .21324158C.48399354 .34423829 .37998963 .4482422 .25698854 .4482422 .12998963 .4482422 .0289917 .3412323 .0289917 .21324158 .0289917 .08824158 .1329956-.0107421879 .2559967-.0107421879 .3829956-.0107421879 .48399354 .09024048 .48399354 .21324158M.397995 .22224427C.397995 .1852417 .397995 .12724304 .37298585 .08325195 .34498597 .037246705 .29899598 .01725769 .25698854 .01725769 .20698548 .01725769 .16499329 .042251588 .14199829 .08125305 .115997318 .12324524 .114990238 .17623902 .114990238 .22224427 .114990238 .25924684 .114990238 .3162384 .13999939 .35723878 .16999817 .40823365 .21998596 .42323304 .2559967 .42323304 .31298829 .42323304 .35398866 .39123536 .37399293 .35723878 .39698792 .31523133 .397995 .26423646 .397995 .22224427Z"/>
<path id="font_4_98" d="M.36999513 .12831116C.36999513 .17330933 .34999085 .20030213 .32798768 .22329712 .2939911 .25628663 .2579956 .26327516 .18399048 .2772827 .1579895 .28227235 .084991458 .29527284 .084991458 .35224916 .084991458 .38424684 .10798645 .426239 .19898987 .426239 .30699159 .426239 .31399537 .34326173 .31599427 .31826783 .31698609 .3062744 .31698609 .3002777 .32998658 .3002777 .34399415 .3002777 .34399415 .30726625 .34399415 .32626344V.4222412C.34399415 .4392395 .34399415 .4482422 .33198548 .4482422 .32699586 .4482422 .32499696 .4482422 .31199647 .43623353 .30999757 .43423463 .30099488 .42523194 .29499818 .4202423 .2639923 .44223023 .23298645 .4482422 .19898987 .4482422 .066986087 .4482422 .033996583 .37524415 .033996583 .32426454 .033996583 .29226686 .04798889 .26628114 .070999149 .24429322 .10499573 .21330261 .14299011 .20629883 .19400025 .19729615 .24499512 .18730164 .2619934 .18431092 .28399659 .16731262 .2939911 .15931702 .31900025 .14031983 .31900025 .10229492 .31900025 .014251709 .21798706 .014251709 .20399475 .014251709 .101989749 .014251709 .07598877 .0993042 .06399536 .15332031 .06098938 .16331482 .05999756 .16931153 .04798889 .16931153 .033996583 .16931153 .033996583 .16131592 .033996583 .14331055V.01524353C.033996583-.0017547608 .033996583-.0107421879 .04598999-.0107421879 .051986696-.0107421879 .052993776-.009750366 .070999149 .009246826 .07499695 .01524353 .085998538 .028259278 .09098816 .03326416 .1329956-.007751465 .1789856-.0107421879 .20399475-.0107421879 .32699586-.0107421879 .36999513 .061279298 .36999513 .12831116Z"/>
<path id="font_4_66" d="M.25299073 0V.0309906C.18798828 .0309906 .18399048 .035995485 .18399048 .075042728V.4423828L.039993287 .43066407V.3996582C.10398865 .3996582 .11299133 .3936615 .11299133 .3447113V.07695007C.11299133 .0309906 .101989749 .0309906 .035995485 .0309906V0C.08099365 .0019989014 .101989749 .0029907227 .1459961 .0029907227 .1619873 .0029907227 .20399475 .0029907227 .25299073 0M.19699097 .6028137C.19699097 .63282778 .17298889 .6568146 .14299011 .6568146 .11299133 .6568146 .08898926 .63282778 .08898926 .6028137 .08898926 .57281497 .11299133 .5488281 .14299011 .5488281 .17298889 .5488281 .19699097 .57281497 .19699097 .6028137Z"/>
<path id="font_4_105" d="M.34199525 .12408447V.18099976H.31399537V.1270752C.31399537 .05319214 .2829895 .01725769 .24699402 .01725769 .17999268 .01725769 .17999268 .1051178 .17999268 .12309265V.3996582H.32499696V.43066407H.17999268V.6142578H.1519928C.15098572 .5304413 .115997318 .42765809 .018997193 .4246521V.3996582H.10598755V.12408447C.10598755 .012252808 .18699646-.0107421879 .23999024-.0107421879 .30699159-.011001587 .34199525 .052993776 .34199525 .12399292V.12408447Z"/>
<path id="font_4_112" d="M.5209961 .3996582V.43066407C.4909973 .42765809 .44400025 .42765809 .44400025 .42765809 .41600038 .42765809 .3849945 .4286499 .35699464 .43066407V.3996582C.38598634 .3976593 .40299989 .38267518 .40299989 .35671998 .40299989 .34674073 .4019928 .34474183 .397995 .3337555L.2939911 .0821228 .17999268 .35472108C.1769867 .36071778 .1749878 .36669923 .1749878 .37368775 .1749878 .3996582 .21099854 .3996582 .22999573 .3996582V.43066407C.18699646 .4286499 .1639862 .42765809 .11999512 .42765809 .084991458 .42765809 .055999757 .42765809 .019989014 .43066407V.3996582C.066986087 .3996582 .085998538 .3996582 .100997928 .36271668L.24699402 .008224487C.25299073-.007751465 .26098634-.0107421879 .269989-.0107421879 .2789917-.0107421879 .2869873-.008758545 .2939911 .008224487L.42999269 .3357544C.45098878 .38667298 .48599244 .39865113 .5209961 .3996582Z"/>
<path id="font_4_50" d="M.4269867 .11936951C.4269867 .12637329 .42199708 .13237 .41299439 .13237 .40299989 .13237 .3999939 .12536621 .39898683 .12136841 .36499024 .019256592 .27598573 .01725769 .26098634 .01725769 .21299744 .01725769 .17199707 .044281007 .14898682 .078323367 .115997318 .12736511 .114990238 .18743897 .114990238 .22949219H.3999939C.42199708 .22949219 .4269867 .22949219 .4269867 .25048829 .4269867 .35333253 .37098695 .4482422 .24299622 .4482422 .12298584 .4482422 .0289917 .3443451 .0289917 .22047425 .0289917 .08932495 .13398743-.0107421879 .2559967-.0107421879 .37799073-.0107421879 .4269867 .096343997 .4269867 .11936951M.35899354 .253479H.115997318C.125 .40725709 .21499634 .42323304 .24299622 .42323304 .2979889 .42323304 .35798646 .38130189 .35899354 .253479Z"/>
<path id="font_4_43" d="M.4269867 .11936951C.4269867 .13139344 .41600038 .13139344 .41299439 .13139344 .4019928 .13139344 .4019928 .12937927 .3959961 .11236572 .37298585 .043289186 .31698609 .01725769 .2659912 .01725769 .20199585 .01725769 .11999512 .06932068 .11999512 .21749878 .11999512 .3735962 .19999695 .42022706 .2599945 .42022706 .272995 .42022706 .32699586 .41825868 .3639984 .39356996 .34298707 .3895874 .32299806 .3755951 .32299806 .34658814 .32299806 .32058717 .34298707 .30059815 .36898805 .30059815 .394989 .30059815 .41600038 .31759645 .41600038 .34858705 .41600038 .4103546 .34599305 .4482422 .2579956 .4482422 .12998963 .4482422 .033996583 .3415985 .033996583 .2164917 .033996583 .08734131 .13798523-.0107421879 .2559967-.0107421879 .394989-.0107421879 .4269867 .11036682 .4269867 .11936951Z"/>
<path id="font_4_96" d="M.37298585 .3798828C.37298585 .41236878 .34298707 .4423828 .2979889 .4423828 .23799134 .4423828 .19599915 .40037538 .17298889 .33787538H.17199707V.4423828L.02999878 .43066407V.3996582C.09799194 .3996582 .10699463 .3927307 .10699463 .34387208V.07698059C.10699463 .0309906 .09599304 .0309906 .02999878 .0309906V0C.08299255 .0019989014 .09599304 .0029907227 .14698792 .0029907227L.27398683 0V.0309906H.2539978C.18099976 .0309906 .17799378 .041992189 .17799378 .07897949V.22891236C.17799378 .26989747 .18899536 .4166565 .30299378 .4166565V.4156494C.30099488 .4146576 .2849884 .40264894 .2849884 .37887574 .2849884 .35186769 .30599977 .33486939 .32899476 .33486939 .34999085 .33486939 .37298585 .34986878 .37298585 .3798828Z"/>
<path id="font_4_72" d="M.26098634 0V.0309906C.19499207 .0309906 .18399048 .0309906 .18399048 .07701111V.69433596L.035995485 .6826172V.6516113C.10398865 .6516113 .11299133 .64460757 .11299133 .5956421V.07696533C.11299133 .0309906 .101989749 .0309906 .035995485 .0309906V0C.08299255 .0019989014 .101989749 .0029907227 .147995 .0029907227 .19499207 .0029907227 .21199036 .0019989014 .26098634 0Z"/>
<path id="font_4_28" d="M.49699403 .089141849V.14515686H.46899415V.090148929C.46899415 .07914734 .46899415 .029129029 .43299867 .029129029 .39698792 .029129029 .39698792 .07714844 .39698792 .09315491V.26818849C.39698792 .32521058 .39698792 .3592224 .35198976 .40022279 .31498719 .43322755 .2669983 .4482422 .21699524 .4482422 .1329956 .4482422 .06298828 .40623475 .06298828 .34220887 .06298828 .311203 .083999637 .2942047 .10998535 .2942047 .13699341 .2942047 .1559906 .31420899 .1559906 .34020997 .1559906 .3832245 .11099243 .38822938 .11099243 .38822938 .13798523 .41423036 .18598938 .42323304 .21499634 .42323304 .2659912 .42323304 .32299806 .3852234 .32299806 .29719544V.26419068C.2689972 .26219178 .19400025 .2571869 .1269989 .22518921 .054992677 .19017029 .032989503 .13816834 .032989503 .09814453 .032989503 .01625061 .12998963-.0107421879 .19699097-.0107421879 .27999879-.0107421879 .31799317 .04425049 .33198548 .072250369 .33699037 .030136109 .3659973-.005859375 .40899659-.005859375 .43399049-.005859375 .49699403 .009140015 .49699403 .08912659V.089141849M.32299806 .14112854C.32299806 .04425049 .24798584 .014251709 .20399475 .014251709 .15699768 .014251709 .11299133 .04824829 .11299133 .098236087 .11299133 .16423035 .16999817 .23422241 .32299806 .24023438V.14112854Z"/>
<path id="font_4_77" d="M.5469971 0V.0309906C.49598695 .03125 .47099305 .03125 .46998597 .0622406V.25431825C.46998597 .3373413 .46998597 .36636354 .44198609 .4013672 .4189911 .42938233 .3809967 .4423828 .33099366 .4423828 .23799134 .4423828 .19499207 .37335206 .18099976 .34535218H.17999268V.4423828L.034988405 .43066407V.3996582C.102996829 .3996582 .11199951 .39266969 .11199951 .34370423V.07695007C.11199951 .0309906 .100997928 .0309906 .034988405 .0309906V0C.08198547 .0019989014 .100997928 .0029907227 .14898682 .0029907227 .19699097 .0029907227 .20999146 .0019989014 .2630005 0V.0309906C.19699097 .0309906 .18598938 .0309906 .18598938 .07695007V.25878907C.18598938 .36532594 .26098634 .41737367 .32398988 .41737367 .3829956 .41737367 .3959961 .3683319 .3959961 .30825807V.077041629C.3959961 .0309906 .3849945 .0309906 .31900025 .0309906V0C.3659973 .0019989014 .3849945 .0029907227 .43299867 .0029907227 .48098756 .0029907227 .49398805 .0019989014 .5469971 0Z"/>
<clipPath id="clip_5">
<path transform="matrix(1,0,0,-1.00002,157.38199,93.71161)" d="M0 0H74.22365V74.22365H0Z"/>
</clipPath>
<path id="font_4_76" d="M.7319946 .6516113V.6826172C.6779938 .680603 .6629944 .6796112 .61499026 .6796112 .56599429 .6796112 .5529938 .680603 .49699403 .6826172V.6516113C.598999 .6516113 .598999 .6036377 .598999 .5766449V.1499176L.23599243 .6706085C.22799683 .6826172 .22499085 .6826172 .20599365 .6826172H.037994386V.6516113H.06599426C.11399841 .6516113 .13999939 .64460757 .13999939 .64460757V.10594177C.13999939 .07896423 .13999939 .0309906 .037994386 .0309906V0C.09298706 .0019989014 .10699463 .0029907227 .1559906 .0029907227 .20399475 .0029907227 .21899414 .0019989014 .272995 0V.0309906C.17098999 .0309906 .17098999 .07896423 .17098999 .10594177V.6216278L.59599307 .011993408C.60398867 0 .60899356 0 .6139984 0 .6299896 0 .6299896 .0079956059 .6299896 .026992798V.5766449C.6299896 .6036377 .6299896 .6516113 .7319946 .6516113Z"/>
<path id="font_4_59" d="M.49899293 .40338136C.49899293 .42237855 .4850006 .45336915 .44499208 .45336915 .41600038 .45336915 .37098695 .4423828 .33599855 .40637208 .30899049 .42837525 .269989 .4423828 .22799683 .4423828 .1329956 .4423828 .06098938 .3743744 .06098938 .29537965 .06098938 .2443695 .09098816 .20837403 .10699463 .19337464 .10499573 .19137573 .07699585 .15637207 .07699585 .11038208 .07699585 .07637024 .09298706 .040374757 .11999512 .022369385 .068984989 .005874634 .0289917-.03111267 .0289917-.07809448 .0289917-.14907837 .12799073-.20605469 .2559967-.20605469 .3789978-.20605469 .48399354-.15307617 .48399354-.07609558 .48399354-.035110475 .46499635 .008880615 .42799378 .03288269 .37199403 .067871097 .31399537 .067871097 .21899414 .067871097 .19898987 .067871097 .16699219 .067871097 .15899658 .069885257 .12998963 .075927738 .11099243 .1031189 .11099243 .13534546 .11099243 .15142823 .115997318 .16642761 .125 .1794281 .1499939 .16343689 .18099976 .1484375 .22698975 .1484375 .32199098 .1484375 .3939972 .21643067 .3939972 .29542542 .3939972 .34443666 .3659973 .37843324 .35299684 .39242555 .3929901 .42843629 .43998719 .42843629 .45199586 .42843629 .44699098 .4254303 .43899537 .42042542 .43899537 .4024353 .43899537 .39143373 .44599916 .37243653 .46899415 .37243653 .48298646 .37243653 .49899293 .38243104 .49899293 .40342713V.40338136M.31698609 .29542542C.31698609 .27243043 .31698609 .1754303 .22698975 .1754303 .13798523 .17520142 .13798523 .27326966 .13798523 .2952881 .13798523 .3223114 .13999939 .35632325 .15699768 .38034059 .17199707 .4003601 .19898987 .41537477 .22698975 .41537477 .31698609 .41537477 .31698609 .31829835 .31698609 .2952881V.29542542M.42799378-.07698059C.42799378-.1340332 .35099793-.17906189 .25698854-.17906189 .15899658-.17912293 .084991458-.13212586 .084991458-.07711792 .084991458-.06112671 .09498596 .0048828127 .18099976 .0048828127H.272995C.30499269 .0048828127 .42799378 .0038757325 .42799378-.07711792V-.07698059Z"/>
<clipPath id="clip_6">
<path transform="matrix(1,0,0,-1.00002,304.786,93.71161)" d="M0 0H74.22365V74.22365H0Z"/>
</clipPath>
<path id="font_4_71" d="M.59799197 .25785829H.56999209C.5589905 .15692139 .54499819 .0309906 .3659973 .0309906H.2789917C.23199463 .0309906 .22999573 .037994386 .22999573 .07196045V.6026306C.22999573 .6396179 .23399353 .6516113 .32499696 .6516113H.35699464V.6826172C.32199098 .6796112 .23098755 .6796112 .19099427 .6796112 .14498902 .6796112 .08299255 .6796112 .037994386 .6826172V.6516113H.06098938C.13798523 .6516113 .13999939 .64060977 .13999939 .6036377V.07896423C.13999939 .041992189 .13798523 .0309906 .06098938 .0309906H.037994386V0H.56999209L.59799197 .25785829Z"/>
</defs>
<path transform="matrix(1,0,0,-1.00002,9.978996,93.71161)" stroke-width=".19925" stroke-linecap="butt" stroke-miterlimit="10" stroke-linejoin="miter" fill="none" stroke="#7f807f" d="M37.11182 0V4.25185M37.11182 74.22365V69.97179"/>
<path transform="matrix(1,0,0,-1.00002,9.978996,93.71161)" stroke-width=".19925" stroke-linecap="butt" stroke-miterlimit="10" stroke-linejoin="miter" fill="none" stroke="#7f807f" d="M0 37.11182H4.25185M74.22365 37.11182H69.97179"/>
<path transform="matrix(1,0,0,-1.00002,9.978996,93.71161)" stroke-width=".3985" stroke-linecap="butt" stroke-miterlimit="10" stroke-linejoin="miter" fill="none" stroke="#000000" d="M0 0V74.22365H74.22365V0H0Z"/>
<use data-text="&#x00af;" xlink:href="#font_1_1" transform="matrix(9.9626,0,0,-9.962799,44.877,102.887798)"/>
<use data-text="x" xlink:href="#font_2_1" transform="matrix(9.9626,0,0,-9.962799,44.243997,102.887798)"/>
<use data-text="&#x00af;" xlink:href="#font_1_1" transform="matrix(9.9626,0,0,-9.962799,1.901001,58.458906)"/>
<use data-text="y" xlink:href="#font_2_2" transform="matrix(9.9626,0,0,-9.962799,1.2170029,58.458906)"/>
<g clip-path="url(#clip_3)">
<path transform="matrix(1,0,0,-1.00002,9.978996,93.71161)" stroke-width=".3985" stroke-linecap="butt" stroke-dasharray="2.98883,2.98883" stroke-miterlimit="10" stroke-linejoin="miter" fill="none" stroke="#7f807f" d="M37.11182 0V74.22365"/>
<path transform="matrix(1,0,0,-1.00002,9.978996,93.71161)" stroke-width=".3985" stroke-linecap="butt" stroke-dasharray="2.98883,2.98883" stroke-miterlimit="10" stroke-linejoin="miter" fill="none" stroke="#7f807f" d="M0 37.11182H74.22365"/>
</g>
<path transform="matrix(1,0,0,-1.00002,9.978996,93.71161)" d="M13.1261 14.84473C13.1261 15.94519 12.23401 16.83728 11.13354 16.83728 10.03307 16.83728 9.14099 15.94519 9.14099 14.84473 9.14099 13.74425 10.03307 12.85217 11.13354 12.85217 12.23401 12.85217 13.1261 13.74425 13.1261 14.84473ZM11.13354 14.84473" fill="#0000ff"/>
<path transform="matrix(1,0,0,-1.00002,9.978996,93.71161)" stroke-width=".3985" stroke-linecap="butt" stroke-miterlimit="10" stroke-linejoin="miter" fill="none" stroke="#0000ff" d="M13.1261 14.84473C13.1261 15.94519 12.23401 16.83728 11.13354 16.83728 10.03307 16.83728 9.14099 15.94519 9.14099 14.84473 9.14099 13.74425 10.03307 12.85217 11.13354 12.85217 12.23401 12.85217 13.1261 13.74425 13.1261 14.84473ZM11.13354 14.84473"/>
<path transform="matrix(1,0,0,-1.00002,9.978996,93.71161)" d="M19.80623 23.00932C19.80623 24.1098 18.91414 25.00188 17.81367 25.00188 16.7132 25.00188 15.82112 24.1098 15.82112 23.00932 15.82112 21.90886 16.7132 21.01677 17.81367 21.01677 18.91414 21.01677 19.80623 21.90886 19.80623 23.00932ZM17.81367 23.00932" fill="#0000ff"/>
<path transform="matrix(1,0,0,-1.00002,9.978996,93.71161)" stroke-width=".3985" stroke-linecap="butt" stroke-miterlimit="10" stroke-linejoin="miter" fill="none" stroke="#0000ff" d="M19.80623 23.00932C19.80623 24.1098 18.91414 25.00188 17.81367 25.00188 16.7132 25.00188 15.82112 24.1098 15.82112 23.00932 15.82112 21.90886 16.7132 21.01677 17.81367 21.01677 18.91414 21.01677 19.80623 21.90886 19.80623 23.00932ZM17.81367 23.00932"/>
<path transform="matrix(1,0,0,-1.00002,9.978996,93.71161)" d="M25.74411 28.94722C25.74411 30.04768 24.85204 30.93977 23.75156 30.93977 22.6511 30.93977 21.759 30.04768 21.759 28.94722 21.759 27.84674 22.6511 26.95467 23.75156 26.95467 24.85204 26.95467 25.74411 27.84674 25.74411 28.94722ZM23.75156 28.94722" fill="#0000ff"/>
<path transform="matrix(1,0,0,-1.00002,9.978996,93.71161)" stroke-width=".3985" stroke-linecap="butt" stroke-miterlimit="10" stroke-linejoin="miter" fill="none" stroke="#0000ff" d="M25.74411 28.94722C25.74411 30.04768 24.85204 30.93977 23.75156 30.93977 22.6511 30.93977 21.759 30.04768 21.759 28.94722 21.759 27.84674 22.6511 26.95467 23.75156 26.95467 24.85204 26.95467 25.74411 27.84674 25.74411 28.94722ZM23.75156 28.94722"/>
<path transform="matrix(1,0,0,-1.00002,9.978996,93.71161)" d="M31.682 32.6584C31.682 33.75888 30.78993 34.65096 29.68945 34.65096 28.58899 34.65096 27.6969 33.75888 27.6969 32.6584 27.6969 31.55794 28.58899 30.66585 29.68945 30.66585 30.78993 30.66585 31.682 31.55794 31.682 32.6584ZM29.68945 32.6584" fill="#0000ff"/>
<path transform="matrix(1,0,0,-1.00002,9.978996,93.71161)" stroke-width=".3985" stroke-linecap="butt" stroke-miterlimit="10" stroke-linejoin="miter" fill="none" stroke="#0000ff" d="M31.682 32.6584C31.682 33.75888 30.78993 34.65096 29.68945 34.65096 28.58899 34.65096 27.6969 33.75888 27.6969 32.6584 27.6969 31.55794 28.58899 30.66585 29.68945 30.66585 30.78993 30.66585 31.682 31.55794 31.682 32.6584ZM29.68945 32.6584"/>
<path transform="matrix(1,0,0,-1.00002,9.978996,93.71161)" d="M47.26898 44.5342C47.26898 45.63466 46.37689 46.52675 45.27643 46.52675 44.17595 46.52675 43.28387 45.63466 43.28387 44.5342 43.28387 43.43372 44.17595 42.54164 45.27643 42.54164 46.37689 42.54164 47.26898 43.43372 47.26898 44.5342ZM45.27643 44.5342" fill="#0000ff"/>
<path transform="matrix(1,0,0,-1.00002,9.978996,93.71161)" stroke-width=".3985" stroke-linecap="butt" stroke-miterlimit="10" stroke-linejoin="miter" fill="none" stroke="#0000ff" d="M47.26898 44.5342C47.26898 45.63466 46.37689 46.52675 45.27643 46.52675 44.17595 46.52675 43.28387 45.63466 43.28387 44.5342 43.28387 43.43372 44.17595 42.54164 45.27643 42.54164 46.37689 42.54164 47.26898 43.43372 47.26898 44.5342ZM45.27643 44.5342"/>
<path transform="matrix(1,0,0,-1.00002,9.978996,93.71161)" d="M53.94911 54.9255C53.94911 56.02597 53.05702 56.91806 51.95656 56.91806 50.85608 56.91806 49.964 56.02597 49.964 54.9255 49.964 53.82503 50.85608 52.93295 51.95656 52.93295 53.05702 52.93295 53.94911 53.82503 53.94911 54.9255ZM51.95656 54.9255" fill="#0000ff"/>
<path transform="matrix(1,0,0,-1.00002,9.978996,93.71161)" stroke-width=".3985" stroke-linecap="butt" stroke-miterlimit="10" stroke-linejoin="miter" fill="none" stroke="#0000ff" d="M53.94911 54.9255C53.94911 56.02597 53.05702 56.91806 51.95656 56.91806 50.85608 56.91806 49.964 56.02597 49.964 54.9255 49.964 53.82503 50.85608 52.93295 51.95656 52.93295 53.05702 52.93295 53.94911 53.82503 53.94911 54.9255ZM51.95656 54.9255"/>
<path transform="matrix(1,0,0,-1.00002,9.978996,93.71161)" d="M59.14476 60.86339C59.14476 61.96387 58.25269 62.85594 57.1522 62.85594 56.05174 62.85594 55.15965 61.96387 55.15965 60.86339 55.15965 59.76292 56.05174 58.87083 57.1522 58.87083 58.25269 58.87083 59.14476 59.76292 59.14476 60.86339ZM57.1522 60.86339" fill="#0000ff"/>
<path transform="matrix(1,0,0,-1.00002,9.978996,93.71161)" stroke-width=".3985" stroke-linecap="butt" stroke-miterlimit="10" stroke-linejoin="miter" fill="none" stroke="#0000ff" d="M59.14476 60.86339C59.14476 61.96387 58.25269 62.85594 57.1522 62.85594 56.05174 62.85594 55.15965 61.96387 55.15965 60.86339 55.15965 59.76292 56.05174 58.87083 57.1522 58.87083 58.25269 58.87083 59.14476 59.76292 59.14476 60.86339ZM57.1522 60.86339"/>
<path transform="matrix(1,0,0,-1.00002,9.978996,93.71161)" d="M65.82489 64.57457C65.82489 65.67505 64.93282 66.56712 63.83234 66.56712 62.73187 66.56712 61.83978 65.67505 61.83978 64.57457 61.83978 63.4741 62.73187 62.58202 63.83234 62.58202 64.93282 62.58202 65.82489 63.4741 65.82489 64.57457ZM63.83234 64.57457" fill="#0000ff"/>
<path transform="matrix(1,0,0,-1.00002,9.978996,93.71161)" stroke-width=".3985" stroke-linecap="butt" stroke-miterlimit="10" stroke-linejoin="miter" fill="none" stroke="#0000ff" d="M65.82489 64.57457C65.82489 65.67505 64.93282 66.56712 63.83234 66.56712 62.73187 66.56712 61.83978 65.67505 61.83978 64.57457 61.83978 63.4741 62.73187 62.58202 63.83234 62.58202 64.93282 62.58202 65.82489 63.4741 65.82489 64.57457ZM63.83234 64.57457"/>
<path transform="matrix(1,0,0,-1.00002,9.978996,93.71161)" stroke-width=".3985" stroke-linecap="butt" stroke-miterlimit="10" stroke-linejoin="miter" fill="none" stroke="#0000ff" d=""/>
<use data-text="P" xlink:href="#font_4_83" transform="matrix(8.9664,0,0,-8.966579,8.189995,9.889931)"/>
<use data-text="o" xlink:href="#font_4_81" transform="matrix(8.9664,0,0,-8.966579,14.206451,9.889931)"/>
<use data-text="s" xlink:href="#font_4_98" transform="matrix(8.9664,0,0,-8.966579,18.815178,9.889931)"/>
<use data-text="i" xlink:href="#font_4_66" transform="matrix(8.9664,0,0,-8.966579,22.446572,9.889931)"/>
<use data-text="t" xlink:href="#font_4_105" transform="matrix(8.9664,0,0,-8.966579,25.010964,9.889931)"/>
<use data-text="i" xlink:href="#font_4_66" transform="matrix(8.9664,0,0,-8.966579,28.597527,9.889931)"/>
<use data-text="v" xlink:href="#font_4_112" transform="matrix(8.9664,0,0,-8.966579,31.161911,9.889931)"/>
<use data-text="e" xlink:href="#font_4_50" transform="matrix(8.9664,0,0,-8.966579,35.761674,9.889931)"/>
<use data-text="c" xlink:href="#font_4_43" transform="matrix(8.9664,0,0,-8.966579,42.925828,9.889931)"/>
<use data-text="o" xlink:href="#font_4_81" transform="matrix(8.9664,0,0,-8.966579,47.023469,9.889931)"/>
<use data-text="r" xlink:href="#font_4_96" transform="matrix(8.9664,0,0,-8.966579,51.632204,9.889931)"/>
<use data-text="r" xlink:href="#font_4_96" transform="matrix(8.9664,0,0,-8.966579,55.236696,9.889931)"/>
<use data-text="e" xlink:href="#font_4_50" transform="matrix(8.9664,0,0,-8.966579,58.841188,9.889931)"/>
<use data-text="l" xlink:href="#font_4_72" transform="matrix(8.9664,0,0,-8.966579,62.938829,9.889931)"/>
<use data-text="a" xlink:href="#font_4_28" transform="matrix(8.9664,0,0,-8.966579,65.50322,9.889931)"/>
<use data-text="t" xlink:href="#font_4_105" transform="matrix(8.9664,0,0,-8.966579,70.11195,9.889931)"/>
<use data-text="i" xlink:href="#font_4_66" transform="matrix(8.9664,0,0,-8.966579,73.69852,9.889931)"/>
<use data-text="o" xlink:href="#font_4_81" transform="matrix(8.9664,0,0,-8.966579,76.26291,9.889931)"/>
<use data-text="n" xlink:href="#font_4_77" transform="matrix(8.9664,0,0,-8.966579,80.87164,9.889931)"/>
<path transform="matrix(1,0,0,-1.00002,157.38199,93.71161)" stroke-width=".19925" stroke-linecap="butt" stroke-miterlimit="10" stroke-linejoin="miter" fill="none" stroke="#7f807f" d="M37.11182 0V4.25185M37.11182 74.22365V69.97179"/>
<path transform="matrix(1,0,0,-1.00002,157.38199,93.71161)" stroke-width=".19925" stroke-linecap="butt" stroke-miterlimit="10" stroke-linejoin="miter" fill="none" stroke="#7f807f" d="M0 37.11182H4.25185M74.22365 37.11182H69.97179"/>
<path transform="matrix(1,0,0,-1.00002,157.38199,93.71161)" stroke-width=".3985" stroke-linecap="butt" stroke-miterlimit="10" stroke-linejoin="miter" fill="none" stroke="#000000" d="M0 0V74.22365H74.22365V0H0Z"/>
<use data-text="&#x00af;" xlink:href="#font_1_1" transform="matrix(9.9626,0,0,-9.962799,192.28,102.887798)"/>
<use data-text="x" xlink:href="#font_2_1" transform="matrix(9.9626,0,0,-9.962799,191.64699,102.887798)"/>
<use data-text="&#x00af;" xlink:href="#font_1_1" transform="matrix(9.9626,0,0,-9.962799,149.30399,58.458906)"/>
<use data-text="y" xlink:href="#font_2_2" transform="matrix(9.9626,0,0,-9.962799,148.62,58.458906)"/>
<g clip-path="url(#clip_5)">
<path transform="matrix(1,0,0,-1.00002,157.38199,93.71161)" stroke-width=".3985" stroke-linecap="butt" stroke-dasharray="2.98883,2.98883" stroke-miterlimit="10" stroke-linejoin="miter" fill="none" stroke="#7f807f" d="M37.11182 0V74.22365"/>
<path transform="matrix(1,0,0,-1.00002,157.38199,93.71161)" stroke-width=".3985" stroke-linecap="butt" stroke-dasharray="2.98883,2.98883" stroke-miterlimit="10" stroke-linejoin="miter" fill="none" stroke="#7f807f" d="M0 37.11182H74.22365"/>
</g>
<path transform="matrix(1,0,0,-1.00002,157.38199,93.71161)" d="M13.86833 63.0901C13.86833 64.19057 12.97624 65.08266 11.87578 65.08266 10.7753 65.08266 9.88322 64.19057 9.88322 63.0901 9.88322 61.98964 10.7753 61.09755 11.87578 61.09755 12.97624 61.09755 13.86833 61.98964 13.86833 63.0901ZM11.87578 63.0901" fill="#ff0000"/>
<path transform="matrix(1,0,0,-1.00002,157.38199,93.71161)" stroke-width=".3985" stroke-linecap="butt" stroke-miterlimit="10" stroke-linejoin="miter" fill="none" stroke="#ff0000" d="M13.86833 63.0901C13.86833 64.19057 12.97624 65.08266 11.87578 65.08266 10.7753 65.08266 9.88322 64.19057 9.88322 63.0901 9.88322 61.98964 10.7753 61.09755 11.87578 61.09755 12.97624 61.09755 13.86833 61.98964 13.86833 63.0901ZM11.87578 63.0901"/>
<path transform="matrix(1,0,0,-1.00002,157.38199,93.71161)" d="M19.80623 57.1522C19.80623 58.25269 18.91414 59.14476 17.81367 59.14476 16.7132 59.14476 15.82112 58.25269 15.82112 57.1522 15.82112 56.05174 16.7132 55.15965 17.81367 55.15965 18.91414 55.15965 19.80623 56.05174 19.80623 57.1522ZM17.81367 57.1522" fill="#ff0000"/>
<path transform="matrix(1,0,0,-1.00002,157.38199,93.71161)" stroke-width=".3985" stroke-linecap="butt" stroke-miterlimit="10" stroke-linejoin="miter" fill="none" stroke="#ff0000" d="M19.80623 57.1522C19.80623 58.25269 18.91414 59.14476 17.81367 59.14476 16.7132 59.14476 15.82112 58.25269 15.82112 57.1522 15.82112 56.05174 16.7132 55.15965 17.81367 55.15965 18.91414 55.15965 19.80623 56.05174 19.80623 57.1522ZM17.81367 57.1522"/>
<path transform="matrix(1,0,0,-1.00002,157.38199,93.71161)" d="M25.00188 50.47208C25.00188 51.57256 24.1098 52.46463 23.00932 52.46463 21.90886 52.46463 21.01677 51.57256 21.01677 50.47208 21.01677 49.37161 21.90886 48.47952 23.00932 48.47952 24.1098 48.47952 25.00188 49.37161 25.00188 50.47208ZM23.00932 50.47208" fill="#ff0000"/>
<path transform="matrix(1,0,0,-1.00002,157.38199,93.71161)" stroke-width=".3985" stroke-linecap="butt" stroke-miterlimit="10" stroke-linejoin="miter" fill="none" stroke="#ff0000" d="M25.00188 50.47208C25.00188 51.57256 24.1098 52.46463 23.00932 52.46463 21.90886 52.46463 21.01677 51.57256 21.01677 50.47208 21.01677 49.37161 21.90886 48.47952 23.00932 48.47952 24.1098 48.47952 25.00188 49.37161 25.00188 50.47208ZM23.00932 50.47208"/>
<path transform="matrix(1,0,0,-1.00002,157.38199,93.71161)" d="M31.682 43.79195C31.682 44.89243 30.78993 45.7845 29.68945 45.7845 28.58899 45.7845 27.6969 44.89243 27.6969 43.79195 27.6969 42.69148 28.58899 41.7994 29.68945 41.7994 30.78993 41.7994 31.682 42.69148 31.682 43.79195ZM29.68945 43.79195" fill="#ff0000"/>
<path transform="matrix(1,0,0,-1.00002,157.38199,93.71161)" stroke-width=".3985" stroke-linecap="butt" stroke-miterlimit="10" stroke-linejoin="miter" fill="none" stroke="#ff0000" d="M31.682 43.79195C31.682 44.89243 30.78993 45.7845 29.68945 45.7845 28.58899 45.7845 27.6969 44.89243 27.6969 43.79195 27.6969 42.69148 28.58899 41.7994 29.68945 41.7994 30.78993 41.7994 31.682 42.69148 31.682 43.79195ZM29.68945 43.79195"/>
<path transform="matrix(1,0,0,-1.00002,157.38199,93.71161)" d="M46.52675 30.43169C46.52675 31.53217 45.63466 32.42424 44.5342 32.42424 43.43372 32.42424 42.54164 31.53217 42.54164 30.43169 42.54164 29.33122 43.43372 28.43913 44.5342 28.43913 45.63466 28.43913 46.52675 29.33122 46.52675 30.43169ZM44.5342 30.43169" fill="#ff0000"/>
<path transform="matrix(1,0,0,-1.00002,157.38199,93.71161)" stroke-width=".3985" stroke-linecap="butt" stroke-miterlimit="10" stroke-linejoin="miter" fill="none" stroke="#ff0000" d="M46.52675 30.43169C46.52675 31.53217 45.63466 32.42424 44.5342 32.42424 43.43372 32.42424 42.54164 31.53217 42.54164 30.43169 42.54164 29.33122 43.43372 28.43913 44.5342 28.43913 45.63466 28.43913 46.52675 29.33122 46.52675 30.43169ZM44.5342 30.43169"/>
<path transform="matrix(1,0,0,-1.00002,157.38199,93.71161)" d="M52.46463 23.75156C52.46463 24.85204 51.57256 25.74411 50.47208 25.74411 49.37161 25.74411 48.47952 24.85204 48.47952 23.75156 48.47952 22.6511 49.37161 21.759 50.47208 21.759 51.57256 21.759 52.46463 22.6511 52.46463 23.75156ZM50.47208 23.75156" fill="#ff0000"/>
<path transform="matrix(1,0,0,-1.00002,157.38199,93.71161)" stroke-width=".3985" stroke-linecap="butt" stroke-miterlimit="10" stroke-linejoin="miter" fill="none" stroke="#ff0000" d="M52.46463 23.75156C52.46463 24.85204 51.57256 25.74411 50.47208 25.74411 49.37161 25.74411 48.47952 24.85204 48.47952 23.75156 48.47952 22.6511 49.37161 21.759 50.47208 21.759 51.57256 21.759 52.46463 22.6511 52.46463 23.75156ZM50.47208 23.75156"/>
<path transform="matrix(1,0,0,-1.00002,157.38199,93.71161)" d="M59.14476 19.29814C59.14476 20.39862 58.25269 21.2907 57.1522 21.2907 56.05174 21.2907 55.15965 20.39862 55.15965 19.29814 55.15965 18.19768 56.05174 17.30559 57.1522 17.30559 58.25269 17.30559 59.14476 18.19768 59.14476 19.29814ZM57.1522 19.29814" fill="#ff0000"/>
<path transform="matrix(1,0,0,-1.00002,157.38199,93.71161)" stroke-width=".3985" stroke-linecap="butt" stroke-miterlimit="10" stroke-linejoin="miter" fill="none" stroke="#ff0000" d="M59.14476 19.29814C59.14476 20.39862 58.25269 21.2907 57.1522 21.2907 56.05174 21.2907 55.15965 20.39862 55.15965 19.29814 55.15965 18.19768 56.05174 17.30559 57.1522 17.30559 58.25269 17.30559 59.14476 18.19768 59.14476 19.29814ZM57.1522 19.29814"/>
<path transform="matrix(1,0,0,-1.00002,157.38199,93.71161)" d="M65.82489 12.61801C65.82489 13.71849 64.93282 14.61057 63.83234 14.61057 62.73187 14.61057 61.83978 13.71849 61.83978 12.61801 61.83978 11.51755 62.73187 10.62546 63.83234 10.62546 64.93282 10.62546 65.82489 11.51755 65.82489 12.61801ZM63.83234 12.61801" fill="#ff0000"/>
<path transform="matrix(1,0,0,-1.00002,157.38199,93.71161)" stroke-width=".3985" stroke-linecap="butt" stroke-miterlimit="10" stroke-linejoin="miter" fill="none" stroke="#ff0000" d="M65.82489 12.61801C65.82489 13.71849 64.93282 14.61057 63.83234 14.61057 62.73187 14.61057 61.83978 13.71849 61.83978 12.61801 61.83978 11.51755 62.73187 10.62546 63.83234 10.62546 64.93282 10.62546 65.82489 11.51755 65.82489 12.61801ZM63.83234 12.61801"/>
<path transform="matrix(1,0,0,-1.00002,157.38199,93.71161)" stroke-width=".3985" stroke-linecap="butt" stroke-miterlimit="10" stroke-linejoin="miter" fill="none" stroke="#ff0000" d=""/>
<use data-text="N" xlink:href="#font_4_76" transform="matrix(8.9664,0,0,-8.966579,153.88498,8.1418919)"/>
<use data-text="e" xlink:href="#font_4_50" transform="matrix(8.9664,0,0,-8.966579,160.79808,8.1418919)"/>
<use data-text="g" xlink:href="#font_4_59" transform="matrix(8.9664,0,0,-8.966579,164.89572,8.1418919)"/>
<use data-text="a" xlink:href="#font_4_28" transform="matrix(8.9664,0,0,-8.966579,169.50446,8.1418919)"/>
<use data-text="t" xlink:href="#font_4_105" transform="matrix(8.9664,0,0,-8.966579,174.11318,8.1418919)"/>
<use data-text="i" xlink:href="#font_4_66" transform="matrix(8.9664,0,0,-8.966579,177.69974,8.1418919)"/>
<use data-text="v" xlink:href="#font_4_112" transform="matrix(8.9664,0,0,-8.966579,180.26413,8.1418919)"/>
<use data-text="e" xlink:href="#font_4_50" transform="matrix(8.9664,0,0,-8.966579,184.87287,8.1418919)"/>
<use data-text="c" xlink:href="#font_4_43" transform="matrix(8.9664,0,0,-8.966579,192.03702,8.1418919)"/>
<use data-text="o" xlink:href="#font_4_81" transform="matrix(8.9664,0,0,-8.966579,196.13466,8.1418919)"/>
<use data-text="r" xlink:href="#font_4_96" transform="matrix(8.9664,0,0,-8.966579,200.7434,8.1418919)"/>
<use data-text="r" xlink:href="#font_4_96" transform="matrix(8.9664,0,0,-8.966579,204.34789,8.1418919)"/>
<use data-text="e" xlink:href="#font_4_50" transform="matrix(8.9664,0,0,-8.966579,207.95238,8.1418919)"/>
<use data-text="l" xlink:href="#font_4_72" transform="matrix(8.9664,0,0,-8.966579,212.05002,8.1418919)"/>
<use data-text="a" xlink:href="#font_4_28" transform="matrix(8.9664,0,0,-8.966579,214.61441,8.1418919)"/>
<use data-text="t" xlink:href="#font_4_105" transform="matrix(8.9664,0,0,-8.966579,219.22315,8.1418919)"/>
<use data-text="i" xlink:href="#font_4_66" transform="matrix(8.9664,0,0,-8.966579,222.80971,8.1418919)"/>
<use data-text="o" xlink:href="#font_4_81" transform="matrix(8.9664,0,0,-8.966579,225.3741,8.1418919)"/>
<use data-text="n" xlink:href="#font_4_77" transform="matrix(8.9664,0,0,-8.966579,229.98284,8.1418919)"/>
<path transform="matrix(1,0,0,-1.00002,304.786,93.71161)" stroke-width=".19925" stroke-linecap="butt" stroke-miterlimit="10" stroke-linejoin="miter" fill="none" stroke="#7f807f" d="M37.11182 0V4.25185M37.11182 74.22365V69.97179"/>
<path transform="matrix(1,0,0,-1.00002,304.786,93.71161)" stroke-width=".19925" stroke-linecap="butt" stroke-miterlimit="10" stroke-linejoin="miter" fill="none" stroke="#7f807f" d="M0 37.11182H4.25185M74.22365 37.11182H69.97179"/>
<path transform="matrix(1,0,0,-1.00002,304.786,93.71161)" stroke-width=".3985" stroke-linecap="butt" stroke-miterlimit="10" stroke-linejoin="miter" fill="none" stroke="#000000" d="M0 0V74.22365H74.22365V0H0Z"/>
<use data-text="&#x00af;" xlink:href="#font_1_1" transform="matrix(9.9626,0,0,-9.962799,339.68403,102.887798)"/>
<use data-text="x" xlink:href="#font_2_1" transform="matrix(9.9626,0,0,-9.962799,339.05104,102.887798)"/>
<use data-text="&#x00af;" xlink:href="#font_1_1" transform="matrix(9.9626,0,0,-9.962799,296.708,58.458906)"/>
<use data-text="y" xlink:href="#font_2_2" transform="matrix(9.9626,0,0,-9.962799,296.02403,58.458906)"/>
<g clip-path="url(#clip_6)">
<path transform="matrix(1,0,0,-1.00002,304.786,93.71161)" stroke-width=".3985" stroke-linecap="butt" stroke-dasharray="2.98883,2.98883" stroke-miterlimit="10" stroke-linejoin="miter" fill="none" stroke="#7f807f" d="M37.11182 0V74.22365"/>
<path transform="matrix(1,0,0,-1.00002,304.786,93.71161)" stroke-width=".3985" stroke-linecap="butt" stroke-dasharray="2.98883,2.98883" stroke-miterlimit="10" stroke-linejoin="miter" fill="none" stroke="#7f807f" d="M0 37.11182H74.22365"/>
</g>
<path transform="matrix(1,0,0,-1.00002,304.786,93.71161)" d="M14.61057 59.37892C14.61057 60.47939 13.71849 61.37148 12.61801 61.37148 11.51755 61.37148 10.62546 60.47939 10.62546 59.37892 10.62546 58.27844 11.51755 57.38637 12.61801 57.38637 13.71849 57.38637 14.61057 58.27844 14.61057 59.37892ZM12.61801 59.37892"/>
<path transform="matrix(1,0,0,-1.00002,304.786,93.71161)" stroke-width=".3985" stroke-linecap="butt" stroke-miterlimit="10" stroke-linejoin="miter" fill="none" stroke="#000000" d="M14.61057 59.37892C14.61057 60.47939 13.71849 61.37148 12.61801 61.37148 11.51755 61.37148 10.62546 60.47939 10.62546 59.37892 10.62546 58.27844 11.51755 57.38637 12.61801 57.38637 13.71849 57.38637 14.61057 58.27844 14.61057 59.37892ZM12.61801 59.37892"/>
<path transform="matrix(1,0,0,-1.00002,304.786,93.71161)" d="M21.2907 22.26709C21.2907 23.36757 20.39862 24.25964 19.29814 24.25964 18.19768 24.25964 17.30559 23.36757 17.30559 22.26709 17.30559 21.16663 18.19768 20.27454 19.29814 20.27454 20.39862 20.27454 21.2907 21.16663 21.2907 22.26709ZM19.29814 22.26709"/>
<path transform="matrix(1,0,0,-1.00002,304.786,93.71161)" stroke-width=".3985" stroke-linecap="butt" stroke-miterlimit="10" stroke-linejoin="miter" fill="none" stroke="#000000" d="M21.2907 22.26709C21.2907 23.36757 20.39862 24.25964 19.29814 24.25964 18.19768 24.25964 17.30559 23.36757 17.30559 22.26709 17.30559 21.16663 18.19768 20.27454 19.29814 20.27454 20.39862 20.27454 21.2907 21.16663 21.2907 22.26709ZM19.29814 22.26709"/>
<path transform="matrix(1,0,0,-1.00002,304.786,93.71161)" d="M25.00188 51.21432C25.00188 52.31479 24.1098 53.20688 23.00932 53.20688 21.90886 53.20688 21.01677 52.31479 21.01677 51.21432 21.01677 50.11385 21.90886 49.22177 23.00932 49.22177 24.1098 49.22177 25.00188 50.11385 25.00188 51.21432ZM23.00932 51.21432"/>
<path transform="matrix(1,0,0,-1.00002,304.786,93.71161)" stroke-width=".3985" stroke-linecap="butt" stroke-miterlimit="10" stroke-linejoin="miter" fill="none" stroke="#000000" d="M25.00188 51.21432C25.00188 52.31479 24.1098 53.20688 23.00932 53.20688 21.90886 53.20688 21.01677 52.31479 21.01677 51.21432 21.01677 50.11385 21.90886 49.22177 23.00932 49.22177 24.1098 49.22177 25.00188 50.11385 25.00188 51.21432ZM23.00932 51.21432"/>
<path transform="matrix(1,0,0,-1.00002,304.786,93.71161)" d="M32.42424 16.3292C32.42424 17.42967 31.53217 18.32175 30.43169 18.32175 29.33122 18.32175 28.43913 17.42967 28.43913 16.3292 28.43913 15.22873 29.33122 14.33664 30.43169 14.33664 31.53217 14.33664 32.42424 15.22873 32.42424 16.3292ZM30.43169 16.3292"/>
<path transform="matrix(1,0,0,-1.00002,304.786,93.71161)" stroke-width=".3985" stroke-linecap="butt" stroke-miterlimit="10" stroke-linejoin="miter" fill="none" stroke="#000000" d="M32.42424 16.3292C32.42424 17.42967 31.53217 18.32175 30.43169 18.32175 29.33122 18.32175 28.43913 17.42967 28.43913 16.3292 28.43913 15.22873 29.33122 14.33664 30.43169 14.33664 31.53217 14.33664 32.42424 15.22873 32.42424 16.3292ZM30.43169 16.3292"/>
<path transform="matrix(1,0,0,-1.00002,304.786,93.71161)" d="M45.04227 54.9255C45.04227 56.02597 44.15019 56.91806 43.04971 56.91806 41.94925 56.91806 41.05716 56.02597 41.05716 54.9255 41.05716 53.82503 41.94925 52.93295 43.04971 52.93295 44.15019 52.93295 45.04227 53.82503 45.04227 54.9255ZM43.04971 54.9255"/>
<path transform="matrix(1,0,0,-1.00002,304.786,93.71161)" stroke-width=".3985" stroke-linecap="butt" stroke-miterlimit="10" stroke-linejoin="miter" fill="none" stroke="#000000" d="M45.04227 54.9255C45.04227 56.02597 44.15019 56.91806 43.04971 56.91806 41.94925 56.91806 41.05716 56.02597 41.05716 54.9255 41.05716 53.82503 41.94925 52.93295 43.04971 52.93295 44.15019 52.93295 45.04227 53.82503 45.04227 54.9255ZM43.04971 54.9255"/>
<path transform="matrix(1,0,0,-1.00002,304.786,93.71161)" d="M50.23793 29.68945C50.23793 30.78993 49.34584 31.682 48.24538 31.682 47.1449 31.682 46.25282 30.78993 46.25282 29.68945 46.25282 28.58899 47.1449 27.6969 48.24538 27.6969 49.34584 27.6969 50.23793 28.58899 50.23793 29.68945ZM48.24538 29.68945"/>
<path transform="matrix(1,0,0,-1.00002,304.786,93.71161)" stroke-width=".3985" stroke-linecap="butt" stroke-miterlimit="10" stroke-linejoin="miter" fill="none" stroke="#000000" d="M50.23793 29.68945C50.23793 30.78993 49.34584 31.682 48.24538 31.682 47.1449 31.682 46.25282 30.78993 46.25282 29.68945 46.25282 28.58899 47.1449 27.6969 48.24538 27.6969 49.34584 27.6969 50.23793 28.58899 50.23793 29.68945ZM48.24538 29.68945"/>
<path transform="matrix(1,0,0,-1.00002,304.786,93.71161)" d="M57.6603 60.12115C57.6603 61.22163 56.7682 62.11371 55.66774 62.11371 54.56726 62.11371 53.67519 61.22163 53.67519 60.12115 53.67519 59.02069 54.56726 58.1286 55.66774 58.1286 56.7682 58.1286 57.6603 59.02069 57.6603 60.12115ZM55.66774 60.12115"/>
<path transform="matrix(1,0,0,-1.00002,304.786,93.71161)" stroke-width=".3985" stroke-linecap="butt" stroke-miterlimit="10" stroke-linejoin="miter" fill="none" stroke="#000000" d="M57.6603 60.12115C57.6603 61.22163 56.7682 62.11371 55.66774 62.11371 54.56726 62.11371 53.67519 61.22163 53.67519 60.12115 53.67519 59.02069 54.56726 58.1286 55.66774 58.1286 56.7682 58.1286 57.6603 59.02069 57.6603 60.12115ZM55.66774 60.12115"/>
<path transform="matrix(1,0,0,-1.00002,304.786,93.71161)" d="M63.59819 20.04037C63.59819 21.14085 62.7061 22.03293 61.60564 22.03293 60.50516 22.03293 59.61308 21.14085 59.61308 20.04037 59.61308 18.93991 60.50516 18.04782 61.60564 18.04782 62.7061 18.04782 63.59819 18.93991 63.59819 20.04037ZM61.60564 20.04037"/>
<path transform="matrix(1,0,0,-1.00002,304.786,93.71161)" stroke-width=".3985" stroke-linecap="butt" stroke-miterlimit="10" stroke-linejoin="miter" fill="none" stroke="#000000" d="M63.59819 20.04037C63.59819 21.14085 62.7061 22.03293 61.60564 22.03293 60.50516 22.03293 59.61308 21.14085 59.61308 20.04037 59.61308 18.93991 60.50516 18.04782 61.60564 18.04782 62.7061 18.04782 63.59819 18.93991 63.59819 20.04037ZM61.60564 20.04037"/>
<path transform="matrix(1,0,0,-1.00002,304.786,93.71161)" stroke-width=".3985" stroke-linecap="butt" stroke-miterlimit="10" stroke-linejoin="miter" fill="none" stroke="#000000" d=""/>
<use data-text="L" xlink:href="#font_4_71" transform="matrix(8.9664,0,0,-8.966579,295.70204,9.889931)"/>
<use data-text="i" xlink:href="#font_4_66" transform="matrix(8.9664,0,0,-8.966579,301.45845,9.889931)"/>
<use data-text="t" xlink:href="#font_4_105" transform="matrix(8.9664,0,0,-8.966579,304.02284,9.889931)"/>
<use data-text="t" xlink:href="#font_4_105" transform="matrix(8.9664,0,0,-8.966579,307.6094,9.889931)"/>
<use data-text="l" xlink:href="#font_4_72" transform="matrix(8.9664,0,0,-8.966579,311.19599,9.889931)"/>
<use data-text="e" xlink:href="#font_4_50" transform="matrix(8.9664,0,0,-8.966579,313.76039,9.889931)"/>
<use data-text="o" xlink:href="#font_4_81" transform="matrix(8.9664,0,0,-8.966579,320.9245,9.889931)"/>
<use data-text="r" xlink:href="#font_4_96" transform="matrix(8.9664,0,0,-8.966579,325.53327,9.889931)"/>
<use data-text="n" xlink:href="#font_4_77" transform="matrix(8.9664,0,0,-8.966579,332.2132,9.889931)"/>
<use data-text="o" xlink:href="#font_4_81" transform="matrix(8.9664,0,0,-8.966579,337.333,9.889931)"/>
<use data-text="c" xlink:href="#font_4_43" transform="matrix(8.9664,0,0,-8.966579,345.0172,9.889931)"/>
<use data-text="o" xlink:href="#font_4_81" transform="matrix(8.9664,0,0,-8.966579,349.11488,9.889931)"/>
<use data-text="r" xlink:href="#font_4_96" transform="matrix(8.9664,0,0,-8.966579,353.7236,9.889931)"/>
<use data-text="r" xlink:href="#font_4_96" transform="matrix(8.9664,0,0,-8.966579,357.3281,9.889931)"/>
<use data-text="e" xlink:href="#font_4_50" transform="matrix(8.9664,0,0,-8.966579,360.9326,9.889931)"/>
<use data-text="l" xlink:href="#font_4_72" transform="matrix(8.9664,0,0,-8.966579,365.0302,9.889931)"/>
<use data-text="a" xlink:href="#font_4_28" transform="matrix(8.9664,0,0,-8.966579,367.60359,9.889931)"/>
<use data-text="t" xlink:href="#font_4_105" transform="matrix(8.9664,0,0,-8.966579,372.21235,9.889931)"/>
<use data-text="i" xlink:href="#font_4_66" transform="matrix(8.9664,0,0,-8.966579,375.7989,9.889931)"/>
<use data-text="o" xlink:href="#font_4_81" transform="matrix(8.9664,0,0,-8.966579,378.36329,9.889931)"/>
<use data-text="n" xlink:href="#font_4_77" transform="matrix(8.9664,0,0,-8.966579,382.97203,9.889931)"/>
</svg>
