<svg xmlns="http://www.w3.org/2000/svg" xmlns:xlink="http://www.w3.org/1999/xlink" xmlns:inkscape="http://www.inkscape.org/namespaces/inkscape" version="1.1" width="243" height="152" viewBox="0 0 243 152">
<defs>
<path id="font_1_1" d="M.45999146 .31976319C.45999146 .39982606 .45498658 .47988893 .41999818 .5539398 .37399293 .65000918 .2919922 .6660156 .25 .6660156 .18998719 .6660156 .116989139 .64001467 .07598877 .54693606 .04399109 .47789 .038986207 .39982606 .038986207 .31976319 .038986207 .24472046 .042999269 .15464783 .083999637 .07859802 .1269989-.0024719239 .19999695-.022460938 .24899292-.022460938 .30299378-.022460938 .3789978-.0014648438 .4229889 .09359741 .45498658 .16265869 .45999146 .2407074 .45999146 .31976319M.24899292-.00047302247C.20999146-.00047302247 .15098572 .024551392 .1329956 .12062073 .12199402 .18066406 .12199402 .2727356 .12199402 .3317871 .12199402 .39582826 .12199402 .46188355 .12998963 .5159149 .14898682 .63500979 .22399903 .64401248 .24899292 .64401248 .28199769 .64401248 .34799195 .6259918 .36698915 .52693179 .3769989 .47088624 .3769989 .39482118 .3769989 .3317871 .3769989 .25672914 .3769989 .18867493 .3659973 .12461853 .35099793 .029556275 .2939911-.00047302247 .24899292-.00047302247Z"/>
<path id="font_2_2" d="M.1329956 .08345032C.18699646 .14138794 .21598816 .16636658 .2519989 .19732666 .2519989 .19833374 .31399537 .25128175 .34999085 .2872467 .44499208 .3803711 .46699525 .42837525 .46699525 .43237306 .46699525 .4423828 .45799256 .4423828 .45599366 .4423828 .44898988 .4423828 .44599916 .44036866 .44099427 .43138124 .41099549 .38337709 .3899994 .3671875 .3659973 .3671875 .34199525 .3671875 .32998658 .38237 .31498719 .3993683 .29599 .42237855 .2789917 .4423828 .24598694 .4423828 .17098999 .4423828 .125 .34918214 .125 .3282013 .125 .3231964 .12799073 .31721498 .13699341 .31721498 .1459961 .31721498 .147995 .3222046 .1499939 .3282013 .16899109 .37434388 .22698975 .37538148 .23498535 .37538148 .2559967 .37538148 .2749939 .36820985 .2979889 .36018373 .33799745 .34518434 .34899903 .34518434 .375 .34518434 .33898927 .30223084 .25498963 .2303009 .23599243 .21430969L.1459961 .13040161C.07798767 .06341553 .042999269 .0062561037 .042999269-.00074768069 .042999269-.0107421879 .052993776-.0107421879 .054992677-.0107421879 .06298828-.0107421879 .06498718-.008743286 .070999149 .002243042 .09399414 .037246705 .12399292 .064453128 .1559906 .064453128 .1789856 .064453128 .18899536 .055252077 .21398926 .026245118 .23098755 .0052490236 .24899292-.0107421879 .27799989-.0107421879 .3769989-.0107421879 .43499757 .1164093 .43499757 .14338684 .43499757 .14837647 .43099977 .15338135 .4229889 .15338135 .4139862 .15338135 .4119873 .14738465 .40899659 .14039612 .38598634 .07543945 .32199098 .056243898 .2889862 .056243898 .2689972 .056243898 .25099183 .06239319 .22999573 .06944275 .19599915 .08244324 .18099976 .08644104 .1599884 .08644104 .1579895 .08644104 .14199829 .08644104 .1329956 .08345032Z"/>
<path id="font_3_1" d="M.5469971 .14128113C.6389923 .23632813 .6759949 .36938478 .6759949 .38038636 .6759949 .39338685 .6639862 .39338685 .6589966 .39338685 .644989 .39338685 .644989 .39038087 .6380005 .3683777 .6199951 .3023529 .58699038 .24131775 .54499819 .18730164 .5439911 .20230103 .5419922 .2693329 .5399933 .27833558 .5249939 .37738038 .44999696 .44140626 .34999085 .44140626 .20298767 .44140626 .06199646 .3043518 .06199646 .16429138 .06199646 .072250369 .1289978-.009765625 .24499512-.009765625 .33699037-.009765625 .41999818 .032226564 .47599793 .07525635 .49899293 .0022277833 .5499878-.009765625 .5799866-.009765625 .6380005-.009765625 .673996 .039230348 .673996 .0602417 .673996 .072250369 .6619873 .072250369 .6569977 .072250369 .6439972 .072250369 .6419983 .06825256 .6399994 .0622406 .6259918 .024230957 .59498599 .018234253 .58299258 .018234253 .56900027 .018234253 .5519867 .018234253 .5469971 .14128113M.46899415 .10726929C.37098695 .027236939 .28599549 .018234253 .24798584 .018234253 .18199158 .018234253 .14498902 .0622406 .14498902 .12927246 .14498902 .15829468 .15899658 .26733399 .21099854 .33636476 .25698854 .39639283 .31399537 .4133911 .34899903 .4133911 .42900086 .4133911 .45199586 .33636476 .45999146 .27433778 .46598817 .23132324 .46398927 .16029358 .46899415 .10726929Z"/>
<path id="font_2_1" d="M.47698976 .23631287C.47698976 .39337159 .38398744 .4423828 .30999757 .4423828 .17298889 .4423828 .040985109 .29933167 .040985109 .15829468 .040985109 .06526184 .100997928-.0107421879 .20298767-.0107421879 .2659912-.0107421879 .33799745 .012252808 .4139862 .073272708 .4269867 .020248414 .45999146-.0107421879 .5049896-.0107421879 .55799868-.0107421879 .58898928 .044265748 .58898928 .060272218 .58898928 .06726074 .58299258 .07026672 .57699587 .07026672 .56999209 .07026672 .5669861 .06726074 .56399539 .060272218 .54599 .011245728 .5099945 .011245728 .5079956 .011245728 .47698976 .011245728 .47698976 .089279178 .47698976 .11328125 .47698976 .1342926 .47698976 .1362915 .4869995 .14828491 .58099368 .2663269 .60198977 .38235475 .60198977 .38336183 .60198977 .38536073 .6009979 .39337159 .58999636 .39337159 .5799866 .39337159 .5799866 .3903656 .57499697 .37236024 .5569916 .30934144 .5239868 .23332215 .47698976 .17430115V.23631287M.4099884 .09927368C.32199098 .022247315 .24499512 .011245728 .20498657 .011245728 .14498902 .011245728 .114990238 .056259157 .114990238 .120285037 .114990238 .16929627 .14099121 .2773285 .17298889 .32833863 .21998596 .4013672 .27398683 .42037965 .30899049 .42037965 .4079895 .42037965 .4079895 .28933717 .4079895 .21130371 .4079895 .17430115 .4079895 .11628723 .4099884 .09927368Z"/>
</defs>
<path transform="matrix(1.00006,0,0,-1.00006,3.2949982,127.04965)" stroke-width=".19925" stroke-linecap="butt" stroke-miterlimit="10" stroke-linejoin="miter" fill="none" stroke="#7f807f" d="M119.31651-2.12596V2.12596M186.13378-2.12596V2.12596"/>
<path transform="matrix(1.00006,0,0,-1.00006,3.2949982,127.04965)" stroke-width=".19925" stroke-linecap="butt" stroke-miterlimit="10" stroke-linejoin="miter" fill="none" stroke="#7f807f" d=""/>
<path transform="matrix(1.00006,0,0,-1.00006,3.2949982,127.04965)" stroke-width=".3985" stroke-linecap="butt" stroke-miterlimit="10" stroke-linejoin="miter" fill="none" stroke="#000000" d="M0 0H236.64052"/>
<path transform="matrix(1.00006,0,0,-1.00006,239.9497,127.04965)" d="M1.99252 0-1.19551 1.59401 0 0-1.19551-1.59401"/>
<path transform="matrix(1.00006,0,0,-1.00006,3.2949982,127.04965)" stroke-width=".3985" stroke-linecap="butt" stroke-miterlimit="10" stroke-linejoin="miter" fill="none" stroke="#000000" d="M0 0V123.25049"/>
<path transform="matrix(0,-1.00006,-1.00006,-0,3.2949982,3.791771)" d="M1.99252 0-1.19551 1.59401 0 0-1.19551-1.59401"/>
<use data-text="0" xlink:href="#font_1_1" transform="matrix(9.963197,0,0,-9.963197,120.128,139.11638)"/>
<use data-text="z" xlink:href="#font_2_2" transform="matrix(9.963197,0,0,-9.963197,184.28385,136.98525)"/>
<use data-text="&#x03b1;" xlink:href="#font_3_1" transform="matrix(6.9742186,0,0,-6.9742186,188.91712,138.47934)"/>
<path transform="matrix(1.00006,0,0,-1.00006,3.2949982,127.04965)" d="M186.13378 16.25812 186.57494 15.85838 187.0161 15.45863 187.45726 15.0589 187.89842 14.67139 188.33959 14.29274 188.78075 13.92744 189.22193 13.55992 189.66309 13.2057 190.10425 12.85925 190.54541 12.51616 190.98657 12.18414 191.42775 11.84991 191.86891 11.52792 192.31006 11.2159 192.75122 10.91072 193.19239 10.60992 193.63355 10.31555 194.0747 10.02785 194.51589 9.74643 194.95705 9.47131 195.39821 9.20244 195.83937 8.93974 196.28055 8.68312 196.72171 8.43227 197.16287 8.18747 197.60404 7.94841 198.0452 7.71501 198.48636 7.48721 198.92752 7.26498 199.3687 7.0481 199.80986 6.83658 200.25102 6.63023 200.69219 6.42915 201.13335 6.23303 201.57453 6.04192 202.01567 5.85564 202.45684 5.67421 202.898 5.49745 203.33916 5.32526 203.78034 5.15773 204.2215 4.99455 204.66266 4.83571 205.10382 4.68115 205.54499 4.53082 205.98615 4.38455 206.42733 4.24228 206.86849 4.10397 207.30965 3.96942 207.75081 3.83875 208.19197 3.71169 208.63315 3.58821 209.07431 3.46834 209.51548 3.35185 209.95664 3.23877 210.3978 3.12898 210.83896 3.02237 211.2801 2.91895 211.72129 2.81851 212.16245 2.72116 212.6036 2.62671 213.04477 2.53513 213.48595 2.44624 213.92711 2.36015 214.36827 2.27673 214.80944 2.19586 215.2506 2.11752 215.69176 2.0416 216.13292 1.96808 216.5741 1.8969 217.01526 1.82799 217.45642 1.76129 217.89759 1.69675 218.33876 1.63428 218.77993 1.57385 219.22109 1.51541 219.66225 1.45888 220.10341 1.40425 220.54459 1.35146 220.98574 1.30037 221.4269 1.25104 221.86806 1.20337 222.30922 1.15732 222.75038 1.11287 223.19155 1.06993 223.63272 1.02849 224.07389 .98845 224.51505 .94986 224.9562 .91258 225.39739 .87665 225.83855 .84196 226.27971 .80852 226.72087 .77629 227.16204 .74529 227.6032 .71527 228.04436 .68648 228.48554 .65863 228.9267 .63187 229.36786 .60605 229.80902 .58118 230.25019 .55728 230.69136 .5342 231.13249 .51212 231.57369 .49075 232.0148 .47025 232.456 .4505 232.89719 .43153 233.33832 .41328 233.77951 .39578 234.22063 .37894 234.66182 .3627 235.10301 .34714 235.54415 .33217 235.98532 .31778 236.42646 .30403 236.86765 .29076 237.30884 .27806 237.74997 .26587 238.19115 .25412 238.63228 .24289V0H186.13378Z" fill="#bfbfff"/>
<path transform="matrix(1.00006,0,0,-1.00006,3.2949982,127.04965)" stroke-width=".79701" stroke-linecap="butt" stroke-miterlimit="10" stroke-linejoin="miter" fill="none" stroke="#000000" d="M0 .24289 1.19916 .27452 2.39832 .30994 3.59747 .34949 4.79665 .39352 5.9958 .44267 7.19496 .49724 8.39413 .55789 9.5933 .62514 10.79247 .69963 11.99164 .78201 13.1908 .87306 14.38995 .9735 15.58914 1.08414 16.7883 1.20584 17.98746 1.33958 19.18661 1.4863 20.38579 1.6471 21.58495 1.82295 22.7841 2.01517 23.98329 2.22482 25.18245 2.4533 26.3816 2.70189 27.58078 2.97197 28.77994 3.26501 29.97911 3.58253 31.17828 3.926 32.37744 4.29715 33.5766 4.6976 34.77577 5.12894 35.97495 5.59294 37.1741 6.09154 38.37326 6.6262 39.57243 7.19899 40.77159 7.81157 41.97075 8.46574 43.16992 9.16347 44.3691 9.90625 45.56825 10.69618 46.76743 11.52792 47.96658 12.41623 49.16574 13.36003 50.36493 14.35939 51.56409 15.40425 52.76324 16.51462 53.9624 17.68051 55.16158 18.90192 56.36073 20.17886 57.5599 21.5224 58.75908 22.92259 59.95824 24.3894 61.1574 25.91064 62.35657 27.49846 63.55573 29.14182 64.7549 30.8529 65.95407 32.61842 67.15323 34.44054 68.35239 36.32928 69.55154 38.26024 70.75073 40.26001 71.94989 42.29312 73.14905 44.39284 74.34822 46.52365 75.54738 48.7122 76.74654 50.92186 77.94571 53.17705 79.14487 55.46442 80.34404 57.7751 81.54321 60.1069 82.74237 62.462 83.94153 64.8271 85.1407 67.1922 86.33987 69.55954 87.53903 71.92462 88.73819 74.27974 89.93736 76.61153 91.13652 78.92223 92.3357 81.19962 93.53487 83.44255 94.73402 85.63 95.93318 87.77304 97.13235 89.87276 98.33151 91.89365 99.53067 93.84903 100.72986 95.72556 101.92902 97.51326 103.12817 99.21324 104.32733 100.8244 105.5265 102.33453 106.72568 103.7336 107.92484 105.03273 109.12401 106.21085 110.32317 107.2657 111.52232 108.19841 112.7215 108.9979 113.92067 109.67522 115.11983 110.2193 116.319 110.63126 117.51816 110.90886 118.71732 111.04103H119.91649L121.11572 110.90886 122.31477 110.63126 123.514 110.2193 124.71307 109.67522 125.91231 108.9979 127.11154 108.19841 128.31061 107.2657 129.50984 106.19862 130.7089 105.03273 131.90814 103.7336 133.10738 102.33453 134.30643 100.8244 135.50568 99.21324 136.70473 97.51326 137.90396 95.72556 139.1032 93.8379 140.30226 91.89365 141.5015 89.86276 142.70055 87.77304 143.8998 85.63 145.09903 83.43034 146.29807 81.19962 147.49733 78.92223 148.69637 76.61153 149.89562 74.27974 151.09485 71.92462 152.2939 69.55954 153.49314 67.1922 154.6922 64.81711 155.89144 62.462 157.09067 60.1069 158.28972 57.7751 159.48897 55.46442 160.68802 53.17705 161.88726 50.92186 163.0865 48.70111 164.28556 46.52365 165.48479 44.39284 166.68386 42.29312 167.88309 40.2478 169.08232 38.26024 170.28139 36.32928 171.48062 34.44054 172.67967 32.61842 173.8789 30.8529 175.07816 29.14182 176.2772 27.49846 177.47644 25.91064 178.6755 24.3894 179.87474 22.92259 181.07398 21.5224 182.27303 20.17886 183.47228 18.89195 184.67131 17.68051 185.87058 16.51462 187.0698 15.40425 188.26885 14.35939 189.4681 13.36003 190.66715 12.41623 191.86638 11.52792 193.06562 10.69554 194.26468 9.90582 195.46392 9.16295 196.66297 8.46545 197.86222 7.81105 199.06145 7.19855 200.2605 6.62581 201.45975 6.09113 202.6588 5.5927 203.85803 5.12862 205.05728 4.69731 206.25634 4.2969 207.45557 3.92578 208.65464 3.58229 209.85387 3.2648 211.0531 2.9718 212.25215 2.7017 213.4514 2.45316 214.65045 2.2247 215.84969 2.01498 217.04894 1.82285 218.24797 1.64697 219.44722 1.4862 220.64629 1.3395 221.84552 1.20575 223.04474 1.08406 224.2438 .97342 225.44306 .873 226.64209 .78197 227.84134 .69958 229.04058 .62506 230.23963 .55779 231.43886 .4972 232.63793 .4426 233.83716 .39352 235.03639 .34941 236.23546 .30994 237.4347 .27452 238.63375 .24287"/>
<path transform="matrix(1.00006,0,0,-1.00006,3.2949982,127.04965)" stroke-width=".3985" stroke-linecap="butt" stroke-dasharray="2.98883,2.98883" stroke-miterlimit="10" stroke-linejoin="miter" fill="none" stroke="#000000" d="M186.13378 0V16.25812"/>
<use data-text="&#x03b1;" xlink:href="#font_2_1" transform="matrix(9.963197,0,0,-9.963197,206.34918,98.57794)"/>
<use data-text="z" xlink:href="#font_2_2" transform="matrix(9.963197,0,0,-9.963197,120.083,150.24704)"/>
</svg>
