<svg xmlns="http://www.w3.org/2000/svg" xmlns:xlink="http://www.w3.org/1999/xlink" xmlns:inkscape="http://www.inkscape.org/namespaces/inkscape" version="1.1" width="232" height="57" viewBox="0 0 232 57">
<defs>
<path id="font_1_76" d="M.71598818 .6516113V.6826172L.598999 .6796112 .48199464 .6826172V.6516113C.58499148 .6516113 .58499148 .6046295 .58499148 .577652V.15092469L.23199463 .6696167C.22299195 .6816101 .22200012 .6826172 .20298767 .6826172H.032989503V.6516113H.06199646C.07699585 .6516113 .09700012 .65060427 .11199951 .6496124 .1349945 .64660647 .13598633 .6456146 .13598633 .62661746V.10494995C.13598633 .07795715 .13598633 .0309906 .032989503 .0309906V0L.1499939 .0029907227 .2669983 0V.0309906C.1639862 .0309906 .1639862 .07795715 .1639862 .10494995V.62461856C.16899109 .6196289 .16999817 .6186218 .17399597 .6126251L.58200076 .0129852299C.59098818 .0009918213 .59199526 0 .598999 0 .61299136 0 .61299136 .0069885256 .61299136 .025985718V.577652C.61299136 .6046295 .61299136 .6516113 .71598818 .6516113Z"/>
<path id="font_1_109" d="M.5349884 0V.0309906C.46499635 .0309906 .45700074 .037994386 .45700074 .08705139V.4423828L.30999757 .43066407V.3996582C.37998963 .3996582 .3880005 .39266969 .3880005 .34373475V.16601563C.3880005 .07910156 .33999635 .011245728 .2669983 .011245728 .18299866 .011245728 .1789856 .058135988 .1789856 .11009216V.4423828L.03199768 .43066407V.3996582C.10998535 .3996582 .10998535 .39666749 .10998535 .3078003V.15802002C.10998535 .080093387 .10998535-.0107421879 .2619934-.0107421879 .31799317-.0107421879 .3619995 .017242432 .3909912 .07910156V-.0107421879L.5349884 0Z"/>
<path id="font_1_75" d="M.8129883 0V.0309906C.7609863 .0309906 .73599246 .0309906 .7350006 .061019899V.25221253C.7350006 .3383026 .7350006 .36932374 .70399478 .405365 .6899872 .42237855 .6569977 .4423828 .598999 .4423828 .5149994 .4423828 .47099305 .38233949 .45399476 .34429933 .43998719 .43138124 .3659973 .4423828 .32099916 .4423828 .24798584 .4423828 .20098877 .39935304 .17298889 .33729554V.4423828L.03199768 .43066407V.3996582C.101989749 .3996582 .10998535 .39266969 .10998535 .34370423V.07595825C.10998535 .0309906 .09899902 .0309906 .03199768 .0309906V0L.14498902 .0029907227 .25698854 0V.0309906C.18998719 .0309906 .1789856 .0309906 .1789856 .07595825V.25978089C.1789856 .36431886 .25 .42037965 .31399537 .42037965 .3769989 .42037965 .3880005 .36631776 .3880005 .30926515V.076034549C.3880005 .0309906 .3769989 .0309906 .30999757 .0309906V0L.4229889 .0029907227 .5349884 0V.0309906C.46798707 .0309906 .45700074 .0309906 .45700074 .076034549V.2602234C.45700074 .36431886 .5279999 .42037965 .59199526 .42037965 .6549988 .42037965 .66600039 .36631776 .66600039 .30926515V.076034549C.66600039 .0309906 .6549988 .0309906 .58799746 .0309906V0L.70098879 .0029907227 .8129883 0Z"/>
<path id="font_1_35" d="M.5209961 .2163086C.5209961 .34335328 .4229889 .4423828 .30899049 .4423828 .23098755 .4423828 .18798828 .39537049 .17199707 .3773651V.69433596L.027999878 .68333438V.6523285C.09799194 .6523285 .10598755 .6453247 .10598755 .596344V.00024414063H.1309967L.16699219 .06227112C.18199158 .039260866 .22399903-.0107421879 .2979889-.0107421879 .4169922-.0107421879 .5209961 .08728027 .5209961 .2163086M.43798829 .21731568C.43798829 .18029785 .43598939 .120285037 .40699769 .07527161 .38598634 .044265748 .34799195 .011245728 .2939911 .011245728 .24899292 .011260986 .21299744 .03526306 .18899536 .072265628 .1749878 .09326172 .1749878 .09625244 .1749878 .11425781V.32034303C.1749878 .3393402 .1749878 .3403473 .18598938 .35635377 .22499085 .41236878 .27999879 .42037965 .3039856 .42037965 .34899903 .42037965 .3849945 .3943634 .40899659 .35635377 .43499757 .31533814 .43798829 .25831605 .43798829 .21730042V.21731568Z"/>
<path id="font_1_50" d="M.4149933 .11933899C.4149933 .12934876 .40699769 .13134766 .4019928 .13134766 .3929901 .13134766 .3909912 .12535095 .3889923 .11734009 .35398866 .014251709 .2639923 .014251709 .2539978 .014251709 .20399475 .014251709 .1639862 .044281007 .14099121 .08131409 .11099243 .12934876 .11099243 .19540406 .11099243 .23144531H.3899994C.4119873 .23144531 .4149933 .23144531 .4149933 .2524414 .4149933 .35131837 .36099244 .4482422 .23599243 .4482422 .11999512 .4482422 .027999878 .34532167 .027999878 .22042847 .027999878 .08631897 .1329956-.0107421879 .24798584-.0107421879 .36999513-.0107421879 .4149933 .10032654 .4149933 .11933899M.34899903 .2524414H.11199951C.117996219 .40126039 .20199585 .426239 .23599243 .426239 .33898927 .426239 .34899903 .2913971 .34899903 .2524414Z"/>
<path id="font_1_96" d="M.3639984 .38137818C.3639984 .41337586 .33299256 .4423828 .2899933 .4423828 .21699524 .4423828 .18099976 .37538148 .16699219 .3323822V.4423828L.027999878 .43066407V.3996582C.09799194 .3996582 .10598755 .39266969 .10598755 .34370423V.07595825C.10598755 .0309906 .09498596 .0309906 .027999878 .0309906V0L.14199829 .0029907227C.18199158 .0029907227 .22898865 .0029907227 .2689972 0V.0309906H.24798584C.17399597 .0309906 .17199707 .04197693 .17199707 .07795715V.23181153C.17199707 .33137513 .21398926 .42037965 .2899933 .42037965 .29699708 .42037965 .29899598 .42037965 .30099488 .41937257 .2979889 .41838075 .27799989 .40637208 .27799989 .3803711 .27799989 .35237123 .29899598 .33737184 .32099916 .33737184 .33898927 .33737184 .3639984 .3493805 .3639984 .38137818Z"/>
<path id="font_1_81" d="M.47099305 .21424866C.47099305 .34223939 .37098695 .4482422 .25 .4482422 .125 .4482422 .027999878 .3392334 .027999878 .21424866 .027999878 .085250858 .13198853-.0107421879 .24899292-.0107421879 .36999513-.0107421879 .47099305 .087249759 .47099305 .21424866M.3880005 .22224427C.3880005 .18624878 .3880005 .13224793 .3659973 .08824158 .34399415 .04324341 .2999878 .014251709 .25 .014251709 .20698548 .014251709 .16299439 .035247804 .13598633 .08125305 .11099243 .12524414 .11099243 .18624878 .11099243 .22224427 .11099243 .26124574 .11099243 .31523133 .1349945 .35923768 .1619873 .40522767 .20899964 .426239 .24899292 .426239 .29299928 .426239 .33599855 .40423585 .3619995 .36123658 .3880005 .3182373 .3880005 .26023866 .3880005 .22224427Z"/>
<path id="font_1_55" d="M.35699464 .63479617C.35699464 .6717987 .31999208 .7050781 .2669983 .7050781 .19699097 .7050781 .11199951 .65179446 .11199951 .5457611V.43066407H.032989503V.3996582H.11199951V.07595825C.11199951 .0309906 .100997928 .0309906 .033996583 .0309906V0L.147995 .0029907227C.18798828 .0029907227 .23498535 .0029907227 .2749939 0V.0309906H.2539978C.17999268 .0309906 .17799378 .04197693 .17799378 .07795715V.3996582H.2919922V.43066407H.1749878V.5467529C.1749878 .63479617 .22299195 .68307498 .2669983 .68307498 .269989 .68307498 .2849884 .68307498 .2999878 .675827 .28799439 .6717987 .269989 .6587982 .269989 .6338043 .269989 .61079409 .28599549 .5907898 .31298829 .5907898 .34199525 .5907898 .35699464 .61079409 .35699464 .63479617Z"/>
<path id="font_1_98" d="M.3600006 .12823487C.3600006 .18122864 .32998658 .21122742 .31799317 .22323609 .2849884 .25523377 .24598694 .26322938 .20399475 .27124024 .147995 .28224183 .08099365 .29522706 .08099365 .35324098 .08099365 .38822938 .10699463 .42922975 .19299317 .42922975 .30299378 .42922975 .30799867 .3392334 .30999757 .30822755 .31098939 .2992401 .32199098 .2992401 .32199098 .2992401 .33499146 .2992401 .33499146 .30422975 .33499146 .32322694V.4242401C.33499146 .4412384 .33499146 .4482422 .32398988 .4482422 .31900025 .4482422 .31698609 .4482422 .3039856 .43623353 .30099488 .43223573 .29100038 .42323304 .2869873 .42022706 .24899292 .4482422 .20799256 .4482422 .19299317 .4482422 .070999149 .4482422 .032989503 .38124085 .032989503 .3252411 .032989503 .29023744 .04899597 .26223756 .07598877 .24023438 .10798645 .2142334 .13598633 .2082367 .20799256 .19422913 .22999573 .19021607 .31199647 .17422486 .31199647 .10221863 .31199647 .051223756 .2769928 .011245728 .19898987 .011245728 .114990238 .011245728 .07899475 .068222049 .05999756 .1532135 .056991579 .16621399 .055999757 .17021179 .04598999 .17021179 .032989503 .17021179 .032989503 .16322327 .032989503 .1452179V.013214111C.032989503-.003753662 .032989503-.0107421879 .04399109-.0107421879 .04899597-.0107421879 .049987794-.009750366 .068984989 .009246826 .070999149 .011245728 .070999149 .013214111 .08898926 .032226564 .1329956-.009750366 .17799378-.0107421879 .19898987-.0107421879 .31399537-.0107421879 .3600006 .05621338 .3600006 .1282196V.12823487Z"/>
<path id="font_1_66" d="M.24699402 0V.0309906C.18099976 .0309906 .1769867 .035995485 .1769867 .075042728V.4423828L.036987306 .43066407V.3996582C.101989749 .3996582 .11099243 .3936615 .11099243 .3447113V.07595825C.11099243 .0309906 .099990848 .0309906 .032989503 .0309906V0L.14299011 .0029907227C.17799378 .0029907227 .21299744 .0009918213 .24699402 0M.19198609 .603775C.19198609 .6307678 .16899109 .6567688 .13899231 .6567688 .10499573 .6567688 .084991458 .6287689 .084991458 .603775 .084991458 .57676699 .10798645 .55078127 .13798523 .55078127 .17199707 .55078127 .19198609 .5787811 .19198609 .603775Z"/>
<path id="font_1_72" d="M.25498963 0V.0309906C.18798828 .0309906 .1769867 .0309906 .1769867 .07601929V.69433596L.032989503 .6826172V.6516113C.102996829 .6516113 .11099243 .64460757 .11099243 .5956421V.07595825C.11099243 .0309906 .099990848 .0309906 .032989503 .0309906V0L.14399719 .0029907227 .25498963 0Z"/>
<path id="font_1_77" d="M.5349884 0V.0309906C.48298646 .0309906 .45799256 .0309906 .45700074 .061019899V.25221253C.45700074 .3383026 .45700074 .36932374 .42599488 .405365 .4119873 .42237855 .3789978 .4423828 .32099916 .4423828 .24798584 .4423828 .20098877 .39935304 .17298889 .33729554V.4423828L.03199768 .43066407V.3996582C.101989749 .3996582 .10998535 .39266969 .10998535 .34370423V.07595825C.10998535 .0309906 .09899902 .0309906 .03199768 .0309906V0L.14498902 .0029907227 .25698854 0V.0309906C.18998719 .0309906 .1789856 .0309906 .1789856 .07595825V.25978089C.1789856 .36431886 .25 .42037965 .31399537 .42037965 .3769989 .42037965 .3880005 .36631776 .3880005 .30926515V.076034549C.3880005 .0309906 .3769989 .0309906 .30999757 .0309906V0L.4229889 .0029907227 .5349884 0Z"/>
<path id="font_1_59" d="M.4850006 .40411378C.4850006 .42111207 .47299195 .453125 .43399049 .453125 .4139862 .453125 .36999513 .44711305 .32798768 .40611268 .28599549 .43937684 .24398804 .4423828 .22200012 .4423828 .1289978 .4423828 .05999756 .37338258 .05999756 .29638673 .05999756 .25239564 .08198547 .21440125 .10699463 .19340515 .09399414 .17840576 .07598877 .14538574 .07598877 .11035156 .07598877 .07899475 .08898926 .04083252 .11999512 .020828248 .05999756 .003829956 .027999878-.039138795 .027999878-.07911682 .027999878-.15107727 .1269989-.20605469 .24899292-.20605469 .36698915-.20605469 .47099305-.15507508 .47099305-.07711792 .47099305-.042144777 .45700074 .008834839 .4059906 .036834718 .35299684 .064834598 .29499818 .064834598 .23399353 .064834598 .20899964 .064834598 .1659851 .064834598 .15899658 .065841678 .1269989 .069885257 .10598755 .101242069 .10598755 .13334656 .10598755 .13735962 .10598755 .16040039 .12298584 .18040467 .1619873 .15240479 .20298767 .14941406 .22200012 .14941406 .31498719 .14941406 .38398744 .21839905 .38398744 .2953949 .38398744 .3323822 .36799623 .36938478 .34298707 .39237977 .3789978 .42637635 .4149933 .43138124 .43299867 .43138124 .43299867 .43112184 .43998719 .43112184 .44299317 .43011476 .43199159 .42611695 .4269867 .41513063 .4269867 .40315248 .4269867 .38616944 .43998719 .37417604 .45599366 .37417604 .46598817 .37417604 .4850006 .3811798 .4850006 .4041443V.40411378M.30899049 .29626466C.30899049 .26930238 .30799867 .2373352 .29299928 .21235657 .2849884 .20037842 .2619934 .17240906 .22200012 .17240906 .1349945 .17240906 .1349945 .2722931 .1349945 .29527284 .1349945 .3222351 .13598633 .35420228 .15098572 .3791809 .15899658 .3913269 .18199158 .41937257 .22200012 .41937257 .30899049 .41937257 .30899049 .31922914 .30899049 .29618836V.29626466M.4189911-.07911682C.4189911-.13308716 .34799195-.18305969 .25-.18305969 .14898682-.18305969 .07998657-.13209534 .07998657-.07911682 .07998657-.03314209 .117996219 .003829956 .1619873 .0068359377H.22099304C.30699159 .0068359377 .4189911 .0068359377 .4189911-.07911682Z"/>
<path id="font_1_121" d="M.45999146 .31976319C.45999146 .39982606 .45498658 .47988893 .41999818 .5539398 .37399293 .65000918 .2919922 .6660156 .25 .6660156 .18998719 .6660156 .116989139 .64001467 .07598877 .54693606 .04399109 .47789 .038986207 .39982606 .038986207 .31976319 .038986207 .24472046 .042999269 .15464783 .083999637 .07859802 .1269989-.0024719239 .19999695-.022460938 .24899292-.022460938 .30299378-.022460938 .3789978-.0014648438 .4229889 .09359741 .45498658 .16265869 .45999146 .2407074 .45999146 .31976319M.3769989 .3317871C.3769989 .25672914 .3769989 .18867493 .3659973 .12461853 .35099793 .029556275 .2939911-.00047302247 .24899292-.00047302247 .20999146-.00047302247 .15098572 .024551392 .1329956 .12062073 .12199402 .18066406 .12199402 .2727356 .12199402 .3317871 .12199402 .39582826 .12199402 .46188355 .12998963 .5159149 .14898682 .63500979 .22399903 .64401248 .24899292 .64401248 .28199769 .64401248 .34799195 .6259918 .36698915 .52693179 .3769989 .47088624 .3769989 .39482118 .3769989 .3317871Z"/>
<path id="font_1_82" d="M.4189911 0V.0309906H.3869934C.29699708 .0309906 .2939911 .041992189 .2939911 .07902527V.64012148C.2939911 .6640167 .2939911 .6660156 .2709961 .6660156 .20899964 .60227969 .12098694 .60227969 .08898926 .60227969V.57128909C.10899353 .57128909 .16799927 .57128909 .21998596 .5972748V.07902527C.21998596 .042999269 .21699524 .0309906 .1269989 .0309906H.09498596V0C.12998963 .0029907227 .21699524 .0029907227 .25698854 .0029907227 .29699708 .0029907227 .38398744 .0029907227 .4189911 0Z"/>
<path id="font_1_107" d="M.44898988 .17396546H.42399598C.4189911 .14398194 .4119873 .099990848 .4019928 .084991458 .394989 .07699585 .32899476 .07699585 .30699159 .07699585H.1269989L.23298645 .17996216C.3889923 .31803895 .44898988 .37210084 .44898988 .47216798 .44898988 .5860901 .35899354 .6660156 .23699951 .6660156 .12399292 .6660156 .049987794 .57411196 .049987794 .48516847 .049987794 .4291687 .099990848 .4291687 .102996829 .4291687 .11999512 .4291687 .15499878 .44117738 .15499878 .48217774 .15499878 .5081787 .13699341 .5341797 .101989749 .5341797 .09399414 .5341797 .09199524 .5341797 .08898926 .5331726 .11199951 .59806826 .1659851 .63500979 .22399903 .63500979 .31498719 .63500979 .35798646 .5541382 .35798646 .47216798 .35798646 .39196778 .30799867 .31297303 .25299073 .25097657L.06098938 .036987306C.049987794 .025985718 .049987794 .023986817 .049987794 0H.42099L.44898988 .17396546Z"/>
<path id="font_1_106" d="M.45700074 .17037964C.45700074 .252594 .3939972 .33088685 .2899933 .35191346 .37199403 .37893678 .42999269 .4490509 .42999269 .52809146 .42999269 .6100464 .34199525 .6660156 .24598694 .6660156 .14498902 .6660156 .068984989 .60606387 .068984989 .53009036 .068984989 .49710084 .09098816 .47808839 .11999512 .47808839 .15098572 .47808839 .17098999 .50009158 .17098999 .5290985 .17098999 .57910159 .12399292 .57910159 .10899353 .57910159 .13999939 .62802127 .20599365 .64100649 .24198914 .64100649 .2829895 .64100649 .33799745 .6190338 .33799745 .5290985 .33799745 .51708987 .33599855 .45906068 .30999757 .4149933 .27999879 .36691285 .24598694 .36390687 .22099304 .36291505 .21299744 .36190797 .18899536 .35990907 .18199158 .35990907 .17399597 .35890199 .16699219 .35791017 .16699219 .3479004 .16699219 .33691407 .17399597 .33691407 .19099427 .33691407H.23498535C.31698609 .33691407 .35398866 .2686615 .35398866 .17037964 .35398866 .034469606 .2849884 .0055389406 .24099732 .0055389406 .19799805 .0055389406 .12298584 .022491456 .08799744 .08137512 .12298584 .07637024 .1539917 .09837341 .1539917 .1363678 .1539917 .17237854 .1269989 .19238281 .09799194 .19238281 .07398987 .19238281 .041992189 .17837525 .041992189 .1343689 .041992189 .043441774 .1349945-.022460938 .24398804-.022460938 .3659973-.022460938 .45700074 .06838989 .45700074 .17037964Z"/>
<path id="font_1_57" d="M.47099305 .16503906V.19602967H.37098695V.6507721C.37098695 .6707611 .37098695 .6767578 .35499574 .6767578 .34599305 .6767578 .34298707 .6767578 .33499146 .6647644L.027999878 .19602967V.16503906H.2939911V.07800293C.2939911 .041992189 .2919922 .0309906 .21798706 .0309906H.19699097V0C.23799134 .0029907227 .2899933 .0029907227 .33198548 .0029907227 .37399293 .0029907227 .4269867 .0029907227 .46798707 0V.0309906H.44699098C.37298585 .0309906 .37098695 .041992189 .37098695 .07800293V.16503906H.47099305M.2999878 .19602967H.055999757L.2999878 .56881716V.19602967Z"/>
</defs>
<path transform="matrix(1,0,0,-1.00005,15.268997,42.360319)" stroke-width=".3985" stroke-linecap="butt" stroke-miterlimit="10" stroke-linejoin="miter" fill="none" stroke="#000000" d="M-14.17339 0H129.9372"/>
<path transform="matrix(1,0,0,-1.00005,145.20619,42.360319)" stroke-width=".31879" stroke-linecap="round" stroke-linejoin="round" fill="none" stroke="#000000" d="M-1.19551 1.59401C-1.09587 .99626 0 .09961 .29886 0 0-.09961-1.09587-.99626-1.19551-1.59401"/>
<use data-text="N" xlink:href="#font_1_76" transform="matrix(9.9626,0,0,-9.963098,149.18399,44.846445)"/>
<use data-text="u" xlink:href="#font_1_109" transform="matrix(9.9626,0,0,-9.963098,156.65595,44.846445)"/>
<use data-text="m" xlink:href="#font_1_75" transform="matrix(9.9626,0,0,-9.963098,162.19516,44.846445)"/>
<use data-text="b" xlink:href="#font_1_35" transform="matrix(9.9626,0,0,-9.963098,170.225,44.846445)"/>
<use data-text="e" xlink:href="#font_1_50" transform="matrix(9.9626,0,0,-9.963098,176.0332,44.846445)"/>
<use data-text="r" xlink:href="#font_1_96" transform="matrix(9.9626,0,0,-9.963098,180.4566,44.846445)"/>
<use data-text="o" xlink:href="#font_1_81" transform="matrix(9.9626,0,0,-9.963098,187.67949,44.846445)"/>
<use data-text="f" xlink:href="#font_1_55" transform="matrix(9.9626,0,0,-9.963098,192.66078,44.846445)"/>
<use data-text="s" xlink:href="#font_1_98" transform="matrix(9.9626,0,0,-9.963098,199.02689,44.846445)"/>
<use data-text="i" xlink:href="#font_1_66" transform="matrix(9.9626,0,0,-9.963098,202.95215,44.846445)"/>
<use data-text="b" xlink:href="#font_1_35" transform="matrix(9.9626,0,0,-9.963098,205.72176,44.846445)"/>
<use data-text="l" xlink:href="#font_1_72" transform="matrix(9.9626,0,0,-9.963098,211.26096,44.846445)"/>
<use data-text="i" xlink:href="#font_1_66" transform="matrix(9.9626,0,0,-9.963098,214.03057,44.846445)"/>
<use data-text="n" xlink:href="#font_1_77" transform="matrix(9.9626,0,0,-9.963098,216.80017,44.846445)"/>
<use data-text="g" xlink:href="#font_1_59" transform="matrix(9.9626,0,0,-9.963098,222.33937,44.846445)"/>
<use data-text="s" xlink:href="#font_1_98" transform="matrix(9.9626,0,0,-9.963098,227.32067,44.846445)"/>
<path transform="matrix(1,0,0,-1.00005,15.268997,42.360319)" stroke-width=".3985" stroke-linecap="butt" stroke-miterlimit="10" stroke-linejoin="miter" fill="none" stroke="#000000" d="M0 2.26778V-2.26778"/>
<use data-text="0" xlink:href="#font_1_121" transform="matrix(9.9626,0,0,-9.963098,12.778,54.78394)"/>
<path transform="matrix(1,0,0,-1.00005,15.268997,42.360319)" stroke-width=".3985" stroke-linecap="butt" stroke-miterlimit="10" stroke-linejoin="miter" fill="none" stroke="#000000" d="M28.3468 2.26778V-2.26778"/>
<use data-text="1" xlink:href="#font_1_82" transform="matrix(9.9626,0,0,-9.963098,41.125,54.78394)"/>
<path transform="matrix(1,0,0,-1.00005,15.268997,42.360319)" stroke-width=".3985" stroke-linecap="butt" stroke-miterlimit="10" stroke-linejoin="miter" fill="none" stroke="#000000" d="M56.69362 2.26778V-2.26778"/>
<use data-text="2" xlink:href="#font_1_107" transform="matrix(9.9626,0,0,-9.963098,69.472,54.78394)"/>
<path transform="matrix(1,0,0,-1.00005,15.268997,42.360319)" stroke-width=".3985" stroke-linecap="butt" stroke-miterlimit="10" stroke-linejoin="miter" fill="none" stroke="#000000" d="M85.04042 2.26778V-2.26778"/>
<use data-text="3" xlink:href="#font_1_106" transform="matrix(9.9626,0,0,-9.963098,97.819,54.78394)"/>
<path transform="matrix(1,0,0,-1.00005,15.268997,42.360319)" stroke-width=".3985" stroke-linecap="butt" stroke-miterlimit="10" stroke-linejoin="miter" fill="none" stroke="#000000" d="M113.38724 2.26778V-2.26778"/>
<use data-text="4" xlink:href="#font_1_57" transform="matrix(9.9626,0,0,-9.963098,126.166,54.892946)"/>
<path transform="matrix(1,0,0,-1.00005,15.268997,42.360319)" d="M2.29143 12.75595C2.29143 14.02148 1.26553 15.0474 0 15.0474-1.26553 15.0474-2.29143 14.02148-2.29143 12.75595-2.29143 11.49042-1.26553 10.46452 0 10.46452 1.26553 10.46452 2.29143 11.49042 2.29143 12.75595ZM0 12.75595" fill="#0000ff"/>
<path transform="matrix(1,0,0,-1.00005,15.268997,42.360319)" stroke-width=".3985" stroke-linecap="butt" stroke-miterlimit="10" stroke-linejoin="miter" fill="none" stroke="#0000ff" d="M2.29143 12.75595C2.29143 14.02148 1.26553 15.0474 0 15.0474-1.26553 15.0474-2.29143 14.02148-2.29143 12.75595-2.29143 11.49042-1.26553 10.46452 0 10.46452 1.26553 10.46452 2.29143 11.49042 2.29143 12.75595ZM0 12.75595"/>
<path transform="matrix(1,0,0,-1.00005,15.268997,42.360319)" d="M30.63824 12.75595C30.63824 14.02148 29.61234 15.0474 28.3468 15.0474 27.08127 15.0474 26.05536 14.02148 26.05536 12.75595 26.05536 11.49042 27.08127 10.46452 28.3468 10.46452 29.61234 10.46452 30.63824 11.49042 30.63824 12.75595ZM28.3468 12.75595" fill="#0000ff"/>
<path transform="matrix(1,0,0,-1.00005,15.268997,42.360319)" stroke-width=".3985" stroke-linecap="butt" stroke-miterlimit="10" stroke-linejoin="miter" fill="none" stroke="#0000ff" d="M30.63824 12.75595C30.63824 14.02148 29.61234 15.0474 28.3468 15.0474 27.08127 15.0474 26.05536 14.02148 26.05536 12.75595 26.05536 11.49042 27.08127 10.46452 28.3468 10.46452 29.61234 10.46452 30.63824 11.49042 30.63824 12.75595ZM28.3468 12.75595"/>
<path transform="matrix(1,0,0,-1.00005,15.268997,42.360319)" d="M30.63824 25.51193C30.63824 26.77747 29.61234 27.80338 28.3468 27.80338 27.08127 27.80338 26.05536 26.77747 26.05536 25.51193 26.05536 24.2464 27.08127 23.2205 28.3468 23.2205 29.61234 23.2205 30.63824 24.2464 30.63824 25.51193ZM28.3468 25.51193" fill="#0000ff"/>
<path transform="matrix(1,0,0,-1.00005,15.268997,42.360319)" stroke-width=".3985" stroke-linecap="butt" stroke-miterlimit="10" stroke-linejoin="miter" fill="none" stroke="#0000ff" d="M30.63824 25.51193C30.63824 26.77747 29.61234 27.80338 28.3468 27.80338 27.08127 27.80338 26.05536 26.77747 26.05536 25.51193 26.05536 24.2464 27.08127 23.2205 28.3468 23.2205 29.61234 23.2205 30.63824 24.2464 30.63824 25.51193ZM28.3468 25.51193"/>
<path transform="matrix(1,0,0,-1.00005,15.268997,42.360319)" d="M30.63824 38.26791C30.63824 39.53345 29.61234 40.55936 28.3468 40.55936 27.08127 40.55936 26.05536 39.53345 26.05536 38.26791 26.05536 37.00238 27.08127 35.97647 28.3468 35.97647 29.61234 35.97647 30.63824 37.00238 30.63824 38.26791ZM28.3468 38.26791" fill="#0000ff"/>
<path transform="matrix(1,0,0,-1.00005,15.268997,42.360319)" stroke-width=".3985" stroke-linecap="butt" stroke-miterlimit="10" stroke-linejoin="miter" fill="none" stroke="#0000ff" d="M30.63824 38.26791C30.63824 39.53345 29.61234 40.55936 28.3468 40.55936 27.08127 40.55936 26.05536 39.53345 26.05536 38.26791 26.05536 37.00238 27.08127 35.97647 28.3468 35.97647 29.61234 35.97647 30.63824 37.00238 30.63824 38.26791ZM28.3468 38.26791"/>
<path transform="matrix(1,0,0,-1.00005,15.268997,42.360319)" d="M58.98505 12.75595C58.98505 14.02148 57.95915 15.0474 56.69362 15.0474 55.42809 15.0474 54.40218 14.02148 54.40218 12.75595 54.40218 11.49042 55.42809 10.46452 56.69362 10.46452 57.95915 10.46452 58.98505 11.49042 58.98505 12.75595ZM56.69362 12.75595" fill="#0000ff"/>
<path transform="matrix(1,0,0,-1.00005,15.268997,42.360319)" stroke-width=".3985" stroke-linecap="butt" stroke-miterlimit="10" stroke-linejoin="miter" fill="none" stroke="#0000ff" d="M58.98505 12.75595C58.98505 14.02148 57.95915 15.0474 56.69362 15.0474 55.42809 15.0474 54.40218 14.02148 54.40218 12.75595 54.40218 11.49042 55.42809 10.46452 56.69362 10.46452 57.95915 10.46452 58.98505 11.49042 58.98505 12.75595ZM56.69362 12.75595"/>
<path transform="matrix(1,0,0,-1.00005,15.268997,42.360319)" d="M58.98505 25.51193C58.98505 26.77747 57.95915 27.80338 56.69362 27.80338 55.42809 27.80338 54.40218 26.77747 54.40218 25.51193 54.40218 24.2464 55.42809 23.2205 56.69362 23.2205 57.95915 23.2205 58.98505 24.2464 58.98505 25.51193ZM56.69362 25.51193" fill="#0000ff"/>
<path transform="matrix(1,0,0,-1.00005,15.268997,42.360319)" stroke-width=".3985" stroke-linecap="butt" stroke-miterlimit="10" stroke-linejoin="miter" fill="none" stroke="#0000ff" d="M58.98505 25.51193C58.98505 26.77747 57.95915 27.80338 56.69362 27.80338 55.42809 27.80338 54.40218 26.77747 54.40218 25.51193 54.40218 24.2464 55.42809 23.2205 56.69362 23.2205 57.95915 23.2205 58.98505 24.2464 58.98505 25.51193ZM56.69362 25.51193"/>
<path transform="matrix(1,0,0,-1.00005,15.268997,42.360319)" d="M58.98505 38.26791C58.98505 39.53345 57.95915 40.55936 56.69362 40.55936 55.42809 40.55936 54.40218 39.53345 54.40218 38.26791 54.40218 37.00238 55.42809 35.97647 56.69362 35.97647 57.95915 35.97647 58.98505 37.00238 58.98505 38.26791ZM56.69362 38.26791" fill="#0000ff"/>
<path transform="matrix(1,0,0,-1.00005,15.268997,42.360319)" stroke-width=".3985" stroke-linecap="butt" stroke-miterlimit="10" stroke-linejoin="miter" fill="none" stroke="#0000ff" d="M58.98505 38.26791C58.98505 39.53345 57.95915 40.55936 56.69362 40.55936 55.42809 40.55936 54.40218 39.53345 54.40218 38.26791 54.40218 37.00238 55.42809 35.97647 56.69362 35.97647 57.95915 35.97647 58.98505 37.00238 58.98505 38.26791ZM56.69362 38.26791"/>
<path transform="matrix(1,0,0,-1.00005,15.268997,42.360319)" d="M87.33186 12.75595C87.33186 14.02148 86.30595 15.0474 85.04042 15.0474 83.77489 15.0474 82.74898 14.02148 82.74898 12.75595 82.74898 11.49042 83.77489 10.46452 85.04042 10.46452 86.30595 10.46452 87.33186 11.49042 87.33186 12.75595ZM85.04042 12.75595" fill="#0000ff"/>
<path transform="matrix(1,0,0,-1.00005,15.268997,42.360319)" stroke-width=".3985" stroke-linecap="butt" stroke-miterlimit="10" stroke-linejoin="miter" fill="none" stroke="#0000ff" d="M87.33186 12.75595C87.33186 14.02148 86.30595 15.0474 85.04042 15.0474 83.77489 15.0474 82.74898 14.02148 82.74898 12.75595 82.74898 11.49042 83.77489 10.46452 85.04042 10.46452 86.30595 10.46452 87.33186 11.49042 87.33186 12.75595ZM85.04042 12.75595"/>
<path transform="matrix(1,0,0,-1.00005,15.268997,42.360319)" d="M87.33186 25.51193C87.33186 26.77747 86.30595 27.80338 85.04042 27.80338 83.77489 27.80338 82.74898 26.77747 82.74898 25.51193 82.74898 24.2464 83.77489 23.2205 85.04042 23.2205 86.30595 23.2205 87.33186 24.2464 87.33186 25.51193ZM85.04042 25.51193" fill="#0000ff"/>
<path transform="matrix(1,0,0,-1.00005,15.268997,42.360319)" stroke-width=".3985" stroke-linecap="butt" stroke-miterlimit="10" stroke-linejoin="miter" fill="none" stroke="#0000ff" d="M87.33186 25.51193C87.33186 26.77747 86.30595 27.80338 85.04042 27.80338 83.77489 27.80338 82.74898 26.77747 82.74898 25.51193 82.74898 24.2464 83.77489 23.2205 85.04042 23.2205 86.30595 23.2205 87.33186 24.2464 87.33186 25.51193ZM85.04042 25.51193"/>
<path transform="matrix(1,0,0,-1.00005,15.268997,42.360319)" d="M87.33186 38.26791C87.33186 39.53345 86.30595 40.55936 85.04042 40.55936 83.77489 40.55936 82.74898 39.53345 82.74898 38.26791 82.74898 37.00238 83.77489 35.97647 85.04042 35.97647 86.30595 35.97647 87.33186 37.00238 87.33186 38.26791ZM85.04042 38.26791" fill="#0000ff"/>
<path transform="matrix(1,0,0,-1.00005,15.268997,42.360319)" stroke-width=".3985" stroke-linecap="butt" stroke-miterlimit="10" stroke-linejoin="miter" fill="none" stroke="#0000ff" d="M87.33186 38.26791C87.33186 39.53345 86.30595 40.55936 85.04042 40.55936 83.77489 40.55936 82.74898 39.53345 82.74898 38.26791 82.74898 37.00238 83.77489 35.97647 85.04042 35.97647 86.30595 35.97647 87.33186 37.00238 87.33186 38.26791ZM85.04042 38.26791"/>
<path transform="matrix(1,0,0,-1.00005,15.268997,42.360319)" d="M115.67867 12.75595C115.67867 14.02148 114.65277 15.0474 113.38724 15.0474 112.1217 15.0474 111.0958 14.02148 111.0958 12.75595 111.0958 11.49042 112.1217 10.46452 113.38724 10.46452 114.65277 10.46452 115.67867 11.49042 115.67867 12.75595ZM113.38724 12.75595" fill="#0000ff"/>
<path transform="matrix(1,0,0,-1.00005,15.268997,42.360319)" stroke-width=".3985" stroke-linecap="butt" stroke-miterlimit="10" stroke-linejoin="miter" fill="none" stroke="#0000ff" d="M115.67867 12.75595C115.67867 14.02148 114.65277 15.0474 113.38724 15.0474 112.1217 15.0474 111.0958 14.02148 111.0958 12.75595 111.0958 11.49042 112.1217 10.46452 113.38724 10.46452 114.65277 10.46452 115.67867 11.49042 115.67867 12.75595ZM113.38724 12.75595"/>
<path transform="matrix(1,0,0,-1.00005,15.268997,42.360319)" d="M115.67867 25.51193C115.67867 26.77747 114.65277 27.80338 113.38724 27.80338 112.1217 27.80338 111.0958 26.77747 111.0958 25.51193 111.0958 24.2464 112.1217 23.2205 113.38724 23.2205 114.65277 23.2205 115.67867 24.2464 115.67867 25.51193ZM113.38724 25.51193" fill="#0000ff"/>
<path transform="matrix(1,0,0,-1.00005,15.268997,42.360319)" stroke-width=".3985" stroke-linecap="butt" stroke-miterlimit="10" stroke-linejoin="miter" fill="none" stroke="#0000ff" d="M115.67867 25.51193C115.67867 26.77747 114.65277 27.80338 113.38724 27.80338 112.1217 27.80338 111.0958 26.77747 111.0958 25.51193 111.0958 24.2464 112.1217 23.2205 113.38724 23.2205 114.65277 23.2205 115.67867 24.2464 115.67867 25.51193ZM113.38724 25.51193"/>
</svg>
