<svg xmlns="http://www.w3.org/2000/svg" xmlns:xlink="http://www.w3.org/1999/xlink" xmlns:inkscape="http://www.inkscape.org/namespaces/inkscape" version="1.1" width="322" height="172" viewBox="0 0 322 172">
<defs>
<path id="font_1_1" d="M.45999146 .31976319C.45999146 .39982606 .45498658 .47988893 .41999818 .5539398 .37399293 .65000918 .2919922 .6660156 .25 .6660156 .18998719 .6660156 .116989139 .64001467 .07598877 .54693606 .04399109 .47789 .038986207 .39982606 .038986207 .31976319 .038986207 .24472046 .042999269 .15464783 .083999637 .07859802 .1269989-.0024719239 .19999695-.022460938 .24899292-.022460938 .30299378-.022460938 .3789978-.0014648438 .4229889 .09359741 .45498658 .16265869 .45999146 .2407074 .45999146 .31976319M.24899292-.00047302247C.20999146-.00047302247 .15098572 .024551392 .1329956 .12062073 .12199402 .18066406 .12199402 .2727356 .12199402 .3317871 .12199402 .39582826 .12199402 .46188355 .12998963 .5159149 .14898682 .63500979 .22399903 .64401248 .24899292 .64401248 .28199769 .64401248 .34799195 .6259918 .36698915 .52693179 .3769989 .47088624 .3769989 .39482118 .3769989 .3317871 .3769989 .25672914 .3769989 .18867493 .3659973 .12461853 .35099793 .029556275 .2939911-.00047302247 .24899292-.00047302247Z"/>
<path id="font_1_3" d="M.1269989 .07699585 .23298645 .18003845C.3889923 .31811524 .44898988 .3721466 .44898988 .47216798 .44898988 .5860901 .35899354 .6660156 .23699951 .6660156 .12399292 .6660156 .049987794 .57411196 .049987794 .48516847 .049987794 .4291687 .099990848 .4291687 .102996829 .4291687 .11999512 .4291687 .15499878 .44117738 .15499878 .48217774 .15499878 .5081787 .13699341 .5341797 .101989749 .5341797 .09399414 .5341797 .09199524 .5341797 .08898926 .5331726 .11199951 .59806826 .1659851 .63500979 .22399903 .63500979 .31498719 .63500979 .35798646 .5541382 .35798646 .47216798 .35798646 .39215089 .30799867 .31311036 .25299073 .25108338L.06098938 .036987306C.049987794 .025985718 .049987794 .023986817 .049987794 0H.42099L.44898988 .17404175H.42399598C.4189911 .14402771 .4119873 .1000061 .4019928 .084991458 .394989 .07699585 .32899476 .07699585 .30699159 .07699585H.1269989Z"/>
<path id="font_1_4" d="M.2939911 .16503906V.07800293C.2939911 .041992189 .2919922 .0309906 .21798706 .0309906H.19699097V0C.23799134 .0029907227 .2899933 .0029907227 .33198548 .0029907227 .37399293 .0029907227 .4269867 .0029907227 .46798707 0V.0309906H.44699098C.37298585 .0309906 .37098695 .041992189 .37098695 .07800293V.16503906H.47099305V.19602967H.37098695V.65075686C.37098695 .67074587 .37098695 .6767578 .35499574 .6767578 .34599305 .6767578 .34298707 .6767578 .33499146 .66474917L.027999878 .19602967V.16503906H.2939911M.2999878 .19602967H.055999757L.2999878 .5688019V.19602967Z"/>
<path id="font_1_6" d="M.13198853 .327713V.35173036C.13198853 .6047821 .2559967 .64100649 .30699159 .64100649 .33099366 .64100649 .37298585 .634964 .394989 .6007538 .37998963 .6007538 .33999635 .6007538 .33999635 .5557556 .33999635 .524765 .3639984 .5097656 .38598634 .5097656 .4019928 .5097656 .43199159 .51875308 .43199159 .5577545 .43199159 .6178589 .3880005 .6660156 .30499269 .6660156 .1769867 .6660156 .041992189 .5367584 .041992189 .31570436 .041992189 .048553468 .1579895-.022460938 .25099183-.022460938 .3619995-.022460938 .45700074 .07156372 .45700074 .2036438 .45700074 .33070375 .36799623 .4267578 .25698854 .4267578 .18899536 .4267578 .1519928 .37573243 .13198853 .327713M.25099183 .0055389406C.18798828 .0055389406 .1579895 .06556702 .1519928 .080566409 .13398743 .127594 .13398743 .2076416 .13398743 .22564698 .13398743 .30369569 .1659851 .40374757 .2559967 .40374757 .27198792 .40374757 .31799317 .40374757 .34899903 .34172059 .36698915 .30470277 .36698915 .2536621 .36698915 .20463562 .36698915 .15661621 .36698915 .10658264 .34999085 .0705719 .31999208 .010528564 .27398683 .0055389406 .25099183 .0055389406Z"/>
<path id="font_1_7" d="M.16299439 .4569702C.116989139 .486969 .11299133 .52098086 .11299133 .5379791 .11299133 .598999 .17799378 .64100649 .24899292 .64100649 .32199098 .64100649 .38598634 .58898928 .38598634 .51698306 .38598634 .45996095 .34700013 .4119568 .2869873 .37695313L.16299439 .4569702M.30899049 .36193849C.3809967 .3989563 .42999269 .45095826 .42999269 .51698306 .42999269 .6090088 .34098817 .6660156 .25 .6660156 .1499939 .6660156 .068984989 .59199526 .068984989 .49897767 .068984989 .4809723 .070999149 .43595887 .11299133 .38894654 .12399292 .37695313 .16099549 .35194398 .18598938 .33494569 .12799073 .30592347 .041992189 .24984741 .041992189 .15072632 .041992189 .04458618 .14399719-.022460938 .24899292-.022460938 .3619995-.022460938 .45700074 .06060791 .45700074 .16773987 .45700074 .20379639 .44599916 .24885559 .4079895 .2909088 .3889923 .31193543 .37298585 .3219452 .30899049 .36193849M.20899964 .3199463 .33198548 .24183655C.3600006 .2228241 .40699769 .19277954 .40699769 .13169861 .40699769 .05760193 .33198548 .0055389406 .25 .0055389406 .1639862 .0055389406 .09199524 .067611698 .09199524 .15072632 .09199524 .20880127 .12399292 .27288819 .20899964 .3199463Z"/>
<path id="font_1_2" d="M.2939911 .64004519C.2939911 .66400149 .2939911 .6660156 .2709961 .6660156 .20899964 .60227969 .12098694 .60227969 .08898926 .60227969V.57128909C.10899353 .57128909 .16799927 .57128909 .21998596 .5972748V.07902527C.21998596 .042999269 .21699524 .0309906 .1269989 .0309906H.09498596V0C.12998963 .0029907227 .21699524 .0029907227 .25698854 .0029907227 .29699708 .0029907227 .38398744 .0029907227 .4189911 0V.0309906H.3869934C.29699708 .0309906 .2939911 .041992189 .2939911 .07902527V.64004519Z"/>
<path id="font_1_5" d="M.44898988 .20022583C.44898988 .3193512 .36698915 .41944886 .25898744 .41944886 .21099854 .41944886 .16799927 .40345765 .13198853 .36842347V.5637665C.1519928 .5577698 .18499756 .55078127 .21699524 .55078127 .33999635 .55078127 .4099884 .6417694 .4099884 .6547699 .4099884 .6607666 .40699769 .6657715 .3999939 .6657715 .39898683 .6657715 .39698792 .6657715 .3919983 .66278079 .37199403 .6537781 .32299806 .6337738 .2559967 .6337738 .21598816 .6337738 .16999817 .6407776 .12298584 .6617737 .114990238 .66477969 .11299133 .66477969 .11099243 .66477969 .100997928 .66477969 .100997928 .6567688 .100997928 .6407776V.34439088C.100997928 .32637025 .100997928 .31835938 .114990238 .31835938 .12199402 .31835938 .12399292 .32136537 .12799073 .32736207 .13899231 .3433838 .17599488 .39746095 .25698854 .39746095 .30899049 .39746095 .33399964 .35139466 .34199525 .33337403 .35798646 .29632569 .3600006 .25727845 .3600006 .20722962 .3600006 .17222595 .3600006 .11222839 .33599855 .07035828 .31199647 .031463624 .2749939 .0055389406 .22898865 .0055389406 .1559906 .0055389406 .09899902 .058380128 .08198547 .11723328 .084991458 .1162262 .08799744 .115234378 .09899902 .115234378 .13198853 .115234378 .14898682 .14022827 .14898682 .16423035 .14898682 .18823242 .13198853 .21322632 .09899902 .21322632 .084991458 .21322632 .049987794 .20622254 .049987794 .16023255 .049987794 .07434082 .11898804-.022460938 .23098755-.022460938 .34700013-.022460938 .44898988 .073349 .44898988 .20022583Z"/>
<path id="font_2_1" d="M.19198609 .2502594C.19198609 .2792511 .16799927 .30325318 .13899231 .30325318 .10998535 .30325318 .085998538 .2792511 .085998538 .2502594 .085998538 .22125244 .10998535 .19726563 .13899231 .19726563 .16799927 .19726563 .19198609 .22125244 .19198609 .2502594Z"/>
<path id="font_3_1" d="M.74398806 .2263794C.7599945 .2263794 .7839966 .2263794 .7839966 .25038148 .7839966 .27539063 .7609863 .27539063 .74398806 .27539063H.147995C.13198853 .27539063 .10798645 .27539063 .10798645 .25138856 .10798645 .2263794 .1309967 .2263794 .147995 .2263794H.74398806Z"/>
<path id="font_4_1" d="M.5049896 .18203736H.47099305C.46798707 .16001892 .45799256 .100997928 .44499208 .09098816 .43699647 .084991458 .3600006 .084991458 .34599305 .084991458H.1619873C.2669983 .17803955 .3019867 .20603943 .3619995 .25306703 .43598939 .312088 .5049896 .374115 .5049896 .46914674 .5049896 .5900879 .39898683 .6640625 .2709961 .6640625 .14698792 .6640625 .06298828 .57710269 .06298828 .4851532 .06298828 .43414308 .10598755 .42915345 .115997318 .42915345 .13999939 .42915345 .16899109 .44615174 .16899109 .48214723 .16899109 .5001526 .1619873 .53515627 .10998535 .53515627 .14099121 .6060791 .20899964 .62805178 .2559967 .62805178 .35598756 .62805178 .4079895 .5501404 .4079895 .46914674 .4079895 .38212586 .34599305 .3130951 .31399537 .27708436L.07299805 .038986207C.06298828 .02999878 .06298828 .027999878 .06298828 0H.47499085L.5049896 .18203736Z"/>
<path id="font_5_1" d="M.19198609 .052993776C.19198609 .08198547 .16799927 .10598755 .13899231 .10598755 .10998535 .10598755 .085998538 .08198547 .085998538 .052993776 .085998538 .023986817 .10998535 0 .13899231 0 .16799927 0 .19198609 .023986817 .19198609 .052993776Z"/>
<clipPath id="clip_6">
<path transform="matrix(1.00002,0,0,-1.00003,39.69851,144.05783)" d="M0 0H281.15403V142.25539H0Z"/>
</clipPath>
<path id="font_5_2" d="M.2869873 .68333438C.2869873 .6843262 .2869873 .69433596 .27398683 .69433596 .25099183 .69433596 .17799378 .6863251 .1519928 .6843262 .14399719 .68333438 .1329956 .6823273 .1329956 .6643219 .1329956 .6523285 .14199829 .6523285 .15699768 .6523285 .20498657 .6523285 .20698548 .6453247 .20698548 .6353302L.20399475 .6153412 .05899048 .039260866C.054992677 .025253296 .054992677 .023254395 .054992677 .01725769 .054992677-.0057525637 .07499695-.0107421879 .083999637-.0107421879 .09700012-.0107421879 .11199951-.0017547608 .117996219 .010253906 .12298584 .019256592 .16799927 .20431519 .17399597 .22932434 .20799256 .22631836 .2899933 .21031189 .2899933 .14428711 .2899933 .13729859 .2899933 .13328552 .2869873 .123291019 .2849884 .11128235 .2829895 .09927368 .2829895 .088272098 .2829895 .029251099 .32299806-.0107421879 .375-.0107421879 .40499879-.0107421879 .43199159 .0052490236 .45399476 .042266847 .47898866 .08627319 .48999024 .14129639 .48999024 .14329529 .48999024 .1532898 .48098756 .1532898 .47799684 .1532898 .46798707 .1532898 .46699525 .14929199 .46398927 .13528443 .44400025 .06227112 .42099 .011245728 .3769989 .011245728 .35798646 .011245728 .34498597 .022247315 .34498597 .058273317 .34498597 .07527161 .34899903 .09828186 .35299684 .11428833 .35699464 .13128662 .35699464 .13528443 .35699464 .14529419 .35699464 .21031189 .2939911 .23931885 .20899964 .2503357 .23999024 .26834107 .27198792 .30033876 .29499818 .32435609 .34298707 .37734986 .3889923 .42037965 .43798829 .42037965 .44400025 .42037965 .44499208 .42037965 .44699098 .41937257 .45899964 .41737367 .45999146 .41737367 .46798707 .4113617 .46998597 .4103546 .46998597 .40934754 .47200013 .40734864 .42399598 .4043579 .4149933 .36535646 .4149933 .35334779 .4149933 .33735658 .42599488 .31835938 .45298768 .31835938 .47898866 .31835938 .5079956 .3403473 .5079956 .37934876 .5079956 .40934754 .4850006 .4423828 .43998719 .4423828 .4119873 .4423828 .3659973 .43437196 .2939911 .35435487 .2599945 .3163452 .22099304 .27633668 .18299866 .26133729L.2869873 .68333438Z"/>
</defs>
<path transform="matrix(1.00002,0,0,-1.00003,39.69851,144.05783)" stroke-width=".19925" stroke-linecap="butt" stroke-miterlimit="10" stroke-linejoin="miter" fill="none" stroke="#7f807f" d="M10.4131-2.12593V2.12593M36.44588-2.12593V2.12593M62.47867-2.12593V2.12593M88.51144-2.12593V2.12593M114.54422-2.12593V2.12593M140.57701-2.12593V2.12593M166.60979-2.12593V2.12593M192.64257-2.12593V2.12593M218.67534-2.12593V2.12593M244.70813-2.12593V2.12593M270.7409-2.12593V2.12593"/>
<path transform="matrix(1.00002,0,0,-1.00003,39.69851,144.05783)" stroke-width=".19925" stroke-linecap="butt" stroke-miterlimit="10" stroke-linejoin="miter" fill="none" stroke="#7f807f" d="M-2.12639 37.43562H2.12639M-2.12639 74.87126H2.12639M-2.12639 112.30688H2.12639"/>
<path transform="matrix(1.00002,0,0,-1.00003,39.69851,144.05783)" stroke-width=".3985" stroke-linecap="butt" stroke-miterlimit="10" stroke-linejoin="miter" fill="none" stroke="#000000" d="M0 0H279.1615"/>
<path transform="matrix(1.00002,0,0,-1.00003,318.8656,144.05783)" d="M1.99252 0-1.19551 1.59401 0 0-1.19551-1.59401"/>
<path transform="matrix(1.00002,0,0,-1.00003,39.69851,144.05783)" stroke-width=".3985" stroke-linecap="butt" stroke-miterlimit="10" stroke-linejoin="miter" fill="none" stroke="#000000" d="M0 0V140.26287"/>
<path transform="matrix(0,-1.00003,-1.00002,-0,39.69851,3.7907563)" d="M1.99252 0-1.19551 1.59401 0 0-1.19551-1.59401"/>
<use data-text="0" xlink:href="#font_1_1" transform="matrix(9.962799,0,0,-9.962899,47.620668,156.12419)"/>
<use data-text="2" xlink:href="#font_1_3" transform="matrix(9.962799,0,0,-9.962899,73.65419,156.12419)"/>
<use data-text="4" xlink:href="#font_1_4" transform="matrix(9.962799,0,0,-9.962899,99.68771,156.12419)"/>
<use data-text="6" xlink:href="#font_1_6" transform="matrix(9.962799,0,0,-9.962899,125.72124,156.12419)"/>
<use data-text="8" xlink:href="#font_1_7" transform="matrix(9.962799,0,0,-9.962899,151.75476,156.12419)"/>
<use data-text="1" xlink:href="#font_1_2" transform="matrix(9.962799,0,0,-9.962899,175.29721,156.12419)"/>
<use data-text="0" xlink:href="#font_1_1" transform="matrix(9.962799,0,0,-9.962899,180.2786,156.12419)"/>
<use data-text="1" xlink:href="#font_1_2" transform="matrix(9.962799,0,0,-9.962899,201.32975,156.12419)"/>
<use data-text="2" xlink:href="#font_1_3" transform="matrix(9.962799,0,0,-9.962899,206.31113,156.12419)"/>
<use data-text="1" xlink:href="#font_1_2" transform="matrix(9.962799,0,0,-9.962899,227.36325,156.12419)"/>
<use data-text="4" xlink:href="#font_1_4" transform="matrix(9.962799,0,0,-9.962899,232.34464,156.12419)"/>
<use data-text="1" xlink:href="#font_1_2" transform="matrix(9.962799,0,0,-9.962899,253.39679,156.12419)"/>
<use data-text="6" xlink:href="#font_1_6" transform="matrix(9.962799,0,0,-9.962899,258.37818,156.12419)"/>
<use data-text="1" xlink:href="#font_1_2" transform="matrix(9.962799,0,0,-9.962899,279.43034,156.12419)"/>
<use data-text="8" xlink:href="#font_1_7" transform="matrix(9.962799,0,0,-9.962899,284.4117,156.12419)"/>
<use data-text="2" xlink:href="#font_1_3" transform="matrix(9.962799,0,0,-9.962899,305.4638,156.12419)"/>
<use data-text="0" xlink:href="#font_1_1" transform="matrix(9.962799,0,0,-9.962899,310.4452,156.12419)"/>
<use data-text="5" xlink:href="#font_1_5" transform="matrix(9.962799,0,0,-9.962899,1.215744,110.67583)"/>
<use data-text="&#x00b7;" xlink:href="#font_2_1" transform="matrix(9.962799,0,0,-9.962899,8.4118809,110.67583)"/>
<use data-text="1" xlink:href="#font_1_2" transform="matrix(9.962799,0,0,-9.962899,13.39299,110.67583)"/>
<use data-text="0" xlink:href="#font_1_1" transform="matrix(9.962799,0,0,-9.962899,18.374375,110.67583)"/>
<use data-text="&#x2212;" xlink:href="#font_3_1" transform="matrix(6.97394,0,0,-6.9740097,23.355195,107.05972)"/>
<use data-text="2" xlink:href="#font_4_1" transform="matrix(6.97394,0,0,-6.9740097,29.582322,107.05972)"/>
<use data-text="0" xlink:href="#font_1_1" transform="matrix(9.962799,0,0,-9.962899,21.322144,72.39468)"/>
<use data-text="." xlink:href="#font_5_1" transform="matrix(9.962799,0,0,-9.962899,26.30423,72.39468)"/>
<use data-text="1" xlink:href="#font_1_2" transform="matrix(9.962799,0,0,-9.962899,29.07129,72.39468)"/>
<use data-text="0" xlink:href="#font_1_1" transform="matrix(9.962799,0,0,-9.962899,16.340043,34.95755)"/>
<use data-text="." xlink:href="#font_5_1" transform="matrix(9.962799,0,0,-9.962899,21.322129,34.95755)"/>
<use data-text="1" xlink:href="#font_1_2" transform="matrix(9.962799,0,0,-9.962899,24.089188,34.95755)"/>
<use data-text="5" xlink:href="#font_1_5" transform="matrix(9.962799,0,0,-9.962899,29.070572,34.95755)"/>
<g clip-path="url(#clip_6)">
<path transform="matrix(1.00002,0,0,-1.00003,39.69851,144.05783)" d="M6.428 0H14.398211V.0007H6.428ZM19.44438 0H27.414589V.01427H19.44438ZM32.46077 0H40.43098V.13565H32.46077ZM45.47717 0H53.44738V.81398H45.47717ZM58.49356 0H66.46377V3.45952H58.49356ZM71.50995 0H79.480159V11.07027H71.50995ZM84.52634 0H92.496547V27.6757H84.52634ZM97.54272 0H105.512928V55.35143H97.54272ZM110.55911 0H118.52932V89.94533H110.55911ZM123.5755 0H131.54572V119.92816H123.5755ZM136.5919 0H144.56212V131.92095H136.5919ZM149.60829 0H157.5785V119.92816H149.60829ZM162.62468 0H170.5949V89.94533H162.62468ZM175.64107 0H183.61128V55.35143H175.64107ZM188.65746 0H196.62767V27.6757H188.65746ZM201.67385 0H209.64406V11.07027H201.67385ZM214.69023 0H222.66045V3.45952H214.69023ZM227.70662 0H235.67684V.81398H227.70662ZM240.72303 0H248.69324V.13565H240.72303ZM253.73941 0H261.70964V.01427H253.73941ZM266.7558 0H274.726V.0007H266.7558Z" fill="#cccccc"/>
<path transform="matrix(1.00002,0,0,-1.00003,39.69851,144.05783)" stroke-width=".3985" stroke-linecap="butt" stroke-miterlimit="10" stroke-linejoin="miter" fill="none" stroke="#000000" d="M6.428 0H14.398211V.0007H6.428ZM19.44438 0H27.414589V.01427H19.44438ZM32.46077 0H40.43098V.13565H32.46077ZM45.47717 0H53.44738V.81398H45.47717ZM58.49356 0H66.46377V3.45952H58.49356ZM71.50995 0H79.480159V11.07027H71.50995ZM84.52634 0H92.496547V27.6757H84.52634ZM97.54272 0H105.512928V55.35143H97.54272ZM110.55911 0H118.52932V89.94533H110.55911ZM123.5755 0H131.54572V119.92816H123.5755ZM136.5919 0H144.56212V131.92095H136.5919ZM149.60829 0H157.5785V119.92816H149.60829ZM162.62468 0H170.5949V89.94533H162.62468ZM175.64107 0H183.61128V55.35143H175.64107ZM188.65746 0H196.62767V27.6757H188.65746ZM201.67385 0H209.64406V11.07027H201.67385ZM214.69023 0H222.66045V3.45952H214.69023ZM227.70662 0H235.67684V.81398H227.70662ZM240.72303 0H248.69324V.13565H240.72303ZM253.73941 0H261.70964V.01427H253.73941ZM266.7558 0H274.726V.0007H266.7558Z"/>
</g>
<use data-text="k" xlink:href="#font_5_2" transform="matrix(9.962799,0,0,-9.962899,177.52826,169.8836)"/>
</svg>
