<svg xmlns="http://www.w3.org/2000/svg" xmlns:xlink="http://www.w3.org/1999/xlink" xmlns:inkscape="http://www.inkscape.org/namespaces/inkscape" version="1.1" width="272" height="165" viewBox="0 0 272 165">
<defs>
<path id="font_1_1" d="M.23098755 .35134889C.23599243 .37236024 .24598694 .41036988 .24598694 .41537477 .24598694 .43237306 .23399353 .4423828 .21699524 .4423828 .21398926 .4423828 .18598938 .44137574 .1769867 .40637208L.032989503-.17282105C.02999878-.18482971 .02999878-.18682862 .02999878-.18882752 .02999878-.2038269 .040985109-.21582031 .057998659-.21582031 .07899475-.21582031 .09098816-.1978302 .09298706-.19482422 .09700012-.18582154 .10998535-.13380432 .147995 .020248414 .17999268-.0067443849 .22499085-.0107421879 .24499512-.0107421879 .31498719-.0107421879 .35398866 .03425598 .37799073 .06227112 .3869934 .01725769 .42399598-.0107421879 .46798707-.0107421879 .5029907-.0107421879 .526001 .012252808 .5419922 .044265748 .5589905 .08027649 .57199099 .14129639 .57199099 .14329529 .57199099 .1532898 .5629883 .1532898 .55999758 .1532898 .5499878 .1532898 .548996 .14929199 .54599 .13528443 .5289917 .07026672 .5109863 .011245728 .46998597 .011245728 .44299317 .011245728 .43998719 .037261964 .43998719 .057266237 .43998719 .07926941 .45199586 .12628174 .45999146 .16130066L.48799134 .2693329C.4909973 .28433229 .5009918 .32234193 .5049896 .3373413 .5099945 .36035157 .519989 .3983612 .519989 .40437318 .519989 .42237855 .5059967 .43138124 .4909973 .43138124 .48599244 .43138124 .45999146 .43037416 .45199586 .3963623L.40499879 .20930481C.3929901 .15930176 .38198854 .11727905 .3789978 .107284549 .37799073 .10227966 .32998658 .011245728 .24899292 .011245728 .19898987 .011245728 .1749878 .044265748 .1749878 .09828186 .1749878 .12728882 .18199158 .1552887 .18899536 .18330384L.23098755 .35134889Z"/>
<path id="font_2_1" d="M.6589966 .23046875C.6759949 .23046875 .69400027 .23046875 .69400027 .25045777 .69400027 .27046205 .6759949 .27046205 .6589966 .27046205H.117996219C.100997928 .27046205 .08299255 .27046205 .08299255 .25045777 .08299255 .23046875 .100997928 .23046875 .117996219 .23046875H.6589966Z"/>
<path id="font_1_2" d="M.5179901 .37265016C.5309906 .37265016 .5669861 .37265016 .5669861 .406662 .5669861 .43066407 .54599 .43066407 .5279999 .43066407H.2999878C.14898682 .43066407 .037994386 .26583863 .037994386 .14703369 .037994386 .059173585 .09700012-.0107421879 .18798828-.0107421879 .30599977-.0107421879 .43899537 .11009216 .43899537 .26383973 .43899537 .2808075 .43899537 .32873536 .4079895 .37265016H.5179901M.18899536 .011245728C.13999939 .011245728 .099990848 .047195436 .099990848 .11907959 .099990848 .14901734 .11199951 .230896 .14698792 .28979493 .18899536 .3586731 .24899292 .37265016 .2829895 .37265016 .36698915 .37265016 .375 .3067627 .375 .27581788 .375 .2288971 .35499574 .14703369 .32099916 .09611511 .28199769 .037200929 .22799683 .011245728 .18899536 .011245728Z"/>
<path id="font_3_1" d="M.40899659 .23046875H.6879883C.70199587 .23046875 .72099307 .23046875 .72099307 .25045777 .72099307 .27046205 .70199587 .27046205 .6879883 .27046205H.40899659V.5500183C.40899659 .56399539 .40899659 .5830078 .3889923 .5830078 .36898805 .5830078 .36898805 .56399539 .36898805 .5500183V.27046205H.08898926C.07499695 .27046205 .055999757 .27046205 .055999757 .25045777 .055999757 .23046875 .07499695 .23046875 .08898926 .23046875H.36898805V-.05000305C.36898805-.06401062 .36898805-.08300781 .3889923-.08300781 .40899659-.08300781 .40899659-.06401062 .40899659-.05000305V.23046875Z"/>
<path id="font_4_98" d="M.36999513 .12831116C.36999513 .17330933 .34999085 .20030213 .32798768 .22329712 .2939911 .25628663 .2579956 .26327516 .18399048 .2772827 .1579895 .28227235 .084991458 .29527284 .084991458 .35224916 .084991458 .38424684 .10798645 .426239 .19898987 .426239 .30699159 .426239 .31399537 .34326173 .31599427 .31826783 .31698609 .3062744 .31698609 .3002777 .32998658 .3002777 .34399415 .3002777 .34399415 .30726625 .34399415 .32626344V.4222412C.34399415 .4392395 .34399415 .4482422 .33198548 .4482422 .32699586 .4482422 .32499696 .4482422 .31199647 .43623353 .30999757 .43423463 .30099488 .42523194 .29499818 .4202423 .2639923 .44223023 .23298645 .4482422 .19898987 .4482422 .066986087 .4482422 .033996583 .37524415 .033996583 .32426454 .033996583 .29226686 .04798889 .26628114 .070999149 .24429322 .10499573 .21330261 .14299011 .20629883 .19400025 .19729615 .24499512 .18730164 .2619934 .18431092 .28399659 .16731262 .2939911 .15931702 .31900025 .14031983 .31900025 .10229492 .31900025 .014251709 .21798706 .014251709 .20399475 .014251709 .101989749 .014251709 .07598877 .0993042 .06399536 .15332031 .06098938 .16331482 .05999756 .16931153 .04798889 .16931153 .033996583 .16931153 .033996583 .16131592 .033996583 .14331055V.01524353C.033996583-.0017547608 .033996583-.0107421879 .04598999-.0107421879 .051986696-.0107421879 .052993776-.009750366 .070999149 .009246826 .07499695 .01524353 .085998538 .028259278 .09098816 .03326416 .1329956-.007751465 .1789856-.0107421879 .20399475-.0107421879 .32699586-.0107421879 .36999513 .061279298 .36999513 .12831116Z"/>
<path id="font_4_118" d="M.519989 .3996582V.43066407C.48799134 .42765809 .45700074 .42765809 .44400025 .42765809 .41600038 .42765809 .3849945 .4286499 .35699464 .43066407V.3996582C.40299989 .3976593 .40299989 .36167909 .40299989 .35768128 .40299989 .3466797 .39898683 .33668519 .394989 .32868959L.2939911 .090789798 .18199158 .3526764C.17599488 .3666687 .17599488 .3736725 .17599488 .3736725 .17599488 .3996582 .20999146 .3996582 .23098755 .3996582V.43066407L.11999512 .42765809C.116989139 .42765809 .05999756 .42765809 .020996094 .43066407V.3996582C.06599426 .3996582 .084991458 .3976593 .09700012 .3706665L.25498963-.00016784668 .22999573-.059143068C.20799256-.11212158 .1789856-.18008423 .11399841-.18008423 .08898926-.18008423 .07199097-.167099 .068984989-.16508484 .07699585-.16407776 .10499573-.1560669 .10499573-.12205505 .10499573-.09605408 .085998538-.080062869 .06298828-.080062869 .037994386-.080062869 .019989014-.09605408 .019989014-.123046878 .019989014-.16807556 .06199646-.20507813 .11399841-.20507813 .1789856-.20507813 .22200012-.14706421 .24598694-.092056278L.4269867 .33068849C.43798829 .3566742 .45599366 .3976593 .519989 .3996582Z"/>
<path id="font_4_75" d="M.83299258 0V.0309906C.7819977 .03125 .7569885 .03125 .7559967 .0622406V.2539215C.7559967 .34077455 .7559967 .36872865 .72299197 .4056549 .70199587 .43037416 .6619873 .4423828 .6159973 .4423828 .5439911 .4423828 .49499513 .40037538 .46699525 .3473816 .45498658 .40637208 .4149933 .4423828 .33099366 .4423828 .25099183 .4423828 .20199585 .39038087 .18099976 .3443756H.17999268V.4423828L.034988405 .43066407V.3996582C.102996829 .3996582 .11199951 .39266969 .11199951 .34370423V.07695007C.11199951 .0309906 .100997928 .0309906 .034988405 .0309906V0C.08198547 .0019989014 .100997928 .0029907227 .14898682 .0029907227 .19699097 .0029907227 .20999146 .0019989014 .2630005 0V.0309906C.19699097 .0309906 .18598938 .0309906 .18598938 .07695007V.25878907C.18598938 .36732484 .2639923 .41737367 .32398988 .41737367 .3789978 .41737367 .39698792 .37834168 .39698792 .30825807V.077041629C.39698792 .0309906 .38598634 .0309906 .31999208 .0309906V0C.36698915 .0019989014 .38598634 .0029907227 .43399049 .0029907227 .48199464 .0029907227 .49499513 .0019989014 .5479889 0V.0309906C.48199464 .0309906 .47099305 .0309906 .47099305 .077041629V.2592163C.47099305 .36732484 .548996 .41737367 .60899356 .41737367 .6639862 .41737367 .6819916 .37834168 .6819916 .30825807V.077041629C.6819916 .0309906 .67099 .0309906 .6049957 .0309906V0C.6519928 .0019989014 .67099 .0029907227 .71899417 .0029907227 .7669983 .0029907227 .7799988 .0019989014 .83299258 0Z"/>
<path id="font_4_50" d="M.4269867 .11936951C.4269867 .12637329 .42199708 .13237 .41299439 .13237 .40299989 .13237 .3999939 .12536621 .39898683 .12136841 .36499024 .019256592 .27598573 .01725769 .26098634 .01725769 .21299744 .01725769 .17199707 .044281007 .14898682 .078323367 .115997318 .12736511 .114990238 .18743897 .114990238 .22949219H.3999939C.42199708 .22949219 .4269867 .22949219 .4269867 .25048829 .4269867 .35333253 .37098695 .4482422 .24299622 .4482422 .12298584 .4482422 .0289917 .3443451 .0289917 .22047425 .0289917 .08932495 .13398743-.0107421879 .2559967-.0107421879 .37799073-.0107421879 .4269867 .096343997 .4269867 .11936951M.35899354 .253479H.115997318C.125 .40725709 .21499634 .42323304 .24299622 .42323304 .2979889 .42323304 .35798646 .38130189 .35899354 .253479Z"/>
<path id="font_4_105" d="M.34199525 .12408447V.18099976H.31399537V.1270752C.31399537 .05319214 .2829895 .01725769 .24699402 .01725769 .17999268 .01725769 .17999268 .1051178 .17999268 .12309265V.3996582H.32499696V.43066407H.17999268V.6142578H.1519928C.15098572 .5304413 .115997318 .42765809 .018997193 .4246521V.3996582H.10598755V.12408447C.10598755 .012252808 .18699646-.0107421879 .23999024-.0107421879 .30699159-.011001587 .34199525 .052993776 .34199525 .12399292V.12408447Z"/>
<path id="font_4_96" d="M.37298585 .3798828C.37298585 .41236878 .34298707 .4423828 .2979889 .4423828 .23799134 .4423828 .19599915 .40037538 .17298889 .33787538H.17199707V.4423828L.02999878 .43066407V.3996582C.09799194 .3996582 .10699463 .3927307 .10699463 .34387208V.07698059C.10699463 .0309906 .09599304 .0309906 .02999878 .0309906V0C.08299255 .0019989014 .09599304 .0029907227 .14698792 .0029907227L.27398683 0V.0309906H.2539978C.18099976 .0309906 .17799378 .041992189 .17799378 .07897949V.22891236C.17799378 .26989747 .18899536 .4166565 .30299378 .4166565V.4156494C.30099488 .4146576 .2849884 .40264894 .2849884 .37887574 .2849884 .35186769 .30599977 .33486939 .32899476 .33486939 .34999085 .33486939 .37298585 .34986878 .37298585 .3798828Z"/>
<path id="font_4_66" d="M.25299073 0V.0309906C.18798828 .0309906 .18399048 .035995485 .18399048 .075042728V.4423828L.039993287 .43066407V.3996582C.10398865 .3996582 .11299133 .3936615 .11299133 .3447113V.07695007C.11299133 .0309906 .101989749 .0309906 .035995485 .0309906V0C.08099365 .0019989014 .101989749 .0029907227 .1459961 .0029907227 .1619873 .0029907227 .20399475 .0029907227 .25299073 0M.19699097 .6028137C.19699097 .63282778 .17298889 .6568146 .14299011 .6568146 .11299133 .6568146 .08898926 .63282778 .08898926 .6028137 .08898926 .57281497 .11299133 .5488281 .14299011 .5488281 .17298889 .5488281 .19699097 .57281497 .19699097 .6028137Z"/>
<path id="font_4_43" d="M.4269867 .11936951C.4269867 .13139344 .41600038 .13139344 .41299439 .13139344 .4019928 .13139344 .4019928 .12937927 .3959961 .11236572 .37298585 .043289186 .31698609 .01725769 .2659912 .01725769 .20199585 .01725769 .11999512 .06932068 .11999512 .21749878 .11999512 .3735962 .19999695 .42022706 .2599945 .42022706 .272995 .42022706 .32699586 .41825868 .3639984 .39356996 .34298707 .3895874 .32299806 .3755951 .32299806 .34658814 .32299806 .32058717 .34298707 .30059815 .36898805 .30059815 .394989 .30059815 .41600038 .31759645 .41600038 .34858705 .41600038 .4103546 .34599305 .4482422 .2579956 .4482422 .12998963 .4482422 .033996583 .3415985 .033996583 .2164917 .033996583 .08734131 .13798523-.0107421879 .2559967-.0107421879 .394989-.0107421879 .4269867 .11036682 .4269867 .11936951Z"/>
<path id="font_1_3" d="M.33399964 .30233766C.33999635 .32835389 .36299134 .42037965 .43299867 .42037965 .43798829 .42037965 .46199037 .42037965 .48298646 .40734864 .45498658 .402359 .43499757 .37734986 .43499757 .35334779 .43499757 .33735658 .44599916 .31835938 .47299195 .31835938 .49499513 .31835938 .5269928 .3363495 .5269928 .37635804 .5269928 .42837525 .46798707 .4423828 .43399049 .4423828 .37599183 .4423828 .34098817 .38935853 .32899476 .36634828 .3039856 .43237306 .25 .4423828 .22099304 .4423828 .116989139 .4423828 .05999756 .3133545 .05999756 .28834535 .05999756 .27833558 .069992069 .27833558 .07199097 .27833558 .07998657 .27833558 .08299255 .28033448 .084991458 .28933717 .11898804 .39535523 .18499756 .42037965 .21899414 .42037965 .23799134 .42037965 .272995 .4113617 .272995 .35334779 .272995 .32235719 .2559967 .25532533 .21899414 .11528015 .20298767 .053268434 .16799927 .011245728 .12399292 .011245728 .117996219 .011245728 .09498596 .011245728 .07398987 .024276734 .09899902 .029266358 .12098694 .05027771 .12098694 .07827759 .12098694 .105270389 .09899902 .11328125 .083999637 .11328125 .053985597 .11328125 .0289917 .08728027 .0289917 .055267335 .0289917 .009246826 .07899475-.0107421879 .12298584-.0107421879 .18899536-.0107421879 .22499085 .059280397 .22799683 .0652771 .23999024 .028274537 .27598573-.0107421879 .33599855-.0107421879 .43899537-.0107421879 .49598695 .118270877 .49598695 .14328003 .49598695 .1532898 .4869995 .1532898 .48399354 .1532898 .47499085 .1532898 .47299195 .14929199 .47099305 .14228821 .43798829 .03527832 .36999513 .011245728 .33799745 .011245728 .29899598 .011245728 .2829895 .043273927 .2829895 .07727051 .2829895 .09927368 .2889862 .121276859 .2999878 .16529846L.33399964 .30233766Z"/>
</defs>
<path transform="matrix(1.00005,0,0,-1.00006,3.295166,138.39134)" stroke-width=".19925" stroke-linecap="butt" stroke-miterlimit="10" stroke-linejoin="miter" fill="none" stroke="#7f807f" d="M95.3506-2.12595V2.12595M133.49085-2.12595V2.12595M171.63109-2.12595V2.12595"/>
<path transform="matrix(1.00005,0,0,-1.00006,3.295166,138.39134)" stroke-width=".19925" stroke-linecap="butt" stroke-miterlimit="10" stroke-linejoin="miter" fill="none" stroke="#7f807f" d=""/>
<path transform="matrix(1.00005,0,0,-1.00006,3.295166,138.39134)" stroke-width=".3985" stroke-linecap="butt" stroke-miterlimit="10" stroke-linejoin="miter" fill="none" stroke="#000000" d="M0 0H264.98918"/>
<path transform="matrix(1.00005,0,0,-1.00006,268.29759,138.39134)" d="M1.99252 0-1.19551 1.59401 0 0-1.19551-1.59401"/>
<path transform="matrix(1.00005,0,0,-1.00006,3.295166,138.39134)" stroke-width=".3985" stroke-linecap="butt" stroke-miterlimit="10" stroke-linejoin="miter" fill="none" stroke="#000000" d="M0 0V134.59299"/>
<path transform="matrix(0,-1.00006,-1.00005,-0,3.295166,3.7902833)" d="M1.99252 0-1.19551 1.59401 0 0-1.19551-1.59401"/>
<use data-text="&#x00b5;" xlink:href="#font_1_1" transform="matrix(9.963098,0,0,-9.963197,86.535327,149.84903)"/>
<use data-text="&#x2212;" xlink:href="#font_2_1" transform="matrix(9.963098,0,0,-9.963197,94.75174,149.84903)"/>
<use data-text="&#x03c3;" xlink:href="#font_1_2" transform="matrix(9.963098,0,0,-9.963197,104.71523,149.84903)"/>
<use data-text="&#x00b5;" xlink:href="#font_1_1" transform="matrix(9.963098,0,0,-9.963197,133.79068,148.32694)"/>
<use data-text="&#x00b5;" xlink:href="#font_1_1" transform="matrix(9.963098,0,0,-9.963197,162.81914,149.84903)"/>
<use data-text="+" xlink:href="#font_3_1" transform="matrix(9.963098,0,0,-9.963197,171.03556,149.84903)"/>
<use data-text="&#x03c3;" xlink:href="#font_1_2" transform="matrix(9.963098,0,0,-9.963197,180.99906,149.84903)"/>
<path transform="matrix(1.00005,0,0,-1.00006,3.295166,138.39134)" stroke-width=".79701" stroke-linecap="butt" stroke-miterlimit="10" stroke-linejoin="miter" fill="none" stroke="#000000" d="M0 .25912 1.11705 .28699 2.23412 .31757 3.3512 .3511 4.46826 .38783 5.58534 .42798 6.70241 .47194 7.81947 .52008 8.93654 .57248 10.0536 .62965 11.1707 .692 12.28775 .75975 13.40482 .83351 14.5219 .91365 15.63896 1.00061 16.75604 1.09492 17.87311 1.1971 18.99019 1.30766 20.10725 1.42726 21.2243 1.55641 22.3414 1.69582 23.45847 1.84613 24.57553 2.00804 25.6926 2.18231 26.80966 2.36964 27.92674 2.5708 29.04381 2.7867 30.16089 3.01813 31.27795 3.26596 32.39503 3.53114 33.5121 3.81459 34.62917 4.1172 35.74625 4.44002 36.8633 4.78413 37.98038 5.15034 39.09746 5.54 40.21452 5.9539 41.33159 6.39328 42.44865 6.85922 43.56573 7.35275 44.6828 7.875 45.79988 8.42728 46.91695 9.01045 48.03401 9.62561 49.15108 10.27408 50.26814 10.95677 51.38524 11.67502 52.50229 12.42896 53.61935 13.22263 54.73643 14.05185 55.8535 14.91661 56.97058 15.82877 58.08765 16.77763 59.20473 17.77153 60.3218 18.8045 61.43886 19.89436 62.55594 21.00789 63.673 22.18066 64.79007 23.38779 65.90714 24.64465 67.0242 25.94774 68.14128 27.29938 69.25835 28.68655 70.37543 30.13058 71.4925 31.61255 72.60957 33.13951 73.72664 34.70557 74.8437 36.32849 75.96078 37.9751 77.07784 39.68213 78.19492 41.42232 79.31198 43.2016 80.42905 45.01405 81.54613 46.86087 82.6632 48.75743 83.78027 50.67769 84.89734 52.62045 86.01442 54.59875 87.13148 56.60194 88.24855 58.62881 89.36562 60.67819 90.48268 62.73941 91.59976 64.81248 92.71683 66.91042 93.8339 69.0072 94.95097 71.11697 96.06804 73.21375 97.18512 75.32355 98.30219 77.40964 99.41927 79.49338 100.53633 81.57948 101.65338 83.62885 102.77046 85.65573 103.88753 87.66957 105.00461 89.64787 106.12167 91.59181 107.23874 93.50023 108.35582 95.36125 109.47289 97.17372 110.58997 98.93759 111.70703 100.65648 112.82417 102.30307 113.94113 103.90231 115.05827 105.43166 116.17525 106.87567 117.29237 108.26288 118.40953 109.57896 119.52649 110.7991 120.64362 111.94818 121.76059 113.01553 122.87773 113.98572 123.99487 114.86472 125.11183 115.65721 126.22899 116.35732 127.34595 116.96146 128.46308 117.45782 129.58023 117.86058 130.69719 118.1686 131.81433 118.37115 132.9313 118.47781H134.04843L135.16558 118.37115 136.28253 118.1686 137.39969 117.86058 138.51665 117.45782 139.63379 116.96146 140.75093 116.35732 141.86789 115.65721 142.98503 114.87537 144.102 113.98572 145.21915 113.01553 146.33628 111.94818 147.45325 110.7991 148.57039 109.57896 149.68735 108.27588 150.80449 106.88872 151.92163 105.43166 153.0386 103.90231 154.15573 102.31612 155.2727 100.65648 156.38985 98.95062 157.50698 97.17372 158.62397 95.36125 159.74109 93.50023 160.85805 91.59181 161.9752 89.64787 163.09233 87.66957 164.2093 85.66875 165.32645 83.62885 166.44342 81.57948 167.56055 79.5064 168.67768 77.42029 169.79467 75.32355 170.91179 73.21375 172.02877 71.11697 173.1459 69.0072 174.26303 66.91042 175.38 64.82552 176.49715 62.73941 177.61412 60.67819 178.73125 58.62881 179.84839 56.60194 180.96537 54.59875 182.08249 52.62045 183.19947 50.67769 184.3166 48.75743 185.43375 46.8739 186.5507 45.01405 187.66785 43.2016 188.78482 41.42232 189.90196 39.68213 191.0191 37.98575 192.13607 36.32849 193.2532 34.71622 194.37018 33.13951 195.4873 31.61255 196.60445 30.13058 197.7214 28.69722 198.83856 27.29938 199.95552 25.94774 201.07266 24.64465 202.1898 23.38779 203.30677 22.18066 204.42392 21.00789 205.54088 19.89436 206.65802 18.81517 207.77516 17.77153 208.89212 16.77763 210.00926 15.82877 211.12622 14.91661 212.24338 14.05185 213.3605 13.22263 214.47747 12.42896 215.59462 11.67612 216.71158 10.95808 217.82872 10.27524 218.94586 9.6266 220.06284 9.01143 221.17996 8.4282 222.29694 7.87596 223.41408 7.35353 224.5312 6.85986 225.64818 6.39406 226.76532 5.95462 227.88228 5.54068 228.99942 5.15097 230.11656 4.78465 231.23354 4.44064 232.35066 4.11774 233.46765 3.81511 234.58478 3.53163 235.7019 3.26643 236.8189 3.01855 237.93602 2.78711 239.053 2.57123 240.17012 2.36995 241.28726 2.18262 242.40424 2.00835 243.52136 1.84637 244.63835 1.69609 245.75548 1.55663 246.8726 1.42746 247.9896 1.30786 249.10672 1.19727 250.2237 1.0951 251.34084 1.00076 252.45798 .91379 253.57494 .83365 254.69208 .7599 255.80905 .69214 256.92619 .62973 258.04335 .57253 259.1603 .52013 260.2774 .47205 261.3944 .42812 262.51155 .38788 263.6287 .35115 264.74565 .3176 265.8628 .28705 266.97975 .25919"/>
<path transform="matrix(1.00005,0,0,-1.00006,3.295166,138.39134)" stroke-width=".79701" stroke-linecap="butt" stroke-dasharray=".79701,1.99255" stroke-miterlimit="10" stroke-linejoin="miter" fill="none" stroke="#000000" d="M133.49085 0V124.70851"/>
<path transform="matrix(1.00005,0,0,-1.00006,3.295166,138.39134)" stroke-width=".79701" stroke-linecap="butt" stroke-miterlimit="10" stroke-linejoin="miter" fill="none" stroke="#000000" d="M134.19821 71.86328H170.92372"/>
<path transform="matrix(-1.00005,-0,0,1.00006,137.50008,66.52375)" stroke-width=".6376" stroke-linecap="round" stroke-linejoin="round" fill="none" stroke="#000000" d="M-1.55415 2.0722C-1.42464 1.29512 0 .1295 .38852 0 0-.1295-1.42464-1.29512-1.55415-2.0722"/>
<path transform="matrix(1.00005,0,0,-1.00006,174.22743,66.52375)" stroke-width=".6376" stroke-linecap="round" stroke-linejoin="round" fill="none" stroke="#000000" d="M-1.55415 2.0722C-1.42464 1.29512 0 .1295 .38852 0 0-.1295-1.42464-1.29512-1.55415-2.0722"/>
<use data-text="&#x03c3;" xlink:href="#font_1_2" transform="matrix(9.963098,0,0,-9.963197,152.83863,55.907403)"/>
<use data-text="&#x00b5;" xlink:href="#font_1_1" transform="matrix(9.963098,0,0,-9.963197,142.56412,10.397667)"/>
<use data-text="s" xlink:href="#font_4_98" transform="matrix(8.966848,0,0,-8.966938,35.79679,86.96826)"/>
<use data-text="y" xlink:href="#font_4_118" transform="matrix(8.966848,0,0,-8.966938,39.428369,86.96826)"/>
<use data-text="m" xlink:href="#font_4_75" transform="matrix(8.966848,0,0,-8.966938,44.2884,86.96826)"/>
<use data-text="m" xlink:href="#font_4_75" transform="matrix(8.966848,0,0,-8.966938,51.96402,86.96826)"/>
<use data-text="e" xlink:href="#font_4_50" transform="matrix(8.966848,0,0,-8.966938,59.63964,86.96826)"/>
<use data-text="t" xlink:href="#font_4_105" transform="matrix(8.966848,0,0,-8.966938,63.737489,86.96826)"/>
<use data-text="r" xlink:href="#font_4_96" transform="matrix(8.966848,0,0,-8.966938,67.32423,86.96826)"/>
<use data-text="i" xlink:href="#font_4_66" transform="matrix(8.966848,0,0,-8.966938,70.9289,86.96826)"/>
<use data-text="c" xlink:href="#font_4_43" transform="matrix(8.966848,0,0,-8.966938,73.49342,86.96826)"/>
<use data-text="s" xlink:href="#font_4_98" transform="matrix(8.966848,0,0,-8.966938,197.90088,86.96826)"/>
<use data-text="y" xlink:href="#font_4_118" transform="matrix(8.966848,0,0,-8.966938,201.53246,86.96826)"/>
<use data-text="m" xlink:href="#font_4_75" transform="matrix(8.966848,0,0,-8.966938,206.39249,86.96826)"/>
<use data-text="m" xlink:href="#font_4_75" transform="matrix(8.966848,0,0,-8.966938,214.06812,86.96826)"/>
<use data-text="e" xlink:href="#font_4_50" transform="matrix(8.966848,0,0,-8.966938,221.74373,86.96826)"/>
<use data-text="t" xlink:href="#font_4_105" transform="matrix(8.966848,0,0,-8.966938,225.84159,86.96826)"/>
<use data-text="r" xlink:href="#font_4_96" transform="matrix(8.966848,0,0,-8.966938,229.42832,86.96826)"/>
<use data-text="i" xlink:href="#font_4_66" transform="matrix(8.966848,0,0,-8.966938,233.03299,86.96826)"/>
<use data-text="c" xlink:href="#font_4_43" transform="matrix(8.966848,0,0,-8.966938,235.5975,86.96826)"/>
<path transform="matrix(1.00005,0,0,-1.00006,3.295166,138.39134)" d="M97.34315 71.86328C97.34315 72.96376 96.45107 73.85583 95.3506 73.85583 94.25014 73.85583 93.35805 72.96376 93.35805 71.86328 93.35805 70.76282 94.25014 69.87073 95.3506 69.87073 96.45107 69.87073 97.34315 70.76282 97.34315 71.86328ZM95.3506 71.86328"/>
<path transform="matrix(1.00005,0,0,-1.00006,3.295166,138.39134)" stroke-width=".3985" stroke-linecap="butt" stroke-miterlimit="10" stroke-linejoin="miter" fill="none" stroke="#000000" d="M97.34315 71.86328C97.34315 72.96376 96.45107 73.85583 95.3506 73.85583 94.25014 73.85583 93.35805 72.96376 93.35805 71.86328 93.35805 70.76282 94.25014 69.87073 95.3506 69.87073 96.45107 69.87073 97.34315 70.76282 97.34315 71.86328ZM95.3506 71.86328"/>
<path transform="matrix(1.00005,0,0,-1.00006,3.295166,138.39134)" d="M173.62364 71.86328C173.62364 72.96376 172.73155 73.85583 171.63109 73.85583 170.53063 73.85583 169.63854 72.96376 169.63854 71.86328 169.63854 70.76282 170.53063 69.87073 171.63109 69.87073 172.73155 69.87073 173.62364 70.76282 173.62364 71.86328ZM171.63109 71.86328"/>
<path transform="matrix(1.00005,0,0,-1.00006,3.295166,138.39134)" stroke-width=".3985" stroke-linecap="butt" stroke-miterlimit="10" stroke-linejoin="miter" fill="none" stroke="#000000" d="M173.62364 71.86328C173.62364 72.96376 172.73155 73.85583 171.63109 73.85583 170.53063 73.85583 169.63854 72.96376 169.63854 71.86328 169.63854 70.76282 170.53063 69.87073 171.63109 69.87073 172.73155 69.87073 173.62364 70.76282 173.62364 71.86328ZM171.63109 71.86328"/>
<path transform="matrix(1.00005,0,0,-1.00006,3.295166,138.39134)" stroke-width=".3985" stroke-linecap="butt" stroke-miterlimit="10" stroke-linejoin="miter" fill="none" stroke="#000000" d=""/>
<use data-text="x" xlink:href="#font_1_3" transform="matrix(9.963098,0,0,-9.963197,133.9457,162.91681)"/>
</svg>
