<svg xmlns="http://www.w3.org/2000/svg" xmlns:xlink="http://www.w3.org/1999/xlink" xmlns:inkscape="http://www.inkscape.org/namespaces/inkscape" version="1.1" width="243" height="152" viewBox="0 0 243 152">
<defs>
<path id="font_1_1" d="M.45999146 .31976319C.45999146 .39982606 .45498658 .47988893 .41999818 .5539398 .37399293 .65000918 .2919922 .6660156 .25 .6660156 .18998719 .6660156 .116989139 .64001467 .07598877 .54693606 .04399109 .47789 .038986207 .39982606 .038986207 .31976319 .038986207 .24472046 .042999269 .15464783 .083999637 .07859802 .1269989-.0024719239 .19999695-.022460938 .24899292-.022460938 .30299378-.022460938 .3789978-.0014648438 .4229889 .09359741 .45498658 .16265869 .45999146 .2407074 .45999146 .31976319M.24899292-.00047302247C.20999146-.00047302247 .15098572 .024551392 .1329956 .12062073 .12199402 .18066406 .12199402 .2727356 .12199402 .3317871 .12199402 .39582826 .12199402 .46188355 .12998963 .5159149 .14898682 .63500979 .22399903 .64401248 .24899292 .64401248 .28199769 .64401248 .34799195 .6259918 .36698915 .52693179 .3769989 .47088624 .3769989 .39482118 .3769989 .3317871 .3769989 .25672914 .3769989 .18867493 .3659973 .12461853 .35099793 .029556275 .2939911-.00047302247 .24899292-.00047302247Z"/>
<path id="font_2_2" d="M.1329956 .08345032C.18699646 .14138794 .21598816 .16636658 .2519989 .19732666 .2519989 .19833374 .31399537 .25128175 .34999085 .2872467 .44499208 .3803711 .46699525 .42837525 .46699525 .43237306 .46699525 .4423828 .45799256 .4423828 .45599366 .4423828 .44898988 .4423828 .44599916 .44036866 .44099427 .43138124 .41099549 .38337709 .3899994 .3671875 .3659973 .3671875 .34199525 .3671875 .32998658 .38237 .31498719 .3993683 .29599 .42237855 .2789917 .4423828 .24598694 .4423828 .17098999 .4423828 .125 .34918214 .125 .3282013 .125 .3231964 .12799073 .31721498 .13699341 .31721498 .1459961 .31721498 .147995 .3222046 .1499939 .3282013 .16899109 .37434388 .22698975 .37538148 .23498535 .37538148 .2559967 .37538148 .2749939 .36820985 .2979889 .36018373 .33799745 .34518434 .34899903 .34518434 .375 .34518434 .33898927 .30223084 .25498963 .2303009 .23599243 .21430969L.1459961 .13040161C.07798767 .06341553 .042999269 .0062561037 .042999269-.00074768069 .042999269-.0107421879 .052993776-.0107421879 .054992677-.0107421879 .06298828-.0107421879 .06498718-.008743286 .070999149 .002243042 .09399414 .037246705 .12399292 .064453128 .1559906 .064453128 .1789856 .064453128 .18899536 .055252077 .21398926 .026245118 .23098755 .0052490236 .24899292-.0107421879 .27799989-.0107421879 .3769989-.0107421879 .43499757 .1164093 .43499757 .14338684 .43499757 .14837647 .43099977 .15338135 .4229889 .15338135 .4139862 .15338135 .4119873 .14738465 .40899659 .14039612 .38598634 .07543945 .32199098 .056243898 .2889862 .056243898 .2689972 .056243898 .25099183 .06239319 .22999573 .06944275 .19599915 .08244324 .18099976 .08644104 .1599884 .08644104 .1579895 .08644104 .14199829 .08644104 .1329956 .08345032Z"/>
<path id="font_3_1" d="M.5469971 .14128113C.6389923 .23632813 .6759949 .36938478 .6759949 .38038636 .6759949 .39338685 .6639862 .39338685 .6589966 .39338685 .644989 .39338685 .644989 .39038087 .6380005 .3683777 .6199951 .3023529 .58699038 .24131775 .54499819 .18730164 .5439911 .20230103 .5419922 .2693329 .5399933 .27833558 .5249939 .37738038 .44999696 .44140626 .34999085 .44140626 .20298767 .44140626 .06199646 .3043518 .06199646 .16429138 .06199646 .072250369 .1289978-.009765625 .24499512-.009765625 .33699037-.009765625 .41999818 .032226564 .47599793 .07525635 .49899293 .0022277833 .5499878-.009765625 .5799866-.009765625 .6380005-.009765625 .673996 .039230348 .673996 .0602417 .673996 .072250369 .6619873 .072250369 .6569977 .072250369 .6439972 .072250369 .6419983 .06825256 .6399994 .0622406 .6259918 .024230957 .59498599 .018234253 .58299258 .018234253 .56900027 .018234253 .5519867 .018234253 .5469971 .14128113M.46899415 .10726929C.37098695 .027236939 .28599549 .018234253 .24798584 .018234253 .18199158 .018234253 .14498902 .0622406 .14498902 .12927246 .14498902 .15829468 .15899658 .26733399 .21099854 .33636476 .25698854 .39639283 .31399537 .4133911 .34899903 .4133911 .42900086 .4133911 .45199586 .33636476 .45999146 .27433778 .46598817 .23132324 .46398927 .16029358 .46899415 .10726929Z"/>
<path id="font_2_1" d="M.47698976 .23631287C.47698976 .39337159 .38398744 .4423828 .30999757 .4423828 .17298889 .4423828 .040985109 .29933167 .040985109 .15829468 .040985109 .06526184 .100997928-.0107421879 .20298767-.0107421879 .2659912-.0107421879 .33799745 .012252808 .4139862 .073272708 .4269867 .020248414 .45999146-.0107421879 .5049896-.0107421879 .55799868-.0107421879 .58898928 .044265748 .58898928 .060272218 .58898928 .06726074 .58299258 .07026672 .57699587 .07026672 .56999209 .07026672 .5669861 .06726074 .56399539 .060272218 .54599 .011245728 .5099945 .011245728 .5079956 .011245728 .47698976 .011245728 .47698976 .089279178 .47698976 .11328125 .47698976 .1342926 .47698976 .1362915 .4869995 .14828491 .58099368 .2663269 .60198977 .38235475 .60198977 .38336183 .60198977 .38536073 .6009979 .39337159 .58999636 .39337159 .5799866 .39337159 .5799866 .3903656 .57499697 .37236024 .5569916 .30934144 .5239868 .23332215 .47698976 .17430115V.23631287M.4099884 .09927368C.32199098 .022247315 .24499512 .011245728 .20498657 .011245728 .14498902 .011245728 .114990238 .056259157 .114990238 .120285037 .114990238 .16929627 .14099121 .2773285 .17298889 .32833863 .21998596 .4013672 .27398683 .42037965 .30899049 .42037965 .4079895 .42037965 .4079895 .28933717 .4079895 .21130371 .4079895 .17430115 .4079895 .11628723 .4099884 .09927368Z"/>
<path id="font_4_96" d="M.37298585 .3798828C.37298585 .41236878 .34298707 .4423828 .2979889 .4423828 .23799134 .4423828 .19599915 .40037538 .17298889 .33787538H.17199707V.4423828L.02999878 .43066407V.3996582C.09799194 .3996582 .10699463 .3927307 .10699463 .34387208V.07698059C.10699463 .0309906 .09599304 .0309906 .02999878 .0309906V0C.08299255 .0019989014 .09599304 .0029907227 .14698792 .0029907227L.27398683 0V.0309906H.2539978C.18099976 .0309906 .17799378 .041992189 .17799378 .07897949V.22891236C.17799378 .26989747 .18899536 .4166565 .30299378 .4166565V.4156494C.30099488 .4146576 .2849884 .40264894 .2849884 .37887574 .2849884 .35186769 .30599977 .33486939 .32899476 .33486939 .34999085 .33486939 .37298585 .34986878 .37298585 .3798828Z"/>
<path id="font_4_50" d="M.4269867 .11936951C.4269867 .12637329 .42199708 .13237 .41299439 .13237 .40299989 .13237 .3999939 .12536621 .39898683 .12136841 .36499024 .019256592 .27598573 .01725769 .26098634 .01725769 .21299744 .01725769 .17199707 .044281007 .14898682 .078323367 .115997318 .12736511 .114990238 .18743897 .114990238 .22949219H.3999939C.42199708 .22949219 .4269867 .22949219 .4269867 .25048829 .4269867 .35333253 .37098695 .4482422 .24299622 .4482422 .12298584 .4482422 .0289917 .3443451 .0289917 .22047425 .0289917 .08932495 .13398743-.0107421879 .2559967-.0107421879 .37799073-.0107421879 .4269867 .096343997 .4269867 .11936951M.35899354 .253479H.115997318C.125 .40725709 .21499634 .42323304 .24299622 .42323304 .2979889 .42323304 .35798646 .38130189 .35899354 .253479Z"/>
<path id="font_4_68" d="M.21798706-.047973634V.4423828L.06199646 .43138124V.40037538C.13798523 .40037538 .14698792 .39337159 .14698792 .34432984V-.050979616C.14698792-.08000183 .14299011-.18008423 .07499695-.18008423 .07199097-.18008423 .04598999-.18008423 .021987915-.16807556 .053985597-.1580658 .053985597-.13005066 .053985597-.1240387 .053985597-.09802246 .034988405-.07800293 .0079956059-.07800293-.021011353-.07800293-.039001466-.09802246-.039001466-.12504578-.039001466-.17707825 .018997193-.20507813 .07598877-.20507813 .15499878-.20500183 .21798706-.14001465 .21798706-.04800415V-.047973634M.21798706 .6032257C.21798706 .6332245 .19400025 .65722659 .1639862 .65722659 .13398743 .65722659 .10998535 .6332245 .10998535 .6032257 .10998535 .57321169 .13398743 .54922488 .1639862 .54922488 .19400025 .54922488 .21798706 .57321169 .21798706 .6032257Z"/>
<path id="font_4_43" d="M.4269867 .11936951C.4269867 .13139344 .41600038 .13139344 .41299439 .13139344 .4019928 .13139344 .4019928 .12937927 .3959961 .11236572 .37298585 .043289186 .31698609 .01725769 .2659912 .01725769 .20199585 .01725769 .11999512 .06932068 .11999512 .21749878 .11999512 .3735962 .19999695 .42022706 .2599945 .42022706 .272995 .42022706 .32699586 .41825868 .3639984 .39356996 .34298707 .3895874 .32299806 .3755951 .32299806 .34658814 .32299806 .32058717 .34298707 .30059815 .36898805 .30059815 .394989 .30059815 .41600038 .31759645 .41600038 .34858705 .41600038 .4103546 .34599305 .4482422 .2579956 .4482422 .12998963 .4482422 .033996583 .3415985 .033996583 .2164917 .033996583 .08734131 .13798523-.0107421879 .2559967-.0107421879 .394989-.0107421879 .4269867 .11036682 .4269867 .11936951Z"/>
<path id="font_4_105" d="M.34199525 .12408447V.18099976H.31399537V.1270752C.31399537 .05319214 .2829895 .01725769 .24699402 .01725769 .17999268 .01725769 .17999268 .1051178 .17999268 .12309265V.3996582H.32499696V.43066407H.17999268V.6142578H.1519928C.15098572 .5304413 .115997318 .42765809 .018997193 .4246521V.3996582H.10598755V.12408447C.10598755 .012252808 .18699646-.0107421879 .23999024-.0107421879 .30699159-.011001587 .34199525 .052993776 .34199525 .12399292V.12408447Z"/>
<path id="font_5_1" d="M.7799988 .60565188C.78900149 .6426239 .7919922 .6516113 .8699951 .6516113 .8860016 .6516113 .8969879 .6516113 .8969879 .6696167 .8969879 .6786041 .8899994 .6826172 .8819885 .6826172L.81900027 .680603C.78900149 .6796112 .7869873 .6796112 .7549896 .6796112 .72299197 .6796112 .72099307 .6796112 .69099429 .680603 .67099 .6816101 .644989 .6826172 .6259918 .6826172 .6199951 .6826172 .60598757 .6826172 .60598757 .6646118 .60598757 .6516113 .6159973 .6516113 .6359863 .6516113 .6399994 .6516113 .6579895 .6516113 .673996 .6496124 .69299319 .6476135 .69799807 .6446228 .69799807 .6346283 .69799807 .6296234 .69699099 .6266327 .69400027 .6146393L.6329956 .37083436H.32199098L.3809967 .60565188C.3899994 .6436157 .3929901 .6516113 .47099305 .6516113 .4869995 .6516113 .49798585 .6516113 .49798585 .6696167 .49798585 .6786041 .4909973 .6826172 .48298646 .6826172L.41999818 .680603C.3899994 .6796112 .3880005 .6796112 .35598756 .6796112 .32398988 .6796112 .32199098 .6796112 .2919922 .680603 .27198792 .6816101 .24598694 .6826172 .22698975 .6826172 .22099304 .6826172 .20698548 .6826172 .20698548 .6646118 .20698548 .6516113 .21699524 .6516113 .23699951 .6516113 .24099732 .6516113 .25898744 .6516113 .2749939 .6496124 .2939911 .6476135 .29899598 .6446228 .29899598 .6346283 .29899598 .6296234 .2979889 .6256256 .29499818 .6146393L.1599884 .07597351C.15098572 .039993287 .14898682 .0309906 .07398987 .0309906 .054992677 .0309906 .04399109 .0309906 .04399109 .0129852299 .04399109 .0039978029 .050994874 0 .05899048 0 .07798767 0 .102996829 .0009918213 .12199402 .0019989014 .1519928 .0029907227 .1539917 .0029907227 .18598938 .0029907227 .21798706 .0029907227 .21998596 .0029907227 .25 .0019989014 .269989 .0009918213 .29599 0 .31498719 0 .32299806 0 .33499146 0 .33499146 .017990113 .33499146 .0309906 .32499696 .0309906 .3039856 .0309906 .2999878 .0309906 .28199769 .0309906 .2659912 .032989503 .24398804 .035995485 .24299622 .039993287 .24299622 .048980714 .24299622 .051986696 .24299622 .053985597 .24798584 .07197571L.31399537 .33984376H.625C.61698916 .30485536 .55799868 .066970828 .5529938 .055984498 .54599 .038986207 .54299929 .03199768 .46699525 .0309906 .45498658 .0309906 .44299317 .0309906 .44299317 .0129852299 .44299317 .0039978029 .44999696 0 .45799256 0 .47698976 0 .5019989 .0009918213 .5209961 .0019989014 .5509949 .0029907227 .5529938 .0029907227 .58499148 .0029907227 .61698916 .0029907227 .61898806 .0029907227 .6489868 .0019989014 .6689911 .0009918213 .69499209 0 .71398928 0 .7220001 0 .73399356 0 .73399356 .017990113 .73399356 .0309906 .723999 .0309906 .7029877 .0309906 .69898989 .0309906 .68099978 .0309906 .6649933 .032989503 .6429901 .035995485 .6419983 .039993287 .6419983 .048980714 .6419983 .0579834 .6439972 .065979007 .6459961 .07296753L.7799988 .60565188Z"/>
<path id="font_6_1" d="M.5499878 .31877137C.5499878 .39183045 .5499878 .66503909 .30499269 .66503909 .05999756 .66503909 .05999756 .39183045 .05999756 .31877137 .05999756 .2467041 .05999756-.021484375 .30499269-.021484375 .5499878-.021484375 .5499878 .2467041 .5499878 .31877137M.30499269 .010513306C.2630005 .010513306 .19499207 .030517579 .17098999 .113601688 .15499878 .17164612 .15499878 .2697296 .15499878 .33177186 .15499878 .39883424 .15499878 .4758911 .16899109 .52993777 .19400025 .6200104 .269989 .6330261 .30499269 .6330261 .35099793 .6330261 .4169922 .6110077 .43899537 .5349426 .45399476 .48190309 .45498658 .408844 .45498658 .33177186 .45498658 .26771546 .45498658 .16664124 .43798829 .1105957 .4099884 .023513794 .33799745 .010513306 .30499269 .010513306Z"/>
</defs>
<path transform="matrix(1.00005,0,0,-1.00006,3.295166,127.04965)" stroke-width=".19925" stroke-linecap="butt" stroke-miterlimit="10" stroke-linejoin="miter" fill="none" stroke="#7f807f" d="M119.31651-2.12596V2.12596M175.39528-2.12596V2.12596"/>
<path transform="matrix(1.00005,0,0,-1.00006,3.295166,127.04965)" stroke-width=".19925" stroke-linecap="butt" stroke-miterlimit="10" stroke-linejoin="miter" fill="none" stroke="#7f807f" d=""/>
<path transform="matrix(1.00005,0,0,-1.00006,3.295166,127.04965)" stroke-width=".3985" stroke-linecap="butt" stroke-miterlimit="10" stroke-linejoin="miter" fill="none" stroke="#000000" d="M0 0H236.64052"/>
<path transform="matrix(1.00005,0,0,-1.00006,239.94751,127.04965)" d="M1.99252 0-1.19551 1.59401 0 0-1.19551-1.59401"/>
<path transform="matrix(1.00005,0,0,-1.00006,3.295166,127.04965)" stroke-width=".3985" stroke-linecap="butt" stroke-miterlimit="10" stroke-linejoin="miter" fill="none" stroke="#000000" d="M0 0V123.25049"/>
<path transform="matrix(0,-1.00006,-1.00005,-0,3.295166,3.791771)" d="M1.99252 0-1.19551 1.59401 0 0-1.19551-1.59401"/>
<use data-text="0" xlink:href="#font_1_1" transform="matrix(9.963098,0,0,-9.963197,120.127,139.11638)"/>
<use data-text="z" xlink:href="#font_2_2" transform="matrix(9.963098,0,0,-9.963197,173.54367,136.98525)"/>
<use data-text="&#x03b1;" xlink:href="#font_3_1" transform="matrix(6.9741489,0,0,-6.9742186,178.17691,138.47934)"/>
<path transform="matrix(1.00005,0,0,-1.00006,3.295166,127.04965)" d="M175.39528 28.69766 175.793 28.1547 176.19072 27.6106 176.58844 27.0765 176.98615 26.55463 177.38388 26.03278 177.7816 25.5109 178.1793 25.01122 178.57704 24.51154 178.97475 24.01189 179.37247 23.52222 179.7702 23.04585 180.16791 22.57838 180.56563 22.10094 180.96334 21.64455 181.36107 21.19041 181.75879 20.74626 182.15651 20.30101 182.55423 19.86905 182.95194 19.44713 183.34967 19.02406 183.74739 18.61324 184.1451 18.20241 184.54283 17.80154 184.94054 17.41403 185.33827 17.0265 185.736 16.63676 186.1337 16.25812 186.53142 15.8928 186.92914 15.53638 187.32686 15.18105 187.72458 14.82684 188.1223 14.48154 188.52002 14.1495 188.91773 13.81529 189.31546 13.48108 189.71317 13.16017 190.11089 12.84927 190.50862 12.53838 190.90633 12.23744 191.30406 11.93765 191.70177 11.65005 192.09949 11.36024 192.49721 11.08699 192.89493 10.81195 193.29265 10.54253 193.69037 10.27818 194.08809 10.0193 194.48581 9.76537 194.88352 9.51677 195.28125 9.27322 195.67896 9.03455 196.07669 8.80086 196.47441 8.57213 196.87212 8.3482 197.26985 8.12897 197.66756 7.91455 198.06528 7.70454 198.46302 7.49911 198.86072 7.29831 199.25844 7.10178 199.65616 6.90967 200.05388 6.72177 200.4516 6.53816 200.84932 6.35872 201.24704 6.18329 201.64475 6.0119 202.04248 5.84451 202.44019 5.68095 202.8379 5.52122 203.23564 5.36533 203.63335 5.21304 204.03107 5.06448 204.42879 4.91939 204.8265 4.77783 205.22425 4.63966 205.62195 4.50499 206.01967 4.37357 206.41738 4.2454 206.81511 4.12044 207.21283 3.99863 207.61054 3.87985 208.00827 3.76416 208.40598 3.65134 208.8037 3.54152 209.20143 3.43443 209.59914 3.33017 209.99686 3.22864 210.39458 3.12978 210.7923 3.03351 211.19004 2.9398 211.58774 2.84862 211.98546 2.75989 212.38318 2.67354 212.7809 2.58954 213.17862 2.50784 213.57634 2.4284 213.97406 2.35117 214.37177 2.27606 214.7695 2.20308 215.1672 2.13208 215.56496 2.06316 215.96265 1.9962 216.36038 1.93112 216.75807 1.8679 217.1558 1.8065 217.55355 1.7469 217.95125 1.68906 218.34897 1.63287 218.74666 1.57834 219.1444 1.52544 219.54215 1.47408 219.93984 1.42432 220.33757 1.37599 220.73526 1.32915 221.133 1.2837 221.53075 1.23965 221.92844 1.19698 222.32617 1.15558 222.72386 1.11548 223.1216 1.07664 223.51934 1.039 223.91704 1.00253 224.31476 .96722 224.71247 .93301 225.1102 .89989 225.50794 .86783 225.90563 .8368 226.30336 .80678 226.70105 .77771 227.09879 .7496 227.49654 .7224 227.89423 .69615 228.29196 .67065 228.68965 .6461 229.08739 .62239 229.48514 .59937 229.88282 .57707 230.28055 .55566 230.67826 .53493 231.07599 .51483 231.47373 .49548 231.87142 .47684 232.26915 .45877 232.66684 .44139 233.06458 .42453 233.46233 .40828 233.86 .39262 234.25775 .37753 234.65544 .36292 235.05318 .34882 235.45093 .33527 235.8486 .32219 236.24636 .30956 236.64405 .29742 237.04178 .28568 237.43952 .27437 237.8372 .26349 238.23494 .25302 238.63263 .24289V0H175.39528Z" fill="#bfbfff"/>
<path transform="matrix(1.00005,0,0,-1.00006,3.295166,127.04965)" stroke-width=".79701" stroke-linecap="butt" stroke-miterlimit="10" stroke-linejoin="miter" fill="none" stroke="#000000" d="M0 .24289 .99844 .26901 1.99689 .29767 2.99536 .3291 3.9938 .36351 4.99228 .40115 5.99072 .44237 6.98918 .48749 7.98764 .5366 8.9861 .5902 9.98456 .64864 10.98302 .71214 11.98148 .78128 12.97993 .85638 13.9784 .93791 14.97684 1.0263 15.97531 1.12209 16.97375 1.22572 17.97221 1.33781 18.97067 1.45888 19.96915 1.58955 20.96759 1.73045 21.96605 1.8822 22.96451 2.04556 23.96297 2.22115 24.96143 2.4097 25.95988 2.61208 26.95834 2.829 27.9568 3.0613 28.95525 3.30986 29.9537 3.57555 30.95218 3.85919 31.95062 4.16177 32.94908 4.48431 33.94754 4.82759 34.94601 5.19283 35.94446 5.58081 36.94292 5.99263 37.94138 6.42937 38.93983 6.89198 39.9383 7.38152 40.93675 7.89915 41.93521 8.4458 42.93367 9.02242 43.93211 9.63023 44.93057 10.27014 45.92905 10.94337 46.92749 11.65005 47.92595 12.39401 48.92441 13.17128 49.92287 13.98184 50.92133 14.83684 51.91978 15.72624 52.91824 16.65785 53.9167 17.6261 54.91516 18.64764 55.91362 19.6914 56.91208 20.79068 57.91054 21.92215 58.90898 23.10027 59.90744 24.32169 60.9059 25.58862 61.90436 26.88887 62.90282 28.24242 63.90128 29.6315 64.89973 31.06277 65.8982 32.53069 66.89665 34.05191 67.89511 35.59534 68.89357 37.19539 69.89201 38.8265 70.89049 40.49431 71.88893 42.19318 72.8874 43.92427 73.88585 45.70198 74.88431 47.5019 75.88277 49.32292 76.88123 51.17725 77.87968 53.0549 78.87814 54.95474 79.8766 56.8757 80.87505 58.80777 81.87352 60.75092 82.87196 62.71739 83.87044 64.68277 84.86888 66.66034 85.86736 68.6257 86.8658 70.60329 87.86426 72.55865 88.86272 74.51181 89.86118 76.46718 90.85963 78.38812 91.85808 80.288 92.85655 82.17564 93.855 84.02997 94.85347 85.85208 95.85191 87.6409 96.85039 89.3853 97.84883 91.08418 98.8473 92.73753 99.84575 94.34868 100.84427 95.8921 101.84264 97.39113 102.84114 98.82463 103.83952 100.17818 104.83803 101.47842 105.83656 102.71205 106.83492 103.85573 107.83345 104.9328 108.8318 105.93324 109.83034 106.84264 110.82884 107.66655 111.82722 108.4094 112.82573 109.06563 113.8241 109.6319 114.82262 110.09715 115.82114 110.47469 116.8195 110.7634 117.81801 110.95326 118.81639 111.05324H119.8149L120.81342 110.95326 121.81178 110.7634 122.81032 110.47469 123.80867 110.09715 124.80719 109.6319 125.80571 109.06563 126.80408 108.4094 127.8026 107.67654 128.80097 106.84264 129.79949 105.93324 130.798 104.9328 131.79637 103.85573 132.79488 102.71205 133.79325 101.49062 134.79177 100.1904 135.79029 98.82463 136.78865 97.39113 137.78717 95.90433 138.78554 94.34868 139.78406 92.74974 140.78258 91.08418 141.78095 89.3853 142.77947 87.6409 143.77783 85.85208 144.77635 84.02997 145.77487 82.17564 146.77323 80.3002 147.77175 78.38812 148.77011 76.46718 149.76863 74.52403 150.76715 72.56865 151.76552 70.60329 152.76404 68.6257 153.7624 66.66034 154.76093 64.68277 155.75945 62.71739 156.75782 60.76314 157.75632 58.80777 158.7547 56.8757 159.75322 54.95474 160.75173 53.0549 161.75009 51.17725 162.74861 49.32292 163.74698 47.5019 164.7455 45.70198 165.74402 43.93648 166.74237 42.19318 167.7409 40.49431 168.73928 38.8265 169.7378 37.19539 170.7363 35.60532 171.73468 34.05191 172.73319 32.54068 173.73157 31.06277 174.73007 29.6315 175.72859 28.24242 176.72696 26.89886 177.72548 25.58862 178.72385 24.32169 179.72237 23.10027 180.72089 21.92215 181.71924 20.79068 182.71778 19.6914 183.71613 18.64764 184.71466 17.6361 185.71317 16.65785 186.71155 15.72624 187.71006 14.83684 188.70844 13.98184 189.70694 13.17128 190.70545 12.39401 191.70383 11.65005 192.70235 10.94441 193.70072 10.27138 194.69922 9.63133 195.69776 9.02335 196.6961 8.44672 197.69464 7.90005 198.693 7.3824 199.69153 6.8927 200.69004 6.43 201.68842 5.99336 202.68692 5.58147 203.68529 5.19347 204.6838 4.82819 205.68231 4.4848 206.6807 4.16235 207.6792 3.85968 208.67758 3.57603 209.67609 3.3103 210.67462 3.06174 211.67298 2.82939 212.67151 2.61246 213.66986 2.41008 214.66838 2.22144 215.6669 2.04584 216.66527 1.88248 217.66379 1.73068 218.66216 1.5898 219.66068 1.45908 220.65918 1.338 221.65756 1.2259 222.65607 1.12224 223.65445 1.02647 224.65296 .93805 225.65149 .85652 226.64984 .7814 227.64836 .71228 228.64673 .64876 229.64527 .59027 230.64377 .53665 231.64214 .48753 232.64066 .44246 233.63903 .40128 234.63755 .36356 235.63605 .32916 236.63442 .29768 237.63294 .26907 238.63132 .24295"/>
<path transform="matrix(1.00005,0,0,-1.00006,3.295166,127.04965)" stroke-width=".3985" stroke-linecap="butt" stroke-dasharray="2.98883,2.98883" stroke-miterlimit="10" stroke-linejoin="miter" fill="none" stroke="#000000" d="M175.39528 0V28.69766"/>
<use data-text="&#x03b1;" xlink:href="#font_2_1" transform="matrix(9.963098,0,0,-9.963197,206.34732,101.361118)"/>
<use data-text="r" xlink:href="#font_4_96" transform="matrix(8.966848,0,0,-8.966938,177.33986,76.31061)"/>
<use data-text="e" xlink:href="#font_4_50" transform="matrix(8.966848,0,0,-8.966938,180.94454,76.31061)"/>
<use data-text="j" xlink:href="#font_4_68" transform="matrix(8.966848,0,0,-8.966938,185.04238,76.31061)"/>
<use data-text="e" xlink:href="#font_4_50" transform="matrix(8.966848,0,0,-8.966938,187.85797,76.31061)"/>
<use data-text="c" xlink:href="#font_4_43" transform="matrix(8.966848,0,0,-8.966938,191.95583,76.31061)"/>
<use data-text="t" xlink:href="#font_4_105" transform="matrix(8.966848,0,0,-8.966938,196.05367,76.31061)"/>
<use data-text="H" xlink:href="#font_5_1" transform="matrix(8.966848,0,0,-8.966938,202.71512,76.31061)"/>
<use data-text="0" xlink:href="#font_6_1" transform="matrix(5.9778988,0,0,-5.9779589,210.3385,77.30667)"/>
<use data-text="z" xlink:href="#font_2_2" transform="matrix(9.963098,0,0,-9.963197,120.082,150.24704)"/>
</svg>
