<svg xmlns="http://www.w3.org/2000/svg" xmlns:xlink="http://www.w3.org/1999/xlink" xmlns:inkscape="http://www.inkscape.org/namespaces/inkscape" version="1.1" width="382" height="151" viewBox="0 0 382 151">
<defs>
<path id="font_1_1" d="M.45999146 .31976319C.45999146 .39982606 .45498658 .47988893 .41999818 .5539398 .37399293 .65000918 .2919922 .6660156 .25 .6660156 .18998719 .6660156 .116989139 .64001467 .07598877 .54693606 .04399109 .47789 .038986207 .39982606 .038986207 .31976319 .038986207 .24472046 .042999269 .15464783 .083999637 .07859802 .1269989-.0024719239 .19999695-.022460938 .24899292-.022460938 .30299378-.022460938 .3789978-.0014648438 .4229889 .09359741 .45498658 .16265869 .45999146 .2407074 .45999146 .31976319M.24899292-.00047302247C.20999146-.00047302247 .15098572 .024551392 .1329956 .12062073 .12199402 .18066406 .12199402 .2727356 .12199402 .3317871 .12199402 .39582826 .12199402 .46188355 .12998963 .5159149 .14898682 .63500979 .22399903 .64401248 .24899292 .64401248 .28199769 .64401248 .34799195 .6259918 .36698915 .52693179 .3769989 .47088624 .3769989 .39482118 .3769989 .3317871 .3769989 .25672914 .3769989 .18867493 .3659973 .12461853 .35099793 .029556275 .2939911-.00047302247 .24899292-.00047302247Z"/>
<path id="font_1_2" d="M.2939911 .64004519C.2939911 .66400149 .2939911 .6660156 .2709961 .6660156 .20899964 .60227969 .12098694 .60227969 .08898926 .60227969V.57128909C.10899353 .57128909 .16799927 .57128909 .21998596 .5972748V.07902527C.21998596 .042999269 .21699524 .0309906 .1269989 .0309906H.09498596V0C.12998963 .0029907227 .21699524 .0029907227 .25698854 .0029907227 .29699708 .0029907227 .38398744 .0029907227 .4189911 0V.0309906H.3869934C.29699708 .0309906 .2939911 .041992189 .2939911 .07902527V.64004519Z"/>
<path id="font_1_3" d="M.1269989 .07699585 .23298645 .18003845C.3889923 .31811524 .44898988 .3721466 .44898988 .47216798 .44898988 .5860901 .35899354 .6660156 .23699951 .6660156 .12399292 .6660156 .049987794 .57411196 .049987794 .48516847 .049987794 .4291687 .099990848 .4291687 .102996829 .4291687 .11999512 .4291687 .15499878 .44117738 .15499878 .48217774 .15499878 .5081787 .13699341 .5341797 .101989749 .5341797 .09399414 .5341797 .09199524 .5341797 .08898926 .5331726 .11199951 .59806826 .1659851 .63500979 .22399903 .63500979 .31498719 .63500979 .35798646 .5541382 .35798646 .47216798 .35798646 .39215089 .30799867 .31311036 .25299073 .25108338L.06098938 .036987306C.049987794 .025985718 .049987794 .023986817 .049987794 0H.42099L.44898988 .17404175H.42399598C.4189911 .14402771 .4119873 .1000061 .4019928 .084991458 .394989 .07699585 .32899476 .07699585 .30699159 .07699585H.1269989Z"/>
<path id="font_1_4" d="M.2899933 .35191346C.37199403 .37893678 .42999269 .4490509 .42999269 .52809146 .42999269 .6100464 .34199525 .6660156 .24598694 .6660156 .14498902 .6660156 .068984989 .60606387 .068984989 .53009036 .068984989 .49710084 .09098816 .47808839 .11999512 .47808839 .15098572 .47808839 .17098999 .50009158 .17098999 .5290985 .17098999 .57910159 .12399292 .57910159 .10899353 .57910159 .13999939 .62802127 .20599365 .64100649 .24198914 .64100649 .2829895 .64100649 .33799745 .6190338 .33799745 .5290985 .33799745 .51708987 .33599855 .45906068 .30999757 .4149933 .27999879 .36691285 .24598694 .36390687 .22099304 .36291505 .21299744 .36190797 .18899536 .35990907 .18199158 .35990907 .17399597 .35890199 .16699219 .35791017 .16699219 .3479004 .16699219 .33691407 .17399597 .33691407 .19099427 .33691407H.23498535C.31698609 .33691407 .35398866 .2686615 .35398866 .17037964 .35398866 .034469606 .2849884 .0055389406 .24099732 .0055389406 .19799805 .0055389406 .12298584 .022491456 .08799744 .08137512 .12298584 .07637024 .1539917 .09837341 .1539917 .1363678 .1539917 .17237854 .1269989 .19238281 .09799194 .19238281 .07398987 .19238281 .041992189 .17837525 .041992189 .1343689 .041992189 .043441774 .1349945-.022460938 .24398804-.022460938 .3659973-.022460938 .45700074 .06838989 .45700074 .17037964 .45700074 .252594 .3939972 .33088685 .2899933 .35191346Z"/>
<path id="font_2_1" d="M.19198609 .052993776C.19198609 .08198547 .16799927 .10598755 .13899231 .10598755 .10998535 .10598755 .085998538 .08198547 .085998538 .052993776 .085998538 .023986817 .10998535 0 .13899231 0 .16799927 0 .19198609 .023986817 .19198609 .052993776Z"/>
<path id="font_1_5" d="M.2939911 .16503906V.07800293C.2939911 .041992189 .2919922 .0309906 .21798706 .0309906H.19699097V0C.23799134 .0029907227 .2899933 .0029907227 .33198548 .0029907227 .37399293 .0029907227 .4269867 .0029907227 .46798707 0V.0309906H.44699098C.37298585 .0309906 .37098695 .041992189 .37098695 .07800293V.16503906H.47099305V.19602967H.37098695V.65075686C.37098695 .67074587 .37098695 .6767578 .35499574 .6767578 .34599305 .6767578 .34298707 .6767578 .33499146 .66474917L.027999878 .19602967V.16503906H.2939911M.2999878 .19602967H.055999757L.2999878 .5688019V.19602967Z"/>
<clipPath id="clip_3">
<path transform="matrix(1.00005,0,0,-1.00008,19.593232,126.18505)" d="M0 0H133.74944V108.23808H0Z"/>
</clipPath>
<path id="font_2_2" d="M.33399964 .30233766C.33999635 .32835389 .36299134 .42037965 .43299867 .42037965 .43798829 .42037965 .46199037 .42037965 .48298646 .40734864 .45498658 .402359 .43499757 .37734986 .43499757 .35334779 .43499757 .33735658 .44599916 .31835938 .47299195 .31835938 .49499513 .31835938 .5269928 .3363495 .5269928 .37635804 .5269928 .42837525 .46798707 .4423828 .43399049 .4423828 .37599183 .4423828 .34098817 .38935853 .32899476 .36634828 .3039856 .43237306 .25 .4423828 .22099304 .4423828 .116989139 .4423828 .05999756 .3133545 .05999756 .28834535 .05999756 .27833558 .069992069 .27833558 .07199097 .27833558 .07998657 .27833558 .08299255 .28033448 .084991458 .28933717 .11898804 .39535523 .18499756 .42037965 .21899414 .42037965 .23799134 .42037965 .272995 .4113617 .272995 .35334779 .272995 .32235719 .2559967 .25532533 .21899414 .11528015 .20298767 .053268434 .16799927 .011245728 .12399292 .011245728 .117996219 .011245728 .09498596 .011245728 .07398987 .024276734 .09899902 .029266358 .12098694 .05027771 .12098694 .07827759 .12098694 .105270389 .09899902 .11328125 .083999637 .11328125 .053985597 .11328125 .0289917 .08728027 .0289917 .055267335 .0289917 .009246826 .07899475-.0107421879 .12298584-.0107421879 .18899536-.0107421879 .22499085 .059280397 .22799683 .0652771 .23999024 .028274537 .27598573-.0107421879 .33599855-.0107421879 .43899537-.0107421879 .49598695 .118270877 .49598695 .14328003 .49598695 .1532898 .4869995 .1532898 .48399354 .1532898 .47499085 .1532898 .47299195 .14929199 .47099305 .14228821 .43798829 .03527832 .36999513 .011245728 .33799745 .011245728 .29899598 .011245728 .2829895 .043273927 .2829895 .07727051 .2829895 .09927368 .2889862 .121276859 .2999878 .16529846L.33399964 .30233766Z"/>
<path id="font_4_83" d="M.6409912 .49668885C.6409912 .5956421 .5379944 .6826172 .39898683 .6826172H.039993287V.6516113H.06298828C.13999939 .6516113 .14199829 .64060977 .14199829 .6036377V.0789032C.14199829 .041915895 .13999939 .030929566 .06298828 .030929566H.039993287V0C.084991458 .0029296876 .14099121 .0029296876 .18699646 .0029296876 .23298645 .0029907227 .2889862 .0029907227 .33399964 0V.0309906H.31098939C.23399353 .0309906 .23199463 .041992189 .23199463 .07896423V.31378175H.39898683C.5389862 .31378175 .6409912 .40075685 .6409912 .4967041V.49668885M.5389862 .4967041C.5389862 .4517212 .5389862 .34179688 .37298585 .34179688H.22898865V.6106262C.22898865 .64460757 .23098755 .6516113 .27799989 .6516113H.37399293C.5389862 .6516113 .5389862 .54167178 .5389862 .4967041Z"/>
<path id="font_4_74" d="M.897995 0V.0309906H.875C.7979889 .0309906 .79599 .041992189 .79599 .07896423V.6036377C.79599 .64060977 .7979889 .6516113 .875 .6516113H.897995V.6826172H.7299957C.70899966 .6826172 .70199587 .6826172 .69499209 .6646118L.47099305 .09794617 .24699402 .660614C.23899842 .680603 .23799134 .6826172 .21099854 .6826172H.042999269V.6516113H.06599426C.14299011 .6516113 .14498902 .64060977 .14498902 .6036377V.10594177C.14498902 .07896423 .14498902 .0309906 .042999269 .0309906V0C.09799194 .0019989014 .11199951 .0029907227 .16099549 .0029907227 .20899964 .0029907227 .22399903 .0019989014 .27799989 0V.0309906C.17599488 .0309906 .17599488 .07896423 .17599488 .10594177V.64060977L.1769867 .6416168 .4229889 .021987915C.42799378 .008987427 .43199159 0 .44400025 0 .45498658 0 .45999146 .008987427 .46398927 .017990113L.71398928 .6496124 .71499636 .64860537V.07896423C.71499636 .041992189 .71299746 .0309906 .6359863 .0309906H.61299136V0C.6729889 .0029907227 .73999026 .0029907227 .7549896 .0029907227 .7609863 .0029907227 .83499148 .0029907227 .897995 0Z"/>
<path id="font_4_54" d="M.6269989 .4550171 .598999 .6796875H.037994386V.64868167H.06098938C.13798523 .64868167 .13999939 .6376953 .13999939 .60076907V.07902527C.13999939 .041992189 .13798523 .0309906 .06098938 .0309906H.037994386V0C.08299255 .0029907227 .14498902 .0029907227 .19099427 .0029907227 .23098755 .0029907227 .32199098 .0029907227 .35699464 0V.0309906H.32499696C.23399353 .0309906 .22999573 .042999269 .22999573 .08001709V.3251953H.31999208C.4169922 .3251953 .42799378 .29318238 .42799378 .20819092H.45599366V.47299195H.42799378C.42799378 .38813783 .4169922 .3561859 .31999208 .3561859H.22999573V.60775759C.22999573 .6416931 .23199463 .64868167 .2789917 .64868167H.40499879C.55799868 .64868167 .58299258 .59277346 .598999 .4550171H.6269989Z"/>
<path id="font_1_6" d="M.16299439 .4569702C.116989139 .486969 .11299133 .52098086 .11299133 .5379791 .11299133 .598999 .17799378 .64100649 .24899292 .64100649 .32199098 .64100649 .38598634 .58898928 .38598634 .51698306 .38598634 .45996095 .34700013 .4119568 .2869873 .37695313L.16299439 .4569702M.30899049 .36193849C.3809967 .3989563 .42999269 .45095826 .42999269 .51698306 .42999269 .6090088 .34098817 .6660156 .25 .6660156 .1499939 .6660156 .068984989 .59199526 .068984989 .49897767 .068984989 .4809723 .070999149 .43595887 .11299133 .38894654 .12399292 .37695313 .16099549 .35194398 .18598938 .33494569 .12799073 .30592347 .041992189 .24984741 .041992189 .15072632 .041992189 .04458618 .14399719-.022460938 .24899292-.022460938 .3619995-.022460938 .45700074 .06060791 .45700074 .16773987 .45700074 .20379639 .44599916 .24885559 .4079895 .2909088 .3889923 .31193543 .37298585 .3219452 .30899049 .36193849M.20899964 .3199463 .33198548 .24183655C.3600006 .2228241 .40699769 .19277954 .40699769 .13169861 .40699769 .05760193 .33198548 .0055389406 .25 .0055389406 .1639862 .0055389406 .09199524 .067611698 .09199524 .15072632 .09199524 .20880127 .12399292 .27288819 .20899964 .3199463Z"/>
<clipPath id="clip_5">
<path transform="matrix(1.00005,0,0,-1.00008,246.37955,126.18505)" d="M0 0H133.74944V108.23984H0Z"/>
</clipPath>
<path id="font_4_42" d="M.6839905 .23170471C.6839905 .24171448 .6839905 .25073243 .66999819 .25073243 .6569977 .25073243 .6569977 .24372864 .6559906 .2347107 .647995 .082595828 .5279999 .008529663 .4249878 .008529663 .33999635 .008529663 .15899658 .061569215 .15899658 .34179688 .15899658 .6210327 .34098817 .67407229 .42399598 .67407229 .522995 .67407229 .6279907 .5990143 .6519928 .4368744 .6539917 .4238739 .6549988 .41886903 .66799929 .41886903 .6839905 .41886903 .6839905 .4238739 .6839905 .44488526V.67907717C.6839905 .69607546 .6839905 .7050781 .6719971 .7050781 .6649933 .7050781 .6619873 .70207217 .6559906 .69306948L.6049957 .61802676C.57299807 .64904788 .5159912 .7050781 .4149933 .7050781 .22099304 .7050781 .056991579 .5439606 .056991579 .34179688 .056991579 .13563538 .22299195-.022460938 .4149933-.022460938 .58099368-.022460938 .6839905 .11462402 .6839905 .23170471Z"/>
<path id="font_4_46" d="M.72698977 .33580018C.72698977 .52568057 .58799746 .6826172 .4119873 .6826172H.039993287V.6516113H.06298828C.13999939 .6516113 .14199829 .64060977 .14199829 .6036377V.07896423C.14199829 .041992189 .13999939 .0309906 .06298828 .0309906H.039993287V0H.4119873C.58499148 0 .72698977 .1479187 .72698977 .33580018M.6279907 .33580018C.6279907 .29483033 .6279907 .18989563 .57299807 .11993408 .5209961 .051986696 .44898988 .0309906 .38598634 .0309906H.27799989C.23098755 .0309906 .22898865 .037994386 .22898865 .07196045V.6106262C.22898865 .64460757 .23098755 .6516113 .27799989 .6516113H.3849945C.48199464 .6516113 .5419922 .6006317 .56900027 .56466677 .61299136 .5066986 .6279907 .43473817 .6279907 .33580018Z"/>
</defs>
<path transform="matrix(1.00005,0,0,-1.00008,19.593232,126.18505)" stroke-width=".19925" stroke-linecap="butt" stroke-miterlimit="10" stroke-linejoin="miter" fill="none" stroke="#7f807f" d="M19.10706-2.1259V2.1259M50.95216-2.1259V2.1259M82.79726-2.1259V2.1259M114.64236-2.1259V2.1259"/>
<path transform="matrix(1.00005,0,0,-1.00008,19.593232,126.18505)" stroke-width=".19925" stroke-linecap="butt" stroke-miterlimit="10" stroke-linejoin="miter" fill="none" stroke="#7f807f" d="M-2.12592 21.64761H2.12592M-2.12592 43.29523H2.12592M-2.12592 64.94284H2.12592M-2.12592 86.59045H2.12592"/>
<path transform="matrix(1.00005,0,0,-1.00008,19.593232,126.18505)" stroke-width=".3985" stroke-linecap="butt" stroke-miterlimit="10" stroke-linejoin="miter" fill="none" stroke="#000000" d="M0 0H131.75691"/>
<path transform="matrix(1.00005,0,0,-1.00008,151.35672,126.18505)" d="M1.99252 0-1.19551 1.59401 0 0-1.19551-1.59401"/>
<path transform="matrix(1.00005,0,0,-1.00008,19.593232,126.18505)" stroke-width=".3985" stroke-linecap="butt" stroke-miterlimit="10" stroke-linejoin="miter" fill="none" stroke="#000000" d="M0 0V106.24556"/>
<path transform="matrix(0,-1.00008,-1.00005,-0,19.593232,19.930993)" d="M1.99252 0-1.19551 1.59401 0 0-1.19551-1.59401"/>
<use data-text="0" xlink:href="#font_1_1" transform="matrix(9.963098,0,0,-9.963397,36.21006,138.25202)"/>
<use data-text="1" xlink:href="#font_1_2" transform="matrix(9.963098,0,0,-9.963397,68.056659,138.25202)"/>
<use data-text="2" xlink:href="#font_1_3" transform="matrix(9.963098,0,0,-9.963397,99.90424,138.25202)"/>
<use data-text="3" xlink:href="#font_1_4" transform="matrix(9.963098,0,0,-9.963397,131.75083,138.25202)"/>
<use data-text="0" xlink:href="#font_1_1" transform="matrix(9.963098,0,0,-9.963397,1.2163162,107.746578)"/>
<use data-text="." xlink:href="#font_2_1" transform="matrix(9.963098,0,0,-9.963397,6.197571,107.746578)"/>
<use data-text="1" xlink:href="#font_1_2" transform="matrix(9.963098,0,0,-9.963397,8.9657139,107.746578)"/>
<use data-text="0" xlink:href="#font_1_1" transform="matrix(9.963098,0,0,-9.963397,1.2163162,86.09685)"/>
<use data-text="." xlink:href="#font_2_1" transform="matrix(9.963098,0,0,-9.963397,6.197571,86.09685)"/>
<use data-text="2" xlink:href="#font_1_3" transform="matrix(9.963098,0,0,-9.963397,8.9657139,86.09685)"/>
<use data-text="0" xlink:href="#font_1_1" transform="matrix(9.963098,0,0,-9.963397,1.2163162,64.44711)"/>
<use data-text="." xlink:href="#font_2_1" transform="matrix(9.963098,0,0,-9.963397,6.197571,64.44711)"/>
<use data-text="3" xlink:href="#font_1_4" transform="matrix(9.963098,0,0,-9.963397,8.9657139,64.44711)"/>
<use data-text="0" xlink:href="#font_1_1" transform="matrix(9.963098,0,0,-9.963397,1.2163162,42.798387)"/>
<use data-text="." xlink:href="#font_2_1" transform="matrix(9.963098,0,0,-9.963397,6.197571,42.798387)"/>
<use data-text="4" xlink:href="#font_1_5" transform="matrix(9.963098,0,0,-9.963397,8.9657139,42.798387)"/>
<g clip-path="url(#clip_3)">
<path transform="matrix(1.00005,0,0,-1.00008,19.593232,126.18505)" d="M13.1294 0H25.08472V21.64761H13.1294ZM44.9745 0H56.929819V64.94284H44.9745ZM76.8196 0H88.774929V86.59045H76.8196ZM108.6647 0H120.620029V43.29523H108.6647Z" fill="#a6a6ff"/>
<path transform="matrix(1.00005,0,0,-1.00008,19.593232,126.18505)" stroke-width=".3985" stroke-linecap="butt" stroke-miterlimit="10" stroke-linejoin="miter" fill="none" stroke="#000000" d="M13.1294 0H25.08472V21.64761H13.1294ZM44.9745 0H56.929819V64.94284H44.9745ZM76.8196 0H88.774929V86.59045H76.8196ZM108.6647 0H120.620029V43.29523H108.6647Z"/>
</g>
<use data-text="x" xlink:href="#font_2_2" transform="matrix(9.963098,0,0,-9.963397,83.62443,149.3829)"/>
<use data-text="P" xlink:href="#font_4_83" transform="matrix(8.966848,0,0,-8.967117,76.10506,8.439636)"/>
<use data-text="M" xlink:href="#font_4_74" transform="matrix(8.966848,0,0,-8.967117,82.37288,8.439636)"/>
<use data-text="F" xlink:href="#font_4_54" transform="matrix(8.966848,0,0,-8.967117,90.81966,8.439636)"/>
<path transform="matrix(1.00005,0,0,-1.00008,246.37955,126.18505)" stroke-width=".19925" stroke-linecap="butt" stroke-miterlimit="10" stroke-linejoin="miter" fill="none" stroke="#7f807f" d="M19.10706-2.12625V2.12625M50.95216-2.12625V2.12625M82.79726-2.12625V2.12625M114.64236-2.12625V2.12625"/>
<path transform="matrix(1.00005,0,0,-1.00008,246.37955,126.18505)" stroke-width=".19925" stroke-linecap="butt" stroke-miterlimit="10" stroke-linejoin="miter" fill="none" stroke="#7f807f" d="M-2.12592 10.0222H2.12592M-2.12592 40.08882H2.12592M-2.12592 80.17766H2.12592M-2.12592 100.22208H2.12592"/>
<path transform="matrix(1.00005,0,0,-1.00008,246.37955,126.18505)" stroke-width=".3985" stroke-linecap="butt" stroke-miterlimit="10" stroke-linejoin="miter" fill="none" stroke="#000000" d="M0 0H131.75691"/>
<path transform="matrix(1.00005,0,0,-1.00008,378.14305,126.18505)" d="M1.99252 0-1.19551 1.59401 0 0-1.19551-1.59401"/>
<path transform="matrix(1.00005,0,0,-1.00008,246.37955,126.18505)" stroke-width=".3985" stroke-linecap="butt" stroke-miterlimit="10" stroke-linejoin="miter" fill="none" stroke="#000000" d="M0 0V106.24731"/>
<path transform="matrix(0,-1.00008,-1.00005,-0,246.37955,19.929245)" d="M1.99252 0-1.19551 1.59401 0 0-1.19551-1.59401"/>
<use data-text="0" xlink:href="#font_1_1" transform="matrix(9.963098,0,0,-9.963397,262.99638,138.25202)"/>
<use data-text="1" xlink:href="#font_1_2" transform="matrix(9.963098,0,0,-9.963397,294.84297,138.25202)"/>
<use data-text="2" xlink:href="#font_1_3" transform="matrix(9.963098,0,0,-9.963397,326.69056,138.25202)"/>
<use data-text="3" xlink:href="#font_1_4" transform="matrix(9.963098,0,0,-9.963397,358.53715,138.25202)"/>
<use data-text="0" xlink:href="#font_1_1" transform="matrix(9.963098,0,0,-9.963397,228.00263,119.372509)"/>
<use data-text="." xlink:href="#font_2_1" transform="matrix(9.963098,0,0,-9.963397,232.98389,119.372509)"/>
<use data-text="1" xlink:href="#font_1_2" transform="matrix(9.963098,0,0,-9.963397,235.75203,119.372509)"/>
<use data-text="0" xlink:href="#font_1_1" transform="matrix(9.963098,0,0,-9.963397,228.00263,89.3031)"/>
<use data-text="." xlink:href="#font_2_1" transform="matrix(9.963098,0,0,-9.963397,232.98389,89.3031)"/>
<use data-text="4" xlink:href="#font_1_5" transform="matrix(9.963098,0,0,-9.963397,235.75203,89.3031)"/>
<use data-text="0" xlink:href="#font_1_1" transform="matrix(9.963098,0,0,-9.963397,228.00263,49.21189)"/>
<use data-text="." xlink:href="#font_2_1" transform="matrix(9.963098,0,0,-9.963397,232.98389,49.21189)"/>
<use data-text="8" xlink:href="#font_1_6" transform="matrix(9.963098,0,0,-9.963397,235.75203,49.21189)"/>
<use data-text="1" xlink:href="#font_1_2" transform="matrix(9.963098,0,0,-9.963397,235.75202,29.16529)"/>
<g clip-path="url(#clip_5)">
<path transform="matrix(1.00005,0,0,-1.00008,246.37955,126.18505)" stroke-width=".79701" stroke-linecap="butt" stroke-miterlimit="10" stroke-linejoin="miter" fill="none" stroke="#ff0000" d="M0 0H19.10706"/>
<path transform="matrix(1.00005,0,0,-1.00008,246.37955,126.18505)" stroke-width=".79701" stroke-linecap="butt" stroke-miterlimit="10" stroke-linejoin="miter" fill="none" stroke="#ff0000" d="M19.10706 10.0222H50.95216"/>
<path transform="matrix(1.00005,0,0,-1.00008,246.37955,126.18505)" stroke-width=".79701" stroke-linecap="butt" stroke-miterlimit="10" stroke-linejoin="miter" fill="none" stroke="#ff0000" d="M50.95216 40.08882H82.79726"/>
<path transform="matrix(1.00005,0,0,-1.00008,246.37955,126.18505)" stroke-width=".79701" stroke-linecap="butt" stroke-miterlimit="10" stroke-linejoin="miter" fill="none" stroke="#ff0000" d="M82.79726 80.17766H114.64236"/>
<path transform="matrix(1.00005,0,0,-1.00008,246.37955,126.18505)" stroke-width=".79701" stroke-linecap="butt" stroke-miterlimit="10" stroke-linejoin="miter" fill="none" stroke="#ff0000" d="M114.64236 100.22208H133.74944"/>
</g>
<path transform="matrix(1.00005,0,0,-1.00008,246.37955,126.18505)" d="M21.09961 0C21.09961 1.10046 20.20752 1.99255 19.10706 1.99255 18.00658 1.99255 17.1145 1.10046 17.1145 0 17.1145-1.10046 18.00658-1.99255 19.10706-1.99255 20.20752-1.99255 21.09961-1.10046 21.09961 0ZM19.10706 0" fill="#ffffff"/>
<path transform="matrix(1.00005,0,0,-1.00008,246.37955,126.18505)" stroke-width=".3985" stroke-linecap="butt" stroke-miterlimit="10" stroke-linejoin="miter" fill="none" stroke="#ff0000" d="M21.09961 0C21.09961 1.10046 20.20752 1.99255 19.10706 1.99255 18.00658 1.99255 17.1145 1.10046 17.1145 0 17.1145-1.10046 18.00658-1.99255 19.10706-1.99255 20.20752-1.99255 21.09961-1.10046 21.09961 0ZM19.10706 0"/>
<path transform="matrix(1.00005,0,0,-1.00008,246.37955,126.18505)" d="M52.94472 10.0222C52.94472 11.12267 52.05263 12.01476 50.95216 12.01476 49.85168 12.01476 48.95961 11.12267 48.95961 10.0222 48.95961 8.92172 49.85168 8.02965 50.95216 8.02965 52.05263 8.02965 52.94472 8.92172 52.94472 10.0222ZM50.95216 10.0222" fill="#ffffff"/>
<path transform="matrix(1.00005,0,0,-1.00008,246.37955,126.18505)" stroke-width=".3985" stroke-linecap="butt" stroke-miterlimit="10" stroke-linejoin="miter" fill="none" stroke="#ff0000" d="M52.94472 10.0222C52.94472 11.12267 52.05263 12.01476 50.95216 12.01476 49.85168 12.01476 48.95961 11.12267 48.95961 10.0222 48.95961 8.92172 49.85168 8.02965 50.95216 8.02965 52.05263 8.02965 52.94472 8.92172 52.94472 10.0222ZM50.95216 10.0222"/>
<path transform="matrix(1.00005,0,0,-1.00008,246.37955,126.18505)" d="M84.78981 40.08882C84.78981 41.1893 83.89774 42.08138 82.79726 42.08138 81.6968 42.08138 80.8047 41.1893 80.8047 40.08882 80.8047 38.98836 81.6968 38.09627 82.79726 38.09627 83.89774 38.09627 84.78981 38.98836 84.78981 40.08882ZM82.79726 40.08882" fill="#ffffff"/>
<path transform="matrix(1.00005,0,0,-1.00008,246.37955,126.18505)" stroke-width=".3985" stroke-linecap="butt" stroke-miterlimit="10" stroke-linejoin="miter" fill="none" stroke="#ff0000" d="M84.78981 40.08882C84.78981 41.1893 83.89774 42.08138 82.79726 42.08138 81.6968 42.08138 80.8047 41.1893 80.8047 40.08882 80.8047 38.98836 81.6968 38.09627 82.79726 38.09627 83.89774 38.09627 84.78981 38.98836 84.78981 40.08882ZM82.79726 40.08882"/>
<path transform="matrix(1.00005,0,0,-1.00008,246.37955,126.18505)" d="M116.63492 80.17766C116.63492 81.27814 115.74284 82.17021 114.64236 82.17021 113.5419 82.17021 112.64981 81.27814 112.64981 80.17766 112.64981 79.0772 113.5419 78.1851 114.64236 78.1851 115.74284 78.1851 116.63492 79.0772 116.63492 80.17766ZM114.64236 80.17766" fill="#ffffff"/>
<path transform="matrix(1.00005,0,0,-1.00008,246.37955,126.18505)" stroke-width=".3985" stroke-linecap="butt" stroke-miterlimit="10" stroke-linejoin="miter" fill="none" stroke="#ff0000" d="M116.63492 80.17766C116.63492 81.27814 115.74284 82.17021 114.64236 82.17021 113.5419 82.17021 112.64981 81.27814 112.64981 80.17766 112.64981 79.0772 113.5419 78.1851 114.64236 78.1851 115.74284 78.1851 116.63492 79.0772 116.63492 80.17766ZM114.64236 80.17766"/>
<path transform="matrix(1.00005,0,0,-1.00008,246.37955,126.18505)" stroke-width=".3985" stroke-linecap="butt" stroke-miterlimit="10" stroke-linejoin="miter" fill="none" stroke="#ff0000" d=""/>
<path transform="matrix(1.00005,0,0,-1.00008,246.37955,126.18505)" d="M21.09961 10.0222C21.09961 11.12267 20.20752 12.01476 19.10706 12.01476 18.00658 12.01476 17.1145 11.12267 17.1145 10.0222 17.1145 8.92172 18.00658 8.02965 19.10706 8.02965 20.20752 8.02965 21.09961 8.92172 21.09961 10.0222ZM19.10706 10.0222" fill="#ff0000"/>
<path transform="matrix(1.00005,0,0,-1.00008,246.37955,126.18505)" stroke-width=".3985" stroke-linecap="butt" stroke-miterlimit="10" stroke-linejoin="miter" fill="none" stroke="#ff0000" d="M21.09961 10.0222C21.09961 11.12267 20.20752 12.01476 19.10706 12.01476 18.00658 12.01476 17.1145 11.12267 17.1145 10.0222 17.1145 8.92172 18.00658 8.02965 19.10706 8.02965 20.20752 8.02965 21.09961 8.92172 21.09961 10.0222ZM19.10706 10.0222"/>
<path transform="matrix(1.00005,0,0,-1.00008,246.37955,126.18505)" d="M52.94472 40.08882C52.94472 41.1893 52.05263 42.08138 50.95216 42.08138 49.85168 42.08138 48.95961 41.1893 48.95961 40.08882 48.95961 38.98836 49.85168 38.09627 50.95216 38.09627 52.05263 38.09627 52.94472 38.98836 52.94472 40.08882ZM50.95216 40.08882" fill="#ff0000"/>
<path transform="matrix(1.00005,0,0,-1.00008,246.37955,126.18505)" stroke-width=".3985" stroke-linecap="butt" stroke-miterlimit="10" stroke-linejoin="miter" fill="none" stroke="#ff0000" d="M52.94472 40.08882C52.94472 41.1893 52.05263 42.08138 50.95216 42.08138 49.85168 42.08138 48.95961 41.1893 48.95961 40.08882 48.95961 38.98836 49.85168 38.09627 50.95216 38.09627 52.05263 38.09627 52.94472 38.98836 52.94472 40.08882ZM50.95216 40.08882"/>
<path transform="matrix(1.00005,0,0,-1.00008,246.37955,126.18505)" d="M84.78981 80.17766C84.78981 81.27814 83.89774 82.17021 82.79726 82.17021 81.6968 82.17021 80.8047 81.27814 80.8047 80.17766 80.8047 79.0772 81.6968 78.1851 82.79726 78.1851 83.89774 78.1851 84.78981 79.0772 84.78981 80.17766ZM82.79726 80.17766" fill="#ff0000"/>
<path transform="matrix(1.00005,0,0,-1.00008,246.37955,126.18505)" stroke-width=".3985" stroke-linecap="butt" stroke-miterlimit="10" stroke-linejoin="miter" fill="none" stroke="#ff0000" d="M84.78981 80.17766C84.78981 81.27814 83.89774 82.17021 82.79726 82.17021 81.6968 82.17021 80.8047 81.27814 80.8047 80.17766 80.8047 79.0772 81.6968 78.1851 82.79726 78.1851 83.89774 78.1851 84.78981 79.0772 84.78981 80.17766ZM82.79726 80.17766"/>
<path transform="matrix(1.00005,0,0,-1.00008,246.37955,126.18505)" d="M116.63492 100.22208C116.63492 101.32254 115.74284 102.21463 114.64236 102.21463 113.5419 102.21463 112.64981 101.32254 112.64981 100.22208 112.64981 99.1216 113.5419 98.22952 114.64236 98.22952 115.74284 98.22952 116.63492 99.1216 116.63492 100.22208ZM114.64236 100.22208" fill="#ff0000"/>
<path transform="matrix(1.00005,0,0,-1.00008,246.37955,126.18505)" stroke-width=".3985" stroke-linecap="butt" stroke-miterlimit="10" stroke-linejoin="miter" fill="none" stroke="#ff0000" d="M116.63492 100.22208C116.63492 101.32254 115.74284 102.21463 114.64236 102.21463 113.5419 102.21463 112.64981 101.32254 112.64981 100.22208 112.64981 99.1216 113.5419 98.22952 114.64236 98.22952 115.74284 98.22952 116.63492 99.1216 116.63492 100.22208ZM114.64236 100.22208"/>
<path transform="matrix(1.00005,0,0,-1.00008,246.37955,126.18505)" stroke-width=".3985" stroke-linecap="butt" stroke-miterlimit="10" stroke-linejoin="miter" fill="none" stroke="#ff0000" d=""/>
<use data-text="x" xlink:href="#font_2_2" transform="matrix(9.963098,0,0,-9.963397,310.41075,149.3829)"/>
<use data-text="C" xlink:href="#font_4_42" transform="matrix(8.966848,0,0,-8.967117,303.4034,8.240623)"/>
<use data-text="D" xlink:href="#font_4_46" transform="matrix(8.966848,0,0,-8.967117,310.05683,8.240623)"/>
<use data-text="F" xlink:href="#font_4_54" transform="matrix(8.966848,0,0,-8.967117,317.09577,8.240623)"/>
</svg>
