<svg xmlns="http://www.w3.org/2000/svg" xmlns:xlink="http://www.w3.org/1999/xlink" xmlns:inkscape="http://www.inkscape.org/namespaces/inkscape" version="1.1" width="336" height="178" viewBox="0 0 336 178">
<defs>
<path id="font_1_1" d="M.45999146 .31976319C.45999146 .39982606 .45498658 .47988893 .41999818 .5539398 .37399293 .65000918 .2919922 .6660156 .25 .6660156 .18998719 .6660156 .116989139 .64001467 .07598877 .54693606 .04399109 .47789 .038986207 .39982606 .038986207 .31976319 .038986207 .24472046 .042999269 .15464783 .083999637 .07859802 .1269989-.0024719239 .19999695-.022460938 .24899292-.022460938 .30299378-.022460938 .3789978-.0014648438 .4229889 .09359741 .45498658 .16265869 .45999146 .2407074 .45999146 .31976319M.24899292-.00047302247C.20999146-.00047302247 .15098572 .024551392 .1329956 .12062073 .12199402 .18066406 .12199402 .2727356 .12199402 .3317871 .12199402 .39582826 .12199402 .46188355 .12998963 .5159149 .14898682 .63500979 .22399903 .64401248 .24899292 .64401248 .28199769 .64401248 .34799195 .6259918 .36698915 .52693179 .3769989 .47088624 .3769989 .39482118 .3769989 .3317871 .3769989 .25672914 .3769989 .18867493 .3659973 .12461853 .35099793 .029556275 .2939911-.00047302247 .24899292-.00047302247Z"/>
<path id="font_1_3" d="M.1269989 .07699585 .23298645 .18003845C.3889923 .31811524 .44898988 .3721466 .44898988 .47216798 .44898988 .5860901 .35899354 .6660156 .23699951 .6660156 .12399292 .6660156 .049987794 .57411196 .049987794 .48516847 .049987794 .4291687 .099990848 .4291687 .102996829 .4291687 .11999512 .4291687 .15499878 .44117738 .15499878 .48217774 .15499878 .5081787 .13699341 .5341797 .101989749 .5341797 .09399414 .5341797 .09199524 .5341797 .08898926 .5331726 .11199951 .59806826 .1659851 .63500979 .22399903 .63500979 .31498719 .63500979 .35798646 .5541382 .35798646 .47216798 .35798646 .39215089 .30799867 .31311036 .25299073 .25108338L.06098938 .036987306C.049987794 .025985718 .049987794 .023986817 .049987794 0H.42099L.44898988 .17404175H.42399598C.4189911 .14402771 .4119873 .1000061 .4019928 .084991458 .394989 .07699585 .32899476 .07699585 .30699159 .07699585H.1269989Z"/>
<path id="font_1_4" d="M.2939911 .16503906V.07800293C.2939911 .041992189 .2919922 .0309906 .21798706 .0309906H.19699097V0C.23799134 .0029907227 .2899933 .0029907227 .33198548 .0029907227 .37399293 .0029907227 .4269867 .0029907227 .46798707 0V.0309906H.44699098C.37298585 .0309906 .37098695 .041992189 .37098695 .07800293V.16503906H.47099305V.19602967H.37098695V.65075686C.37098695 .67074587 .37098695 .6767578 .35499574 .6767578 .34599305 .6767578 .34298707 .6767578 .33499146 .66474917L.027999878 .19602967V.16503906H.2939911M.2999878 .19602967H.055999757L.2999878 .5688019V.19602967Z"/>
<path id="font_1_6" d="M.13198853 .327713V.35173036C.13198853 .6047821 .2559967 .64100649 .30699159 .64100649 .33099366 .64100649 .37298585 .634964 .394989 .6007538 .37998963 .6007538 .33999635 .6007538 .33999635 .5557556 .33999635 .524765 .3639984 .5097656 .38598634 .5097656 .4019928 .5097656 .43199159 .51875308 .43199159 .5577545 .43199159 .6178589 .3880005 .6660156 .30499269 .6660156 .1769867 .6660156 .041992189 .5367584 .041992189 .31570436 .041992189 .048553468 .1579895-.022460938 .25099183-.022460938 .3619995-.022460938 .45700074 .07156372 .45700074 .2036438 .45700074 .33070375 .36799623 .4267578 .25698854 .4267578 .18899536 .4267578 .1519928 .37573243 .13198853 .327713M.25099183 .0055389406C.18798828 .0055389406 .1579895 .06556702 .1519928 .080566409 .13398743 .127594 .13398743 .2076416 .13398743 .22564698 .13398743 .30369569 .1659851 .40374757 .2559967 .40374757 .27198792 .40374757 .31799317 .40374757 .34899903 .34172059 .36698915 .30470277 .36698915 .2536621 .36698915 .20463562 .36698915 .15661621 .36698915 .10658264 .34999085 .0705719 .31999208 .010528564 .27398683 .0055389406 .25099183 .0055389406Z"/>
<path id="font_1_7" d="M.16299439 .4569702C.116989139 .486969 .11299133 .52098086 .11299133 .5379791 .11299133 .598999 .17799378 .64100649 .24899292 .64100649 .32199098 .64100649 .38598634 .58898928 .38598634 .51698306 .38598634 .45996095 .34700013 .4119568 .2869873 .37695313L.16299439 .4569702M.30899049 .36193849C.3809967 .3989563 .42999269 .45095826 .42999269 .51698306 .42999269 .6090088 .34098817 .6660156 .25 .6660156 .1499939 .6660156 .068984989 .59199526 .068984989 .49897767 .068984989 .4809723 .070999149 .43595887 .11299133 .38894654 .12399292 .37695313 .16099549 .35194398 .18598938 .33494569 .12799073 .30592347 .041992189 .24984741 .041992189 .15072632 .041992189 .04458618 .14399719-.022460938 .24899292-.022460938 .3619995-.022460938 .45700074 .06060791 .45700074 .16773987 .45700074 .20379639 .44599916 .24885559 .4079895 .2909088 .3889923 .31193543 .37298585 .3219452 .30899049 .36193849M.20899964 .3199463 .33198548 .24183655C.3600006 .2228241 .40699769 .19277954 .40699769 .13169861 .40699769 .05760193 .33198548 .0055389406 .25 .0055389406 .1639862 .0055389406 .09199524 .067611698 .09199524 .15072632 .09199524 .20880127 .12399292 .27288819 .20899964 .3199463Z"/>
<path id="font_1_2" d="M.2939911 .64004519C.2939911 .66400149 .2939911 .6660156 .2709961 .6660156 .20899964 .60227969 .12098694 .60227969 .08898926 .60227969V.57128909C.10899353 .57128909 .16799927 .57128909 .21998596 .5972748V.07902527C.21998596 .042999269 .21699524 .0309906 .1269989 .0309906H.09498596V0C.12998963 .0029907227 .21699524 .0029907227 .25698854 .0029907227 .29699708 .0029907227 .38398744 .0029907227 .4189911 0V.0309906H.3869934C.29699708 .0309906 .2939911 .041992189 .2939911 .07902527V.64004519Z"/>
<path id="font_1_5" d="M.44898988 .20022583C.44898988 .3193512 .36698915 .41944886 .25898744 .41944886 .21099854 .41944886 .16799927 .40345765 .13198853 .36842347V.5637665C.1519928 .5577698 .18499756 .55078127 .21699524 .55078127 .33999635 .55078127 .4099884 .6417694 .4099884 .6547699 .4099884 .6607666 .40699769 .6657715 .3999939 .6657715 .39898683 .6657715 .39698792 .6657715 .3919983 .66278079 .37199403 .6537781 .32299806 .6337738 .2559967 .6337738 .21598816 .6337738 .16999817 .6407776 .12298584 .6617737 .114990238 .66477969 .11299133 .66477969 .11099243 .66477969 .100997928 .66477969 .100997928 .6567688 .100997928 .6407776V.34439088C.100997928 .32637025 .100997928 .31835938 .114990238 .31835938 .12199402 .31835938 .12399292 .32136537 .12799073 .32736207 .13899231 .3433838 .17599488 .39746095 .25698854 .39746095 .30899049 .39746095 .33399964 .35139466 .34199525 .33337403 .35798646 .29632569 .3600006 .25727845 .3600006 .20722962 .3600006 .17222595 .3600006 .11222839 .33599855 .07035828 .31199647 .031463624 .2749939 .0055389406 .22898865 .0055389406 .1559906 .0055389406 .09899902 .058380128 .08198547 .11723328 .084991458 .1162262 .08799744 .115234378 .09899902 .115234378 .13198853 .115234378 .14898682 .14022827 .14898682 .16423035 .14898682 .18823242 .13198853 .21322632 .09899902 .21322632 .084991458 .21322632 .049987794 .20622254 .049987794 .16023255 .049987794 .07434082 .11898804-.022460938 .23098755-.022460938 .34700013-.022460938 .44898988 .073349 .44898988 .20022583Z"/>
<path id="font_2_1" d="M.19198609 .2502594C.19198609 .2792511 .16799927 .30325318 .13899231 .30325318 .10998535 .30325318 .085998538 .2792511 .085998538 .2502594 .085998538 .22125244 .10998535 .19726563 .13899231 .19726563 .16799927 .19726563 .19198609 .22125244 .19198609 .2502594Z"/>
<path id="font_3_1" d="M.74398806 .2263794C.7599945 .2263794 .7839966 .2263794 .7839966 .25038148 .7839966 .27539063 .7609863 .27539063 .74398806 .27539063H.147995C.13198853 .27539063 .10798645 .27539063 .10798645 .25138856 .10798645 .2263794 .1309967 .2263794 .147995 .2263794H.74398806Z"/>
<path id="font_4_1" d="M.5049896 .18203736H.47099305C.46798707 .16001892 .45799256 .100997928 .44499208 .09098816 .43699647 .084991458 .3600006 .084991458 .34599305 .084991458H.1619873C.2669983 .17803955 .3019867 .20603943 .3619995 .25306703 .43598939 .312088 .5049896 .374115 .5049896 .46914674 .5049896 .5900879 .39898683 .6640625 .2709961 .6640625 .14698792 .6640625 .06298828 .57710269 .06298828 .4851532 .06298828 .43414308 .10598755 .42915345 .115997318 .42915345 .13999939 .42915345 .16899109 .44615174 .16899109 .48214723 .16899109 .5001526 .1619873 .53515627 .10998535 .53515627 .14099121 .6060791 .20899964 .62805178 .2559967 .62805178 .35598756 .62805178 .4079895 .5501404 .4079895 .46914674 .4079895 .38212586 .34599305 .3130951 .31399537 .27708436L.07299805 .038986207C.06298828 .02999878 .06298828 .027999878 .06298828 0H.47499085L.5049896 .18203736Z"/>
<path id="font_5_1" d="M.19198609 .052993776C.19198609 .08198547 .16799927 .10598755 .13899231 .10598755 .10998535 .10598755 .085998538 .08198547 .085998538 .052993776 .085998538 .023986817 .10998535 0 .13899231 0 .16799927 0 .19198609 .023986817 .19198609 .052993776Z"/>
<clipPath id="clip_6">
<path transform="matrix(1.00003,0,0,-1.00005,39.699754,149.72968)" d="M0 0H295.327V147.92528H0Z"/>
</clipPath>
<path id="font_5_2" d="M.2869873 .68333438C.2869873 .6843262 .2869873 .69433596 .27398683 .69433596 .25099183 .69433596 .17799378 .6863251 .1519928 .6843262 .14399719 .68333438 .1329956 .6823273 .1329956 .6643219 .1329956 .6523285 .14199829 .6523285 .15699768 .6523285 .20498657 .6523285 .20698548 .6453247 .20698548 .6353302L.20399475 .6153412 .05899048 .039260866C.054992677 .025253296 .054992677 .023254395 .054992677 .01725769 .054992677-.0057525637 .07499695-.0107421879 .083999637-.0107421879 .09700012-.0107421879 .11199951-.0017547608 .117996219 .010253906 .12298584 .019256592 .16799927 .20431519 .17399597 .22932434 .20799256 .22631836 .2899933 .21031189 .2899933 .14428711 .2899933 .13729859 .2899933 .13328552 .2869873 .123291019 .2849884 .11128235 .2829895 .09927368 .2829895 .088272098 .2829895 .029251099 .32299806-.0107421879 .375-.0107421879 .40499879-.0107421879 .43199159 .0052490236 .45399476 .042266847 .47898866 .08627319 .48999024 .14129639 .48999024 .14329529 .48999024 .1532898 .48098756 .1532898 .47799684 .1532898 .46798707 .1532898 .46699525 .14929199 .46398927 .13528443 .44400025 .06227112 .42099 .011245728 .3769989 .011245728 .35798646 .011245728 .34498597 .022247315 .34498597 .058273317 .34498597 .07527161 .34899903 .09828186 .35299684 .11428833 .35699464 .13128662 .35699464 .13528443 .35699464 .14529419 .35699464 .21031189 .2939911 .23931885 .20899964 .2503357 .23999024 .26834107 .27198792 .30033876 .29499818 .32435609 .34298707 .37734986 .3889923 .42037965 .43798829 .42037965 .44400025 .42037965 .44499208 .42037965 .44699098 .41937257 .45899964 .41737367 .45999146 .41737367 .46798707 .4113617 .46998597 .4103546 .46998597 .40934754 .47200013 .40734864 .42399598 .4043579 .4149933 .36535646 .4149933 .35334779 .4149933 .33735658 .42599488 .31835938 .45298768 .31835938 .47898866 .31835938 .5079956 .3403473 .5079956 .37934876 .5079956 .40934754 .4850006 .4423828 .43998719 .4423828 .4119873 .4423828 .3659973 .43437196 .2939911 .35435487 .2599945 .3163452 .22099304 .27633668 .18299866 .26133729L.2869873 .68333438Z"/>
<path id="font_7_3" d="M.16299439 .07595825C.1539917 .039993287 .1519928 .0309906 .07699585 .0309906 .057998659 .0309906 .04699707 .0309906 .04699707 .0129852299 .04699707 0 .056991579 0 .07499695 0H.43899537C.6009979 0 .7200012 .11793518 .7200012 .21485901 .7200012 .28581239 .6609955 .34576417 .56199648 .35676576 .6759949 .37875367 .772995 .4547119 .772995 .54367068 .772995 .6216278 .70098879 .6826172 .58200076 .6826172H.23999024C.22200012 .6826172 .20999146 .6826172 .20999146 .6646118 .20999146 .6516113 .21899414 .6516113 .23999024 .6516113 .24398804 .6516113 .2619934 .6516113 .27799989 .6496124 .29499818 .6476135 .3019867 .6456146 .3019867 .63461306 .3019867 .6296234 .30099488 .6256256 .2979889 .614624L.16299439 .07595825M.31900025 .36776734 .37998963 .6126251C.3889923 .64860537 .3909912 .6516113 .43299867 .6516113H.56799319C.6719971 .6516113 .68099978 .5726471 .68099978 .54766848 .68099978 .45870973 .58799746 .36776734 .47499085 .36776734H.31900025M.2709961 .0309906C.25698854 .0309906 .25498963 .0309906 .25099183 .03199768 .24099732 .032989503 .23799134 .033996583 .23799134 .040985109 .23799134 .04397583 .23799134 .04597473 .24299622 .063964847L.31199647 .34277345H.5C.56199648 .34277345 .625 .31578065 .625 .22485352 .625 .12593079 .5339966 .0309906 .4139862 .0309906H.2709961Z"/>
<path id="font_8_1" d="M.34098817-.23803711C.34098817-.23303223 .33799745-.23002625 .33198548-.22303772 .20298767-.105026248 .1639862 .07498169 .1639862 .24996948 .1639862 .40498353 .19400025 .59298709 .33499146 .72698977 .33898927 .73098757 .34098817 .73399356 .34098817 .7389984 .34098817 .74598696 .33599855 .75 .32899476 .75 .31698609 .75 .22698975 .6779785 .17298889 .568985 .125 .47297669 .100997928 .36997987 .100997928 .25097657 .100997928 .17897034 .10998535 .064971927 .16499329-.053024293 .22399903-.17602539 .31698609-.24902344 .32899476-.24902344 .33599855-.24902344 .34098817-.24502564 .34098817-.23803711Z"/>
<path id="font_8_5" d="M.46199037 .17704773H.43399049C.43199159 .16404724 .42399598 .10501099 .41099549 .08900452 .40499879 .07998657 .33599855 .07998657 .31599427 .07998657H.13798523L.23699951 .17404175C.40098573 .3161316 .46199037 .36915589 .46199037 .4711914 .46199037 .5860901 .36698915 .6660156 .24398804 .6660156 .1289978 .6660156 .050994874 .575119 .050994874 .4841919 .050994874 .43418885 .09399414 .42919923 .102996829 .42919923 .125 .42919923 .15499878 .44519044 .15499878 .48120118 .15499878 .51119998 .13398743 .5332031 .102996829 .5332031 .09799194 .5332031 .09498596 .5332031 .09098816 .53219607 .114990238 .6030731 .1789856 .63500979 .23298645 .63500979 .33499146 .63500979 .36999513 .5401764 .36999513 .4711914 .36999513 .36915589 .29299928 .28611756 .24499512 .23408509L.06199646 .035995485C.050994874 .024993897 .050994874 .022994996 .050994874 0H.43399049L.46199037 .17704773Z"/>
<path id="font_8_3" d="M.47299195 .31976319C.47299195 .38682557 .46998597 .47288514 .43499757 .5479431 .3909912 .64201357 .31498719 .6660156 .25698854 .6660156 .19699097 .6660156 .12098694 .64201357 .07699585 .5459442 .04499817 .47688294 .039993287 .39582826 .039993287 .31976319 .039993287 .25471498 .041992189 .15765381 .084991458 .07858276 .13198853-.0064697267 .20999146-.022460938 .2559967-.022460938 .32099916-.022460938 .394989 .0055389406 .43699647 .097595218 .46699525 .1646576 .47299195 .23971558 .47299195 .31976319M.25698854 .002532959C.22698975 .002532959 .15499878 .016540528 .13598633 .12962342 .12599182 .18867493 .12599182 .2747345 .12599182 .33177186 .12599182 .39982606 .12599182 .47888185 .13798523 .53393557 .1579895 .6230011 .22200012 .64100649 .2559967 .64100649 .2939911 .64100649 .35699464 .62098696 .37599183 .5279236 .3869934 .47288514 .3869934 .39482118 .3869934 .33177186 .3869934 .2697296 .3869934 .18566895 .3769989 .12661743 .35598756 .012542725 .28199769 .002532959 .25698854 .002532959Z"/>
<path id="font_7_2" d="M.18199158 .015991211C.18199158-.017044068 .18199158-.09921265 .10798645-.17036438 .101989749-.17636109 .101989749-.17736817 .101989749-.18136597 .101989749-.18836975 .10899353-.19335938 .114990238-.19335938 .12599182-.19335938 .20698548-.115249637 .20698548 .0019989014 .20698548 .06399536 .18499756 .10798645 .14199829 .10798645 .10798645 .10798645 .08799744 .08198547 .08799744 .053985597 .08799744 .025985718 .10798645 0 .14199829 0 .15699768 0 .17199707 .004989624 .18199158 .015991211Z"/>
<path id="font_7_1" d="M.19599915 .053985597C.19599915 .08299255 .17298889 .10798645 .14199829 .10798645 .11099243 .10798645 .08799744 .08299255 .08799744 .053985597 .08799744 .024993897 .11099243 0 .14199829 0 .17298889 0 .19599915 .024993897 .19599915 .053985597Z"/>
<path id="font_8_6" d="M.10398865 .3444519C.10398865 .32641603 .10398865 .31539918 .117996219 .31539918 .12599182 .31539918 .1289978 .31941224 .1349945 .32843019 .16499329 .3704834 .21299744 .39453126 .2649994 .39453126 .37199403 .39453126 .37199403 .24029541 .37199403 .20425415 .37199403 .17324829 .37199403 .11125183 .34399415 .06637573 .31698609 .024475098 .2749939 .0055389406 .23599243 .0055389406 .1769867 .0055389406 .10998535 .042434694 .085998538 .116256717 .08699036 .116256717 .09298706 .11425781 .099990848 .11425781 .11999512 .11425781 .14898682 .12724304 .14898682 .16325379 .14898682 .19424439 .1269989 .21224976 .099990848 .21224976 .07899475 .21224976 .050994874 .20025635 .050994874 .1602478 .050994874 .069366458 .1269989-.022460938 .23799134-.022460938 .35899354-.022460938 .46199037 .0753479 .46199037 .19924927 .46199037 .3204193 .37599183 .41952516 .2669983 .41952516 .21899414 .41952516 .16999817 .40351869 .1349945 .36747743V.56477358C.16499329 .5557709 .19599915 .55078127 .22698975 .55078127 .34999085 .55078127 .42199708 .6397705 .42199708 .652771 .42199708 .6617737 .41600038 .6657715 .41099549 .6657715 .40899659 .6657715 .40699769 .6657715 .397995 .6607666 .35099793 .6417694 .30499269 .6337738 .2630005 .6337738 .21998596 .6337738 .1749878 .6417694 .1289978 .6607666 .11898804 .6657715 .116989139 .6657715 .115997318 .6657715 .10398865 .6657715 .10398865 .655777 .10398865 .6387787V.3444519Z"/>
<path id="font_8_2" d="M.2979889 .25097657C.2979889 .3329773 .28599549 .4429779 .23399353 .5539856 .1749878 .6769867 .08198547 .75 .069992069 .75 .05999756 .75 .057998659 .74198916 .057998659 .7389984 .057998659 .73399356 .05999756 .73098757 .066986087 .72398379 .125 .6719818 .23498535 .5359802 .23498535 .25097657 .23498535 .10797119 .20899964-.091033939 .06399536-.22602844 .06199646-.22903443 .057998659-.23303223 .057998659-.23803711 .057998659-.24102783 .05999756-.24902344 .069992069-.24902344 .08198547-.24902344 .17199707-.17703247 .22599793-.06802368 .27398683 .02796936 .2979889 .13098145 .2979889 .25097657Z"/>
<path id="font_7_4" d="M.7719879 .574646C.7819977 .6156311 .8009949 .64860537 .8789978 .6516113 .8849945 .6516113 .8969879 .65260317 .8969879 .6696167 .8969879 .6776123 .8909912 .6826172 .8829956 .6826172 .86099246 .6826172 .8049927 .6796112 .7829895 .6796112 .7579956 .6796112 .7559967 .6796112 .7319946 .680603 .71598818 .680603 .69499209 .6826172 .6799927 .6826172 .6759949 .6826172 .6619873 .6826172 .6619873 .6646118 .6619873 .6516113 .673996 .6516113 .6799927 .6516113 .71798709 .65060427 .746994 .6416168 .746994 .6086273 .746994 .6036377 .74398806 .5896454 .74398806 .5886383L.6319885 .1439209 .40299989 .6626129C.3939972 .6816101 .3929901 .6826172 .36999513 .6826172H.23699951C.21798706 .6826172 .20698548 .6826172 .20698548 .6646118 .20698548 .6516113 .21699524 .6516113 .23699951 .6516113 .24198914 .6516113 .2789917 .6516113 .30299378 .6456146L.16799927 .10594177C.1559906 .05697632 .1309967 .033996583 .06098938 .0309906 .056991579 .0309906 .04399109 .02999878 .04399109 .0129852299 .04399109 .010986328 .04399109 0 .057998659 0 .069992069 0 .09498596 .0009918213 .10798645 .0019989014 .12399292 .0029907227 .12599182 .0029907227 .1579895 .0029907227 .18299866 .0029907227 .18499756 .0029907227 .20899964 .0019989014 .22499085 .0019989014 .24598694 0 .26098634 0 .2659912 0 .2789917 0 .2789917 .017990113 .2789917 .02999878 .2679901 .0309906 .25898744 .0309906 .21199036 .03199768 .19400025 .04698181 .19400025 .07395935 .19400025 .080963138 .19499207 .081954959 .19799805 .095947269L.32899476 .6226196 .5970001 .017990113C.60398867 .0019989014 .6049957 0 .61499026 0 .6279907 0 .6289978 .0039978029 .6329956 .020996094L.7719879 .574646Z"/>
<path id="font_8_4" d="M.3039856 .6392822C.3039856 .6642761 .30299378 .666275 .27799989 .666275 .21598816 .60227969 .12399292 .60227969 .09298706 .60227969V.57128909C.11199951 .57128909 .17298889 .57128909 .22698975 .5972748V.08001709C.22698975 .042999269 .22399903 .0309906 .1309967 .0309906H.09899902V0C.1349945 .0029907227 .22399903 .0029907227 .2649994 .0029907227 .30599977 .0029907227 .3959961 .0029907227 .43199159 0V.0309906H.3999939C.30699159 .0309906 .3039856 .042999269 .3039856 .08001709V.6392822Z"/>
<path id="font_9_1" d="M.3999939-.85002139 .21798706-.46102906C.21099854-.44602967 .20698548-.44502259 .20199585-.44502259 .19699097-.44502259 .19499207-.44702149 .18699646-.45303346L.08699036-.5260315C.07798767-.5320282 .07398987-.536026 .07398987-.5430298 .07398987-.5470276 .07699585-.5550232 .085998538-.5550232 .09199524-.5550232 .09799194-.55003359 .11999512-.53302 .1289978-.5270233 .14199829-.5170288 .15299988-.5090332L.35499574-.9410095C.36299134-.9580078 .36799623-.9580078 .3769989-.9580078 .3919983-.9580078 .3959961-.95401 .4039917-.9380188L.8699951 .0009613037C.8730011 .006958008 .8769989 .014953613 .8769989 .020965577 .8769989 .033966066 .86698916 .04296875 .85598757 .04296875 .8470001 .04296875 .83999636 .03895569 .83099368 .020965577L.3999939-.85002139Z"/>
</defs>
<path transform="matrix(1.00003,0,0,-1.00005,39.699754,149.72968)" stroke-width=".19925" stroke-linecap="butt" stroke-miterlimit="10" stroke-linejoin="miter" fill="none" stroke="#7f807f" d="M13.42395-2.12593V2.12593M40.27185-2.12593V2.12593M67.11977-2.12593V2.12593M93.96768-2.12593V2.12593M120.81558-2.12593V2.12593M147.6635-2.12593V2.12593M174.51142-2.12593V2.12593M201.35932-2.12593V2.12593M228.20723-2.12593V2.12593M255.05513-2.12593V2.12593M281.90306-2.12593V2.12593"/>
<path transform="matrix(1.00003,0,0,-1.00005,39.699754,149.72968)" stroke-width=".19925" stroke-linecap="butt" stroke-miterlimit="10" stroke-linejoin="miter" fill="none" stroke="#7f807f" d="M-2.12624 38.9277H2.12624M-2.12624 77.85541H2.12624M-2.12624 116.78311H2.12624"/>
<path transform="matrix(1.00003,0,0,-1.00005,39.699754,149.72968)" stroke-width=".3985" stroke-linecap="butt" stroke-miterlimit="10" stroke-linejoin="miter" fill="none" stroke="#000000" d="M0 0H293.33448"/>
<path transform="matrix(1.00003,0,0,-1.00005,333.04304,149.72968)" d="M1.99252 0-1.19551 1.59401 0 0-1.19551-1.59401"/>
<path transform="matrix(1.00003,0,0,-1.00005,39.699754,149.72968)" stroke-width=".3985" stroke-linecap="butt" stroke-miterlimit="10" stroke-linejoin="miter" fill="none" stroke="#000000" d="M0 0V145.93276"/>
<path transform="matrix(0,-1.00005,-1.00003,-0,39.699754,3.789627)" d="M1.99252 0-1.19551 1.59401 0 0-1.19551-1.59401"/>
<use data-text="0" xlink:href="#font_1_1" transform="matrix(9.962899,0,0,-9.963098,50.63308,161.79628)"/>
<use data-text="2" xlink:href="#font_1_3" transform="matrix(9.962899,0,0,-9.963098,77.48189,161.79628)"/>
<use data-text="4" xlink:href="#font_1_4" transform="matrix(9.962899,0,0,-9.963098,104.33069,161.79628)"/>
<use data-text="6" xlink:href="#font_1_6" transform="matrix(9.962899,0,0,-9.963098,131.1795,161.79628)"/>
<use data-text="8" xlink:href="#font_1_7" transform="matrix(9.962899,0,0,-9.963098,158.0283,161.79628)"/>
<use data-text="1" xlink:href="#font_1_2" transform="matrix(9.962899,0,0,-9.963098,182.38605,161.79628)"/>
<use data-text="0" xlink:href="#font_1_1" transform="matrix(9.962899,0,0,-9.963098,187.3675,161.79628)"/>
<use data-text="1" xlink:href="#font_1_2" transform="matrix(9.962899,0,0,-9.963098,209.23485,161.79628)"/>
<use data-text="2" xlink:href="#font_1_3" transform="matrix(9.962899,0,0,-9.963098,214.2163,161.79628)"/>
<use data-text="1" xlink:href="#font_1_2" transform="matrix(9.962899,0,0,-9.963098,236.08367,161.79628)"/>
<use data-text="4" xlink:href="#font_1_4" transform="matrix(9.962899,0,0,-9.963098,241.06511,161.79628)"/>
<use data-text="1" xlink:href="#font_1_2" transform="matrix(9.962899,0,0,-9.963098,262.93244,161.79628)"/>
<use data-text="6" xlink:href="#font_1_6" transform="matrix(9.962899,0,0,-9.963098,267.91389,161.79628)"/>
<use data-text="1" xlink:href="#font_1_2" transform="matrix(9.962899,0,0,-9.963098,289.78126,161.79628)"/>
<use data-text="8" xlink:href="#font_1_7" transform="matrix(9.962899,0,0,-9.963098,294.7627,161.79628)"/>
<use data-text="2" xlink:href="#font_1_3" transform="matrix(9.962899,0,0,-9.963098,316.63008,161.79628)"/>
<use data-text="0" xlink:href="#font_1_1" transform="matrix(9.962899,0,0,-9.963098,321.6115,161.79628)"/>
<use data-text="5" xlink:href="#font_1_5" transform="matrix(9.962899,0,0,-9.963098,1.2165985,114.854938)"/>
<use data-text="&#x00b7;" xlink:href="#font_2_1" transform="matrix(9.962899,0,0,-9.963098,8.411819,114.854938)"/>
<use data-text="1" xlink:href="#font_1_2" transform="matrix(9.962899,0,0,-9.963098,13.393967,114.854938)"/>
<use data-text="0" xlink:href="#font_1_1" transform="matrix(9.962899,0,0,-9.963098,18.375412,114.854938)"/>
<use data-text="&#x2212;" xlink:href="#font_3_1" transform="matrix(6.9740097,0,0,-6.9741489,23.356263,111.239749)"/>
<use data-text="2" xlink:href="#font_4_1" transform="matrix(6.9740097,0,0,-6.9741489,29.583466,111.239749)"/>
<use data-text="0" xlink:href="#font_1_1" transform="matrix(9.962899,0,0,-9.963098,21.323197,75.08095)"/>
<use data-text="." xlink:href="#font_5_1" transform="matrix(9.962899,0,0,-9.963098,26.304352,75.08095)"/>
<use data-text="1" xlink:href="#font_1_2" transform="matrix(9.962899,0,0,-9.963098,29.072434,75.08095)"/>
<use data-text="0" xlink:href="#font_1_1" transform="matrix(9.962899,0,0,-9.963098,16.34105,36.151)"/>
<use data-text="." xlink:href="#font_5_1" transform="matrix(9.962899,0,0,-9.963098,21.322205,36.151)"/>
<use data-text="1" xlink:href="#font_1_2" transform="matrix(9.962899,0,0,-9.963098,24.090287,36.151)"/>
<use data-text="5" xlink:href="#font_1_5" transform="matrix(9.962899,0,0,-9.963098,29.071732,36.151)"/>
<g clip-path="url(#clip_6)">
<path transform="matrix(1.00003,0,0,-1.00005,39.699754,149.72968)" d="M9.43884 0H17.40905V.00073H9.43884ZM22.8628 0H30.833012V.01483H22.8628ZM36.28674 0H44.25695V.14105H36.28674ZM49.71071 0H57.68092V.84642H49.71071ZM63.13466 0H71.104869V3.59741H63.13466ZM76.55861 0H84.52882V11.5115H76.55861ZM89.98257 0H97.952777V28.77878H89.98257ZM103.40652 0H111.376728V57.55759H103.40652ZM116.83047 0H124.800678V93.53029H116.83047ZM130.25444 0H138.22466V124.70815H130.25444ZM143.67839 0H151.6486V137.17894H143.67839ZM157.10234 0H165.07256V124.70815H157.10234ZM170.5263 0H178.49652V93.53029H170.5263ZM183.95026 0H191.92047V57.55759H183.95026ZM197.3742 0H205.34442V28.77878H197.3742ZM210.79817 0H218.76839V11.5115H210.79817ZM224.22212 0H232.19234V3.59741H224.22212ZM237.64608 0H245.61629V.84642H237.64608ZM251.07003 0H259.04023V.14105H251.07003ZM264.494 0H272.4642V.01483H264.494ZM277.91795 0H285.88816V.00073H277.91795Z" fill="#cccccc"/>
<path transform="matrix(1.00003,0,0,-1.00005,39.699754,149.72968)" stroke-width=".3985" stroke-linecap="butt" stroke-miterlimit="10" stroke-linejoin="miter" fill="none" stroke="#000000" d="M9.43884 0H17.40905V.00073H9.43884ZM22.8628 0H30.833012V.01483H22.8628ZM36.28674 0H44.25695V.14105H36.28674ZM49.71071 0H57.68092V.84642H49.71071ZM63.13466 0H71.104869V3.59741H63.13466ZM76.55861 0H84.52882V11.5115H76.55861ZM89.98257 0H97.952777V28.77878H89.98257ZM103.40652 0H111.376728V57.55759H103.40652ZM116.83047 0H124.800678V93.53029H116.83047ZM130.25444 0H138.22466V124.70815H130.25444ZM143.67839 0H151.6486V137.17894H143.67839ZM157.10234 0H165.07256V124.70815H157.10234ZM170.5263 0H178.49652V93.53029H170.5263ZM183.95026 0H191.92047V57.55759H183.95026ZM197.3742 0H205.34442V28.77878H197.3742ZM210.79817 0H218.76839V11.5115H210.79817ZM224.22212 0H232.19234V3.59741H224.22212ZM237.64608 0H245.61629V.84642H237.64608ZM251.07003 0H259.04023V.14105H251.07003ZM264.494 0H272.4642V.01483H264.494ZM277.91795 0H285.88816V.00073H277.91795Z"/>
<path transform="matrix(1.00003,0,0,-1.00005,39.699754,149.72968)" stroke-width=".79701" stroke-linecap="butt" stroke-miterlimit="10" stroke-linejoin="miter" fill="none" stroke="#ff0000" d="M0 .00075 1.23566 .00093 2.47133 .00113 3.70702 .00139 4.94267 .0017 6.17834 .00206 7.41403 .00252 8.6497 .00304 9.88538 .0037 11.12106 .00444 12.35674 .00537 13.59242 .00645 14.8281 .00777 16.06377 .0093 17.29944 .01114 18.53511 .01329 19.77078 .01587 21.00647 .01889 22.24213 .02245 23.47781 .02666 24.71349 .03157 25.94916 .03734 27.18484 .0441 28.4205 .05197 29.65617 .06116 30.89186 .07185 32.12753 .08426 33.3632 .09863 34.59889 .11528 35.83456 .13452 37.07025 .15666 38.30592 .18219 39.54158 .21149 40.77727 .24507 42.01294 .28352 43.24861 .32745 44.48428 .37756 45.71996 .4346 46.95564 .49939 48.19131 .57286 49.42699 .65604 50.66266 .75002 51.89833 .856 53.134 .97533 54.36969 1.10939 55.60536 1.25975 56.84103 1.42804 58.07672 1.6161 59.3124 1.82584 60.54808 2.05928 61.78375 2.31865 63.01941 2.60625 64.2551 2.9246 65.49077 3.27625 66.72643 3.66396 67.96211 4.09067 69.19778 4.55927 70.43347 5.07295 71.66914 5.63495 72.90482 6.24864 74.14049 6.91743 75.37616 7.64484 76.61183 8.43445 77.84752 9.28978 79.08319 10.21465 80.31886 11.21245 81.55455 12.28696 82.79022 13.44154 84.02591 14.67162 85.26157 16.00516 86.49724 17.4234 87.73293 18.92365 88.96858 20.53499 90.20425 22.22969 91.43994 24.0355 92.67561 25.93994 93.9113 27.95554 95.14697 30.06697 96.38263 32.2895 97.61832 34.6093 98.85399 37.04163 100.08966 39.57115 101.32535 42.19655 102.56102 44.93307 103.79669 47.75433 105.03238 50.67142 106.26804 53.68716 107.50372 56.77095 108.7394 59.92558 109.97507 63.16217 111.21074 66.45573 112.44641 69.80482 113.68208 73.19423 114.91777 76.62529 116.15344 80.08693 117.38913 83.54576 118.62479 87.0199 119.86046 90.47873 121.09615 93.91122 122.33182 97.31448 123.56749 100.66359 124.80324 103.95576 126.0388 107.17986 127.27454 110.3206 128.51013 113.35022 129.74587 116.26593 130.98163 119.0594 132.21718 121.71257 133.45293 124.21432 134.68849 126.548 135.92424 128.70111 137.15998 130.69028 138.39557 132.46834 139.6313 134.05193 140.86688 135.41182 142.10262 136.56755 143.33837 137.49825 144.57393 138.20529 145.8097 138.67899 147.04524 138.90125H148.281L149.51674 138.67899 150.7523 138.20529 151.98805 137.49825 153.22362 136.58005 154.45938 135.41182 155.69513 134.05193 156.93068 132.46834 158.16645 130.69028 159.402 128.71639 160.63774 126.548 161.87349 124.21432 163.10907 121.71257 164.34482 119.0594 165.58039 116.26593 166.81612 113.35022 168.05188 110.3206 169.28743 107.17986 170.5232 103.95576 171.75876 100.66359 172.9945 97.31448 174.23024 93.91122 175.46582 90.47873 176.70156 87.0199 177.93712 83.54576 179.17287 80.08693 180.40863 76.62529 181.6442 73.2081 182.87995 69.80482 184.1155 66.45573 185.35126 63.16217 186.58699 59.93947 187.82256 56.77095 189.05832 53.68716 190.29387 50.67142 191.52964 47.75433 192.76537 44.93307 194.00093 42.19655 195.23668 39.57115 196.47225 37.04163 197.708 34.6093 198.94376 32.2895 200.1793 30.06697 201.41507 27.95554 202.65062 25.93994 203.88637 24.0355 205.12212 22.22969 206.3577 20.53499 207.59343 18.92365 208.82901 17.4234 210.06475 16.00516 211.3005 14.67162 212.53606 13.44237 213.77182 12.28748 215.00739 11.21313 216.24314 10.21518 217.47887 9.29022 218.71445 8.43486 219.95018 7.64526 221.18575 6.91788 222.4215 6.249 223.65726 5.63528 224.89282 5.07326 226.12857 4.55946 227.36412 4.09088 228.59989 3.66417 229.83562 3.27641 231.07117 2.92479 232.30695 2.60641 233.5425 2.3188 234.77826 2.05942 236.014 1.82593 237.24956 1.61621 238.48534 1.4281 239.72087 1.25984 240.95662 1.10948 242.19239 .97539 243.42794 .85608 244.66368 .75006 245.89925 .6561 247.135 .57289 248.37075 .4994 249.60633 .43463 250.84206 .3776 252.07764 .3275 253.31337 .28355 254.54912 .24509 255.78469 .2115 257.02046 .1822 258.256 .1567 259.49177 .13454 260.7275 .11528 261.96308 .09865 263.1988 .08426 264.43437 .07185 265.6701 .06117 266.90589 .05199 268.14143 .0441 269.3772 .03734 270.61277 .03157 271.8485 .02666 273.08424 .02246 274.31983 .01889 275.55558 .01587 276.79115 .0133 278.02687 .01114 279.26264 .0093 280.49818 .00777 281.73396 .00645 282.9695 .00537 284.20527 .00444 285.441 .0037 286.67658 .00304 287.91233 .00252 289.1479 .00206 290.3836 .0017 291.6194 .00139 292.85496 .00113 294.0907 .00093 295.32627 .00075"/>
</g>
<use data-text="k" xlink:href="#font_5_2" transform="matrix(9.962899,0,0,-9.963098,184.6171,175.55597)"/>
<path transform="matrix(1.00003,0,0,-1.00005,53.44216,14.5299229)" d="M-1.49442 0H1.49441V0H-1.49442ZM7.0097 0H9.998529V0H7.0097ZM15.51384 0H18.50267V0H15.51384Z" fill="#cccccc"/>
<path transform="matrix(1.00003,0,0,-1.00005,53.44216,14.5299229)" stroke-width=".3985" stroke-linecap="butt" stroke-miterlimit="10" stroke-linejoin="miter" fill="none" stroke="#000000" d="M-1.49442 0H1.49441V0H-1.49442ZM7.0097 0H9.998529V0H7.0097ZM15.51384 0H18.50267V0H15.51384Z"/>
<use data-text="B" xlink:href="#font_7_3" transform="matrix(8.966669,0,0,-8.966848,74.13679,17.14505)"/>
<use data-text="(" xlink:href="#font_8_1" transform="matrix(8.966669,0,0,-8.966848,81.557,17.14505)"/>
<use data-text="2" xlink:href="#font_8_5" transform="matrix(8.966669,0,0,-8.966848,85.1347,17.14505)"/>
<use data-text="0" xlink:href="#font_8_3" transform="matrix(8.966669,0,0,-8.966848,89.7346,17.14505)"/>
<use data-text="," xlink:href="#font_7_2" transform="matrix(8.966669,0,0,-8.966848,94.35638,17.14505)"/>
<use data-text="0" xlink:href="#font_8_3" transform="matrix(8.966669,0,0,-8.966848,98.45249,17.14505)"/>
<use data-text="." xlink:href="#font_7_1" transform="matrix(8.966669,0,0,-8.966848,103.05962,17.14505)"/>
<use data-text="5" xlink:href="#font_8_6" transform="matrix(8.966669,0,0,-8.966848,105.61971,17.14505)"/>
<use data-text=")" xlink:href="#font_8_2" transform="matrix(8.966669,0,0,-8.966848,110.21961,17.14505)"/>
<path transform="matrix(1.00003,0,0,-1.00005,53.44216,27.460572)" stroke-width=".79701" stroke-linecap="butt" stroke-miterlimit="10" stroke-linejoin="miter" fill="none" stroke="#ff0000" d="M0 0H8.50412 17.00826"/>
<use data-text="N" xlink:href="#font_7_4" transform="matrix(8.966669,0,0,-8.966848,74.13679,30.801735)"/>
<use data-text="(" xlink:href="#font_8_1" transform="matrix(8.966669,0,0,-8.966848,82.47303,30.801735)"/>
<use data-text="1" xlink:href="#font_8_4" transform="matrix(8.966669,0,0,-8.966848,86.05073,30.801735)"/>
<use data-text="0" xlink:href="#font_8_3" transform="matrix(8.966669,0,0,-8.966848,90.65063,30.801735)"/>
<use data-text="," xlink:href="#font_7_2" transform="matrix(8.966669,0,0,-8.966848,95.27241,30.801735)"/>
<use data-text="&#x221a;" xlink:href="#font_9_1" transform="matrix(8.966669,0,0,-8.966848,99.36753,23.382363)"/>
<path transform="matrix(1.00003,0,0,-1.00005,-112.56483,-73.78849)" stroke-width=".3786" stroke-linecap="butt" stroke-miterlimit="10" stroke-linejoin="miter" fill="none" stroke="#000000" d="M219.606-96.976H224.214"/>
<use data-text="5" xlink:href="#font_8_6" transform="matrix(8.966669,0,0,-8.966848,107.04777,30.801735)"/>
<use data-text=")" xlink:href="#font_8_2" transform="matrix(8.966669,0,0,-8.966848,111.64767,30.801735)"/>
</svg>
