<svg xmlns="http://www.w3.org/2000/svg" xmlns:xlink="http://www.w3.org/1999/xlink" xmlns:inkscape="http://www.inkscape.org/namespaces/inkscape" version="1.1" width="258" height="152" viewBox="0 0 258 152">
<defs>
<path id="font_1_1" d="M.45999146 .31976319C.45999146 .39982606 .45498658 .47988893 .41999818 .5539398 .37399293 .65000918 .2919922 .6660156 .25 .6660156 .18998719 .6660156 .116989139 .64001467 .07598877 .54693606 .04399109 .47789 .038986207 .39982606 .038986207 .31976319 .038986207 .24472046 .042999269 .15464783 .083999637 .07859802 .1269989-.0024719239 .19999695-.022460938 .24899292-.022460938 .30299378-.022460938 .3789978-.0014648438 .4229889 .09359741 .45498658 .16265869 .45999146 .2407074 .45999146 .31976319M.24899292-.00047302247C.20999146-.00047302247 .15098572 .024551392 .1329956 .12062073 .12199402 .18066406 .12199402 .2727356 .12199402 .3317871 .12199402 .39582826 .12199402 .46188355 .12998963 .5159149 .14898682 .63500979 .22399903 .64401248 .24899292 .64401248 .28199769 .64401248 .34799195 .6259918 .36698915 .52693179 .3769989 .47088624 .3769989 .39482118 .3769989 .3317871 .3769989 .25672914 .3769989 .18867493 .3659973 .12461853 .35099793 .029556275 .2939911-.00047302247 .24899292-.00047302247Z"/>
<path id="font_2_2" d="M.1329956 .08345032C.18699646 .14138794 .21598816 .16636658 .2519989 .19732666 .2519989 .19833374 .31399537 .25128175 .34999085 .2872467 .44499208 .3803711 .46699525 .42837525 .46699525 .43237306 .46699525 .4423828 .45799256 .4423828 .45599366 .4423828 .44898988 .4423828 .44599916 .44036866 .44099427 .43138124 .41099549 .38337709 .3899994 .3671875 .3659973 .3671875 .34199525 .3671875 .32998658 .38237 .31498719 .3993683 .29599 .42237855 .2789917 .4423828 .24598694 .4423828 .17098999 .4423828 .125 .34918214 .125 .3282013 .125 .3231964 .12799073 .31721498 .13699341 .31721498 .1459961 .31721498 .147995 .3222046 .1499939 .3282013 .16899109 .37434388 .22698975 .37538148 .23498535 .37538148 .2559967 .37538148 .2749939 .36820985 .2979889 .36018373 .33799745 .34518434 .34899903 .34518434 .375 .34518434 .33898927 .30223084 .25498963 .2303009 .23599243 .21430969L.1459961 .13040161C.07798767 .06341553 .042999269 .0062561037 .042999269-.00074768069 .042999269-.0107421879 .052993776-.0107421879 .054992677-.0107421879 .06298828-.0107421879 .06498718-.008743286 .070999149 .002243042 .09399414 .037246705 .12399292 .064453128 .1559906 .064453128 .1789856 .064453128 .18899536 .055252077 .21398926 .026245118 .23098755 .0052490236 .24899292-.0107421879 .27799989-.0107421879 .3769989-.0107421879 .43499757 .1164093 .43499757 .14338684 .43499757 .14837647 .43099977 .15338135 .4229889 .15338135 .4139862 .15338135 .4119873 .14738465 .40899659 .14039612 .38598634 .07543945 .32199098 .056243898 .2889862 .056243898 .2689972 .056243898 .25099183 .06239319 .22999573 .06944275 .19599915 .08244324 .18099976 .08644104 .1599884 .08644104 .1579895 .08644104 .14199829 .08644104 .1329956 .08345032Z"/>
<path id="font_3_1" d="M.5469971 .14128113C.6389923 .23632813 .6759949 .36938478 .6759949 .38038636 .6759949 .39338685 .6639862 .39338685 .6589966 .39338685 .644989 .39338685 .644989 .39038087 .6380005 .3683777 .6199951 .3023529 .58699038 .24131775 .54499819 .18730164 .5439911 .20230103 .5419922 .2693329 .5399933 .27833558 .5249939 .37738038 .44999696 .44140626 .34999085 .44140626 .20298767 .44140626 .06199646 .3043518 .06199646 .16429138 .06199646 .072250369 .1289978-.009765625 .24499512-.009765625 .33699037-.009765625 .41999818 .032226564 .47599793 .07525635 .49899293 .0022277833 .5499878-.009765625 .5799866-.009765625 .6380005-.009765625 .673996 .039230348 .673996 .0602417 .673996 .072250369 .6619873 .072250369 .6569977 .072250369 .6439972 .072250369 .6419983 .06825256 .6399994 .0622406 .6259918 .024230957 .59498599 .018234253 .58299258 .018234253 .56900027 .018234253 .5519867 .018234253 .5469971 .14128113M.46899415 .10726929C.37098695 .027236939 .28599549 .018234253 .24798584 .018234253 .18199158 .018234253 .14498902 .0622406 .14498902 .12927246 .14498902 .15829468 .15899658 .26733399 .21099854 .33636476 .25698854 .39639283 .31399537 .4133911 .34899903 .4133911 .42900086 .4133911 .45199586 .33636476 .45999146 .27433778 .46598817 .23132324 .46398927 .16029358 .46899415 .10726929Z"/>
<path id="font_4_81" d="M.5289917 .21325684C.5289917 .3382721 .42199708 .44628907 .28399659 .44628907 .1459961 .44628907 .038986207 .3382721 .038986207 .21325684 .038986207 .0892334 .14898682-.009765625 .28399659-.009765625 .4189911-.009765625 .5289917 .0892334 .5289917 .21325684M.43798829 .22225952C.43798829 .17424011 .43499757 .12124634 .4059906 .08023071 .3789978 .042236329 .33299256 .022232056 .28399659 .022232056 .24699402 .022232056 .19299317 .034225465 .1599884 .083236698 .1329956 .12423706 .12998963 .17625427 .12998963 .22225952 .12998963 .2652588 .1309967 .32426454 .1659851 .36727906 .19099427 .39627076 .23298645 .41827394 .28399659 .41827394 .34298707 .41827394 .3849945 .39027406 .40699769 .3592682 .43499757 .32026673 .43798829 .27026368 .43798829 .22225952Z"/>
<path id="font_4_35" d="M.58399966 .21640015C.58399966 .33839417 .48098756 .44140626 .34999085 .44140626 .2899933 .44140626 .23498535 .41740418 .19898987 .38139344V.69433596L.04899597 .68333438V.6473236C.116989139 .6473236 .12399292 .639328 .12399292 .58935549V.00022888184H.1579895L.19299317 .06124878C.23098755 .011230469 .28599549-.009765625 .33898927-.009765625 .47099305-.009765625 .58399966 .089263919 .58399966 .2163086V.21640015M.49299623 .21731568C.49299623 .19430542 .49299623 .119277957 .45199586 .072250369 .4119873 .027236939 .36299134 .018234253 .33399964 .018234253 .2539978 .018234253 .21398926 .08125305 .20298767 .102264408V.33535768C.23098755 .38137818 .2849884 .4133911 .34498597 .4133911 .40098573 .4133911 .44099427 .38137818 .46099855 .35136415 .48098756 .32235719 .49299623 .28334046 .49299623 .21731568Z"/>
<path id="font_4_98" d="M.40699769 .1315155C.40699769 .1694336 .3899994 .1993866 .3639984 .2233429 .32598878 .25827027 .27999879 .2662506 .24499512 .2722473 .16499329 .28622438 .099990848 .29818727 .099990848 .35113526 .099990848 .38320924 .1269989 .422287 .22200012 .422287 .33799745 .422287 .34298707 .34114076 .34498597 .3121643 .34599305 .30119325 .35798646 .30119325 .3619995 .30119325 .3789978 .30119325 .3789978 .30818177 .3789978 .32714845V.42027284C.3789978 .43728639 .3789978 .44628907 .36499024 .44628907 .3600006 .44628907 .35798646 .44628907 .34498597 .4342804 .34298707 .43328858 .33299256 .4242859 .32699586 .419281 .29699708 .4402771 .25898744 .44628907 .22200012 .44628907 .07899475 .44628907 .04499817 .3711853 .04499817 .32115174 .04499817 .2892151 .05899048 .2632599 .08299255 .24330139 .12098694 .21035767 .15899658 .20336914 .22099304 .1933899 .2709961 .18440247 .35198976 .17044068 .35198976 .103515628 .35198976 .06437683 .32499696 .018234253 .22898865 .018234253 .1329956 .018234253 .09799194 .08143616 .07998657 .1494751 .07699585 .16244507 .07598877 .16644287 .06199646 .16644287 .04499817 .16644287 .04499817 .15945435 .04499817 .13949585V.016220093C.04499817-.00077819827 .04499817-.009765625 .05899048-.009765625 .067993167-.009765625 .08699036 .011230469 .10699463 .03327942 .15098572-.0077667238 .20498657-.009765625 .22898865-.009765625 .35899354-.009765625 .40699769 .06036377 .40699769 .1315155Z"/>
<path id="font_2_1" d="M.47698976 .23631287C.47698976 .39337159 .38398744 .4423828 .30999757 .4423828 .17298889 .4423828 .040985109 .29933167 .040985109 .15829468 .040985109 .06526184 .100997928-.0107421879 .20298767-.0107421879 .2659912-.0107421879 .33799745 .012252808 .4139862 .073272708 .4269867 .020248414 .45999146-.0107421879 .5049896-.0107421879 .55799868-.0107421879 .58898928 .044265748 .58898928 .060272218 .58898928 .06726074 .58299258 .07026672 .57699587 .07026672 .56999209 .07026672 .5669861 .06726074 .56399539 .060272218 .54599 .011245728 .5099945 .011245728 .5079956 .011245728 .47698976 .011245728 .47698976 .089279178 .47698976 .11328125 .47698976 .1342926 .47698976 .1362915 .4869995 .14828491 .58099368 .2663269 .60198977 .38235475 .60198977 .38336183 .60198977 .38536073 .6009979 .39337159 .58999636 .39337159 .5799866 .39337159 .5799866 .3903656 .57499697 .37236024 .5569916 .30934144 .5239868 .23332215 .47698976 .17430115V.23631287M.4099884 .09927368C.32199098 .022247315 .24499512 .011245728 .20498657 .011245728 .14498902 .011245728 .114990238 .056259157 .114990238 .120285037 .114990238 .16929627 .14099121 .2773285 .17298889 .32833863 .21998596 .4013672 .27398683 .42037965 .30899049 .42037965 .4079895 .42037965 .4079895 .28933717 .4079895 .21130371 .4079895 .17430115 .4079895 .11628723 .4099884 .09927368Z"/>
<path id="font_5_84" d="M.5359955 .21557617C.5359955 .34158326 .43798829 .4423828 .31999208 .4423828 .2659912 .4423828 .21598816 .42037965 .17799378 .37858583V.4423828L.02999878 .43066407V.3996582C.100997928 .3996582 .10699463 .39363099 .10699463 .35058595V-.116989139C.10699463-.16308594 .09599304-.16308594 .02999878-.16308594V-.1940918C.07699585-.1920929 .09599304-.19110108 .14399719-.19110108 .19198609-.19110108 .20498657-.1920929 .2579956-.1940918V-.16308594C.19198609-.16308594 .18099976-.16308594 .18099976-.116989139V.048187257C.20698548 .022232056 .24099732-.0107421879 .30699159-.0107421879 .42599488-.0107421879 .5359955 .085113529 .5359955 .21585083V.21557617M.44999696 .21585083C.44999696 .1020813 .38198854 .014251709 .30099488 .014251709 .2559967 .014251709 .21798706 .04019165 .19400025 .07513428 .18099976 .09509277 .18099976 .097091678 .18099976 .11604309V.3356018C.21499634 .39437867 .269989 .41436769 .31199647 .41436769 .3899994 .41436769 .44999696 .32437135 .44999696 .21636963V.21585083Z"/>
<path id="font_5_64" d="M.2849884 .1850586V.24707031H.010986328V.1850586H.2849884Z"/>
<path id="font_5_112" d="M.5209961 .3996582V.43066407C.4909973 .42765809 .44400025 .42765809 .44400025 .42765809 .41600038 .42765809 .3849945 .4286499 .35699464 .43066407V.3996582C.38598634 .3976593 .40299989 .38267518 .40299989 .35671998 .40299989 .34674073 .4019928 .34474183 .397995 .3337555L.2939911 .0821228 .17999268 .35472108C.1769867 .36071778 .1749878 .36669923 .1749878 .37368775 .1749878 .3996582 .21099854 .3996582 .22999573 .3996582V.43066407C.18699646 .4286499 .1639862 .42765809 .11999512 .42765809 .084991458 .42765809 .055999757 .42765809 .019989014 .43066407V.3996582C.066986087 .3996582 .085998538 .3996582 .100997928 .36271668L.24699402 .008224487C.25299073-.007751465 .26098634-.0107421879 .269989-.0107421879 .2789917-.0107421879 .2869873-.008758545 .2939911 .008224487L.42999269 .3357544C.45098878 .38667298 .48599244 .39865113 .5209961 .3996582Z"/>
<path id="font_5_28" d="M.49699403 .089141849V.14515686H.46899415V.090148929C.46899415 .07914734 .46899415 .029129029 .43299867 .029129029 .39698792 .029129029 .39698792 .07714844 .39698792 .09315491V.26818849C.39698792 .32521058 .39698792 .3592224 .35198976 .40022279 .31498719 .43322755 .2669983 .4482422 .21699524 .4482422 .1329956 .4482422 .06298828 .40623475 .06298828 .34220887 .06298828 .311203 .083999637 .2942047 .10998535 .2942047 .13699341 .2942047 .1559906 .31420899 .1559906 .34020997 .1559906 .3832245 .11099243 .38822938 .11099243 .38822938 .13798523 .41423036 .18598938 .42323304 .21499634 .42323304 .2659912 .42323304 .32299806 .3852234 .32299806 .29719544V.26419068C.2689972 .26219178 .19400025 .2571869 .1269989 .22518921 .054992677 .19017029 .032989503 .13816834 .032989503 .09814453 .032989503 .01625061 .12998963-.0107421879 .19699097-.0107421879 .27999879-.0107421879 .31799317 .04425049 .33198548 .072250369 .33699037 .030136109 .3659973-.005859375 .40899659-.005859375 .43399049-.005859375 .49699403 .009140015 .49699403 .08912659V.089141849M.32299806 .14112854C.32299806 .04425049 .24798584 .014251709 .20399475 .014251709 .15699768 .014251709 .11299133 .04824829 .11299133 .098236087 .11299133 .16423035 .16999817 .23422241 .32299806 .24023438V.14112854Z"/>
<path id="font_5_72" d="M.26098634 0V.0309906C.19499207 .0309906 .18399048 .0309906 .18399048 .07701111V.69433596L.035995485 .6826172V.6516113C.10398865 .6516113 .11299133 .64460757 .11299133 .5956421V.07696533C.11299133 .0309906 .101989749 .0309906 .035995485 .0309906V0C.08299255 .0019989014 .101989749 .0029907227 .147995 .0029907227 .19499207 .0029907227 .21199036 .0019989014 .26098634 0Z"/>
<path id="font_5_109" d="M.5469971 .00024414063V.03125C.47898866 .03125 .46998597 .038253786 .46998597 .087265018V.4423828L.31900025 .43138124V.40037538C.3869934 .40037538 .3959961 .39337159 .3959961 .34436036V.16729737C.3959961 .07826233 .34599305 .014251709 .27398683 .014251709 .19099427 .014251709 .18598938 .057266237 .18598938 .11128235V.4423828L.034988405 .43138124V.40037538C.11199951 .40037538 .11199951 .39736939 .11199951 .3083496V.15829468C.11199951 .09327698 .11199951 .051254274 .1579895 .01625061 .18699646-.003753662 .22799683-.0107421879 .2679901-.0107421879 .31999208-.0107421879 .36898805 .012252808 .397995 .072265628H.39898683V-.0107421879L.5469971 .00024414063Z"/>
<path id="font_5_50" d="M.4269867 .11936951C.4269867 .12637329 .42199708 .13237 .41299439 .13237 .40299989 .13237 .3999939 .12536621 .39898683 .12136841 .36499024 .019256592 .27598573 .01725769 .26098634 .01725769 .21299744 .01725769 .17199707 .044281007 .14898682 .078323367 .115997318 .12736511 .114990238 .18743897 .114990238 .22949219H.3999939C.42199708 .22949219 .4269867 .22949219 .4269867 .25048829 .4269867 .35333253 .37098695 .4482422 .24299622 .4482422 .12298584 .4482422 .0289917 .3443451 .0289917 .22047425 .0289917 .08932495 .13398743-.0107421879 .2559967-.0107421879 .37799073-.0107421879 .4269867 .096343997 .4269867 .11936951M.35899354 .253479H.115997318C.125 .40725709 .21499634 .42323304 .24299622 .42323304 .2979889 .42323304 .35798646 .38130189 .35899354 .253479Z"/>
</defs>
<path transform="matrix(1.00002,0,0,-1.00006,3.29467,127.04965)" stroke-width=".19925" stroke-linecap="butt" stroke-miterlimit="10" stroke-linejoin="miter" fill="none" stroke="#7f807f" d="M126.40369-2.12596V2.12596M185.81342-2.12596V2.12596M198.63437-2.12596V2.12596"/>
<path transform="matrix(1.00002,0,0,-1.00006,3.29467,127.04965)" stroke-width=".19925" stroke-linecap="butt" stroke-miterlimit="10" stroke-linejoin="miter" fill="none" stroke="#7f807f" d=""/>
<path transform="matrix(1.00002,0,0,-1.00006,3.29467,127.04965)" stroke-width=".3985" stroke-linecap="butt" stroke-miterlimit="10" stroke-linejoin="miter" fill="none" stroke="#000000" d="M0 0H250.81485"/>
<path transform="matrix(1.00002,0,0,-1.00006,254.11454,127.04965)" d="M1.99252 0-1.19551 1.59401 0 0-1.19551-1.59401"/>
<path transform="matrix(1.00002,0,0,-1.00006,3.29467,127.04965)" stroke-width=".3985" stroke-linecap="butt" stroke-miterlimit="10" stroke-linejoin="miter" fill="none" stroke="#000000" d="M0 0V123.25049"/>
<path transform="matrix(0,-1.00006,-1.00002,-0,3.29467,3.791771)" d="M1.99252 0-1.19551 1.59401 0 0-1.19551-1.59401"/>
<use data-text="0" xlink:href="#font_1_1" transform="matrix(9.962799,0,0,-9.963197,127.21015,139.11638)"/>
<use data-text="z" xlink:href="#font_2_2" transform="matrix(9.962799,0,0,-9.963197,183.9563,136.98525)"/>
<use data-text="&#x03b1;" xlink:href="#font_3_1" transform="matrix(6.97394,0,0,-6.9742186,188.58939,138.47934)"/>
<use data-text="z" xlink:href="#font_2_2" transform="matrix(9.962799,0,0,-9.963197,193.60349,136.98525)"/>
<use data-text="o" xlink:href="#font_4_81" transform="matrix(6.97394,0,0,-6.9742186,198.23657,138.47934)"/>
<use data-text="b" xlink:href="#font_4_35" transform="matrix(6.97394,0,0,-6.9742186,202.20475,138.47934)"/>
<use data-text="s" xlink:href="#font_4_98" transform="matrix(6.97394,0,0,-6.9742186,206.6053,138.47934)"/>
<path transform="matrix(1.00002,0,0,-1.00006,3.29467,127.04965)" d="M185.81342 28.69766 186.23474 28.1547 186.6561 27.6106 187.07744 27.0765 187.49878 26.55463 187.92014 26.03278 188.34146 25.5109 188.7628 25.01122 189.18415 24.51154 189.6055 24.01189 190.02684 23.52222 190.44818 23.04585 190.86952 22.57838 191.29087 22.10094 191.7122 21.64455 192.13356 21.19041 192.5549 20.74626 192.97623 20.30101 193.39759 19.86905 193.81893 19.44713 194.24028 19.02406 194.66162 18.61324 195.08295 18.20241 195.50429 17.80154 195.92565 17.41403 196.34699 17.0265 196.76834 16.63676 197.18967 16.25812 197.61101 15.8928 198.03235 15.53638 198.4537 15.18105 198.87505 14.82684 199.29637 14.48154 199.71773 14.1495 200.13907 13.81529 200.56043 13.48108 200.98177 13.16017 201.40309 12.84927 201.82444 12.53838 202.24579 12.23744 202.66713 11.93765 203.08847 11.65005 203.50983 11.36024 203.93115 11.08699 204.3525 10.81195 204.77385 10.54253 205.19519 10.27818 205.61653 10.0193 206.03787 9.76537 206.45922 9.51677 206.88057 9.27322 207.30191 9.03455 207.72325 8.80086 208.14458 8.57213 208.56594 8.3482 208.98728 8.12897 209.40862 7.91455 209.82997 7.70454 210.2513 7.49911 210.67264 7.29831 211.094 7.10178 211.51534 6.90967 211.93668 6.72177 212.35803 6.53816 212.77936 6.35872 213.20072 6.18329 213.62206 6.0119 214.0434 5.84451 214.46474 5.68095 214.88608 5.52122 215.30742 5.36533 215.72876 5.21304 216.15012 5.06448 216.57146 4.91939 216.99279 4.77783 217.41414 4.63966 217.83548 4.50499 218.25682 4.37357 218.67818 4.2454 219.0995 4.12044 219.52085 3.99863 219.9422 3.87985 220.36354 3.76416 220.78488 3.65134 221.2062 3.54152 221.62757 3.43443 222.0489 3.33017 222.47026 3.22864 222.8916 3.12978 223.31296 3.03351 223.73429 2.9398 224.15563 2.84862 224.57697 2.75989 224.99832 2.67354 225.41967 2.58954 225.84099 2.50784 226.26235 2.4284 226.68369 2.35117 227.10504 2.27606 227.52639 2.20308 227.94771 2.13208 228.36908 2.06316 228.79039 1.9962 229.21176 1.93112 229.63307 1.8679 230.05443 1.8065 230.47579 1.7469 230.89711 1.68906 231.31847 1.63287 231.73978 1.57834 232.16114 1.52544 232.5825 1.47408 233.00382 1.42432 233.42519 1.37599 233.8465 1.32915 234.26787 1.2837 234.68923 1.23965 235.11054 1.19698 235.5319 1.15558 235.95322 1.11548 236.37459 1.07664 236.79593 1.039 237.21724 1.00253 237.63861 .96722 238.05992 .93301 238.4813 .89989 238.90265 .86783 239.32396 .8368 239.74533 .80678 240.16664 .77771 240.58802 .7496 241.00937 .7224 241.43068 .69615 241.85205 .67065 242.27336 .6461 242.69474 .62239 243.11608 .59937 243.53739 .57707 243.95876 .55566 244.38007 .53493 244.80144 .51483 245.22281 .49548 245.6441 .47684 246.06548 .45877 246.48679 .44139 246.90816 .42453 247.32953 .40828 247.75083 .39262 248.17218 .37753 248.5935 .36292 249.01488 .34882 249.43624 .33527 249.85753 .32219 250.2789 .30956 250.70021 .29742 251.12158 .28568 251.54296 .27437 251.96425 .26349 252.38562 .25302 252.80693 .24289V0H185.81342Z" fill="#ccccff"/>
<path transform="matrix(1.00002,0,0,-1.00006,3.29467,127.04965)" d="M198.63437 15.02672 198.97507 14.74911 199.31578 14.47153 199.65648 14.19283 199.9972 13.92744 200.33789 13.65984 200.6786 13.39334 201.0193 13.13797 201.36002 12.88147 201.70075 12.62718 202.04145 12.38179 202.38216 12.13751 202.72286 11.90544 203.06357 11.67226 203.40427 11.43797 203.74498 11.2059 204.08568 10.98558 204.42639 10.76431 204.76712 10.54669 205.10782 10.3326 205.44853 10.12192 205.78923 9.91443 206.12995 9.71071 206.47064 9.51013 206.81136 9.31277 207.15207 9.11887 207.49277 8.92802 207.8335 8.74059 208.1742 8.55617 208.51491 8.37508 208.8556 8.19693 209.19632 8.022 209.53702 7.85005 209.87773 7.68094 210.21845 7.51506 210.55915 7.35196 210.89987 7.19174 211.24057 7.03448 211.58129 6.88004 211.92198 6.72833 212.2627 6.57939 212.6034 6.43314 212.9441 6.28961 213.28482 6.1488 213.62554 6.01057 213.96625 5.87492 214.30695 5.74179 214.64766 5.61115 214.98836 5.48303 215.32907 5.35739 215.66977 5.23418 216.01049 5.11328 216.3512 4.99481 216.69191 4.87856 217.03263 4.76466 217.37332 4.65294 217.71404 4.54353 218.05474 4.43622 218.39545 4.33107 218.73615 4.22804 219.07686 4.12714 219.41757 4.02821 219.75829 3.93138 220.099 3.83647 220.4397 3.74356 220.78041 3.6525 221.12111 3.56343 221.46183 3.47618 221.80252 3.39078 222.14324 3.30717 222.48395 3.22536 222.82466 3.14526 223.16538 3.06693 223.50608 2.99019 223.84679 2.91519 224.18749 2.84181 224.5282 2.77002 224.8689 2.69981 225.20961 2.63113 225.55033 2.56398 225.89104 2.49832 226.23175 2.4341 226.57245 2.37137 226.91316 2.31001 227.25386 2.25002 227.59458 2.19147 227.93527 2.1342 228.27599 2.07825 228.61672 2.02356 228.95742 1.97017 229.29813 1.91801 229.63883 1.86705 229.97954 1.81729 230.32024 1.76869 230.66095 1.72124 231.00167 1.67491 231.34238 1.62971 231.68309 1.58559 232.02379 1.5425 232.3645 1.50047 232.7052 1.45941 233.04593 1.4194 233.38661 1.38034 233.72734 1.34225 234.06801 1.30508 234.40876 1.26886 234.74948 1.23347 235.09015 1.199 235.4309 1.1654 235.77156 1.13261 236.11229 1.1007 236.45302 1.06955 236.7937 1.03918 237.13442 1.0096 237.4751 .98077 237.81584 .95268 238.15656 .92532 238.49724 .89865 238.83797 .87268 239.17865 .8474 239.51938 .82275 239.8601 .79877 240.20078 .7754 240.54152 .75266 240.8822 .73053 241.22292 .70901 241.56366 .68799 241.90433 .66766 242.24506 .6478 242.58573 .6284 242.92647 .60957 243.26718 .59126 243.60787 .5735 243.94861 .55617 244.28928 .53929 244.63 .52293 244.97074 .50702 245.31142 .49155 245.65213 .47646 245.99283 .46185 246.33354 .44763 246.67427 .43378 247.01496 .42033 247.35569 .4073 247.69637 .39464 248.03708 .38228 248.37783 .37036 248.71849 .35872 249.05922 .34741 249.39992 .33644 249.74063 .32579 250.08136 .31543 250.42205 .30537 250.76277 .29567 251.10344 .28621 251.44417 .27701 251.7849 .26807 252.12558 .25945 252.46633 .25104 252.80699 .24289V0H198.63437Z" fill="#ff9999"/>
<path transform="matrix(1.00002,0,0,-1.00006,3.29467,127.04965)" stroke-width=".79701" stroke-linecap="butt" stroke-miterlimit="10" stroke-linejoin="miter" fill="none" stroke="#000000" d="M0 .24289 1.05774 .26901 2.11551 .29767 3.17326 .3291 4.23103 .36351 5.2888 .40115 6.34656 .44237 7.40433 .48749 8.4621 .5366 9.51985 .5902 10.57762 .64864 11.63539 .71214 12.69316 .78128 13.75092 .85638 14.80869 .93791 15.86646 1.0263 16.92421 1.12209 17.98198 1.22572 19.03973 1.33781 20.09749 1.45888 21.15526 1.58955 22.21303 1.73045 23.27078 1.8822 24.32855 2.04556 25.38632 2.22115 26.44408 2.4097 27.50185 2.61208 28.55962 2.829 29.61737 3.0613 30.67514 3.30986 31.73291 3.57555 32.79068 3.85919 33.84843 4.16177 34.9062 4.48431 35.96396 4.82759 37.02173 5.19283 38.07948 5.58081 39.13725 5.99263 40.19502 6.42937 41.25278 6.89198 42.31055 7.38152 43.36832 7.89915 44.42607 8.4458 45.48384 9.02242 46.5416 9.63023 47.59937 10.27014 48.65714 10.94337 49.7149 11.65005 50.77266 12.39401 51.83043 13.17128 52.8882 13.98184 53.94594 14.83684 55.00371 15.72624 56.06148 16.65785 57.11923 17.6261 58.177 18.64764 59.23477 19.6914 60.29254 20.79068 61.3503 21.92215 62.40807 23.10027 63.46584 24.32169 64.52359 25.58862 65.58136 26.88887 66.63913 28.24242 67.69688 29.6315 68.75465 31.06277 69.81242 32.53069 70.87018 34.05191 71.92793 35.59534 72.9857 37.19539 74.04346 38.8265 75.10123 40.49431 76.159 42.19318 77.21675 43.92427 78.27452 45.70198 79.33229 47.5019 80.39006 49.32292 81.44781 51.17725 82.50558 53.0549 83.56335 54.95474 84.62111 56.8757 85.67888 58.80777 86.73665 60.75092 87.7944 62.71739 88.85217 64.68277 89.90993 66.66034 90.9677 68.6257 92.02545 70.60329 93.08322 72.55865 94.14098 74.51181 95.19875 76.46718 96.25652 78.38812 97.31427 80.288 98.37204 82.17564 99.42981 84.02997 100.48756 85.85208 101.54533 87.6409 102.6031 89.3853 103.66087 91.08418 104.71863 92.73753 105.7764 94.34868 106.83423 95.8921 107.89188 97.39113 108.9497 98.82463 110.00737 100.17818 111.0652 101.47842 112.12303 102.71205 113.1807 103.85573 114.23853 104.9328 115.2962 105.93324 116.35403 106.84264 117.41185 107.66655 118.46953 108.4094 119.52736 109.06563 120.58502 109.6319 121.64285 110.09715 122.70068 110.47469 123.75835 110.7634 124.81618 110.95326 125.87386 111.05324H126.93167L127.98949 110.95326 129.04717 110.7634 130.105 110.47469 131.16266 110.09715 132.22049 109.6319 133.27832 109.06563 134.33599 108.4094 135.39382 107.67654 136.45148 106.84264 137.50931 105.93324 138.56714 104.9328 139.62482 103.85573 140.68265 102.71205 141.74031 101.49062 142.79814 100.1904 143.85596 98.82463 144.91362 97.39113 145.97145 95.90433 147.02912 94.34868 148.08695 92.74974 149.14478 91.08418 150.20244 89.3853 151.26027 87.6409 152.31795 85.85208 153.37578 84.02997 154.43361 82.17564 155.49127 80.3002 156.5491 78.38812 157.60677 76.46718 158.6646 74.52403 159.72243 72.56865 160.78009 70.60329 161.8379 68.6257 162.89557 66.66034 163.9534 64.68277 165.01123 62.71739 166.06891 60.76314 167.12674 58.80777 168.1844 56.8757 169.24224 54.95474 170.30007 53.0549 171.35773 51.17725 172.41556 49.32292 173.47322 47.5019 174.53105 45.70198 175.58889 43.93648 176.64655 42.19318 177.70438 40.49431 178.76206 38.8265 179.81987 37.19539 180.8777 35.60532 181.93537 34.05191 182.9932 32.54068 184.05086 31.06277 185.10869 29.6315 186.16652 28.24242 187.22418 26.89886 188.28202 25.58862 189.33969 24.32169 190.39752 23.10027 191.45534 21.92215 192.51302 20.79068 193.57085 19.6914 194.62851 18.64764 195.68634 17.6361 196.74417 16.65785 197.80182 15.72624 198.85965 14.83684 199.91733 13.98184 200.97516 13.17128 202.03298 12.39401 203.09066 11.65005 204.14849 10.94441 205.20615 10.27138 206.26398 9.63133 207.32181 9.02335 208.37947 8.44672 209.4373 7.90005 210.49497 7.3824 211.5528 6.8927 212.61063 6.43 213.6683 5.99336 214.72614 5.58147 215.78379 5.19347 216.84162 4.82819 217.89945 4.4848 218.9571 4.16235 220.01494 3.85968 221.0726 3.57603 222.13043 3.3103 223.18827 3.06174 224.24593 2.82939 225.30376 2.61246 226.36142 2.41008 227.41925 2.22144 228.47708 2.04584 229.53476 1.88248 230.59259 1.73068 231.65026 1.5898 232.70809 1.45908 233.7659 1.338 234.82357 1.2259 235.8814 1.12224 236.93906 1.02647 237.99689 .93805 239.05472 .85652 240.11238 .7814 241.17021 .71228 242.22789 .64876 243.28572 .59027 244.34355 .53665 245.40122 .48753 246.45905 .44246 247.51671 .40128 248.57454 .36356 249.63237 .32916 250.69004 .29768 251.74785 .26907 252.80553 .24295"/>
<path transform="matrix(1.00002,0,0,-1.00006,3.29467,127.04965)" stroke-width=".3985" stroke-linecap="butt" stroke-dasharray="2.98883,2.98883" stroke-miterlimit="10" stroke-linejoin="miter" fill="none" stroke="#000000" d="M185.81342 0V28.69766"/>
<path transform="matrix(1.00002,0,0,-1.00006,3.29467,127.04965)" stroke-width=".3985" stroke-linecap="butt" stroke-dasharray="2.98883,2.98883" stroke-miterlimit="10" stroke-linejoin="miter" fill="none" stroke="#000000" d="M198.63437 0V15.02672"/>
<use data-text="&#x03b1;" xlink:href="#font_2_1" transform="matrix(9.962799,0,0,-9.963197,200.53363,93.01061)"/>
<use data-text="p" xlink:href="#font_5_84" transform="matrix(8.966579,0,0,-8.966938,212.74686,113.982868)"/>
<use data-text="-" xlink:href="#font_5_64" transform="matrix(8.966579,0,0,-8.966938,217.86676,113.982868)"/>
<use data-text="v" xlink:href="#font_5_112" transform="matrix(8.966579,0,0,-8.966938,220.9423,113.982868)"/>
<use data-text="a" xlink:href="#font_5_28" transform="matrix(8.966579,0,0,-8.966938,225.2911,113.982868)"/>
<use data-text="l" xlink:href="#font_5_72" transform="matrix(8.966579,0,0,-8.966938,229.89992,113.982868)"/>
<use data-text="u" xlink:href="#font_5_109" transform="matrix(8.966579,0,0,-8.966938,232.46436,113.982868)"/>
<use data-text="e" xlink:href="#font_5_50" transform="matrix(8.966579,0,0,-8.966938,237.58428,113.982868)"/>
<use data-text="z" xlink:href="#font_2_2" transform="matrix(9.962799,0,0,-9.963197,127.165149,150.24704)"/>
</svg>
