<svg xmlns="http://www.w3.org/2000/svg" xmlns:xlink="http://www.w3.org/1999/xlink" xmlns:inkscape="http://www.inkscape.org/namespaces/inkscape" version="1.1" width="243" height="155" viewBox="0 0 243 155">
<defs>
<path id="font_1_1" d="M.6589966 .23046875C.6759949 .23046875 .69400027 .23046875 .69400027 .25045777 .69400027 .27046205 .6759949 .27046205 .6589966 .27046205H.117996219C.100997928 .27046205 .08299255 .27046205 .08299255 .25045777 .08299255 .23046875 .100997928 .23046875 .117996219 .23046875H.6589966Z"/>
<path id="font_2_4" d="M.1329956 .08345032C.18699646 .14138794 .21598816 .16636658 .2519989 .19732666 .2519989 .19833374 .31399537 .25128175 .34999085 .2872467 .44499208 .3803711 .46699525 .42837525 .46699525 .43237306 .46699525 .4423828 .45799256 .4423828 .45599366 .4423828 .44898988 .4423828 .44599916 .44036866 .44099427 .43138124 .41099549 .38337709 .3899994 .3671875 .3659973 .3671875 .34199525 .3671875 .32998658 .38237 .31498719 .3993683 .29599 .42237855 .2789917 .4423828 .24598694 .4423828 .17098999 .4423828 .125 .34918214 .125 .3282013 .125 .3231964 .12799073 .31721498 .13699341 .31721498 .1459961 .31721498 .147995 .3222046 .1499939 .3282013 .16899109 .37434388 .22698975 .37538148 .23498535 .37538148 .2559967 .37538148 .2749939 .36820985 .2979889 .36018373 .33799745 .34518434 .34899903 .34518434 .375 .34518434 .33898927 .30223084 .25498963 .2303009 .23599243 .21430969L.1459961 .13040161C.07798767 .06341553 .042999269 .0062561037 .042999269-.00074768069 .042999269-.0107421879 .052993776-.0107421879 .054992677-.0107421879 .06298828-.0107421879 .06498718-.008743286 .070999149 .002243042 .09399414 .037246705 .12399292 .064453128 .1559906 .064453128 .1789856 .064453128 .18899536 .055252077 .21398926 .026245118 .23098755 .0052490236 .24899292-.0107421879 .27799989-.0107421879 .3769989-.0107421879 .43499757 .1164093 .43499757 .14338684 .43499757 .14837647 .43099977 .15338135 .4229889 .15338135 .4139862 .15338135 .4119873 .14738465 .40899659 .14039612 .38598634 .07543945 .32199098 .056243898 .2889862 .056243898 .2689972 .056243898 .25099183 .06239319 .22999573 .06944275 .19599915 .08244324 .18099976 .08644104 .1599884 .08644104 .1579895 .08644104 .14199829 .08644104 .1329956 .08345032Z"/>
<path id="font_3_1" d="M.5469971 .14128113C.6389923 .23632813 .6759949 .36938478 .6759949 .38038636 .6759949 .39338685 .6639862 .39338685 .6589966 .39338685 .644989 .39338685 .644989 .39038087 .6380005 .3683777 .6199951 .3023529 .58699038 .24131775 .54499819 .18730164 .5439911 .20230103 .5419922 .2693329 .5399933 .27833558 .5249939 .37738038 .44999696 .44140626 .34999085 .44140626 .20298767 .44140626 .06199646 .3043518 .06199646 .16429138 .06199646 .072250369 .1289978-.009765625 .24499512-.009765625 .33699037-.009765625 .41999818 .032226564 .47599793 .07525635 .49899293 .0022277833 .5499878-.009765625 .5799866-.009765625 .6380005-.009765625 .673996 .039230348 .673996 .0602417 .673996 .072250369 .6619873 .072250369 .6569977 .072250369 .6439972 .072250369 .6419983 .06825256 .6399994 .0622406 .6259918 .024230957 .59498599 .018234253 .58299258 .018234253 .56900027 .018234253 .5519867 .018234253 .5469971 .14128113M.46899415 .10726929C.37098695 .027236939 .28599549 .018234253 .24798584 .018234253 .18199158 .018234253 .14498902 .0622406 .14498902 .12927246 .14498902 .15829468 .15899658 .26733399 .21099854 .33636476 .25698854 .39639283 .31399537 .4133911 .34899903 .4133911 .42900086 .4133911 .45199586 .33636476 .45999146 .27433778 .46598817 .23132324 .46398927 .16029358 .46899415 .10726929Z"/>
<path id="font_3_2" d="M.5009918 .70599368C.5069885 .71899417 .5069885 .72099307 .5069885 .72499087 .5069885 .7409973 .49398805 .75 .48298646 .75 .46598817 .75 .46099855 .73799136 .45599366 .72499087L.08299255-.20600891C.07699585-.2190094 .07699585-.2210083 .07699585-.2250061 .07699585-.24101258 .08999634-.25 .100997928-.25 .117996219-.25 .12298584-.23800659 .12799073-.2250061L.5009918 .70599368Z"/>
<path id="font_4_1" d="M.5049896 .18203736H.47099305C.46798707 .16001892 .45799256 .100997928 .44499208 .09098816 .43699647 .084991458 .3600006 .084991458 .34599305 .084991458H.1619873C.2669983 .17803955 .3019867 .20603943 .3619995 .25306703 .43598939 .312088 .5049896 .374115 .5049896 .46914674 .5049896 .5900879 .39898683 .6640625 .2709961 .6640625 .14698792 .6640625 .06298828 .57710269 .06298828 .4851532 .06298828 .43414308 .10598755 .42915345 .115997318 .42915345 .13999939 .42915345 .16899109 .44615174 .16899109 .48214723 .16899109 .5001526 .1619873 .53515627 .10998535 .53515627 .14099121 .6060791 .20899964 .62805178 .2559967 .62805178 .35598756 .62805178 .4079895 .5501404 .4079895 .46914674 .4079895 .38212586 .34599305 .3130951 .31399537 .27708436L.07299805 .038986207C.06298828 .02999878 .06298828 .027999878 .06298828 0H.47499085L.5049896 .18203736Z"/>
<path id="font_5_1" d="M.45999146 .31976319C.45999146 .39982606 .45498658 .47988893 .41999818 .5539398 .37399293 .65000918 .2919922 .6660156 .25 .6660156 .18998719 .6660156 .116989139 .64001467 .07598877 .54693606 .04399109 .47789 .038986207 .39982606 .038986207 .31976319 .038986207 .24472046 .042999269 .15464783 .083999637 .07859802 .1269989-.0024719239 .19999695-.022460938 .24899292-.022460938 .30299378-.022460938 .3789978-.0014648438 .4229889 .09359741 .45498658 .16265869 .45999146 .2407074 .45999146 .31976319M.24899292-.00047302247C.20999146-.00047302247 .15098572 .024551392 .1329956 .12062073 .12199402 .18066406 .12199402 .2727356 .12199402 .3317871 .12199402 .39582826 .12199402 .46188355 .12998963 .5159149 .14898682 .63500979 .22399903 .64401248 .24899292 .64401248 .28199769 .64401248 .34799195 .6259918 .36698915 .52693179 .3769989 .47088624 .3769989 .39482118 .3769989 .3317871 .3769989 .25672914 .3769989 .18867493 .3659973 .12461853 .35099793 .029556275 .2939911-.00047302247 .24899292-.00047302247Z"/>
<path id="font_2_3" d="M.7599945 .69506838C.7599945 .69807437 .7579956 .7050781 .7489929 .7050781 .74598696 .7050781 .7449951 .70407107 .73399356 .69306948L.6639862 .61602786C.6549988 .6300354 .60899356 .7050781 .49798585 .7050781 .2749939 .7050781 .049987794 .48391725 .049987794 .25172425 .049987794 .08659363 .16799927-.022460938 .32099916-.022460938 .4079895-.022460938 .48399354 .017532349 .5369873 .063583377 .6299896 .14564514 .6469879 .2367096 .6469879 .23971558 .6469879 .24972534 .6369934 .24972534 .6349945 .24972534 .6289978 .24972534 .6239929 .24772644 .621994 .23971558 .61299136 .21069336 .58999636 .13963318 .5209961 .081588748 .45199586 .025543213 .3889923 .008529663 .33699037 .008529663 .24699402 .008529663 .14099121 .060577394 .14099121 .21670532 .14099121 .27374269 .1619873 .43588258 .2619934 .55296328 .32299806 .62402346 .4169922 .67407229 .5059967 .67407229 .60798647 .67407229 .6669922 .5970001 .6669922 .48091126 .6669922 .44088746 .6639862 .43988038 .6639862 .4298706 .6639862 .41986085 .6749878 .41986085 .67900088 .41986085 .69200137 .41986085 .69200137 .42185975 .69699099 .43988038L.7599945 .69506838Z"/>
<path id="font_2_1" d="M.47698976 .23631287C.47698976 .39337159 .38398744 .4423828 .30999757 .4423828 .17298889 .4423828 .040985109 .29933167 .040985109 .15829468 .040985109 .06526184 .100997928-.0107421879 .20298767-.0107421879 .2659912-.0107421879 .33799745 .012252808 .4139862 .073272708 .4269867 .020248414 .45999146-.0107421879 .5049896-.0107421879 .55799868-.0107421879 .58898928 .044265748 .58898928 .060272218 .58898928 .06726074 .58299258 .07026672 .57699587 .07026672 .56999209 .07026672 .5669861 .06726074 .56399539 .060272218 .54599 .011245728 .5099945 .011245728 .5079956 .011245728 .47698976 .011245728 .47698976 .089279178 .47698976 .11328125 .47698976 .1342926 .47698976 .1362915 .4869995 .14828491 .58099368 .2663269 .60198977 .38235475 .60198977 .38336183 .60198977 .38536073 .6009979 .39337159 .58999636 .39337159 .5799866 .39337159 .5799866 .3903656 .57499697 .37236024 .5569916 .30934144 .5239868 .23332215 .47698976 .17430115V.23631287M.4099884 .09927368C.32199098 .022247315 .24499512 .011245728 .20498657 .011245728 .14498902 .011245728 .114990238 .056259157 .114990238 .120285037 .114990238 .16929627 .14099121 .2773285 .17298889 .32833863 .21998596 .4013672 .27398683 .42037965 .30899049 .42037965 .4079895 .42037965 .4079895 .28933717 .4079895 .21130371 .4079895 .17430115 .4079895 .11628723 .4099884 .09927368Z"/>
<path id="font_2_2" d="M.43899537 .71199038C.44400025 .72499087 .44400025 .72898867 .44400025 .7299957 .44400025 .7409973 .43499757 .75 .42399598 .75 .4169922 .75 .4099884 .746994 .40699769 .7409973L.05999756-.21200562C.054992677-.2250061 .054992677-.2290039 .054992677-.23001099 .054992677-.24101258 .06399536-.25 .07499695-.25 .08799744-.25 .09098816-.24301148 .09700012-.22601319L.43899537 .71199038Z"/>
<path id="font_5_2" d="M.1269989 .07699585 .23298645 .18003845C.3889923 .31811524 .44898988 .3721466 .44898988 .47216798 .44898988 .5860901 .35899354 .6660156 .23699951 .6660156 .12399292 .6660156 .049987794 .57411196 .049987794 .48516847 .049987794 .4291687 .099990848 .4291687 .102996829 .4291687 .11999512 .4291687 .15499878 .44117738 .15499878 .48217774 .15499878 .5081787 .13699341 .5341797 .101989749 .5341797 .09399414 .5341797 .09199524 .5341797 .08898926 .5331726 .11199951 .59806826 .1659851 .63500979 .22399903 .63500979 .31498719 .63500979 .35798646 .5541382 .35798646 .47216798 .35798646 .39215089 .30799867 .31311036 .25299073 .25108338L.06098938 .036987306C.049987794 .025985718 .049987794 .023986817 .049987794 0H.42099L.44898988 .17404175H.42399598C.4189911 .14402771 .4119873 .1000061 .4019928 .084991458 .394989 .07699585 .32899476 .07699585 .30699159 .07699585H.1269989Z"/>
</defs>
<path transform="matrix(1.00005,0,0,-1.00002,3.295166,127.04223)" stroke-width=".19925" stroke-linecap="butt" stroke-miterlimit="10" stroke-linejoin="miter" fill="none" stroke="#7f807f" d="M52.49927-2.12596V2.12596M119.31651-2.12596V2.12596M186.13378-2.12596V2.12596"/>
<path transform="matrix(1.00005,0,0,-1.00002,3.295166,127.04223)" stroke-width=".19925" stroke-linecap="butt" stroke-miterlimit="10" stroke-linejoin="miter" fill="none" stroke="#7f807f" d=""/>
<path transform="matrix(1.00005,0,0,-1.00002,3.295166,127.04223)" stroke-width=".3985" stroke-linecap="butt" stroke-miterlimit="10" stroke-linejoin="miter" fill="none" stroke="#000000" d="M0 0H236.64052"/>
<path transform="matrix(1.00005,0,0,-1.00002,239.94751,127.04223)" d="M1.99252 0-1.19551 1.59401 0 0-1.19551-1.59401"/>
<path transform="matrix(1.00005,0,0,-1.00002,3.295166,127.04223)" stroke-width=".3985" stroke-linecap="butt" stroke-miterlimit="10" stroke-linejoin="miter" fill="none" stroke="#000000" d="M0 0V123.25049"/>
<path transform="matrix(0,-1.00002,-1.00005,-0,3.295166,3.7892686)" d="M1.99252 0-1.19551 1.59401 0 0-1.19551-1.59401"/>
<use data-text="&#x2212;" xlink:href="#font_1_1" transform="matrix(9.963098,0,0,-9.962799,42.740137,138.49945)"/>
<use data-text="z" xlink:href="#font_2_4" transform="matrix(9.963098,0,0,-9.962799,50.488527,138.49945)"/>
<use data-text="&#x03b1;" xlink:href="#font_3_1" transform="matrix(6.9741489,0,0,-6.97394,55.122758,140.2985)"/>
<use data-text="/" xlink:href="#font_3_2" transform="matrix(6.9741489,0,0,-6.97394,60.297578,140.2985)"/>
<use data-text="2" xlink:href="#font_4_1" transform="matrix(6.9741489,0,0,-6.97394,64.384227,140.2985)"/>
<use data-text="0" xlink:href="#font_5_1" transform="matrix(9.963098,0,0,-9.962799,120.127,139.10848)"/>
<use data-text="z" xlink:href="#font_2_4" transform="matrix(9.963098,0,0,-9.962799,180.256,136.97743)"/>
<use data-text="&#x03b1;" xlink:href="#font_3_1" transform="matrix(6.9741489,0,0,-6.97394,184.88922,138.77648)"/>
<use data-text="/" xlink:href="#font_3_2" transform="matrix(6.9741489,0,0,-6.97394,190.06406,138.77648)"/>
<use data-text="2" xlink:href="#font_4_1" transform="matrix(6.9741489,0,0,-6.97394,194.1507,138.77648)"/>
<path transform="matrix(1.00005,0,0,-1.00002,3.295166,127.04223)" d="M52.49927 16.25812 53.33972 17.06981 54.18019 17.8915 55.02066 18.74759 55.86113 19.63478 56.7016 20.5564 57.54207 21.50021 58.38254 22.47845 59.223 23.4778 60.06348 24.52155 60.90395 25.58862 61.74442 26.67677 62.58488 27.81049 63.42535 28.96417 64.26582 30.14117 65.1063 31.3637 65.94675 32.60732 66.78723 33.88425 67.6277 35.1834 68.46817 36.50584 69.30864 37.87271 70.14911 39.2507 70.98956 40.65974 71.83003 42.09325 72.67052 43.54674 73.51099 45.02464 74.35146 46.53587 75.19191 48.05708 76.03238 49.60051 76.87285 51.16614 77.71333 52.74287 78.5538 54.3307 79.39427 55.94188 80.23473 57.56412 81.0752 59.1975 81.91566 60.84085 82.75615 62.48419 83.5966 64.13979 84.43707 65.80536 85.27754 67.45981 86.11801 69.12538 86.95848 70.78093 87.79895 72.43428 88.63942 74.07986 89.47989 75.72324 90.32036 77.34439 91.16083 78.96666 92.0013 80.5656 92.84177 82.14343 93.68225 83.70906 94.5227 85.25249 95.36317 86.76372 96.20364 88.2505 97.04411 89.7162 97.88457 91.1386 98.72507 92.53767 99.56552 93.90454 100.40599 95.22589 101.24646 96.50394 102.08693 97.74756 102.92738 98.93454 103.76787 100.09045 104.60834 101.19084 105.4488 102.24568 106.28928 103.24503 107.12973 104.18884 107.9702 105.07716 108.81067 105.91104 109.65115 106.6883 110.49162 107.39783 111.33209 108.05408 112.17255 108.64145 113.01302 109.17555 113.85349 109.6419 114.69397 110.04164 115.53444 110.37476 116.37491 110.64125 117.21536 110.85332 118.05583 110.98657 118.8963 111.05324H119.73679L120.57726 110.98657 121.41771 110.85332 122.25818 110.64125 123.09865 110.37476 123.93912 110.04164 124.77959 109.6419 125.62007 109.17555 126.46053 108.64145 127.301 108.05408 128.14147 107.39783 128.98194 106.6883 129.82239 105.91104 130.66287 105.07716 131.50334 104.18884 132.34381 103.24503 133.18428 102.24568 134.02475 101.19084 134.86522 100.09045 135.70569 98.93454 136.54616 97.74756 137.38668 96.50394 138.22707 95.22589 139.06758 93.90454 139.90798 92.53767 140.7485 91.1386 141.58902 89.7162 142.42942 88.2505 143.26993 86.76372 144.11032 85.25249 144.95084 83.70906 145.79135 82.14343 146.63176 80.5656 147.47228 78.96666 148.31267 77.34439 149.15319 75.72324 149.9937 74.07986 150.83409 72.43428 151.67462 70.78093 152.51502 69.12538 153.35553 67.45981 154.19605 65.80536 155.03644 64.13979 155.87696 62.48419 156.71736 60.84085 157.55788 59.1975 158.3984 57.56412 159.23879 55.94188 160.0793 54.3307 160.9197 52.74287 161.76024 51.16614 162.60074 49.60051 163.44113 48.05708 164.28166 46.53587 165.12204 45.02464 165.96256 43.54674 166.80309 42.09325 167.64348 40.65974 168.48401 39.2507 169.3244 37.87271 170.16492 36.50584 171.00543 35.1834 171.84583 33.88425 172.68636 32.60732 173.52674 31.3637 174.36727 30.14117 175.20778 28.96417 176.04816 27.81049 176.88869 26.67677 177.7291 25.58862 178.56961 24.52155 179.41013 23.4778 180.25052 22.47845 181.09104 21.50021 181.93143 20.5564 182.77194 19.63478 183.61248 18.74759 184.45287 17.8915 185.29338 17.06981 186.13378 16.25812V0H52.49927Z" fill="#bfbfff"/>
<path transform="matrix(1.00005,0,0,-1.00002,3.295166,127.04223)" stroke-width=".79701" stroke-linecap="butt" stroke-miterlimit="10" stroke-linejoin="miter" fill="none" stroke="#000000" d="M0 .24289 .99844 .26901 1.99689 .29767 2.99536 .3291 3.9938 .36351 4.99228 .40115 5.99072 .44237 6.98918 .48749 7.98764 .5366 8.9861 .5902 9.98456 .64864 10.98302 .71214 11.98148 .78128 12.97993 .85638 13.9784 .93791 14.97684 1.0263 15.97531 1.12209 16.97375 1.22572 17.97221 1.33781 18.97067 1.45888 19.96915 1.58955 20.96759 1.73045 21.96605 1.8822 22.96451 2.04556 23.96297 2.22115 24.96143 2.4097 25.95988 2.61208 26.95834 2.829 27.9568 3.0613 28.95525 3.30986 29.9537 3.57555 30.95218 3.85919 31.95062 4.16177 32.94908 4.48431 33.94754 4.82759 34.94601 5.19283 35.94446 5.58081 36.94292 5.99263 37.94138 6.42937 38.93983 6.89198 39.9383 7.38152 40.93675 7.89915 41.93521 8.4458 42.93367 9.02242 43.93211 9.63023 44.93057 10.27014 45.92905 10.94337 46.92749 11.65005 47.92595 12.39401 48.92441 13.17128 49.92287 13.98184 50.92133 14.83684 51.91978 15.72624 52.91824 16.65785 53.9167 17.6261 54.91516 18.64764 55.91362 19.6914 56.91208 20.79068 57.91054 21.92215 58.90898 23.10027 59.90744 24.32169 60.9059 25.58862 61.90436 26.88887 62.90282 28.24242 63.90128 29.6315 64.89973 31.06277 65.8982 32.53069 66.89665 34.05191 67.89511 35.59534 68.89357 37.19539 69.89201 38.8265 70.89049 40.49431 71.88893 42.19318 72.8874 43.92427 73.88585 45.70198 74.88431 47.5019 75.88277 49.32292 76.88123 51.17725 77.87968 53.0549 78.87814 54.95474 79.8766 56.8757 80.87505 58.80777 81.87352 60.75092 82.87196 62.71739 83.87044 64.68277 84.86888 66.66034 85.86736 68.6257 86.8658 70.60329 87.86426 72.55865 88.86272 74.51181 89.86118 76.46718 90.85963 78.38812 91.85808 80.288 92.85655 82.17564 93.855 84.02997 94.85347 85.85208 95.85191 87.6409 96.85039 89.3853 97.84883 91.08418 98.8473 92.73753 99.84575 94.34868 100.84427 95.8921 101.84264 97.39113 102.84114 98.82463 103.83952 100.17818 104.83803 101.47842 105.83656 102.71205 106.83492 103.85573 107.83345 104.9328 108.8318 105.93324 109.83034 106.84264 110.82884 107.66655 111.82722 108.4094 112.82573 109.06563 113.8241 109.6319 114.82262 110.09715 115.82114 110.47469 116.8195 110.7634 117.81801 110.95326 118.81639 111.05324H119.8149L120.81342 110.95326 121.81178 110.7634 122.81032 110.47469 123.80867 110.09715 124.80719 109.6319 125.80571 109.06563 126.80408 108.4094 127.8026 107.67654 128.80097 106.84264 129.79949 105.93324 130.798 104.9328 131.79637 103.85573 132.79488 102.71205 133.79325 101.49062 134.79177 100.1904 135.79029 98.82463 136.78865 97.39113 137.78717 95.90433 138.78554 94.34868 139.78406 92.74974 140.78258 91.08418 141.78095 89.3853 142.77947 87.6409 143.77783 85.85208 144.77635 84.02997 145.77487 82.17564 146.77323 80.3002 147.77175 78.38812 148.77011 76.46718 149.76863 74.52403 150.76715 72.56865 151.76552 70.60329 152.76404 68.6257 153.7624 66.66034 154.76093 64.68277 155.75945 62.71739 156.75782 60.76314 157.75632 58.80777 158.7547 56.8757 159.75322 54.95474 160.75173 53.0549 161.75009 51.17725 162.74861 49.32292 163.74698 47.5019 164.7455 45.70198 165.74402 43.93648 166.74237 42.19318 167.7409 40.49431 168.73928 38.8265 169.7378 37.19539 170.7363 35.60532 171.73468 34.05191 172.73319 32.54068 173.73157 31.06277 174.73007 29.6315 175.72859 28.24242 176.72696 26.89886 177.72548 25.58862 178.72385 24.32169 179.72237 23.10027 180.72089 21.92215 181.71924 20.79068 182.71778 19.6914 183.71613 18.64764 184.71466 17.6361 185.71317 16.65785 186.71155 15.72624 187.71006 14.83684 188.70844 13.98184 189.70694 13.17128 190.70545 12.39401 191.70383 11.65005 192.70235 10.94441 193.70072 10.27138 194.69922 9.63133 195.69776 9.02335 196.6961 8.44672 197.69464 7.90005 198.693 7.3824 199.69153 6.8927 200.69004 6.43 201.68842 5.99336 202.68692 5.58147 203.68529 5.19347 204.6838 4.82819 205.68231 4.4848 206.6807 4.16235 207.6792 3.85968 208.67758 3.57603 209.67609 3.3103 210.67462 3.06174 211.67298 2.82939 212.67151 2.61246 213.66986 2.41008 214.66838 2.22144 215.6669 2.04584 216.66527 1.88248 217.66379 1.73068 218.66216 1.5898 219.66068 1.45908 220.65918 1.338 221.65756 1.2259 222.65607 1.12224 223.65445 1.02647 224.65296 .93805 225.65149 .85652 226.64984 .7814 227.64836 .71228 228.64673 .64876 229.64527 .59027 230.64377 .53665 231.64214 .48753 232.64066 .44246 233.63903 .40128 234.63755 .36356 235.63605 .32916 236.63442 .29768 237.63294 .26907 238.63132 .24295"/>
<path transform="matrix(1.00005,0,0,-1.00002,3.295166,127.04223)" stroke-width=".3985" stroke-linecap="butt" stroke-dasharray="2.98883,2.98883" stroke-miterlimit="10" stroke-linejoin="miter" fill="none" stroke="#000000" d="M52.49927 0V16.25812"/>
<path transform="matrix(1.00005,0,0,-1.00002,3.295166,127.04223)" stroke-width=".3985" stroke-linecap="butt" stroke-dasharray="2.98883,2.98883" stroke-miterlimit="10" stroke-linejoin="miter" fill="none" stroke="#000000" d="M186.13378 0V16.25812"/>
<use data-text="C" xlink:href="#font_2_3" transform="matrix(9.963098,0,0,-9.962799,118.700939,83.13135)"/>
<use data-text="&#x03b1;" xlink:href="#font_2_1" transform="matrix(9.963098,0,0,-9.962799,24.086205,112.83395)"/>
<use data-text="/" xlink:href="#font_2_2" transform="matrix(9.963098,0,0,-9.962799,30.482514,112.83395)"/>
<use data-text="2" xlink:href="#font_5_2" transform="matrix(9.963098,0,0,-9.962799,35.477777,112.83395)"/>
<use data-text="&#x03b1;" xlink:href="#font_2_1" transform="matrix(9.963098,0,0,-9.962799,204.77523,112.83395)"/>
<use data-text="/" xlink:href="#font_2_2" transform="matrix(9.963098,0,0,-9.962799,211.17154,112.83395)"/>
<use data-text="2" xlink:href="#font_5_2" transform="matrix(9.963098,0,0,-9.962799,216.1668,112.83395)"/>
<use data-text="z" xlink:href="#font_2_4" transform="matrix(9.963098,0,0,-9.962799,120.082,153.17276)"/>
</svg>
